<svg width="1440" height="851" viewBox="0 0 1440 851" fill="none" xmlns="http://www.w3.org/2000/svg">
<mask id="mask0" mask-type="alpha" maskUnits="userSpaceOnUse" x="0" y="0" width="1440" height="851">
<rect width="1440" height="851" fill="#C4C4C4"/>
</mask>
<g mask="url(#mask0)">
<mask id="mask1" mask-type="alpha" maskUnits="userSpaceOnUse" x="-73" y="-92" width="1637" height="994">
<path d="M1440.46 -91.9999C1440.46 -91.9999 1392.95 -91.9999 1124.48 -91.9999C831.276 -91.9999 605.207 -91.9999 333.244 -91.9999C61.281 -91.9999 0.0222168 -91.9999 0.0222168 -91.9999L-73.0001 902C-73.0001 902 52.131 762.18 333.244 700C614.357 637.82 893.575 780.857 1170.38 726.914C1447.18 672.971 1563 512.489 1563 512.489L1440.46 -91.9999Z" fill="#C4C4C4"/>
</mask>
<g mask="url(#mask1)">
<g clip-path="url(#clip0)">
<path d="M1443 -175H-63V851H1443V-175Z" fill="url(#paint0_radial)"/>
<path d="M14.5 10C14.5 10 15.6863 13.1765 16.4412 13.8824C17.1961 14.7059 20 16 20 16C20 16 17.0882 17.2941 16.4412 18.1176C15.6863 18.9412 14.5 22 14.5 22C14.5 22 13.3137 18.8235 12.5588 18.1176C11.8039 17.2941 9 16 9 16C9 16 11.9118 14.7059 12.5588 13.8824C13.2059 13.1765 14.5 10 14.5 10Z" fill="white"/>
<path d="M1425 22C1425 22 1426.29 25.1765 1427.12 25.8824C1427.94 26.7059 1431 28 1431 28C1431 28 1427.82 29.2941 1427.12 30.1176C1426.29 30.9412 1425 34 1425 34C1425 34 1423.71 30.8235 1422.88 30.1176C1422.06 29.2941 1419 28 1419 28C1419 28 1422.18 26.7059 1422.88 25.8824C1423.71 25.1765 1425 22 1425 22Z" fill="white"/>
<path d="M1170.5 316C1170.5 316 1171.51 318.329 1172.09 318.912C1172.67 319.494 1175 320.5 1175 320.5C1175 320.5 1172.67 321.506 1172.09 322.088C1171.51 322.671 1170.5 325 1170.5 325C1170.5 325 1169.49 322.671 1168.91 322.088C1168.33 321.506 1166 320.5 1166 320.5C1166 320.5 1168.33 319.494 1168.91 318.912C1169.49 318.329 1170.5 316 1170.5 316Z" fill="white"/>
<path d="M979.202 613.442C979.202 613.442 981.36 618.738 982.733 619.915C984.106 621.288 989.206 623.445 989.206 623.445C989.206 623.445 983.91 625.603 982.733 626.976C981.36 628.349 979.202 633.449 979.202 633.449C979.202 633.449 977.045 628.153 975.672 626.976C974.299 625.603 969.199 623.445 969.199 623.445C969.199 623.445 974.495 621.288 975.672 619.915C977.045 618.738 979.202 613.442 979.202 613.442Z" fill="white"/>
<path d="M1007.5 383C1007.5 383 1008.25 384.853 1008.74 385.265C1009.22 385.745 1011 386.5 1011 386.5C1011 386.5 1009.15 387.255 1008.74 387.735C1008.25 388.216 1007.5 390 1007.5 390C1007.5 390 1006.75 388.147 1006.26 387.735C1005.78 387.255 1004 386.5 1004 386.5C1004 386.5 1005.85 385.745 1006.26 385.265C1006.75 384.853 1007.5 383 1007.5 383Z" fill="white"/>
<path d="M1312.64 577.155C1312.64 577.155 1314.8 582.451 1316.17 583.628C1317.54 585.001 1322.64 587.158 1322.64 587.158C1322.64 587.158 1317.35 589.316 1316.17 590.689C1314.8 592.062 1312.64 597.162 1312.64 597.162C1312.64 597.162 1310.48 591.866 1309.11 590.689C1307.73 589.316 1302.63 587.158 1302.63 587.158C1302.63 587.158 1307.93 585.001 1309.11 583.628C1310.28 582.451 1312.64 577.155 1312.64 577.155Z" fill="white"/>
<path d="M1336.18 464.175C1336.18 464.175 1339.9 472.805 1342.06 474.963C1344.22 477.12 1352.85 480.847 1352.85 480.847C1352.85 480.847 1344.22 484.574 1342.06 486.732C1339.9 488.889 1336.18 497.52 1336.18 497.52C1336.18 497.52 1332.45 488.889 1330.29 486.732C1328.13 484.574 1319.5 480.847 1319.5 480.847C1319.5 480.847 1328.13 477.12 1330.29 474.963C1332.45 472.805 1336.18 464.175 1336.18 464.175Z" fill="white"/>
<path opacity="0.5" d="M1348.53 664.047C1348.53 664.047 1352.26 672.678 1354.42 674.835C1356.57 676.993 1365.2 680.72 1365.2 680.72C1365.2 680.72 1356.57 684.446 1354.42 686.604C1352.26 688.762 1348.53 697.392 1348.53 697.392C1348.53 697.392 1344.8 688.762 1342.65 686.604C1340.49 684.446 1331.86 680.72 1331.86 680.72C1331.86 680.72 1340.49 676.993 1342.65 674.835C1344.8 672.678 1348.53 664.047 1348.53 664.047Z" fill="white"/>
<path d="M584.767 588.531C584.767 588.531 586.336 592.258 587.317 593.239C588.297 594.22 592.024 595.789 592.024 595.789C592.024 595.789 588.297 597.358 587.317 598.338C586.336 599.319 584.767 603.046 584.767 603.046C584.767 603.046 583.198 599.319 582.217 598.338C581.236 597.358 577.51 595.789 577.51 595.789C577.51 595.789 581.236 594.22 582.217 593.239C583.198 592.454 584.767 588.531 584.767 588.531Z" fill="white"/>
<path d="M605.165 416.708C605.165 416.708 606.734 420.434 607.715 421.415C608.696 422.396 612.423 423.965 612.423 423.965C612.423 423.965 608.696 425.534 607.715 426.515C606.734 427.496 605.165 431.222 605.165 431.222C605.165 431.222 603.596 427.496 602.616 426.515C601.635 425.534 597.908 423.965 597.908 423.965C597.908 423.965 601.635 422.396 602.616 421.415C603.4 420.434 605.165 416.708 605.165 416.708Z" fill="white"/>
<path d="M826.606 562.248C826.606 562.248 828.175 565.974 829.156 566.955C830.136 567.936 833.863 569.505 833.863 569.505C833.863 569.505 830.136 571.074 829.156 572.055C828.175 573.036 826.606 576.762 826.606 576.762C826.606 576.762 825.037 573.036 824.056 572.055C823.075 571.074 819.349 569.505 819.349 569.505C819.349 569.505 823.075 567.936 824.056 566.955C825.037 565.974 826.606 562.248 826.606 562.248Z" fill="white"/>
<path d="M843.867 480.259C843.867 480.259 846.612 486.535 848.182 488.105C849.751 489.674 856.027 492.42 856.027 492.42C856.027 492.42 849.751 495.166 848.182 496.735C846.612 498.304 843.867 504.581 843.867 504.581C843.867 504.581 841.121 498.304 839.552 496.735C837.982 495.166 831.706 492.42 831.706 492.42C831.706 492.42 837.982 489.674 839.552 488.105C841.121 486.535 843.867 480.259 843.867 480.259Z" fill="white"/>
<path opacity="0.5" d="M852.5 629C852.5 629 854.419 633.387 855.516 634.484C856.613 635.581 861 637.5 861 637.5C861 637.5 856.613 639.419 855.516 640.516C854.419 641.613 852.5 646 852.5 646C852.5 646 850.581 641.613 849.484 640.516C848.387 639.419 844 637.5 844 637.5C844 637.5 848.387 635.581 849.484 634.484C850.581 633.387 852.5 629 852.5 629Z" fill="white"/>
<path d="M539.851 465.548C539.851 465.548 542.597 471.825 544.166 473.394C545.735 474.963 552.012 477.709 552.012 477.709C552.012 477.709 545.735 480.455 544.166 482.024C542.597 483.593 539.851 489.87 539.851 489.87C539.851 489.87 537.105 483.593 535.536 482.024C533.967 480.455 527.69 477.709 527.69 477.709C527.69 477.709 533.967 474.963 535.536 473.394C537.301 471.825 539.851 465.548 539.851 465.548Z" fill="white"/>
<path d="M706 156C706 156 706.615 154.462 706.615 154C706.615 153.462 706 152 706 152C706 152 707.538 152.615 708 152.615C708.538 152.615 710 152 710 152C710 152 709.385 153.538 709.385 154C709.385 154.538 710 156 710 156C710 156 708.462 155.385 708 155.385C707.538 155.385 706 156 706 156Z" fill="white"/>
<path opacity="0.5" d="M789 159C789 159 789.886 161.25 789.886 162C789.886 162.75 789 165 789 165C789 165 791.25 164.114 792 164.114C792.75 164.114 795 165 795 165C795 165 794.114 162.75 794.114 162C794.114 161.25 795 159 795 159C795 159 792.75 159.886 792 159.886C791.25 159.818 789 159 789 159Z" fill="white"/>
<path opacity="0.5" d="M1075 652.122C1075 652.122 1077.16 646.827 1077.16 645.061C1077.16 643.296 1075 638 1075 638C1075 638 1080.3 640.158 1082.06 640.158C1083.83 640.158 1089.12 638 1089.12 638C1089.12 638 1086.96 643.296 1086.96 645.061C1086.96 646.827 1089.12 652.122 1089.12 652.122C1089.12 652.122 1083.83 649.965 1082.06 649.965C1080.3 649.965 1075 652.122 1075 652.122Z" fill="white"/>
<path d="M1371 317C1371 317 1371.59 315.156 1371.59 314.5C1371.59 313.844 1371 312 1371 312C1371 312 1372.48 312.738 1373 312.738C1373.52 312.738 1375 312 1375 312C1375 312 1374.41 313.844 1374.41 314.5C1374.41 315.156 1375 317 1375 317C1375 317 1373.52 316.262 1373 316.262C1372.44 316.262 1371 317 1371 317Z" fill="white"/>
<path d="M248.389 736.621C248.389 736.621 250.546 731.325 250.546 729.56C250.546 727.795 248.389 722.499 248.389 722.499C248.389 722.499 253.684 724.656 255.45 724.656C257.215 724.656 262.511 722.499 262.511 722.499C262.511 722.499 260.353 727.795 260.353 729.56C260.353 731.325 262.511 736.621 262.511 736.621C262.511 736.621 257.215 734.464 255.45 734.464C253.684 734.464 248.389 736.621 248.389 736.621Z" fill="white"/>
<path d="M66 547C66 547 67.0694 544.375 67.0694 543.5C67.0694 542.625 66 540 66 540C66 540 68.625 541.069 69.5 541.069C70.375 541.069 73 540 73 540C73 540 71.9305 542.625 71.9305 543.5C71.9305 544.375 73 547 73 547C73 547 70.375 545.931 69.5 545.931C68.625 545.931 66 547 66 547Z" fill="white"/>
<path opacity="0.5" d="M85 434C85 434 86.3279 431.049 86.3279 430C86.3279 428.951 85 426 85 426C85 426 88.3197 427.18 89.5 427.18C90.6803 427.18 94 426 94 426C94 426 92.6721 428.951 92.6721 430C92.6721 431.049 94 434 94 434C94 434 90.6803 432.82 89.5 432.82C88.3197 432.82 85 434 85 434Z" fill="white" fill-opacity="0.5"/>
<path d="M726 382C726 382 726.59 380.525 726.59 380C726.59 379.475 726 378 726 378C726 378 727.475 378.59 728 378.59C728.525 378.59 730 378 730 378C730 378 729.41 379.475 729.41 380C729.41 380.525 730 382 730 382C730 382 728.525 381.41 728 381.41C727.475 381.41 726 382 726 382Z" fill="white"/>
<path d="M359.6 752.509C359.6 752.509 363.13 743.682 363.13 740.544C363.13 737.406 359.6 728.579 359.6 728.579C359.6 728.579 368.426 732.11 371.564 732.11C374.702 732.11 383.529 728.579 383.529 728.579C383.529 728.579 379.998 737.406 379.998 740.544C379.998 743.682 383.529 752.509 383.529 752.509C383.529 752.509 374.702 748.978 371.564 748.978C368.426 748.978 359.6 752.509 359.6 752.509Z" fill="white"/>
<path opacity="0.5" d="M423.344 143.281C426.483 143.281 429.032 140.731 429.032 137.592C429.032 134.454 426.483 131.904 423.344 131.904C420.206 131.904 417.656 134.454 417.656 137.592C417.656 140.731 420.206 143.281 423.344 143.281Z" fill="url(#paint1_radial)"/>
<path opacity="0.5" d="M409.419 18.9243C409.419 18.9243 410.596 15.9822 411.38 15.3937C412.165 14.6092 414.911 13.4323 414.911 13.4323C414.911 13.4323 411.968 12.2554 411.38 11.4708C410.596 10.6862 409.419 7.94019 409.419 7.94019C409.419 7.94019 408.242 10.8824 407.457 11.4708C406.673 12.2554 403.927 13.4323 403.927 13.4323C403.927 13.4323 406.869 14.6092 407.457 15.3937C408.046 16.1783 409.419 18.9243 409.419 18.9243Z" fill="url(#paint2_radial)"/>
<path opacity="0.5" d="M59.3102 190.551C59.3102 190.551 60.4871 187.609 61.2716 187.021C62.0562 186.236 64.8021 185.059 64.8021 185.059C64.8021 185.059 61.86 183.883 61.2716 183.098C60.4871 182.313 59.3102 179.567 59.3102 179.567C59.3102 179.567 58.1334 182.51 57.3489 183.098C56.5643 183.883 53.8184 185.059 53.8184 185.059C53.8184 185.059 56.7604 186.236 57.3489 187.021C58.1334 187.609 59.3102 190.551 59.3102 190.551Z" fill="url(#paint3_radial)"/>
<path opacity="0.5" d="M1297.14 651.494C1300.28 651.494 1302.83 648.944 1302.83 645.806C1302.83 642.668 1300.28 640.118 1297.14 640.118C1294 640.118 1291.46 642.668 1291.46 645.806C1291.46 648.944 1294 651.494 1297.14 651.494Z" fill="url(#paint4_radial)"/>
<path opacity="0.5" d="M1205.55 342.761C1205.55 342.761 1206.72 339.818 1207.51 339.23C1208.29 338.445 1211.04 337.269 1211.04 337.269C1211.04 337.269 1208.1 336.092 1207.51 335.307C1206.72 334.522 1205.55 331.776 1205.55 331.776C1205.55 331.776 1204.37 334.719 1203.59 335.307C1202.8 336.092 1200.05 337.269 1200.05 337.269C1200.05 337.269 1203 338.445 1203.59 339.23C1204.37 340.015 1205.55 342.761 1205.55 342.761Z" fill="url(#paint5_radial)"/>
<path opacity="0.5" d="M1360.5 450.641C1360.5 450.641 1361.67 447.699 1362.46 447.11C1363.24 446.326 1365.99 445.149 1365.99 445.149C1365.99 445.149 1363.05 443.972 1362.46 443.187C1361.67 442.403 1360.5 439.657 1360.5 439.657C1360.5 439.657 1359.32 442.599 1358.53 443.187C1357.75 443.972 1355 445.149 1355 445.149C1355 445.149 1357.95 446.326 1358.53 447.11C1359.32 447.699 1360.5 450.641 1360.5 450.641Z" fill="url(#paint6_radial)"/>
<path opacity="0.5" d="M1283.22 527.137C1283.22 527.137 1284.39 524.195 1285.18 523.607C1285.96 522.822 1288.71 521.645 1288.71 521.645C1288.71 521.645 1285.77 520.469 1285.18 519.684C1284.39 518.899 1283.22 516.153 1283.22 516.153C1283.22 516.153 1282.04 519.096 1281.26 519.684C1280.47 520.469 1277.72 521.645 1277.72 521.645C1277.72 521.645 1280.67 522.822 1281.26 523.607C1282.04 524.391 1283.22 527.137 1283.22 527.137Z" fill="url(#paint7_radial)"/>
<path opacity="0.5" d="M933.305 698.765C933.305 698.765 934.482 695.823 935.267 695.235C936.051 694.45 938.797 693.273 938.797 693.273C938.797 693.273 935.855 692.096 935.267 691.312C934.482 690.527 933.305 687.781 933.305 687.781C933.305 687.781 932.129 690.723 931.344 691.312C930.559 692.096 927.813 693.273 927.813 693.273C927.813 693.273 930.756 694.45 931.344 695.235C931.932 695.823 933.305 698.765 933.305 698.765Z" fill="url(#paint8_radial)"/>
<path opacity="0.5" d="M998.424 445.149C998.424 445.149 999.601 442.207 1000.39 441.618C1001.17 440.834 1003.92 439.657 1003.92 439.657C1003.92 439.657 1000.97 438.48 1000.39 437.695C999.601 436.911 998.424 434.165 998.424 434.165C998.424 434.165 997.247 437.107 996.462 437.695C995.678 438.48 992.932 439.657 992.932 439.657C992.932 439.657 995.874 440.834 996.462 441.618C997.051 442.207 998.424 445.149 998.424 445.149Z" fill="url(#paint9_radial)"/>
<path d="M964.884 528.315C964.884 529.295 964.099 530.276 962.922 530.276C961.942 530.276 960.961 529.492 960.961 528.315C960.961 527.138 961.746 526.353 962.922 526.353C964.099 526.549 964.884 527.334 964.884 528.315ZM979.987 493.989C977.829 493.989 976.26 495.755 976.26 497.716C976.26 499.874 978.025 501.443 979.987 501.443C982.144 501.443 983.713 499.677 983.713 497.716C983.713 495.755 981.948 493.989 979.987 493.989ZM987.44 539.103C983.321 539.103 979.987 542.437 979.987 546.556C979.987 550.675 983.321 554.01 987.44 554.01C991.559 554.01 994.893 550.675 994.893 546.556C994.893 542.437 991.559 539.103 987.44 539.103ZM922.518 547.733C920.36 547.733 918.791 549.498 918.791 551.46C918.791 553.618 920.556 555.187 922.518 555.187C924.675 555.187 926.244 553.421 926.244 551.46C926.244 549.498 924.479 547.733 922.518 547.733Z" fill="url(#paint10_radial)"/>
<path d="M1296.38 395.224C1296.38 394.734 1296.67 394.243 1297.25 394.243C1297.73 394.243 1298.21 394.537 1298.21 395.126C1298.21 395.617 1297.92 396.108 1297.34 396.108C1296.86 396.108 1296.48 395.715 1296.38 395.224ZM1290.52 412.992C1291.58 412.894 1292.25 412.01 1292.16 410.93C1292.06 409.851 1291.2 409.163 1290.14 409.262C1289.08 409.36 1288.41 410.243 1288.51 411.323C1288.6 412.305 1289.47 413.09 1290.52 412.992ZM1284.95 390.807C1286.97 390.611 1288.51 388.844 1288.32 386.782C1288.12 384.721 1286.39 383.15 1284.38 383.347C1282.36 383.543 1280.82 385.31 1281.02 387.371C1281.21 389.531 1282.94 391.003 1284.95 390.807ZM1316.36 383.739C1317.41 383.641 1318.09 382.758 1317.99 381.678C1317.89 380.598 1317.03 379.911 1315.97 380.009C1314.92 380.107 1314.25 380.991 1314.34 382.071C1314.44 383.052 1315.3 383.838 1316.36 383.739Z" fill="url(#paint11_radial)"/>
<path opacity="0.5" d="M815.426 616.188C817.78 616.188 819.545 614.422 819.545 612.069C819.545 609.715 817.78 607.95 815.426 607.95C813.073 607.95 811.308 609.715 811.308 612.069C811.308 614.422 813.073 616.188 815.426 616.188Z" fill="url(#paint12_radial)"/>
<path opacity="0.5" d="M748.935 392.19C748.935 392.19 749.915 390.032 750.307 389.64C750.896 389.051 752.857 388.267 752.857 388.267C752.857 388.267 750.7 387.286 750.307 386.894C749.719 386.305 748.935 384.344 748.935 384.344C748.935 384.344 747.954 386.501 747.562 386.894C746.973 387.482 745.012 388.267 745.012 388.267C745.012 388.267 747.169 389.247 747.562 389.64C747.954 390.228 748.935 392.19 748.935 392.19Z" fill="url(#paint13_radial)"/>
<path opacity="0.5" d="M861.323 470.451C861.323 470.451 862.304 468.294 862.696 467.901C863.285 467.313 865.246 466.528 865.246 466.528C865.246 466.528 863.088 465.548 862.696 465.155C862.108 464.567 861.323 462.605 861.323 462.605C861.323 462.605 860.342 464.763 859.95 465.155C859.362 465.744 857.4 466.528 857.4 466.528C857.4 466.528 859.558 467.509 859.95 467.901C860.539 468.294 861.323 470.451 861.323 470.451Z" fill="url(#paint14_radial)"/>
<path opacity="0.5" d="M805.423 525.961C805.423 525.961 806.403 523.803 806.796 523.411C807.384 522.822 809.346 522.038 809.346 522.038C809.346 522.038 807.188 521.057 806.796 520.665C806.207 520.076 805.423 518.115 805.423 518.115C805.423 518.115 804.442 520.272 804.05 520.665C803.461 521.253 801.5 522.038 801.5 522.038C801.5 522.038 803.657 523.018 804.05 523.411C804.442 523.999 805.423 525.961 805.423 525.961Z" fill="url(#paint15_radial)"/>
<path opacity="0.5" d="M551.423 650.513C551.423 650.513 552.404 648.356 552.796 647.963C553.384 647.375 555.346 646.59 555.346 646.59C555.346 646.59 553.188 645.61 552.796 645.217C552.207 644.629 551.423 642.667 551.423 642.667C551.423 642.667 550.442 644.825 550.05 645.217C549.461 645.806 547.5 646.59 547.5 646.59C547.5 646.59 549.658 647.571 550.05 647.963C550.442 648.356 551.423 650.513 551.423 650.513Z" fill="url(#paint16_radial)"/>
<path opacity="0.5" d="M598.497 466.333C598.497 466.333 599.478 464.175 599.87 463.783C600.458 463.194 602.42 462.41 602.42 462.41C602.42 462.41 600.262 461.429 599.87 461.037C599.282 460.448 598.497 458.487 598.497 458.487C598.497 458.487 597.516 460.644 597.124 461.037C596.536 461.625 594.574 462.41 594.574 462.41C594.574 462.41 596.732 463.391 597.124 463.783C597.712 464.371 598.497 466.333 598.497 466.333Z" fill="url(#paint17_radial)"/>
<path d="M574.372 526.942C574.372 527.726 573.783 528.315 572.999 528.315C572.214 528.315 571.626 527.726 571.626 526.942C571.626 526.157 572.214 525.569 572.999 525.569C573.783 525.569 574.372 526.157 574.372 526.942ZM585.159 502.031C583.59 502.031 582.413 503.208 582.413 504.777C582.413 506.346 583.59 507.523 585.159 507.523C586.729 507.523 587.905 506.346 587.905 504.777C587.905 503.208 586.729 502.031 585.159 502.031ZM590.651 534.591C587.709 534.591 585.159 536.945 585.159 540.083C585.159 543.026 587.513 545.576 590.651 545.576C593.593 545.576 596.143 543.222 596.143 540.083C596.143 536.945 593.79 534.591 590.651 534.591ZM543.578 540.868C542.009 540.868 540.832 542.045 540.832 543.614C540.832 545.183 542.009 546.36 543.578 546.36C545.147 546.36 546.324 545.183 546.324 543.614C546.324 542.241 544.951 540.868 543.578 540.868Z" fill="url(#paint18_radial)"/>
<path d="M812.681 429.457C812.681 428.672 813.269 428.084 813.857 428.084C814.446 428.084 815.23 428.672 815.23 429.261C815.23 430.045 814.642 430.634 814.054 430.634C813.269 430.634 812.681 430.242 812.681 429.457ZM803.854 455.152C805.423 454.956 806.404 453.779 806.404 452.21C806.208 450.641 805.031 449.66 803.462 449.66C801.893 449.856 800.912 451.033 800.912 452.602C801.108 454.171 802.285 455.348 803.854 455.152ZM795.616 423.18C798.559 422.984 800.912 420.238 800.52 417.296C800.324 414.354 797.578 412 794.636 412.392C791.694 412.588 789.34 415.334 789.732 418.277C790.125 421.219 792.674 423.376 795.616 423.18ZM842.101 412.785C843.67 412.588 844.651 411.412 844.651 409.842C844.455 408.273 843.278 407.292 841.709 407.292C840.14 407.489 839.159 408.666 839.159 410.235C839.355 411.804 840.728 412.981 842.101 412.785Z" fill="url(#paint19_radial)"/>
<path opacity="0.5" d="M583.787 74.6299C583.787 74.6299 581.629 75.4145 580.844 75.4145C580.06 75.4145 577.902 74.6299 577.902 74.6299C577.902 74.6299 578.687 76.7875 578.687 77.5721C578.687 78.3566 577.902 80.5143 577.902 80.5143C577.902 80.5143 580.06 79.7297 580.844 79.7297C581.629 79.7297 583.787 80.5143 583.787 80.5143C583.787 80.5143 583.002 78.3566 583.002 77.5721C583.002 76.7875 583.787 74.6299 583.787 74.6299Z" fill="url(#paint20_radial)"/>
<path opacity="0.5" d="M906.042 31.8701C906.042 31.8701 903.885 32.6547 903.1 32.6547C902.316 32.6547 900.158 31.8701 900.158 31.8701C900.158 31.8701 900.943 34.0277 900.943 34.8123C900.943 35.5969 900.158 37.7545 900.158 37.7545C900.158 37.7545 902.316 36.9699 903.1 36.9699C903.885 36.9699 906.042 37.7545 906.042 37.7545C906.042 37.7545 905.258 35.5969 905.258 34.8123C905.258 34.0277 906.042 31.8701 906.042 31.8701Z" fill="url(#paint21_radial)"/>
<path opacity="0.5" d="M742.658 128.57C742.658 128.57 740.501 129.354 739.716 129.354C738.932 129.354 736.774 128.57 736.774 128.57C736.774 128.57 737.559 130.727 737.559 131.512C737.559 132.297 736.774 134.454 736.774 134.454C736.774 134.454 738.932 133.67 739.716 133.67C740.501 133.67 742.658 134.454 742.658 134.454C742.658 134.454 741.874 132.297 741.874 131.512C741.678 130.727 742.658 128.57 742.658 128.57Z" fill="url(#paint22_radial)"/>
<path d="M802.48 102.875C803.069 102.286 803.853 102.286 804.442 102.875C805.03 103.463 805.03 104.248 804.442 104.836C803.853 105.425 803.069 105.425 802.48 104.836C801.892 104.444 801.892 103.463 802.48 102.875ZM777.179 112.878C778.159 113.859 779.924 113.859 781.101 112.878C782.082 111.897 782.082 110.132 781.101 108.955C780.121 107.974 778.355 107.974 777.179 108.955C776.002 110.132 776.002 111.897 777.179 112.878ZM796.4 86.0062C798.558 88.1638 801.892 88.1638 804.05 86.0062C806.207 83.8486 806.207 80.5141 804.05 78.3565C801.892 76.1989 798.558 76.1989 796.4 78.3565C794.243 80.3179 794.243 83.8486 796.4 86.0062ZM834.255 114.84C835.236 115.82 837.001 115.82 838.178 114.84C839.158 113.859 839.158 112.094 838.178 110.917C837.197 109.936 835.432 109.936 834.255 110.917C833.078 112.094 833.078 113.859 834.255 114.84Z" fill="url(#paint23_radial)"/>
<path opacity="0.5" d="M1017.65 153.284C1017.65 153.284 1014.7 154.461 1013.72 154.461C1012.74 154.461 1009.8 153.284 1009.8 153.284C1009.8 153.284 1010.98 156.226 1010.98 157.207C1010.98 158.188 1009.8 161.13 1009.8 161.13C1009.8 161.13 1012.74 159.953 1013.72 159.953C1014.7 159.953 1017.65 161.13 1017.65 161.13C1017.65 161.13 1016.47 158.188 1016.47 157.207C1016.47 156.226 1017.65 153.284 1017.65 153.284Z" fill="url(#paint24_radial)"/>
<path opacity="0.5" d="M1236.34 227.427C1236.34 227.427 1233.4 228.604 1232.42 228.604C1231.44 228.604 1228.49 227.427 1228.49 227.427C1228.49 227.427 1229.67 230.369 1229.67 231.35C1229.67 232.331 1228.49 235.273 1228.49 235.273C1228.49 235.273 1231.44 234.096 1232.42 234.096C1233.4 234.096 1236.34 235.273 1236.34 235.273C1236.34 235.273 1235.16 232.331 1235.16 231.35C1235.16 230.369 1236.34 227.427 1236.34 227.427Z" fill="url(#paint25_radial)"/>
<path opacity="0.5" d="M237.798 337.072C235.64 334.915 232.11 334.915 229.756 337.072C227.598 339.23 227.598 342.761 229.756 345.114C231.913 347.272 235.444 347.272 237.798 345.114C240.151 342.957 240.151 339.426 237.798 337.072Z" fill="url(#paint26_radial)"/>
<path opacity="0.5" d="M84.4169 620.307C84.4169 620.307 81.4748 621.484 80.4941 621.484C79.5134 621.484 76.5713 620.307 76.5713 620.307C76.5713 620.307 77.7481 623.249 77.7481 624.23C77.7481 625.21 76.5713 628.152 76.5713 628.152C76.5713 628.152 79.5134 626.976 80.4941 626.976C81.4748 626.976 84.4169 628.152 84.4169 628.152C84.4169 628.152 83.2401 625.21 83.2401 624.23C83.2401 623.053 84.4169 620.307 84.4169 620.307Z" fill="url(#paint27_radial)"/>
<path opacity="0.5" d="M51.0731 434.361C51.0731 434.361 48.131 435.538 47.1503 435.538C46.1696 435.538 43.2275 434.361 43.2275 434.361C43.2275 434.361 44.4044 437.303 44.4044 438.284C44.4044 439.264 43.2275 442.207 43.2275 442.207C43.2275 442.207 46.1696 441.03 47.1503 441.03C48.131 441.03 51.0731 442.207 51.0731 442.207C51.0731 442.207 49.8963 439.264 49.8963 438.284C49.8963 437.303 51.0731 434.361 51.0731 434.361Z" fill="url(#paint28_radial)"/>
<path opacity="0.5" d="M159.734 434.949C159.734 434.949 156.792 436.126 155.811 436.126C154.831 436.126 151.889 434.949 151.889 434.949C151.889 434.949 153.065 437.891 153.065 438.872C153.065 439.853 151.889 442.795 151.889 442.795C151.889 442.795 154.831 441.618 155.811 441.618C156.792 441.618 159.734 442.795 159.734 442.795C159.734 442.795 158.557 439.853 158.557 438.872C158.557 437.891 159.734 434.949 159.734 434.949Z" fill="url(#paint29_radial)"/>
<path opacity="0.5" d="M528.474 561.071C528.474 561.071 525.532 562.248 524.552 562.248C523.571 562.248 520.629 561.071 520.629 561.071C520.629 561.071 521.806 564.013 521.806 564.994C521.806 565.974 520.629 568.917 520.629 568.917C520.629 568.917 523.571 567.74 524.552 567.74C525.532 567.74 528.474 568.917 528.474 568.917C528.474 568.917 527.298 565.974 527.298 564.994C527.494 564.013 528.474 561.071 528.474 561.071Z" fill="url(#paint30_radial)"/>
<path opacity="0.5" d="M303.111 694.45C303.111 694.45 300.169 695.627 299.188 695.627C298.208 695.627 295.266 694.45 295.266 694.45C295.266 694.45 296.442 697.392 296.442 698.373C296.442 699.353 295.266 702.296 295.266 702.296C295.266 702.296 298.208 701.119 299.188 701.119C300.169 701.119 303.111 702.296 303.111 702.296C303.111 702.296 301.934 699.353 301.934 698.373C302.13 697.392 303.111 694.45 303.111 694.45Z" fill="url(#paint31_radial)"/>
<path d="M58.5262 522.038C57.9378 522.822 56.7609 523.019 55.9764 522.234C55.1918 521.646 54.9957 520.469 55.7802 519.684C56.3687 518.9 57.5455 518.703 58.3301 519.488C59.1146 519.88 59.3107 521.057 58.5262 522.038ZM92.2621 505.365C90.693 503.992 88.3393 504.189 86.9663 505.758C85.5933 507.327 85.7895 509.681 87.3586 511.054C88.9277 512.427 91.2814 512.231 92.6544 510.661C94.0273 509.092 93.8312 506.738 92.2621 505.365ZM68.9215 544.595C65.7833 541.849 61.076 542.241 58.3301 545.575C55.5841 548.714 55.9764 553.421 59.3108 556.167C62.449 558.913 67.1563 558.521 69.9022 555.186C72.452 552.048 72.0598 547.145 68.9215 544.595ZM13.6104 509.288C12.0413 507.915 9.68761 508.112 8.31464 509.681C6.94167 511.25 7.1378 513.604 8.70691 514.977C10.276 516.35 12.6297 516.153 14.0027 514.584C15.3756 513.015 15.1795 510.661 13.6104 509.288Z" fill="url(#paint32_radial)"/>
<path opacity="0.5" d="M1009.6 451.622C1006.66 450.837 1003.52 452.799 1002.74 455.741C1001.95 458.683 1003.92 461.821 1006.86 462.606C1009.8 463.391 1012.94 461.429 1013.72 458.487C1014.51 455.349 1012.55 452.406 1009.6 451.622Z" fill="url(#paint33_radial)"/>
<path opacity="0.5" d="M1026.86 773.104C1026.86 773.104 1024.9 775.654 1024.12 776.243C1023.33 776.831 1020.2 777.42 1020.2 777.42C1020.2 777.42 1022.75 779.381 1023.33 780.166C1023.92 780.95 1024.51 784.089 1024.51 784.089C1024.51 784.089 1026.47 781.539 1027.26 780.95C1028.04 780.362 1031.18 779.773 1031.18 779.773C1031.18 779.773 1028.63 777.812 1028.04 777.027C1027.45 776.243 1026.86 773.104 1026.86 773.104Z" fill="url(#paint34_radial)"/>
<path opacity="0.5" d="M901.335 632.272C901.335 632.272 899.373 634.822 898.589 635.41C897.804 635.999 894.666 636.587 894.666 636.587C894.666 636.587 897.216 638.549 897.804 639.333C898.393 640.118 898.981 643.256 898.981 643.256C898.981 643.256 900.942 640.706 901.727 640.118C902.511 639.529 905.65 638.941 905.65 638.941C905.65 638.941 903.1 636.979 902.512 636.195C901.923 635.41 901.335 632.272 901.335 632.272Z" fill="url(#paint35_radial)"/>
<path opacity="0.5" d="M994.109 575.782C994.109 575.782 992.148 578.332 991.363 578.92C990.579 579.509 987.44 580.097 987.44 580.097C987.44 580.097 989.99 582.058 990.579 582.843C991.167 583.628 991.755 586.766 991.755 586.766C991.755 586.766 993.717 584.216 994.501 583.628C995.286 583.039 998.424 582.451 998.424 582.451C998.424 582.451 995.874 580.489 995.286 579.705C994.698 578.92 994.109 575.782 994.109 575.782Z" fill="url(#paint36_radial)"/>
<path opacity="0.5" d="M1374.42 490.458C1374.42 490.458 1372.46 493.008 1371.68 493.597C1370.89 494.185 1367.75 494.774 1367.75 494.774C1367.75 494.774 1370.3 496.735 1370.89 497.52C1371.48 498.304 1372.07 501.443 1372.07 501.443C1372.07 501.443 1374.03 498.893 1374.81 498.304C1375.6 497.716 1378.74 497.128 1378.74 497.128C1378.74 497.128 1376.19 495.166 1375.6 494.381C1375.01 493.401 1374.42 490.458 1374.42 490.458Z" fill="url(#paint37_radial)"/>
<path opacity="0.5" d="M1252.23 721.91C1252.23 721.91 1250.27 724.46 1249.48 725.049C1248.7 725.637 1245.56 726.225 1245.56 726.225C1245.56 726.225 1248.11 728.187 1248.7 728.971C1249.29 729.756 1249.87 732.894 1249.87 732.894C1249.87 732.894 1251.84 730.344 1252.62 729.756C1253.4 729.168 1256.54 728.579 1256.54 728.579C1256.54 728.579 1253.99 726.618 1253.4 725.833C1252.82 725.048 1252.23 721.91 1252.23 721.91Z" fill="url(#paint38_radial)"/>
<path d="M1304.01 648.748C1304.2 647.767 1305.18 647.179 1306.36 647.375C1307.34 647.571 1307.93 648.552 1307.73 649.729C1307.54 650.709 1306.56 651.298 1305.38 651.102C1304.4 650.71 1303.81 649.729 1304.01 648.748ZM1281.45 678.562C1283.41 678.955 1285.57 677.778 1285.96 675.816C1286.36 673.855 1285.18 671.697 1283.22 671.305C1281.26 670.913 1279.1 672.089 1278.71 674.051C1278.12 676.208 1279.49 678.17 1281.45 678.562ZM1284.59 633.056C1288.71 634.037 1292.63 631.487 1293.61 627.564C1294.59 623.445 1292.04 619.522 1288.12 618.542C1284 617.561 1280.08 620.111 1279.1 624.034C1278.12 627.957 1280.67 632.076 1284.59 633.056ZM1349.9 639.725C1351.87 640.118 1354.02 638.941 1354.42 636.979C1354.81 635.018 1353.63 632.86 1351.67 632.468C1349.71 632.076 1347.55 633.253 1347.16 635.214C1346.57 637.175 1347.94 639.333 1349.9 639.725Z" fill="url(#paint39_radial)"/>
<path d="M953.508 702.884C953.312 703.865 952.331 704.649 951.351 704.453C950.37 704.257 949.585 703.276 949.781 702.295C949.978 701.315 950.958 700.53 951.939 700.726C952.92 700.922 953.704 701.903 953.508 702.884ZM973.514 671.108C971.553 670.716 969.592 672.285 969.199 674.247C968.807 676.208 970.376 678.17 972.337 678.562C974.299 678.954 976.26 677.385 976.653 675.423C976.849 673.462 975.476 671.501 973.514 671.108ZM974.103 716.81C969.984 716.222 966.257 718.968 965.473 723.087C964.884 727.206 967.63 730.933 971.749 731.717C975.868 732.306 979.595 729.56 980.379 725.441C980.968 721.125 978.222 717.399 974.103 716.81ZM908.592 715.83C906.631 715.437 904.67 717.006 904.277 718.968C903.885 720.929 905.454 722.891 907.415 723.283C909.377 723.675 911.338 722.106 911.731 720.145C912.123 717.987 910.554 716.026 908.592 715.83Z" fill="url(#paint40_radial)"/>
<path opacity="0.5" d="M295.069 75.6104C295.069 75.6104 293.108 78.1602 292.323 78.7487C291.539 79.3371 288.4 79.9256 288.4 79.9256C288.4 79.9256 290.95 81.887 291.539 82.6716C292.127 83.4562 292.715 86.5945 292.715 86.5945C292.715 86.5945 294.677 84.0446 295.461 83.4562C296.246 82.8678 299.384 82.2793 299.384 82.2793C299.384 82.2793 296.834 80.3179 296.246 79.5333C295.658 78.7487 295.069 75.6104 295.069 75.6104Z" fill="url(#paint41_radial)"/>
<path opacity="0.5" d="M520.433 24.4165C520.433 24.4165 518.472 26.9664 517.687 27.5548C516.903 28.1433 513.765 28.7317 513.765 28.7317C513.765 28.7317 516.314 30.6931 516.903 31.4777C517.491 32.2623 518.08 35.4006 518.08 35.4006C518.08 35.4006 520.041 32.8507 520.826 32.2623C521.61 31.6738 524.748 31.0854 524.748 31.0854C524.748 31.0854 522.199 29.124 521.61 28.3394C521.022 27.5548 520.433 24.4165 520.433 24.4165Z" fill="url(#paint42_radial)"/>
<path opacity="0.5" d="M750.7 133.669C750.7 133.669 749.327 135.435 748.739 135.827C748.151 136.219 745.797 136.612 745.797 136.612C745.797 136.612 747.562 137.985 747.954 138.573C748.347 139.161 748.739 141.515 748.739 141.515C748.739 141.515 750.112 139.75 750.7 139.358C751.289 138.965 753.642 138.573 753.642 138.573C753.642 138.573 751.877 137.2 751.485 136.612C751.093 136.023 750.7 133.669 750.7 133.669Z" fill="url(#paint43_radial)"/>
<path opacity="0.5" d="M659.495 31.4775C659.495 31.4775 658.122 33.2428 657.534 33.6351C656.945 34.0274 654.592 34.4197 654.592 34.4197C654.592 34.4197 656.357 35.7927 656.749 36.3812C657.142 36.9696 657.534 39.3234 657.534 39.3234C657.534 39.3234 658.907 37.558 659.495 37.1658C660.084 36.7735 662.437 36.3812 662.437 36.3812C662.437 36.3812 660.672 35.0082 660.28 34.4197C659.888 33.8313 659.495 31.4775 659.495 31.4775Z" fill="url(#paint44_radial)"/>
<path opacity="0.5" d="M914.28 96.5981C914.28 96.5981 912.907 98.3635 912.319 98.7558C911.731 99.148 909.377 99.5403 909.377 99.5403C909.377 99.5403 911.142 100.913 911.534 101.502C911.927 102.09 912.319 104.444 912.319 104.444C912.319 104.444 913.692 102.679 914.28 102.286C914.869 101.894 917.223 101.502 917.223 101.502C917.223 101.502 915.457 100.129 915.065 99.5403C914.673 98.7557 914.28 96.5981 914.28 96.5981Z" fill="url(#paint45_radial)"/>
<path opacity="0.5" d="M681.267 654.829C682.443 656.79 684.993 657.379 686.955 656.202C688.916 655.025 689.504 652.475 688.328 650.514C687.151 648.552 684.601 647.964 682.64 649.14C680.874 650.317 680.09 652.867 681.267 654.829Z" fill="url(#paint46_radial)"/>
<path opacity="0.5" d="M837.394 481.043C837.394 481.043 839.747 480.651 840.336 480.847C841.12 481.043 842.885 482.416 842.885 482.416C842.885 482.416 842.493 480.063 842.689 479.474C842.885 478.69 844.258 476.924 844.258 476.924C844.258 476.924 841.905 477.317 841.316 477.12C840.532 476.924 838.767 475.551 838.767 475.551C838.767 475.551 839.159 477.905 838.963 478.493C838.766 479.082 837.394 481.043 837.394 481.043Z" fill="url(#paint47_radial)"/>
<path opacity="0.5" d="M829.548 617.757C829.548 617.757 831.902 617.364 832.49 617.561C833.274 617.757 835.04 619.13 835.04 619.13C835.04 619.13 834.647 616.776 834.844 616.188C835.04 615.599 836.413 613.638 836.413 613.638C836.413 613.638 834.059 614.03 833.471 613.834C832.686 613.638 830.921 612.265 830.921 612.265C830.921 612.265 831.313 614.618 831.117 615.207C830.921 615.795 829.548 617.757 829.548 617.757Z" fill="url(#paint48_radial)"/>
<path opacity="0.5" d="M753.054 599.123C753.054 599.123 755.407 598.731 755.996 598.927C756.78 599.123 758.546 600.496 758.546 600.496C758.546 600.496 758.153 598.142 758.35 597.554C758.546 596.769 759.919 595.004 759.919 595.004C759.919 595.004 757.565 595.396 756.977 595.2C756.192 595.004 754.427 593.631 754.427 593.631C754.427 593.631 754.819 595.985 754.623 596.573C754.231 597.162 753.054 599.123 753.054 599.123Z" fill="url(#paint49_radial)"/>
<path opacity="0.5" d="M513.961 447.699C513.961 447.699 516.315 447.306 516.903 447.502C517.688 447.699 519.453 449.072 519.453 449.072C519.453 449.072 519.061 446.718 519.257 446.129C519.453 445.345 520.826 443.58 520.826 443.58C520.826 443.58 518.472 443.972 517.884 443.776C517.099 443.58 515.334 442.207 515.334 442.207C515.334 442.207 515.726 444.56 515.53 445.149C515.334 445.933 513.961 447.699 513.961 447.699Z" fill="url(#paint50_radial)"/>
<path opacity="0.5" d="M695.585 391.601C695.585 391.601 697.939 391.209 698.527 391.405C699.115 391.601 701.077 392.974 701.077 392.974C701.077 392.974 700.685 390.62 700.881 390.032C701.077 389.247 702.45 387.482 702.45 387.482C702.45 387.482 700.096 387.874 699.508 387.678C698.723 387.482 696.958 386.109 696.958 386.109C696.958 386.109 697.35 388.463 697.154 389.051C696.958 389.836 695.585 391.601 695.585 391.601Z" fill="url(#paint51_radial)"/>
<path d="M839.159 554.598C839.748 554.206 840.532 554.206 841.121 554.794C841.513 555.383 841.513 556.167 840.924 556.756C840.336 557.148 839.552 557.148 838.963 556.56C838.375 555.971 838.571 555.187 839.159 554.598ZM812.484 560.679C813.465 561.856 815.034 562.052 816.211 561.267C817.388 560.287 817.584 558.717 816.799 557.541C815.819 556.364 814.25 556.168 813.073 556.952C811.896 557.737 811.7 559.502 812.484 560.679ZM835.629 536.945C837.394 539.299 840.728 539.887 843.278 538.122C845.632 536.357 846.22 533.022 844.455 530.472C842.69 528.119 839.355 527.53 836.806 529.295C834.256 531.061 833.864 534.591 835.629 536.945ZM868.776 571.075C869.757 572.251 871.326 572.448 872.503 571.663C873.68 570.682 873.876 569.113 873.091 567.936C872.111 566.759 870.541 566.563 869.365 567.348C867.992 568.329 867.796 569.898 868.776 571.075Z" fill="url(#paint52_radial)"/>
<path opacity="0.5" d="M218.772 543.418C220.341 546.164 223.871 546.949 226.617 545.183C229.363 543.614 230.148 540.083 228.383 537.337C226.813 534.591 223.283 533.807 220.537 535.572C217.987 537.141 217.203 540.672 218.772 543.418Z" fill="url(#paint53_radial)"/>
<path opacity="0.5" d="M433.936 303.728C433.936 303.728 437.074 303.335 438.054 303.532C439.035 303.728 441.585 305.493 441.585 305.493C441.585 305.493 441.193 302.355 441.389 301.374C441.585 300.393 443.35 297.843 443.35 297.843C443.35 297.843 440.212 298.236 439.231 298.04C438.251 297.843 435.701 296.078 435.701 296.078C435.701 296.078 436.093 299.216 435.897 300.197C435.701 301.178 433.936 303.728 433.936 303.728Z" fill="url(#paint54_radial)"/>
<path opacity="0.5" d="M423.148 492.224C423.148 492.224 426.287 491.832 427.267 492.028C428.248 492.224 430.798 493.989 430.798 493.989C430.798 493.989 430.406 490.851 430.602 489.87C430.798 488.889 432.563 486.34 432.563 486.34C432.563 486.34 429.425 486.732 428.444 486.536C427.463 486.34 424.914 484.574 424.914 484.574C424.914 484.574 425.306 487.713 425.11 488.693C424.914 489.478 423.148 492.224 423.148 492.224Z" fill="url(#paint55_radial)"/>
<path opacity="0.5" d="M317.43 466.529C317.43 466.529 320.568 466.136 321.549 466.332C322.529 466.529 325.079 468.294 325.079 468.294C325.079 468.294 324.687 465.156 324.883 464.175C325.079 463.194 326.844 460.644 326.844 460.644C326.844 460.644 323.706 461.037 322.725 460.84C321.745 460.644 319.195 458.879 319.195 458.879C319.195 458.879 319.587 462.017 319.391 462.998C319.195 463.783 317.43 466.529 317.43 466.529Z" fill="url(#paint56_radial)"/>
<path opacity="0.5" d="M910 253.65C910 253.65 913.138 253.257 914.119 253.454C915.1 253.65 917.649 255.415 917.649 255.415C917.649 255.415 917.257 252.277 917.453 251.296C917.649 250.315 919.415 247.765 919.415 247.765C919.415 247.765 916.276 248.158 915.296 247.961C914.315 247.765 911.765 246 911.765 246C911.765 246 912.158 249.138 911.961 250.119C911.765 251.1 910 253.65 910 253.65Z" fill="url(#paint57_radial)"/>
<path d="M1183.02 499.417C1183.4 499.136 1183.97 499.23 1184.25 499.605C1184.54 499.98 1184.44 500.543 1184.07 500.824C1183.69 501.106 1183.12 501.012 1182.83 500.637C1182.55 500.262 1182.64 499.699 1183.02 499.417ZM1165.4 503.357C1165.97 504.107 1167.1 504.295 1167.96 503.732C1168.72 503.169 1168.9 502.044 1168.34 501.199C1167.77 500.449 1166.63 500.262 1165.78 500.824C1164.93 501.481 1164.74 502.606 1165.4 503.357ZM1180.75 487.693C1181.98 489.288 1184.16 489.663 1185.77 488.443C1187.38 487.224 1187.76 485.067 1186.53 483.472C1185.3 481.878 1183.12 481.503 1181.51 482.722C1179.9 483.847 1179.52 486.098 1180.75 487.693ZM1202.73 510.298C1203.3 511.048 1204.44 511.236 1205.29 510.673C1206.05 510.11 1206.24 508.984 1205.67 508.14C1205.1 507.39 1203.96 507.202 1203.11 507.765C1202.35 508.328 1202.16 509.453 1202.73 510.298Z" fill="url(#paint58_radial)"/>
<path opacity="0.5" d="M1234.97 306.278C1236.54 309.024 1240.07 309.808 1242.81 308.043C1245.56 306.474 1246.34 302.943 1244.58 300.197C1243.01 297.451 1239.48 296.667 1236.73 298.432C1234.18 300.001 1233.4 303.532 1234.97 306.278Z" fill="url(#paint59_radial)"/>
<path opacity="0.5" d="M1439.34 255.084C1439.34 255.084 1442.48 254.691 1443.46 254.888C1444.44 255.084 1446.99 256.849 1446.99 256.849C1446.99 256.849 1446.6 253.711 1446.8 252.73C1446.99 251.749 1448.76 249.199 1448.76 249.199C1448.76 249.199 1445.62 249.592 1444.64 249.396C1443.66 249.199 1441.11 247.434 1441.11 247.434C1441.11 247.434 1441.5 250.572 1441.31 251.553C1441.11 252.534 1439.34 255.084 1439.34 255.084Z" fill="url(#paint60_radial)"/>
<path opacity="0.5" d="M1333.62 229.389C1333.62 229.389 1336.76 228.997 1337.74 229.193C1338.72 229.389 1341.27 231.154 1341.27 231.154C1341.27 231.154 1340.88 228.016 1341.08 227.035C1341.27 226.054 1343.04 223.505 1343.04 223.505C1343.04 223.505 1339.9 223.897 1338.92 223.701C1337.94 223.505 1335.39 221.739 1335.39 221.739C1335.39 221.739 1335.78 224.878 1335.59 225.858C1335.39 226.839 1333.62 229.389 1333.62 229.389Z" fill="url(#paint61_radial)"/>
<path opacity="0.5" d="M1004.31 20.6897C1004.31 20.6897 1007.45 20.2974 1008.43 20.4936C1009.41 20.6897 1011.96 22.455 1011.96 22.455C1011.96 22.455 1011.56 19.3167 1011.76 18.336C1011.96 17.3553 1013.72 14.8054 1013.72 14.8054C1013.72 14.8054 1010.58 15.1976 1009.6 15.0015C1008.62 14.8053 1006.07 13.04 1006.07 13.04C1006.07 13.04 1006.47 16.1784 1006.27 17.1591C1006.07 18.1398 1004.31 20.6897 1004.31 20.6897Z" fill="url(#paint62_radial)"/>
<path d="M1452.29 168.191C1453.07 167.603 1454.25 167.799 1454.84 168.584C1455.43 169.368 1455.23 170.545 1454.45 171.133C1453.66 171.722 1452.48 171.526 1451.9 170.741C1451.31 169.956 1451.5 168.78 1452.29 168.191ZM1415.81 176.429C1416.98 177.999 1419.34 178.391 1421.1 177.214C1422.67 176.037 1423.06 173.683 1421.89 171.918C1420.71 170.349 1418.36 169.957 1416.59 171.133C1414.83 172.506 1414.43 174.86 1415.81 176.429ZM1447.58 143.869C1450.13 147.204 1454.64 147.988 1457.98 145.438C1461.31 142.888 1462.09 138.377 1459.54 135.043C1457 131.708 1452.48 130.924 1449.15 133.473C1445.82 135.827 1445.03 140.535 1447.58 143.869ZM1493.08 190.944C1494.26 192.513 1496.62 192.906 1498.38 191.729C1499.95 190.552 1500.34 188.198 1499.16 186.433C1497.99 184.864 1495.63 184.471 1493.87 185.648C1492.3 186.825 1491.91 189.179 1493.08 190.944Z" fill="url(#paint63_radial)"/>
<path opacity="0.45" d="M124.856 -275.294C124.856 -275.294 324.918 -113.082 670.318 -78.5602C1015.72 -44.0385 1188.32 46.1885 1007.28 124.254C826.249 202.32 230.183 146.615 23.8447 254.887C-182.493 363.16 -258.399 -249.795 124.856 -275.294Z" fill="url(#paint64_radial)"/>
<path opacity="0.45" d="M1454.87 937.474C1454.87 937.474 1254.81 775.262 909.412 740.74C564.012 706.219 391.41 615.991 572.446 537.925C753.678 459.86 1349.55 515.369 1555.89 407.292C1762.22 299.216 1838.13 911.975 1454.87 937.474Z" fill="url(#paint65_radial)"/>
<path d="M-196.615 485.162C-129.928 502.031 -55.7873 494.97 11.4884 479.082C78.5679 463.194 141.332 439.264 207.823 421.807C302.755 396.701 405.924 385.324 505.955 396.308C619.911 408.665 723.669 448.875 830.957 479.082C938.245 509.288 1059.65 529.491 1167.73 501.05C1228.92 484.966 1282.47 453.975 1346.61 445.933C1422.71 436.322 1500.38 460.84 1560.79 495.362C1564.52 496.735 1558.04 493.596 1557.06 496.343C1539.02 550.086 1543.73 607.557 1570.2 659.536C1542.16 646.786 1528.43 621.287 1498.61 610.499C1484.69 605.399 1468.8 604.223 1453.31 603.046C1407.02 599.711 1359.94 596.181 1314.05 601.869C1243.04 610.695 1180.28 640.51 1109.87 651.69C1027.68 664.635 941.971 650.905 862.731 631.095C783.491 611.284 706.801 585.197 624.619 572.251C501.639 552.832 369.442 564.797 257.054 605.399C202.528 625.014 152.905 651.101 98.1818 670.128C43.2629 689.154 -19.6977 701.315 -78.7355 690.331C-124.632 681.896 -163.271 660.713 -200.145 639.529C-213.875 631.683 -227.997 623.053 -234.47 611.284C-241.139 598.927 -238.393 585.197 -235.45 572.251C-229.566 546.556 -223.682 520.861 -217.798 495.166" fill="url(#paint66_radial)"/>
<path opacity="0.45" d="M-26.366 258.026C53.4625 281.956 135.252 303.924 220.769 313.143C306.285 322.362 396.902 317.654 474.376 289.998C503.601 279.602 530.668 266.068 560.482 256.457C673.457 220.17 805.851 245.473 919.808 280.386C985.907 300.786 1052.4 324.715 1124.18 327.658C1181.85 330.011 1238.93 318.635 1293.26 304.316C1373.67 283.132 1450.76 255.476 1522.54 221.935C1528.03 254.691 1534.9 287.252 1543.14 319.812C1528.23 307.062 1502.73 302.355 1479.59 304.12C1456.44 305.885 1434.67 313.143 1413.69 320.4C1350.33 342.761 1288.75 367.475 1229.32 394.739C1202.25 407.097 1173.42 420.434 1141.44 420.042C1117.12 419.846 1094.57 411.608 1072.8 403.566C1010.42 380.421 948.052 357.276 885.68 334.13C849.59 320.792 812.324 307.062 771.919 303.335C733.672 299.805 695.033 305.297 657.374 311.181C516.154 333.738 374.346 364.925 229.987 358.649C118.188 353.745 10.7042 326.481 -95.0146 299.609C-78.539 286.271 -58.9251 274.894 -37.546 265.872" fill="url(#paint67_radial)"/>
<path d="M1643.17 109.936C1643.36 110.132 1641.01 111.897 1636.3 115.232C1633.95 116.997 1631.01 118.762 1627.28 121.116C1625.51 122.293 1623.55 123.47 1621.4 124.647C1619.24 125.824 1616.88 127.197 1614.53 128.373C1604.53 133.473 1592.17 139.554 1576.87 145.046C1561.57 150.538 1543.53 155.834 1522.93 159.953C1502.54 163.876 1479.59 166.426 1455.07 166.622C1430.55 167.014 1405.05 164.072 1379.16 160.737C1353.27 157.403 1326.8 153.48 1299.53 153.284C1272.27 152.695 1244.61 154.069 1217.15 157.207C1189.69 160.541 1162.63 165.249 1136.15 170.349C1109.67 175.645 1083.78 181.333 1058.67 186.629C1033.57 191.925 1008.85 197.024 985.514 201.143C961.977 205.066 939.421 208.401 918.238 210.362C912.942 210.755 907.843 211.343 902.743 211.735C897.643 211.932 892.74 212.324 887.836 212.52C882.933 212.716 878.226 212.912 873.714 213.305C869.203 213.501 864.692 213.305 860.377 213.501C856.062 213.501 851.943 213.501 847.824 213.501C843.705 213.501 839.979 213.501 836.252 213.305C828.799 212.912 821.934 212.716 815.657 212.52C809.381 212.324 803.889 211.735 799.182 211.343C794.474 210.951 790.355 210.558 787.021 210.362C783.687 210.166 781.137 209.97 779.568 209.774C777.803 209.578 777.018 209.578 777.018 209.578C777.018 209.578 773.487 209.185 767.015 208.401C763.681 208.009 759.758 207.42 755.05 206.832C752.697 206.439 750.147 206.243 747.401 205.851C744.655 205.459 741.909 204.87 738.771 204.478C732.691 203.497 726.022 202.516 718.765 201.34C711.508 199.967 703.858 198.397 695.424 196.828C686.99 195.259 678.36 193.298 669.142 191.14C664.63 190.159 659.727 189.179 655.02 188.002C650.312 186.825 645.409 185.648 640.309 184.275C600.493 174.272 554.989 160.541 507.523 144.261C483.79 136.023 459.469 127.393 434.952 118.37C410.434 109.347 385.721 100.128 360.419 91.498C347.866 87.1828 335.117 83.0638 322.368 79.337C309.619 75.6103 296.674 72.0796 283.729 68.9413C270.784 65.9991 257.642 63.2531 244.697 61.2916C241.363 60.7032 238.224 60.3109 234.89 59.9186C231.556 59.5263 228.418 58.9379 225.083 58.7417C218.611 58.1533 212.138 57.3687 205.665 56.9764C179.775 55.2111 154.669 55.6034 130.937 57.5649C107.204 59.5263 85.04 63.0569 65.0339 67.176C60.1304 68.3529 55.0308 69.1375 50.3234 70.3143C45.6161 71.4912 40.9088 72.4719 36.3976 73.6488C27.3752 76.0026 18.9412 78.1602 11.0957 80.5139C-4.79156 85.0253 -18.129 89.5366 -29.1128 93.4595C-40.0966 97.3824 -48.7267 100.521 -54.4147 102.678C-60.2989 104.836 -63.4371 106.013 -63.4371 105.817C-63.6332 105.621 -60.6911 104.248 -55.0031 101.894C-49.5112 99.3439 -41.0772 96.0094 -30.2896 91.6942C-19.502 87.5751 -6.16454 82.6715 9.52657 77.964C17.3721 75.4141 25.8061 73.0604 34.8285 70.5105C39.3397 69.3336 44.047 68.1567 48.7544 66.9798C53.4617 65.803 58.5613 64.8222 63.4648 63.6454C83.6671 59.134 106.027 55.4073 130.152 53.0535C154.277 50.6998 179.971 49.9152 206.45 51.4843C213.119 51.6805 219.787 52.4651 226.456 53.0535C229.791 53.4458 233.125 53.8381 236.459 54.2304C239.794 54.6227 243.128 55.015 246.462 55.6034C259.8 57.5649 273.137 60.1147 286.475 63.0569C299.812 65.9991 312.953 69.5298 325.899 73.2565C338.844 76.9833 351.789 81.1023 364.538 85.2214C390.036 93.6557 415.142 102.875 439.659 111.505C464.177 120.331 488.694 128.766 512.231 136.808C559.696 152.696 604.808 166.033 644.232 175.645C649.135 176.821 654.039 177.998 658.746 179.175C663.454 180.352 668.161 181.333 672.672 182.314C681.695 184.275 690.325 186.236 698.562 187.609C706.8 189.179 714.45 190.552 721.511 191.925C728.572 193.102 735.24 194.082 741.125 194.867C744.067 195.259 746.813 195.848 749.559 196.24C752.305 196.632 754.658 196.828 757.012 197.221C761.719 197.809 765.642 198.201 768.78 198.594C775.253 199.378 778.587 199.77 778.587 199.77C778.587 199.77 779.372 199.967 781.137 199.967C782.706 200.163 785.256 200.359 788.394 200.555C791.532 200.751 795.651 201.143 800.162 201.536C804.87 201.928 810.166 202.517 816.246 202.713C822.326 202.909 828.995 203.301 836.252 203.693C839.979 203.89 843.705 203.89 847.628 203.89C851.551 203.89 855.67 203.89 859.789 203.89C863.907 203.89 868.419 203.89 872.734 203.89C877.245 203.693 881.756 203.497 886.464 203.301C891.171 203.105 896.074 202.909 900.978 202.713C905.881 202.32 910.981 201.928 916.08 201.34C936.675 199.77 958.839 196.436 982.179 192.709C1005.52 188.786 1029.84 184.079 1054.95 178.783C1080.25 173.487 1106.14 167.995 1133.01 162.895C1159.88 157.795 1187.34 153.284 1215.19 150.146C1243.04 147.007 1271.48 145.83 1299.53 146.811C1327.58 147.4 1354.45 151.715 1380.15 155.245C1405.84 158.776 1430.75 161.914 1454.48 161.718C1478.21 161.718 1500.77 159.561 1520.97 156.03C1541.18 152.499 1559.02 147.596 1574.32 142.3C1589.62 137.2 1602.17 131.512 1612.18 126.608C1614.73 125.431 1617.08 124.254 1619.24 123.078C1621.4 121.901 1623.36 120.724 1625.32 119.743C1629.05 117.585 1632.18 115.82 1634.73 114.447C1640.23 111.309 1642.97 109.74 1643.17 109.936Z" fill="url(#paint68_radial)"/>
<path d="M1566.08 636.195C1565.69 636.783 1553.14 633.253 1531.17 627.172C1520.19 624.23 1506.65 620.699 1491.16 617.365C1475.47 614.031 1457.62 610.892 1438.01 609.323C1428.2 608.342 1417.8 608.342 1407.21 608.342C1396.62 608.538 1385.64 609.715 1374.65 611.284C1352.69 614.619 1330.52 621.484 1308.95 630.114C1287.37 638.941 1265.99 649.337 1244.22 660.321C1222.45 671.109 1199.89 682.289 1175.57 691.508C1151.25 700.923 1125.56 708.18 1099.47 713.869C1073.38 719.361 1047.1 722.891 1021.21 724.853C995.321 726.814 970.215 726.618 946.482 725.245C922.749 723.676 900.586 720.93 880.579 717.595C860.573 714.261 842.332 710.534 826.445 707.004C810.558 703.473 796.828 700.138 785.648 697.392C763.288 691.704 750.539 688.566 750.539 688.566C750.539 688.566 747.401 687.781 741.517 686.212C735.633 684.643 727.003 682.485 715.823 679.543C710.331 678.17 704.251 676.601 697.582 675.032C690.913 673.463 683.656 671.697 676.007 669.932C660.512 666.598 643.055 662.871 623.638 659.929C604.22 656.79 583.037 654.24 560.285 652.475C537.729 650.71 513.604 649.925 488.694 650.121C438.875 650.318 385.721 655.025 333.744 663.655C281.571 672.09 230.967 684.839 184.875 699.158C138.782 713.476 97.2007 729.168 62.288 743.683C27.3753 758.198 -0.86869 771.339 -20.4826 780.558C-30.2895 785.07 -38.1351 788.796 -43.4308 791.346C-48.7266 793.7 -51.6687 794.877 -52.0609 794.681C-52.2571 794.485 -49.9034 792.719 -44.9999 789.973C-40.0965 787.031 -32.8393 782.912 -23.4247 777.812C-4.59533 767.613 22.8641 753.49 57.3845 737.995C91.7088 722.499 133.094 705.631 179.383 690.331C225.672 675.032 276.864 661.302 329.821 651.887C382.779 642.275 437.109 636.783 488.498 635.999C514.192 635.607 539.102 635.999 562.638 637.568C586.175 639.137 608.339 641.491 628.541 644.433C648.743 647.375 666.984 650.906 683.068 654.24C691.109 656.006 698.562 657.575 705.231 659.144C712.096 660.713 718.373 662.086 723.864 663.459C735.24 666.205 743.871 668.363 749.951 669.932C755.835 671.501 759.169 672.286 759.169 672.286C759.169 672.286 771.722 675.62 793.886 681.308C804.87 684.054 818.403 687.585 833.702 691.116C849.197 694.842 866.654 698.569 885.875 702.1C905.097 705.631 926.28 708.377 948.64 710.142C970.999 711.711 994.928 712.103 1019.64 710.73C1044.16 709.161 1069.46 706.219 1094.57 701.315C1119.48 696.216 1144.39 689.547 1167.92 680.916C1191.46 672.286 1213.82 661.89 1235.79 651.494C1257.95 641.099 1279.92 630.507 1302.67 621.876C1325.42 613.442 1348.96 606.577 1372.5 603.439C1384.26 601.87 1395.84 601.085 1407.02 601.085C1418.2 601.085 1428.98 601.673 1439.18 602.85C1459.58 605.008 1477.82 608.735 1493.32 612.658C1509.01 616.58 1522.35 620.503 1533.13 624.034C1554.71 631.095 1566.48 635.803 1566.08 636.195Z" fill="url(#paint69_radial)"/>
<path opacity="0.45" d="M-28.1319 -37.5656C-28.1319 -37.5656 182.521 44.6194 432.402 24.4164C682.283 4.21338 793.102 -62.28 956.093 -57.7686C1119.08 -53.0611 1292.86 66.1954 1431.93 59.9188C1570.99 53.6421 1523.13 -146.23 1523.13 -146.23L1440.56 -42.4693C1440.56 -42.4693 1186.36 -226.846 927.849 -209.782C669.338 -192.717 595.982 -83.4637 402.393 -51.2958C208.804 -19.1279 -34.6045 -101.313 -34.6045 -101.313L-28.1319 -37.5656Z" fill="url(#paint70_radial)"/>
</g>
<path d="M885.892 396.726C887.057 393.261 885.191 389.508 881.726 388.344C878.261 387.18 874.508 389.045 873.344 392.51C872.18 395.975 874.045 399.728 877.511 400.892C880.976 402.056 884.728 400.191 885.892 396.726Z" fill="url(#paint71_linear)"/>
<path style="mix-blend-mode:screen" d="M882.198 393.814C883.043 393.831 883.888 393.963 884.703 393.797C885.191 393.689 885.66 393.507 886.094 393.259C885.831 392.005 885.21 390.855 884.306 389.947C883.402 389.04 882.254 388.414 881.002 388.146C879.749 387.878 878.446 387.979 877.25 388.437C876.053 388.895 875.016 389.691 874.263 390.727C873.51 391.763 873.073 392.996 873.007 394.275C872.941 395.554 873.247 396.825 873.888 397.934C874.53 399.043 875.48 399.941 876.622 400.521C877.764 401.1 879.05 401.336 880.324 401.199C880.43 401.03 880.508 400.844 880.555 400.65C880.777 399.675 880.034 398.779 879.583 397.886C879.039 396.804 878.966 395.35 879.848 394.504C880.456 393.93 881.358 393.8 882.198 393.814Z" fill="url(#paint72_linear)"/>
<path style="mix-blend-mode:screen" d="M883.638 389.799C883.726 389.726 883.81 389.65 883.892 389.568C882.59 388.455 880.907 387.89 879.197 387.992C877.487 388.095 875.883 388.857 874.723 390.118C873.563 391.378 872.938 393.04 872.978 394.753C873.019 396.465 873.722 398.096 874.94 399.3L875.081 399.433C875.327 399.411 875.568 399.35 875.794 399.25C876.921 398.74 877.321 397.379 877.484 396.164C877.648 394.95 877.696 393.628 878.482 392.687C879.327 391.687 880.736 391.439 881.925 390.901C882.545 390.616 883.122 390.245 883.638 389.799Z" fill="url(#paint73_linear)"/>
<path style="mix-blend-mode:screen" d="M874.94 389.94C874.27 390.608 873.752 391.412 873.421 392.298C873.089 393.183 872.952 394.13 873.018 395.073C873.284 395.227 873.581 395.318 873.887 395.342C874.193 395.366 874.501 395.321 874.788 395.212C875.613 394.848 875.991 393.896 876.197 393.019C876.402 392.143 876.585 391.188 877.236 390.562C878.132 389.717 879.772 389.652 880.251 388.508C880.312 388.365 880.349 388.213 880.361 388.057C879.374 387.943 878.374 388.052 877.435 388.378C876.496 388.704 875.643 389.238 874.94 389.94Z" fill="url(#paint74_linear)"/>
</g>
</g>
<defs>
<radialGradient id="paint0_radial" cx="0" cy="0" r="1" gradientUnits="userSpaceOnUse" gradientTransform="translate(690.028 337.989) scale(753 513)">
<stop offset="0.0592593" stop-color="#071256"/>
<stop offset="0.963" stop-color="#030A2B"/>
</radialGradient>
<radialGradient id="paint1_radial" cx="0" cy="0" r="1" gradientUnits="userSpaceOnUse" gradientTransform="translate(268.717 236.875) scale(440.525 440.537)">
<stop offset="0.0592593" stop-color="#0A1656"/>
<stop offset="0.8889" stop-color="#4478AF"/>
</radialGradient>
<radialGradient id="paint2_radial" cx="0" cy="0" r="1" gradientUnits="userSpaceOnUse" gradientTransform="translate(268.718 236.876) scale(440.524 440.54)">
<stop offset="0.0592593" stop-color="#0A1656"/>
<stop offset="0.8889" stop-color="#4478AF"/>
</radialGradient>
<radialGradient id="paint3_radial" cx="0" cy="0" r="1" gradientUnits="userSpaceOnUse" gradientTransform="translate(268.717 236.875) scale(440.523 440.538)">
<stop offset="0.0592593" stop-color="#0A1656"/>
<stop offset="0.8889" stop-color="#4478AF"/>
</radialGradient>
<radialGradient id="paint4_radial" cx="0" cy="0" r="1" gradientUnits="userSpaceOnUse" gradientTransform="translate(1142.64 745.122) scale(440.53 440.542)">
<stop offset="0.0592593" stop-color="#0A1656"/>
<stop offset="0.8889" stop-color="#4478AF"/>
</radialGradient>
<radialGradient id="paint5_radial" cx="0" cy="0" r="1" gradientUnits="userSpaceOnUse" gradientTransform="translate(1142.65 745.125) scale(440.518 440.543)">
<stop offset="0.0592593" stop-color="#0A1656"/>
<stop offset="0.8889" stop-color="#4478AF"/>
</radialGradient>
<radialGradient id="paint6_radial" cx="0" cy="0" r="1" gradientUnits="userSpaceOnUse" gradientTransform="translate(1142.65 745.122) scale(440.523 440.54)">
<stop offset="0.0592593" stop-color="#0A1656"/>
<stop offset="0.8889" stop-color="#4478AF"/>
</radialGradient>
<radialGradient id="paint7_radial" cx="0" cy="0" r="1" gradientUnits="userSpaceOnUse" gradientTransform="translate(1142.64 745.121) scale(440.529 440.539)">
<stop offset="0.0592593" stop-color="#0A1656"/>
<stop offset="0.8889" stop-color="#4478AF"/>
</radialGradient>
<radialGradient id="paint8_radial" cx="0" cy="0" r="1" gradientUnits="userSpaceOnUse" gradientTransform="translate(1142.65 745.121) scale(440.53 440.535)">
<stop offset="0.0592593" stop-color="#0A1656"/>
<stop offset="0.8889" stop-color="#4478AF"/>
</radialGradient>
<radialGradient id="paint9_radial" cx="0" cy="0" r="1" gradientUnits="userSpaceOnUse" gradientTransform="translate(1142.65 745.125) scale(440.538 440.543)">
<stop offset="0.0592593" stop-color="#0A1656"/>
<stop offset="0.8889" stop-color="#4478AF"/>
</radialGradient>
<radialGradient id="paint10_radial" cx="0" cy="0" r="1" gradientUnits="userSpaceOnUse" gradientTransform="translate(956.834 524.637) scale(34.5705 34.5717)">
<stop offset="0.0592593" stop-color="#0A1656"/>
<stop offset="0.8889" stop-color="#4478AF"/>
</radialGradient>
<radialGradient id="paint11_radial" cx="0" cy="0" r="1" gradientUnits="userSpaceOnUse" gradientTransform="translate(1300.53 396.719) rotate(175.028) scale(16.93 17.2989)">
<stop offset="0.0592593" stop-color="#0A1656"/>
<stop offset="0.8889" stop-color="#4478AF"/>
</radialGradient>
<radialGradient id="paint12_radial" cx="0" cy="0" r="1" gradientUnits="userSpaceOnUse" gradientTransform="translate(703.303 684.13) scale(319.64 319.647)">
<stop offset="0.0592593" stop-color="#0A1656"/>
<stop offset="0.8889" stop-color="#4478AF"/>
</radialGradient>
<radialGradient id="paint13_radial" cx="0" cy="0" r="1" gradientUnits="userSpaceOnUse" gradientTransform="translate(703.301 684.137) scale(319.647 319.657)">
<stop offset="0.0592593" stop-color="#0A1656"/>
<stop offset="0.8889" stop-color="#4478AF"/>
</radialGradient>
<radialGradient id="paint14_radial" cx="0" cy="0" r="1" gradientUnits="userSpaceOnUse" gradientTransform="translate(703.303 684.133) scale(319.643 319.653)">
<stop offset="0.0592593" stop-color="#0A1656"/>
<stop offset="0.8889" stop-color="#4478AF"/>
</radialGradient>
<radialGradient id="paint15_radial" cx="0" cy="0" r="1" gradientUnits="userSpaceOnUse" gradientTransform="translate(703.302 684.133) scale(319.643 319.655)">
<stop offset="0.0592593" stop-color="#0A1656"/>
<stop offset="0.8889" stop-color="#4478AF"/>
</radialGradient>
<radialGradient id="paint16_radial" cx="0" cy="0" r="1" gradientUnits="userSpaceOnUse" gradientTransform="translate(703.302 684.132) scale(319.641 319.651)">
<stop offset="0.0592593" stop-color="#0A1656"/>
<stop offset="0.8889" stop-color="#4478AF"/>
</radialGradient>
<radialGradient id="paint17_radial" cx="0" cy="0" r="1" gradientUnits="userSpaceOnUse" gradientTransform="translate(703.304 684.135) scale(319.646 319.656)">
<stop offset="0.0592593" stop-color="#0A1656"/>
<stop offset="0.8889" stop-color="#4478AF"/>
</radialGradient>
<radialGradient id="paint18_radial" cx="0" cy="0" r="1" gradientUnits="userSpaceOnUse" gradientTransform="translate(568.479 524.151) scale(25.084 25.0848)">
<stop offset="0.0592593" stop-color="#0A1656"/>
<stop offset="0.8889" stop-color="#4478AF"/>
</radialGradient>
<radialGradient id="paint19_radial" cx="0" cy="0" r="1" gradientUnits="userSpaceOnUse" gradientTransform="translate(818.707 431.638) rotate(175.135) scale(25.0842 25.0852)">
<stop offset="0.0592593" stop-color="#0A1656"/>
<stop offset="0.8889" stop-color="#4478AF"/>
</radialGradient>
<radialGradient id="paint20_radial" cx="0" cy="0" r="1" gradientUnits="userSpaceOnUse" gradientTransform="translate(822.5 -99.4084) rotate(-134.999) scale(319.652)">
<stop offset="0.0592593" stop-color="#0A1656"/>
<stop offset="0.8889" stop-color="#4478AF"/>
</radialGradient>
<radialGradient id="paint21_radial" cx="0" cy="0" r="1" gradientUnits="userSpaceOnUse" gradientTransform="translate(822.493 -99.4078) rotate(-134.999) scale(319.652)">
<stop offset="0.0592593" stop-color="#0A1656"/>
<stop offset="0.8889" stop-color="#4478AF"/>
</radialGradient>
<radialGradient id="paint22_radial" cx="0" cy="0" r="1" gradientUnits="userSpaceOnUse" gradientTransform="translate(822.493 -99.4036) rotate(-134.999) scale(319.641)">
<stop offset="0.0592593" stop-color="#0A1656"/>
<stop offset="0.8889" stop-color="#4478AF"/>
</radialGradient>
<radialGradient id="paint23_radial" cx="0" cy="0" r="1" gradientUnits="userSpaceOnUse" gradientTransform="translate(804.708 109.056) rotate(-134.999) scale(25.0844)">
<stop offset="0.0592593" stop-color="#0A1656"/>
<stop offset="0.8889" stop-color="#4478AF"/>
</radialGradient>
<radialGradient id="paint24_radial" cx="0" cy="0" r="1" gradientUnits="userSpaceOnUse" gradientTransform="translate(1346.49 -86.7362) rotate(-134.999) scale(440.53)">
<stop offset="0.0592593" stop-color="#0A1656"/>
<stop offset="0.8889" stop-color="#4478AF"/>
</radialGradient>
<radialGradient id="paint25_radial" cx="0" cy="0" r="1" gradientUnits="userSpaceOnUse" gradientTransform="translate(1346.48 -86.7316) rotate(-134.999) scale(440.522)">
<stop offset="0.0592593" stop-color="#0A1656"/>
<stop offset="0.8889" stop-color="#4478AF"/>
</radialGradient>
<radialGradient id="paint26_radial" cx="0" cy="0" r="1" gradientUnits="userSpaceOnUse" gradientTransform="translate(413.311 380.251) rotate(-134.999) scale(440.532)">
<stop offset="0.0592593" stop-color="#0A1656"/>
<stop offset="0.8889" stop-color="#4478AF"/>
</radialGradient>
<radialGradient id="paint27_radial" cx="0" cy="0" r="1" gradientUnits="userSpaceOnUse" gradientTransform="translate(413.314 380.251) rotate(-134.999) scale(440.531)">
<stop offset="0.0592593" stop-color="#0A1656"/>
<stop offset="0.8889" stop-color="#4478AF"/>
</radialGradient>
<radialGradient id="paint28_radial" cx="0" cy="0" r="1" gradientUnits="userSpaceOnUse" gradientTransform="translate(413.315 380.248) rotate(-134.999) scale(440.535)">
<stop offset="0.0592593" stop-color="#0A1656"/>
<stop offset="0.8889" stop-color="#4478AF"/>
</radialGradient>
<radialGradient id="paint29_radial" cx="0" cy="0" r="1" gradientUnits="userSpaceOnUse" gradientTransform="translate(413.312 380.25) rotate(-134.999) scale(440.533)">
<stop offset="0.0592593" stop-color="#0A1656"/>
<stop offset="0.8889" stop-color="#4478AF"/>
</radialGradient>
<radialGradient id="paint30_radial" cx="0" cy="0" r="1" gradientUnits="userSpaceOnUse" gradientTransform="translate(413.31 380.249) rotate(-134.999) scale(440.534)">
<stop offset="0.0592593" stop-color="#0A1656"/>
<stop offset="0.8889" stop-color="#4478AF"/>
</radialGradient>
<radialGradient id="paint31_radial" cx="0" cy="0" r="1" gradientUnits="userSpaceOnUse" gradientTransform="translate(413.309 380.251) rotate(-134.999) scale(440.528)">
<stop offset="0.0592593" stop-color="#0A1656"/>
<stop offset="0.8889" stop-color="#4478AF"/>
</radialGradient>
<radialGradient id="paint32_radial" cx="0" cy="0" r="1" gradientUnits="userSpaceOnUse" gradientTransform="translate(55.9238 515.648) rotate(-134.999) scale(35.4557)">
<stop offset="0.0592593" stop-color="#0A1656"/>
<stop offset="0.8889" stop-color="#4478AF"/>
</radialGradient>
<radialGradient id="paint33_radial" cx="0" cy="0" r="1" gradientUnits="userSpaceOnUse" gradientTransform="translate(1008.28 457.098) scale(5.63505 5.63526)">
<stop offset="0.0592593" stop-color="#E47E99"/>
<stop offset="0.5259" stop-color="#E43D99"/>
<stop offset="0.9926" stop-color="#B30058"/>
</radialGradient>
<radialGradient id="paint34_radial" cx="0" cy="0" r="1" gradientUnits="userSpaceOnUse" gradientTransform="translate(1025.59 778.623) scale(5.45481 5.45505)">
<stop offset="0.0592593" stop-color="#E47E99"/>
<stop offset="0.5259" stop-color="#E43D99"/>
<stop offset="0.9926" stop-color="#B30058"/>
</radialGradient>
<radialGradient id="paint35_radial" cx="0" cy="0" r="1" gradientUnits="userSpaceOnUse" gradientTransform="translate(899.977 637.764) scale(5.45456 5.45483)">
<stop offset="0.0592593" stop-color="#E47E99"/>
<stop offset="0.5259" stop-color="#E43D99"/>
<stop offset="0.9926" stop-color="#B30058"/>
</radialGradient>
<radialGradient id="paint36_radial" cx="0" cy="0" r="1" gradientUnits="userSpaceOnUse" gradientTransform="translate(992.88 581.212) scale(5.45481 5.45505)">
<stop offset="0.0592593" stop-color="#E47E99"/>
<stop offset="0.5259" stop-color="#E43D99"/>
<stop offset="0.9926" stop-color="#B30058"/>
</radialGradient>
<radialGradient id="paint37_radial" cx="0" cy="0" r="1" gradientUnits="userSpaceOnUse" gradientTransform="translate(1373.18 495.825) scale(5.45462 5.45483)">
<stop offset="0.0592593" stop-color="#E47E99"/>
<stop offset="0.5259" stop-color="#E43D99"/>
<stop offset="0.9926" stop-color="#B30058"/>
</radialGradient>
<radialGradient id="paint38_radial" cx="0" cy="0" r="1" gradientUnits="userSpaceOnUse" gradientTransform="translate(1250.9 727.404) scale(5.45468 5.45483)">
<stop offset="0.0592593" stop-color="#E47E99"/>
<stop offset="0.5259" stop-color="#E43D99"/>
<stop offset="0.9926" stop-color="#B30058"/>
</radialGradient>
<radialGradient id="paint39_radial" cx="0" cy="0" r="1" gradientUnits="userSpaceOnUse" gradientTransform="translate(1316.54 648.522) scale(34.296 34.2971)">
<stop offset="0.0592593" stop-color="#E47E99"/>
<stop offset="0.5259" stop-color="#E43D99"/>
<stop offset="0.9926" stop-color="#B30058"/>
</radialGradient>
<radialGradient id="paint40_radial" cx="0" cy="0" r="1" gradientUnits="userSpaceOnUse" gradientTransform="translate(942.404 701.415) scale(34.4269 34.4281)">
<stop offset="0.0592593" stop-color="#E47E99"/>
<stop offset="0.5259" stop-color="#E43D99"/>
<stop offset="0.9926" stop-color="#B30058"/>
</radialGradient>
<radialGradient id="paint41_radial" cx="0" cy="0" r="1" gradientUnits="userSpaceOnUse" gradientTransform="translate(293.84 81.0363) scale(5.45483 5.45501)">
<stop offset="0.0592593" stop-color="#E47E99"/>
<stop offset="0.5259" stop-color="#E43D99"/>
<stop offset="0.9926" stop-color="#B30058"/>
</radialGradient>
<radialGradient id="paint42_radial" cx="0" cy="0" r="1" gradientUnits="userSpaceOnUse" gradientTransform="translate(519.16 29.8173) scale(5.45462 5.45478)">
<stop offset="0.0592593" stop-color="#E47E99"/>
<stop offset="0.5259" stop-color="#E43D99"/>
<stop offset="0.9926" stop-color="#B30058"/>
</radialGradient>
<radialGradient id="paint43_radial" cx="0" cy="0" r="1" gradientUnits="userSpaceOnUse" gradientTransform="translate(749.771 137.705) scale(3.95784 3.95801)">
<stop offset="0.0592593" stop-color="#E47E99"/>
<stop offset="0.5259" stop-color="#E43D99"/>
<stop offset="0.9926" stop-color="#B30058"/>
</radialGradient>
<radialGradient id="paint44_radial" cx="0" cy="0" r="1" gradientUnits="userSpaceOnUse" gradientTransform="translate(658.63 35.4987) scale(3.95787 3.95802)">
<stop offset="0.0592593" stop-color="#E47E99"/>
<stop offset="0.5259" stop-color="#E43D99"/>
<stop offset="0.9926" stop-color="#B30058"/>
</radialGradient>
<radialGradient id="paint45_radial" cx="0" cy="0" r="1" gradientUnits="userSpaceOnUse" gradientTransform="translate(913.261 100.541) scale(3.9579 3.95802)">
<stop offset="0.0592593" stop-color="#E47E99"/>
<stop offset="0.5259" stop-color="#E43D99"/>
<stop offset="0.9926" stop-color="#B30058"/>
</radialGradient>
<radialGradient id="paint46_radial" cx="0" cy="0" r="1" gradientUnits="userSpaceOnUse" gradientTransform="translate(684.847 652.695) scale(4.08853 4.08866)">
<stop offset="0.0592593" stop-color="#E47E99"/>
<stop offset="0.5259" stop-color="#E43D99"/>
<stop offset="0.9926" stop-color="#B30058"/>
</radialGradient>
<radialGradient id="paint47_radial" cx="0" cy="0" r="1" gradientUnits="userSpaceOnUse" gradientTransform="translate(840.927 478.849) scale(3.4679 3.46809)">
<stop offset="0.0592593" stop-color="#E47E99"/>
<stop offset="0.5259" stop-color="#E43D99"/>
<stop offset="0.9926" stop-color="#B30058"/>
</radialGradient>
<radialGradient id="paint48_radial" cx="0" cy="0" r="1" gradientUnits="userSpaceOnUse" gradientTransform="translate(833.105 615.568) scale(3.46794)">
<stop offset="0.0592593" stop-color="#E47E99"/>
<stop offset="0.5259" stop-color="#E43D99"/>
<stop offset="0.9926" stop-color="#B30058"/>
</radialGradient>
<radialGradient id="paint49_radial" cx="0" cy="0" r="1" gradientUnits="userSpaceOnUse" gradientTransform="translate(756.426 596.916) scale(3.46797 3.46809)">
<stop offset="0.0592593" stop-color="#E47E99"/>
<stop offset="0.5259" stop-color="#E43D99"/>
<stop offset="0.9926" stop-color="#B30058"/>
</radialGradient>
<radialGradient id="paint50_radial" cx="0" cy="0" r="1" gradientUnits="userSpaceOnUse" gradientTransform="translate(517.498 445.6) scale(3.46794 3.46806)">
<stop offset="0.0592593" stop-color="#E47E99"/>
<stop offset="0.5259" stop-color="#E43D99"/>
<stop offset="0.9926" stop-color="#B30058"/>
</radialGradient>
<radialGradient id="paint51_radial" cx="0" cy="0" r="1" gradientUnits="userSpaceOnUse" gradientTransform="translate(699.044 389.519) scale(3.4679 3.46806)">
<stop offset="0.0592593" stop-color="#E47E99"/>
<stop offset="0.5259" stop-color="#E43D99"/>
<stop offset="0.9926" stop-color="#B30058"/>
</radialGradient>
<radialGradient id="paint52_radial" cx="0" cy="0" r="1" gradientUnits="userSpaceOnUse" gradientTransform="translate(842.81 550.276) scale(26.7486 26.7496)">
<stop offset="0.0592593" stop-color="#E47E99"/>
<stop offset="0.5259" stop-color="#E43D99"/>
<stop offset="0.9926" stop-color="#B30058"/>
</radialGradient>
<radialGradient id="paint53_radial" cx="0" cy="0" r="1" gradientUnits="userSpaceOnUse" gradientTransform="translate(223.558 540.381) scale(5.63469 5.6349)">
<stop offset="0.0592593" stop-color="#E47E99"/>
<stop offset="0.5259" stop-color="#E43D99"/>
<stop offset="0.9926" stop-color="#B30058"/>
</radialGradient>
<radialGradient id="paint54_radial" cx="0" cy="0" r="1" gradientUnits="userSpaceOnUse" gradientTransform="translate(438.663 300.789) scale(4.77948 4.77967)">
<stop offset="0.0592593" stop-color="#E47E99"/>
<stop offset="0.5259" stop-color="#E43D99"/>
<stop offset="0.9926" stop-color="#B30058"/>
</radialGradient>
<radialGradient id="paint55_radial" cx="0" cy="0" r="1" gradientUnits="userSpaceOnUse" gradientTransform="translate(427.884 489.214) scale(4.77948 4.7797)">
<stop offset="0.0592593" stop-color="#E47E99"/>
<stop offset="0.5259" stop-color="#E43D99"/>
<stop offset="0.9926" stop-color="#B30058"/>
</radialGradient>
<radialGradient id="paint56_radial" cx="0" cy="0" r="1" gradientUnits="userSpaceOnUse" gradientTransform="translate(322.205 463.508) scale(4.77953 4.7797)">
<stop offset="0.0592593" stop-color="#E47E99"/>
<stop offset="0.5259" stop-color="#E43D99"/>
<stop offset="0.9926" stop-color="#B30058"/>
</radialGradient>
<radialGradient id="paint57_radial" cx="0" cy="0" r="1" gradientUnits="userSpaceOnUse" gradientTransform="translate(914.738 250.778) scale(4.77953 4.77967)">
<stop offset="0.0592593" stop-color="#E47E99"/>
<stop offset="0.5259" stop-color="#E43D99"/>
<stop offset="0.9926" stop-color="#B30058"/>
</radialGradient>
<radialGradient id="paint58_radial" cx="0" cy="0" r="1" gradientUnits="userSpaceOnUse" gradientTransform="translate(1185.52 496.499) scale(17.8092 17.6289)">
<stop offset="0.0592593" stop-color="#E47E99"/>
<stop offset="0.5259" stop-color="#E43D99"/>
<stop offset="0.9926" stop-color="#B30058"/>
</radialGradient>
<radialGradient id="paint59_radial" cx="0" cy="0" r="1" gradientUnits="userSpaceOnUse" gradientTransform="translate(1239.76 303.265) scale(5.63468 5.63487)">
<stop offset="0.0592593" stop-color="#E47E99"/>
<stop offset="0.5259" stop-color="#E43D99"/>
<stop offset="0.9926" stop-color="#B30058"/>
</radialGradient>
<radialGradient id="paint60_radial" cx="0" cy="0" r="1" gradientUnits="userSpaceOnUse" gradientTransform="translate(1444.08 252.098) scale(4.77939 4.77969)">
<stop offset="0.0592593" stop-color="#E47E99"/>
<stop offset="0.5259" stop-color="#E43D99"/>
<stop offset="0.9926" stop-color="#B30058"/>
</radialGradient>
<radialGradient id="paint61_radial" cx="0" cy="0" r="1" gradientUnits="userSpaceOnUse" gradientTransform="translate(1338.4 226.393) scale(4.77952 4.77969)">
<stop offset="0.0592593" stop-color="#E47E99"/>
<stop offset="0.5259" stop-color="#E43D99"/>
<stop offset="0.9926" stop-color="#B30058"/>
</radialGradient>
<radialGradient id="paint62_radial" cx="0" cy="0" r="1" gradientUnits="userSpaceOnUse" gradientTransform="translate(1009.12 17.8511) scale(4.77952 4.77968)">
<stop offset="0.0592593" stop-color="#E47E99"/>
<stop offset="0.5259" stop-color="#E43D99"/>
<stop offset="0.9926" stop-color="#B30058"/>
</radialGradient>
<radialGradient id="paint63_radial" cx="0" cy="0" r="1" gradientUnits="userSpaceOnUse" gradientTransform="translate(1457.46 162.113) scale(36.8644 36.8658)">
<stop offset="0.0592593" stop-color="#E47E99"/>
<stop offset="0.5259" stop-color="#E43D99"/>
<stop offset="0.9926" stop-color="#B30058"/>
</radialGradient>
<radialGradient id="paint64_radial" cx="0" cy="0" r="1" gradientUnits="userSpaceOnUse" gradientTransform="translate(466.645 -3.87768) scale(510.506 364.14)">
<stop offset="0.037037" stop-color="#030A2B"/>
<stop offset="0.9407" stop-color="#071256"/>
</radialGradient>
<radialGradient id="paint65_radial" cx="0" cy="0" r="1" gradientUnits="userSpaceOnUse" gradientTransform="translate(1113.11 666.013) rotate(180) scale(510.506 364.14)">
<stop offset="0.037037" stop-color="#030A2B"/>
<stop offset="0.9407" stop-color="#071256"/>
</radialGradient>
<radialGradient id="paint66_radial" cx="0" cy="0" r="1" gradientUnits="userSpaceOnUse" gradientTransform="translate(665.547 543.22) scale(656.765 468.465)">
<stop offset="0.0592593" stop-color="#071256"/>
<stop offset="0.963" stop-color="#030A2B"/>
</radialGradient>
<radialGradient id="paint67_radial" cx="0" cy="0" r="1" gradientUnits="userSpaceOnUse" gradientTransform="translate(724.014 321.06) scale(587.403 418.99)">
<stop offset="0.0592593" stop-color="#071256"/>
<stop offset="0.963" stop-color="#030A2B"/>
</radialGradient>
<radialGradient id="paint68_radial" cx="0" cy="0" r="1" gradientUnits="userSpaceOnUse" gradientTransform="translate(789.829 131.774) scale(608.832 434.275)">
<stop offset="0.0592593" stop-color="#071256"/>
<stop offset="0.963" stop-color="#030A2B"/>
</radialGradient>
<radialGradient id="paint69_radial" cx="0" cy="0" r="1" gradientUnits="userSpaceOnUse" gradientTransform="translate(757.037 698.036) scale(580.146 413.813)">
<stop offset="0.0592593" stop-color="#071256"/>
<stop offset="0.963" stop-color="#030A2B"/>
</radialGradient>
<radialGradient id="paint70_radial" cx="0" cy="0" r="1" gradientUnits="userSpaceOnUse" gradientTransform="translate(748.188 -75.1256) scale(569.627 406.31)">
<stop offset="0.0592593" stop-color="#071256"/>
<stop offset="0.963" stop-color="#030A2B"/>
</radialGradient>
<linearGradient id="paint71_linear" x1="-1345.75" y1="14228.7" x2="-791.329" y2="14377.2" gradientUnits="userSpaceOnUse">
<stop stop-color="#A3DDFD"/>
<stop offset="0.06" stop-color="#9ACEF3"/>
<stop offset="0.29" stop-color="#7E9FD3"/>
<stop offset="0.5" stop-color="#697ABA"/>
<stop offset="0.69" stop-color="#595FA8"/>
<stop offset="0.87" stop-color="#4F4F9D"/>
<stop offset="1" stop-color="#4C4999"/>
</linearGradient>
<linearGradient id="paint72_linear" x1="3384.79" y1="-2700.9" x2="3195.04" y2="-2890.65" gradientUnits="userSpaceOnUse">
<stop stop-color="#272425"/>
<stop offset="1" stop-color="#272425" stop-opacity="0"/>
</linearGradient>
<linearGradient id="paint73_linear" x1="2917.78" y1="-2410.82" x2="2815.97" y2="-2512.63" gradientUnits="userSpaceOnUse">
<stop stop-color="#272425"/>
<stop offset="1" stop-color="#272425" stop-opacity="0"/>
</linearGradient>
<linearGradient id="paint74_linear" x1="2109.88" y1="-1478.8" x2="2070.64" y2="-1518.03" gradientUnits="userSpaceOnUse">
<stop stop-color="#272425"/>
<stop offset="1" stop-color="#272425" stop-opacity="0"/>
</linearGradient>
<clipPath id="clip0">
<rect width="1589" height="1047" fill="white" transform="translate(-126 -196)"/>
</clipPath>
</defs>
</svg>
