<svg width="1500" height="851" viewBox="0 0 1500 851" fill="none" xmlns="http://www.w3.org/2000/svg">
<mask id="mask0" mask-type="alpha" maskUnits="userSpaceOnUse" x="0" y="0" width="1500" height="851">
<rect width="1500" height="851" fill="#C4C4C4"/>
</mask>
<g mask="url(#mask0)">
<mask id="mask1" mask-type="alpha" maskUnits="userSpaceOnUse" x="-77" y="-92" width="1706" height="994">
<path d="M1500.48 -91.9999C1500.48 -91.9999 1450.99 -91.9999 1171.33 -91.9999C865.913 -91.9999 630.424 -91.9999 347.129 -91.9999C63.8344 -91.9999 0.0232046 -91.9999 0.0232046 -91.9999L-76.0417 902C-76.0417 902 54.3031 762.18 347.129 700C639.956 637.82 930.808 780.857 1219.15 726.914C1507.48 672.971 1628.12 512.489 1628.12 512.489L1500.48 -91.9999Z" fill="#C4C4C4"/>
</mask>
<g mask="url(#mask1)">
<g clip-path="url(#clip0)">
<path d="M1503.12 -175H-65.625V851H1503.12V-175Z" fill="url(#paint0_radial)"/>
<path d="M15.1042 10C15.1042 10 16.3399 13.1765 17.1262 13.8824C17.9126 14.7059 20.8333 16 20.8333 16C20.8333 16 17.8002 17.2941 17.1262 18.1176C16.3399 18.9412 15.1042 22 15.1042 22C15.1042 22 13.8685 18.8235 13.0821 18.1176C12.2958 17.2941 9.375 16 9.375 16C9.375 16 12.4081 14.7059 13.0821 13.8824C13.7561 13.1765 15.1042 10 15.1042 10Z" fill="white"/>
<path d="M1484.38 22C1484.38 22 1485.72 25.1765 1486.58 25.8824C1487.44 26.7059 1490.63 28 1490.63 28C1490.63 28 1487.32 29.2941 1486.58 30.1176C1485.72 30.9412 1484.38 34 1484.38 34C1484.38 34 1483.03 30.8235 1482.17 30.1176C1481.31 29.2941 1478.12 28 1478.12 28C1478.12 28 1481.43 26.7059 1482.17 25.8824C1483.03 25.1765 1484.38 22 1484.38 22Z" fill="white"/>
<path d="M1219.27 316C1219.27 316 1220.32 318.329 1220.93 318.912C1221.53 319.494 1223.96 320.5 1223.96 320.5C1223.96 320.5 1221.53 321.506 1220.93 322.088C1220.32 322.671 1219.27 325 1219.27 325C1219.27 325 1218.22 322.671 1217.62 322.088C1217.01 321.506 1214.58 320.5 1214.58 320.5C1214.58 320.5 1217.01 319.494 1217.62 318.912C1218.22 318.329 1219.27 316 1219.27 316Z" fill="white"/>
<path d="M1020 613.442C1020 613.442 1022.25 618.738 1023.68 619.915C1025.11 621.288 1030.42 623.445 1030.42 623.445C1030.42 623.445 1024.91 625.603 1023.68 626.976C1022.25 628.349 1020 633.449 1020 633.449C1020 633.449 1017.75 628.153 1016.32 626.976C1014.89 625.603 1009.58 623.445 1009.58 623.445C1009.58 623.445 1015.1 621.288 1016.32 619.915C1017.75 618.738 1020 613.442 1020 613.442Z" fill="white"/>
<path d="M1049.48 383C1049.48 383 1050.27 384.853 1050.77 385.265C1051.27 385.745 1053.13 386.5 1053.13 386.5C1053.13 386.5 1051.2 387.255 1050.77 387.735C1050.27 388.216 1049.48 390 1049.48 390C1049.48 390 1048.69 388.147 1048.19 387.735C1047.69 387.255 1045.83 386.5 1045.83 386.5C1045.83 386.5 1047.76 385.745 1048.19 385.265C1048.69 384.853 1049.48 383 1049.48 383Z" fill="white"/>
<path d="M1367.33 577.155C1367.33 577.155 1369.58 582.451 1371.01 583.628C1372.44 585.001 1377.75 587.158 1377.75 587.158C1377.75 587.158 1372.24 589.316 1371.01 590.689C1369.58 592.062 1367.33 597.162 1367.33 597.162C1367.33 597.162 1365.08 591.866 1363.65 590.689C1362.22 589.316 1356.91 587.158 1356.91 587.158C1356.91 587.158 1362.43 585.001 1363.65 583.628C1364.88 582.451 1367.33 577.155 1367.33 577.155Z" fill="white"/>
<path d="M1391.85 464.175C1391.85 464.175 1395.73 472.805 1397.98 474.963C1400.23 477.12 1409.22 480.847 1409.22 480.847C1409.22 480.847 1400.23 484.574 1397.98 486.732C1395.73 488.889 1391.85 497.52 1391.85 497.52C1391.85 497.52 1387.97 488.889 1385.72 486.732C1383.47 484.574 1374.48 480.847 1374.48 480.847C1374.48 480.847 1383.47 477.12 1385.72 474.963C1387.97 472.805 1391.85 464.175 1391.85 464.175Z" fill="white"/>
<path opacity="0.5" d="M1404.72 664.047C1404.72 664.047 1408.6 672.678 1410.85 674.835C1413.1 676.993 1422.09 680.72 1422.09 680.72C1422.09 680.72 1413.1 684.446 1410.85 686.604C1408.6 688.762 1404.72 697.392 1404.72 697.392C1404.72 697.392 1400.84 688.762 1398.59 686.604C1396.34 684.446 1387.35 680.72 1387.35 680.72C1387.35 680.72 1396.34 676.993 1398.59 674.835C1400.84 672.678 1404.72 664.047 1404.72 664.047Z" fill="white"/>
<path d="M609.132 588.531C609.132 588.531 610.766 592.258 611.788 593.239C612.809 594.22 616.691 595.789 616.691 595.789C616.691 595.789 612.809 597.358 611.788 598.338C610.766 599.319 609.132 603.046 609.132 603.046C609.132 603.046 607.497 599.319 606.476 598.338C605.454 597.358 601.572 595.789 601.572 595.789C601.572 595.789 605.454 594.22 606.476 593.239C607.497 592.454 609.132 588.531 609.132 588.531Z" fill="white"/>
<path d="M630.38 416.708C630.38 416.708 632.014 420.435 633.036 421.415C634.057 422.396 637.939 423.965 637.939 423.965C637.939 423.965 634.057 425.535 633.036 426.515C632.014 427.496 630.38 431.223 630.38 431.223C630.38 431.223 628.745 427.496 627.724 426.515C626.702 425.535 622.82 423.965 622.82 423.965C622.82 423.965 626.702 422.396 627.724 421.415C628.541 420.435 630.38 416.708 630.38 416.708Z" fill="white"/>
<path d="M861.048 562.248C861.048 562.248 862.682 565.975 863.704 566.956C864.725 567.936 868.607 569.505 868.607 569.505C868.607 569.505 864.725 571.075 863.704 572.055C862.682 573.036 861.048 576.763 861.048 576.763C861.048 576.763 859.413 573.036 858.392 572.055C857.37 571.075 853.488 569.505 853.488 569.505C853.488 569.505 857.37 567.936 858.392 566.956C859.413 565.975 861.048 562.248 861.048 562.248Z" fill="white"/>
<path d="M879.028 480.259C879.028 480.259 881.889 486.535 883.523 488.105C885.158 489.674 891.696 492.42 891.696 492.42C891.696 492.42 885.158 495.166 883.523 496.735C881.889 498.304 879.028 504.581 879.028 504.581C879.028 504.581 876.168 498.304 874.534 496.735C872.899 495.166 866.361 492.42 866.361 492.42C866.361 492.42 872.899 489.674 874.534 488.105C876.168 486.535 879.028 480.259 879.028 480.259Z" fill="white"/>
<path opacity="0.5" d="M888.022 629C888.022 629 890.021 633.387 891.164 634.484C892.306 635.581 896.876 637.5 896.876 637.5C896.876 637.5 892.306 639.419 891.164 640.516C890.021 641.613 888.022 646 888.022 646C888.022 646 886.023 641.613 884.88 640.516C883.738 639.419 879.168 637.5 879.168 637.5C879.168 637.5 883.738 635.581 884.88 634.484C886.023 633.387 888.022 629 888.022 629Z" fill="white"/>
<path d="M562.345 465.548C562.345 465.548 565.205 471.825 566.84 473.394C568.474 474.963 575.012 477.709 575.012 477.709C575.012 477.709 568.474 480.455 566.84 482.024C565.205 483.593 562.345 489.87 562.345 489.87C562.345 489.87 559.485 483.593 557.85 482.024C556.216 480.455 549.678 477.709 549.678 477.709C549.678 477.709 556.216 474.963 557.85 473.394C559.689 471.825 562.345 465.548 562.345 465.548Z" fill="white"/>
<path d="M735.418 156C735.418 156 736.059 154.462 736.059 154C736.059 153.462 735.418 152 735.418 152C735.418 152 737.021 152.615 737.501 152.615C738.062 152.615 739.585 152 739.585 152C739.585 152 738.944 153.538 738.944 154C738.944 154.538 739.585 156 739.585 156C739.585 156 737.982 155.385 737.501 155.385C737.021 155.385 735.418 156 735.418 156Z" fill="white"/>
<path opacity="0.5" d="M821.875 159C821.875 159 822.798 161.25 822.798 162C822.798 162.75 821.875 165 821.875 165C821.875 165 824.219 164.114 825 164.114C825.781 164.114 828.125 165 828.125 165C828.125 165 827.202 162.75 827.202 162C827.202 161.25 828.125 159 828.125 159C828.125 159 825.781 159.886 825 159.886C824.219 159.818 821.875 159 821.875 159Z" fill="white"/>
<path opacity="0.5" d="M1119.79 652.123C1119.79 652.123 1122.04 646.827 1122.04 645.061C1122.04 643.296 1119.79 638 1119.79 638C1119.79 638 1125.31 640.158 1127.15 640.158C1128.99 640.158 1134.5 638 1134.5 638C1134.5 638 1132.26 643.296 1132.26 645.061C1132.26 646.827 1134.5 652.123 1134.5 652.123C1134.5 652.123 1128.99 649.965 1127.15 649.965C1125.31 649.965 1119.79 652.123 1119.79 652.123Z" fill="white"/>
<path d="M1428.12 317C1428.12 317 1428.74 315.156 1428.74 314.5C1428.74 313.844 1428.12 312 1428.12 312C1428.12 312 1429.66 312.738 1430.21 312.738C1430.75 312.738 1432.29 312 1432.29 312C1432.29 312 1431.68 313.844 1431.68 314.5C1431.68 315.156 1432.29 317 1432.29 317C1432.29 317 1430.75 316.262 1430.21 316.262C1429.63 316.262 1428.12 317 1428.12 317Z" fill="white"/>
<path d="M258.738 736.621C258.738 736.621 260.986 731.325 260.986 729.56C260.986 727.795 258.738 722.499 258.738 722.499C258.738 722.499 264.255 724.656 266.094 724.656C267.932 724.656 273.449 722.499 273.449 722.499C273.449 722.499 271.201 727.795 271.201 729.56C271.201 731.325 273.449 736.621 273.449 736.621C273.449 736.621 267.932 734.464 266.094 734.464C264.255 734.464 258.738 736.621 258.738 736.621Z" fill="white"/>
<path d="M68.75 547C68.75 547 69.864 544.375 69.864 543.5C69.864 542.625 68.75 540 68.75 540C68.75 540 71.4844 541.069 72.3958 541.069C73.3073 541.069 76.0417 540 76.0417 540C76.0417 540 74.9276 542.625 74.9276 543.5C74.9276 544.375 76.0417 547 76.0417 547C76.0417 547 73.3073 545.931 72.3958 545.931C71.4844 545.931 68.75 547 68.75 547Z" fill="white"/>
<path opacity="0.5" d="M88.541 434C88.541 434 89.9242 431.049 89.9242 430C89.9242 428.951 88.541 426 88.541 426C88.541 426 91.999 427.18 93.2285 427.18C94.458 427.18 97.916 426 97.916 426C97.916 426 96.5328 428.951 96.5328 430C96.5328 431.049 97.916 434 97.916 434C97.916 434 94.458 432.82 93.2285 432.82C91.999 432.82 88.541 434 88.541 434Z" fill="white" fill-opacity="0.5"/>
<path d="M756.25 382C756.25 382 756.865 380.525 756.865 380C756.865 379.475 756.25 378 756.25 378C756.25 378 757.787 378.59 758.333 378.59C758.88 378.59 760.417 378 760.417 378C760.417 378 759.802 379.475 759.802 380C759.802 380.525 760.417 382 760.417 382C760.417 382 758.88 381.41 758.333 381.41C757.787 381.41 756.25 382 756.25 382Z" fill="white"/>
<path d="M374.582 752.509C374.582 752.509 378.26 743.682 378.26 740.544C378.26 737.406 374.582 728.579 374.582 728.579C374.582 728.579 383.776 732.11 387.045 732.11C390.314 732.11 399.508 728.579 399.508 728.579C399.508 728.579 395.83 737.406 395.83 740.544C395.83 743.682 399.508 752.509 399.508 752.509C399.508 752.509 390.314 748.978 387.045 748.978C383.776 748.978 374.582 752.509 374.582 752.509Z" fill="white"/>
<path opacity="0.5" d="M440.984 143.281C444.253 143.281 446.909 140.731 446.909 137.592C446.909 134.454 444.253 131.904 440.984 131.904C437.715 131.904 435.059 134.454 435.059 137.592C435.059 140.731 437.715 143.281 440.984 143.281Z" fill="url(#paint1_radial)"/>
<path opacity="0.5" d="M426.479 18.9246C426.479 18.9246 427.704 15.9824 428.522 15.394C429.339 14.6094 432.199 13.4325 432.199 13.4325C432.199 13.4325 429.135 12.2556 428.522 11.4711C427.704 10.6865 426.479 7.94043 426.479 7.94043C426.479 7.94043 425.253 10.8826 424.435 11.4711C423.618 12.2556 420.758 13.4325 420.758 13.4325C420.758 13.4325 423.823 14.6094 424.435 15.394C425.048 16.1786 426.479 18.9246 426.479 18.9246Z" fill="url(#paint2_radial)"/>
<path opacity="0.5" d="M61.7832 190.552C61.7832 190.552 63.0091 187.61 63.8263 187.021C64.6436 186.237 67.5039 185.06 67.5039 185.06C67.5039 185.06 64.4392 183.883 63.8263 183.099C63.0091 182.314 61.7832 179.568 61.7832 179.568C61.7832 179.568 60.5573 182.51 59.7401 183.099C58.9229 183.883 56.0625 185.06 56.0625 185.06C56.0625 185.06 59.1272 186.237 59.7401 187.021C60.5573 187.61 61.7832 190.552 61.7832 190.552Z" fill="url(#paint3_radial)"/>
<path opacity="0.5" d="M1351.19 651.494C1354.46 651.494 1357.12 648.944 1357.12 645.806C1357.12 642.668 1354.46 640.118 1351.19 640.118C1347.92 640.118 1345.27 642.668 1345.27 645.806C1345.27 648.944 1347.92 651.494 1351.19 651.494Z" fill="url(#paint4_radial)"/>
<path opacity="0.5" d="M1255.78 342.761C1255.78 342.761 1257 339.819 1257.82 339.23C1258.64 338.446 1261.5 337.269 1261.5 337.269C1261.5 337.269 1258.43 336.092 1257.82 335.308C1257 334.523 1255.78 331.777 1255.78 331.777C1255.78 331.777 1254.55 334.719 1253.73 335.308C1252.92 336.092 1250.06 337.269 1250.06 337.269C1250.06 337.269 1253.12 338.446 1253.73 339.23C1254.55 340.015 1255.78 342.761 1255.78 342.761Z" fill="url(#paint5_radial)"/>
<path opacity="0.5" d="M1417.18 450.641C1417.18 450.641 1418.41 447.699 1419.23 447.11C1420.04 446.326 1422.9 445.149 1422.9 445.149C1422.9 445.149 1419.84 443.972 1419.23 443.187C1418.41 442.403 1417.18 439.657 1417.18 439.657C1417.18 439.657 1415.96 442.599 1415.14 443.187C1414.32 443.972 1411.46 445.149 1411.46 445.149C1411.46 445.149 1414.53 446.326 1415.14 447.11C1415.96 447.699 1417.18 450.641 1417.18 450.641Z" fill="url(#paint6_radial)"/>
<path opacity="0.5" d="M1336.69 527.138C1336.69 527.138 1337.91 524.196 1338.73 523.607C1339.55 522.823 1342.41 521.646 1342.41 521.646C1342.41 521.646 1339.34 520.469 1338.73 519.684C1337.91 518.9 1336.69 516.154 1336.69 516.154C1336.69 516.154 1335.46 519.096 1334.64 519.684C1333.83 520.469 1330.96 521.646 1330.96 521.646C1330.96 521.646 1334.03 522.823 1334.64 523.607C1335.46 524.392 1336.69 527.138 1336.69 527.138Z" fill="url(#paint7_radial)"/>
<path opacity="0.5" d="M972.193 698.765C972.193 698.765 973.419 695.823 974.237 695.235C975.054 694.45 977.914 693.273 977.914 693.273C977.914 693.273 974.85 692.096 974.237 691.312C973.419 690.527 972.193 687.781 972.193 687.781C972.193 687.781 970.968 690.723 970.15 691.312C969.333 692.096 966.473 693.273 966.473 693.273C966.473 693.273 969.537 694.45 970.15 695.235C970.763 695.823 972.193 698.765 972.193 698.765Z" fill="url(#paint8_radial)"/>
<path opacity="0.5" d="M1040.03 445.149C1040.03 445.149 1041.25 442.207 1042.07 441.619C1042.89 440.834 1045.75 439.657 1045.75 439.657C1045.75 439.657 1042.68 438.48 1042.07 437.696C1041.25 436.911 1040.03 434.165 1040.03 434.165C1040.03 434.165 1038.8 437.107 1037.98 437.696C1037.17 438.48 1034.3 439.657 1034.3 439.657C1034.3 439.657 1037.37 440.834 1037.98 441.619C1038.6 442.207 1040.03 445.149 1040.03 445.149Z" fill="url(#paint9_radial)"/>
<path d="M1005.09 528.315C1005.09 529.295 1004.27 530.276 1003.04 530.276C1002.02 530.276 1001 529.492 1001 528.315C1001 527.138 1001.82 526.353 1003.04 526.353C1004.27 526.549 1005.09 527.334 1005.09 528.315ZM1020.82 493.989C1018.57 493.989 1016.94 495.755 1016.94 497.716C1016.94 499.874 1018.78 501.443 1020.82 501.443C1023.07 501.443 1024.7 499.677 1024.7 497.716C1024.7 495.755 1022.86 493.989 1020.82 493.989ZM1028.58 539.103C1024.29 539.103 1020.82 542.437 1020.82 546.556C1020.82 550.675 1024.29 554.01 1028.58 554.01C1032.87 554.01 1036.35 550.675 1036.35 546.556C1036.35 542.437 1032.87 539.103 1028.58 539.103ZM960.956 547.733C958.709 547.733 957.074 549.498 957.074 551.46C957.074 553.618 958.913 555.187 960.956 555.187C963.204 555.187 964.838 553.421 964.838 551.46C964.838 549.498 962.999 547.733 960.956 547.733Z" fill="url(#paint10_radial)"/>
<path d="M1350.4 395.224C1350.4 394.734 1350.7 394.243 1351.3 394.243C1351.8 394.243 1352.3 394.537 1352.3 395.126C1352.3 395.617 1352 396.108 1351.4 396.108C1350.9 396.108 1350.5 395.715 1350.4 395.224ZM1344.3 412.992C1345.4 412.894 1346.1 412.01 1346 410.93C1345.9 409.851 1345 409.163 1343.9 409.262C1342.8 409.36 1342.09 410.243 1342.19 411.323C1342.29 412.305 1343.2 413.09 1344.3 412.992ZM1338.49 390.807C1340.59 390.611 1342.19 388.844 1341.99 386.782C1341.79 384.721 1339.99 383.15 1337.89 383.347C1335.79 383.543 1334.19 385.31 1334.39 387.371C1334.59 389.531 1336.39 391.003 1338.49 390.807ZM1371.21 383.739C1372.31 383.641 1373.01 382.758 1372.91 381.678C1372.81 380.598 1371.91 379.911 1370.81 380.009C1369.71 380.107 1369.01 380.991 1369.11 382.071C1369.21 383.052 1370.11 383.838 1371.21 383.739Z" fill="url(#paint11_radial)"/>
<path opacity="0.5" d="M849.402 616.188C851.854 616.188 853.692 614.423 853.692 612.069C853.692 609.715 851.854 607.95 849.402 607.95C846.95 607.95 845.111 609.715 845.111 612.069C845.111 614.423 846.95 616.188 849.402 616.188Z" fill="url(#paint12_radial)"/>
<path opacity="0.5" d="M780.141 392.19C780.141 392.19 781.163 390.032 781.571 389.64C782.184 389.051 784.227 388.267 784.227 388.267C784.227 388.267 781.98 387.286 781.571 386.894C780.958 386.305 780.141 384.344 780.141 384.344C780.141 384.344 779.119 386.501 778.711 386.894C778.098 387.482 776.055 388.267 776.055 388.267C776.055 388.267 778.302 389.247 778.711 389.64C779.119 390.228 780.141 392.19 780.141 392.19Z" fill="url(#paint13_radial)"/>
<path opacity="0.5" d="M897.211 470.452C897.211 470.452 898.233 468.294 898.641 467.902C899.254 467.313 901.297 466.529 901.297 466.529C901.297 466.529 899.05 465.548 898.641 465.156C898.029 464.567 897.211 462.606 897.211 462.606C897.211 462.606 896.19 464.764 895.781 465.156C895.168 465.744 893.125 466.529 893.125 466.529C893.125 466.529 895.372 467.51 895.781 467.902C896.394 468.294 897.211 470.452 897.211 470.452Z" fill="url(#paint14_radial)"/>
<path opacity="0.5" d="M838.983 525.961C838.983 525.961 840.004 523.803 840.413 523.411C841.026 522.823 843.069 522.038 843.069 522.038C843.069 522.038 840.821 521.057 840.413 520.665C839.8 520.077 838.983 518.115 838.983 518.115C838.983 518.115 837.961 520.273 837.552 520.665C836.94 521.254 834.896 522.038 834.896 522.038C834.896 522.038 837.144 523.019 837.552 523.411C837.961 524 838.983 525.961 838.983 525.961Z" fill="url(#paint15_radial)"/>
<path opacity="0.5" d="M574.399 650.513C574.399 650.513 575.42 648.356 575.829 647.963C576.442 647.375 578.485 646.59 578.485 646.59C578.485 646.59 576.238 645.61 575.829 645.217C575.216 644.629 574.399 642.667 574.399 642.667C574.399 642.667 573.377 644.825 572.969 645.217C572.356 645.806 570.312 646.59 570.312 646.59C570.312 646.59 572.56 647.571 572.969 647.963C573.377 648.356 574.399 650.513 574.399 650.513Z" fill="url(#paint16_radial)"/>
<path opacity="0.5" d="M623.434 466.333C623.434 466.333 624.456 464.175 624.864 463.783C625.477 463.194 627.52 462.41 627.52 462.41C627.52 462.41 625.273 461.429 624.864 461.037C624.251 460.448 623.434 458.487 623.434 458.487C623.434 458.487 622.412 460.644 622.004 461.037C621.391 461.625 619.348 462.41 619.348 462.41C619.348 462.41 621.595 463.391 622.004 463.783C622.617 464.371 623.434 466.333 623.434 466.333Z" fill="url(#paint17_radial)"/>
<path d="M598.304 526.942C598.304 527.726 597.691 528.315 596.874 528.315C596.057 528.315 595.444 527.726 595.444 526.942C595.444 526.157 596.057 525.569 596.874 525.569C597.691 525.569 598.304 526.157 598.304 526.942ZM609.542 502.031C607.907 502.031 606.681 503.208 606.681 504.777C606.681 506.346 607.907 507.523 609.542 507.523C611.176 507.523 612.402 506.346 612.402 504.777C612.402 503.208 611.176 502.031 609.542 502.031ZM615.262 534.591C612.198 534.591 609.542 536.945 609.542 540.083C609.542 543.026 611.993 545.576 615.262 545.576C618.327 545.576 620.983 543.222 620.983 540.083C620.983 536.945 618.531 534.591 615.262 534.591ZM566.228 540.868C564.593 540.868 563.367 542.045 563.367 543.614C563.367 545.183 564.593 546.36 566.228 546.36C567.862 546.36 569.088 545.183 569.088 543.614C569.088 542.241 567.658 540.868 566.228 540.868Z" fill="url(#paint18_radial)"/>
<path d="M846.543 429.458C846.543 428.673 847.156 428.084 847.769 428.084C848.382 428.084 849.199 428.673 849.199 429.261C849.199 430.046 848.586 430.634 847.973 430.634C847.156 430.634 846.543 430.242 846.543 429.458ZM837.349 455.153C838.983 454.956 840.005 453.78 840.005 452.21C839.801 450.641 838.575 449.661 836.94 449.661C835.306 449.857 834.284 451.034 834.284 452.603C834.488 454.172 835.714 455.349 837.349 455.153ZM828.768 423.181C831.832 422.985 834.284 420.239 833.876 417.296C833.671 414.354 830.811 412 827.746 412.393C824.682 412.589 822.23 415.335 822.638 418.277C823.047 421.219 825.703 423.377 828.768 423.181ZM877.19 412.785C878.824 412.589 879.846 411.412 879.846 409.843C879.641 408.274 878.415 407.293 876.781 407.293C875.146 407.489 874.125 408.666 874.125 410.235C874.329 411.804 875.759 412.981 877.19 412.785Z" fill="url(#paint19_radial)"/>
<path opacity="0.5" d="M608.112 74.6299C608.112 74.6299 605.864 75.4145 605.047 75.4145C604.23 75.4145 601.982 74.6299 601.982 74.6299C601.982 74.6299 602.8 76.7875 602.8 77.5721C602.8 78.3566 601.982 80.5143 601.982 80.5143C601.982 80.5143 604.23 79.7297 605.047 79.7297C605.864 79.7297 608.112 80.5143 608.112 80.5143C608.112 80.5143 607.295 78.3566 607.295 77.5721C607.295 76.7875 608.112 74.6299 608.112 74.6299Z" fill="url(#paint20_radial)"/>
<path opacity="0.5" d="M943.795 31.8701C943.795 31.8701 941.548 32.6547 940.731 32.6547C939.913 32.6547 937.666 31.8701 937.666 31.8701C937.666 31.8701 938.483 34.0277 938.483 34.8123C938.483 35.5969 937.666 37.7545 937.666 37.7545C937.666 37.7545 939.913 36.9699 940.731 36.9699C941.548 36.9699 943.795 37.7545 943.795 37.7545C943.795 37.7545 942.978 35.5969 942.978 34.8123C942.978 34.0277 943.795 31.8701 943.795 31.8701Z" fill="url(#paint21_radial)"/>
<path opacity="0.5" d="M773.604 128.57C773.604 128.57 771.356 129.354 770.539 129.354C769.722 129.354 767.475 128.57 767.475 128.57C767.475 128.57 768.292 130.727 768.292 131.512C768.292 132.297 767.475 134.454 767.475 134.454C767.475 134.454 769.722 133.67 770.539 133.67C771.356 133.67 773.604 134.454 773.604 134.454C773.604 134.454 772.787 132.297 772.787 131.512C772.582 130.727 773.604 128.57 773.604 128.57Z" fill="url(#paint22_radial)"/>
<path d="M835.918 102.875C836.531 102.286 837.348 102.286 837.961 102.875C838.574 103.463 838.574 104.248 837.961 104.836C837.348 105.425 836.531 105.425 835.918 104.836C835.305 104.444 835.305 103.463 835.918 102.875ZM809.562 112.878C810.584 113.859 812.422 113.859 813.648 112.878C814.67 111.897 814.67 110.132 813.648 108.955C812.627 107.974 810.788 107.974 809.562 108.955C808.336 110.132 808.336 111.897 809.562 112.878ZM829.585 86.0062C831.832 88.1638 835.305 88.1638 837.553 86.0062C839.8 83.8486 839.8 80.5141 837.553 78.3565C835.305 76.1989 831.832 76.1989 829.585 78.3565C827.337 80.3179 827.337 83.8486 829.585 86.0062ZM869.017 114.84C870.038 115.82 871.877 115.82 873.103 114.84C874.124 113.859 874.124 112.094 873.103 110.917C872.081 109.936 870.242 109.936 869.017 110.917C867.791 112.094 867.791 113.859 869.017 114.84Z" fill="url(#paint23_radial)"/>
<path opacity="0.5" d="M1060.05 153.284C1060.05 153.284 1056.98 154.461 1055.96 154.461C1054.94 154.461 1051.88 153.284 1051.88 153.284C1051.88 153.284 1053.1 156.226 1053.1 157.207C1053.1 158.188 1051.88 161.13 1051.88 161.13C1051.88 161.13 1054.94 159.953 1055.96 159.953C1056.98 159.953 1060.05 161.13 1060.05 161.13C1060.05 161.13 1058.82 158.188 1058.82 157.207C1058.82 156.226 1060.05 153.284 1060.05 153.284Z" fill="url(#paint24_radial)"/>
<path opacity="0.5" d="M1287.85 227.427C1287.85 227.427 1284.79 228.604 1283.77 228.604C1282.75 228.604 1279.68 227.427 1279.68 227.427C1279.68 227.427 1280.91 230.369 1280.91 231.35C1280.91 232.331 1279.68 235.273 1279.68 235.273C1279.68 235.273 1282.75 234.096 1283.77 234.096C1284.79 234.096 1287.85 235.273 1287.85 235.273C1287.85 235.273 1286.63 232.331 1286.63 231.35C1286.63 230.369 1287.85 227.427 1287.85 227.427Z" fill="url(#paint25_radial)"/>
<path opacity="0.5" d="M247.705 337.073C245.457 334.915 241.78 334.915 239.328 337.073C237.081 339.23 237.081 342.761 239.328 345.115C241.576 347.272 245.253 347.272 247.705 345.115C250.157 342.957 250.157 339.427 247.705 337.073Z" fill="url(#paint26_radial)"/>
<path opacity="0.5" d="M87.9342 620.307C87.9342 620.307 84.8695 621.484 83.848 621.484C82.8264 621.484 79.7617 620.307 79.7617 620.307C79.7617 620.307 80.9876 623.249 80.9876 624.23C80.9876 625.211 79.7617 628.153 79.7617 628.153C79.7617 628.153 82.8264 626.976 83.848 626.976C84.8695 626.976 87.9342 628.153 87.9342 628.153C87.9342 628.153 86.7084 625.211 86.7084 624.23C86.7084 623.053 87.9342 620.307 87.9342 620.307Z" fill="url(#paint27_radial)"/>
<path opacity="0.5" d="M53.2018 434.361C53.2018 434.361 50.1371 435.538 49.1155 435.538C48.094 435.538 45.0293 434.361 45.0293 434.361C45.0293 434.361 46.2552 437.303 46.2552 438.284C46.2552 439.265 45.0293 442.207 45.0293 442.207C45.0293 442.207 48.094 441.03 49.1155 441.03C50.1371 441.03 53.2018 442.207 53.2018 442.207C53.2018 442.207 51.9759 439.265 51.9759 438.284C51.9759 437.303 53.2018 434.361 53.2018 434.361Z" fill="url(#paint28_radial)"/>
<path opacity="0.5" d="M166.389 434.949C166.389 434.949 163.325 436.126 162.303 436.126C161.281 436.126 158.217 434.949 158.217 434.949C158.217 434.949 159.443 437.891 159.443 438.872C159.443 439.853 158.217 442.795 158.217 442.795C158.217 442.795 161.281 441.618 162.303 441.618C163.325 441.618 166.389 442.795 166.389 442.795C166.389 442.795 165.163 439.853 165.163 438.872C165.163 437.891 166.389 434.949 166.389 434.949Z" fill="url(#paint29_radial)"/>
<path opacity="0.5" d="M550.495 561.071C550.495 561.071 547.43 562.248 546.408 562.248C545.387 562.248 542.322 561.071 542.322 561.071C542.322 561.071 543.548 564.013 543.548 564.994C543.548 565.975 542.322 568.917 542.322 568.917C542.322 568.917 545.387 567.74 546.408 567.74C547.43 567.74 550.495 568.917 550.495 568.917C550.495 568.917 549.269 565.975 549.269 564.994C549.473 564.013 550.495 561.071 550.495 561.071Z" fill="url(#paint30_radial)"/>
<path opacity="0.5" d="M315.741 694.45C315.741 694.45 312.676 695.627 311.655 695.627C310.633 695.627 307.568 694.45 307.568 694.45C307.568 694.45 308.794 697.392 308.794 698.373C308.794 699.354 307.568 702.296 307.568 702.296C307.568 702.296 310.633 701.119 311.655 701.119C312.676 701.119 315.741 702.296 315.741 702.296C315.741 702.296 314.515 699.354 314.515 698.373C314.719 697.392 315.741 694.45 315.741 694.45Z" fill="url(#paint31_radial)"/>
<path d="M60.9652 522.038C60.3522 522.822 59.1264 523.019 58.3091 522.234C57.4919 521.646 57.2876 520.469 58.1048 519.684C58.7178 518.9 59.9436 518.703 60.7609 519.488C61.5781 519.88 61.7824 521.057 60.9652 522.038ZM96.1067 505.365C94.4722 503.992 92.0205 504.189 90.5903 505.758C89.1601 507.327 89.3645 509.681 90.9989 511.054C92.6334 512.427 95.0852 512.231 96.5154 510.661C97.9456 509.092 97.7412 506.738 96.1067 505.365ZM71.7937 544.595C68.5247 541.849 63.6212 542.241 60.7609 545.575C57.9005 548.714 58.3091 553.421 61.7824 556.167C65.0514 558.913 69.9549 558.521 72.8152 555.186C75.4713 552.048 75.0627 547.145 71.7937 544.595ZM14.1779 509.288C12.5434 507.915 10.0917 508.112 8.66149 509.681C7.23131 511.25 7.43561 513.604 9.0701 514.977C10.7046 516.35 13.1563 516.153 14.5865 514.584C16.0167 513.015 15.8124 510.661 14.1779 509.288Z" fill="url(#paint32_radial)"/>
<path opacity="0.5" d="M1051.67 451.622C1048.61 450.837 1045.34 452.799 1044.52 455.741C1043.7 458.683 1045.75 461.822 1048.81 462.606C1051.88 463.391 1055.14 461.429 1055.96 458.487C1056.78 455.349 1054.74 452.406 1051.67 451.622Z" fill="url(#paint33_radial)"/>
<path opacity="0.5" d="M1069.65 773.104C1069.65 773.104 1067.61 775.654 1066.79 776.243C1065.97 776.831 1062.7 777.42 1062.7 777.42C1062.7 777.42 1065.36 779.381 1065.97 780.166C1066.58 780.95 1067.2 784.089 1067.2 784.089C1067.2 784.089 1069.24 781.539 1070.06 780.95C1070.88 780.362 1074.14 779.773 1074.14 779.773C1074.14 779.773 1071.49 777.812 1070.88 777.027C1070.26 776.243 1069.65 773.104 1069.65 773.104Z" fill="url(#paint34_radial)"/>
<path opacity="0.5" d="M938.892 632.272C938.892 632.272 936.849 634.822 936.032 635.41C935.214 635.999 931.945 636.587 931.945 636.587C931.945 636.587 934.601 638.549 935.214 639.333C935.827 640.118 936.44 643.256 936.44 643.256C936.44 643.256 938.483 640.706 939.3 640.118C940.118 639.529 943.387 638.941 943.387 638.941C943.387 638.941 940.731 636.979 940.118 636.195C939.505 635.41 938.892 632.272 938.892 632.272Z" fill="url(#paint35_radial)"/>
<path opacity="0.5" d="M1035.53 575.782C1035.53 575.782 1033.49 578.332 1032.67 578.92C1031.85 579.509 1028.58 580.097 1028.58 580.097C1028.58 580.097 1031.24 582.058 1031.85 582.843C1032.47 583.628 1033.08 586.766 1033.08 586.766C1033.08 586.766 1035.12 584.216 1035.94 583.628C1036.76 583.039 1040.03 582.451 1040.03 582.451C1040.03 582.451 1037.37 580.489 1036.76 579.705C1036.14 578.92 1035.53 575.782 1035.53 575.782Z" fill="url(#paint36_radial)"/>
<path opacity="0.5" d="M1431.69 490.458C1431.69 490.458 1429.65 493.008 1428.83 493.597C1428.01 494.185 1424.74 494.774 1424.74 494.774C1424.74 494.774 1427.4 496.735 1428.01 497.52C1428.62 498.304 1429.24 501.443 1429.24 501.443C1429.24 501.443 1431.28 498.893 1432.1 498.304C1432.91 497.716 1436.18 497.127 1436.18 497.127C1436.18 497.127 1433.53 495.166 1432.91 494.381C1432.3 493.401 1431.69 490.458 1431.69 490.458Z" fill="url(#paint37_radial)"/>
<path opacity="0.5" d="M1304.4 721.91C1304.4 721.91 1302.36 724.46 1301.54 725.049C1300.73 725.637 1297.46 726.225 1297.46 726.225C1297.46 726.225 1300.11 728.187 1300.73 728.971C1301.34 729.756 1301.95 732.894 1301.95 732.894C1301.95 732.894 1304 730.344 1304.81 729.756C1305.63 729.167 1308.9 728.579 1308.9 728.579C1308.9 728.579 1306.24 726.618 1305.63 725.833C1305.02 725.048 1304.4 721.91 1304.4 721.91Z" fill="url(#paint38_radial)"/>
<path d="M1358.34 648.748C1358.55 647.767 1359.57 647.179 1360.79 647.375C1361.81 647.571 1362.43 648.552 1362.22 649.729C1362.02 650.709 1361 651.298 1359.77 651.102C1358.75 650.709 1358.14 649.729 1358.34 648.748ZM1334.85 678.562C1336.89 678.954 1339.14 677.778 1339.54 675.816C1339.95 673.855 1338.73 671.697 1336.68 671.305C1334.64 670.912 1332.39 672.089 1331.98 674.051C1331.37 676.208 1332.8 678.17 1334.85 678.562ZM1338.11 633.056C1342.4 634.037 1346.49 631.487 1347.51 627.564C1348.53 623.445 1345.88 619.522 1341.79 618.542C1337.5 617.561 1333.42 620.111 1332.39 624.034C1331.37 627.957 1334.03 632.076 1338.11 633.056ZM1406.15 639.725C1408.19 640.118 1410.44 638.941 1410.85 636.979C1411.26 635.018 1410.03 632.86 1407.99 632.468C1405.95 632.076 1403.7 633.252 1403.29 635.214C1402.68 637.175 1404.11 639.333 1406.15 639.725Z" fill="url(#paint39_radial)"/>
<path d="M993.238 702.884C993.033 703.865 992.012 704.649 990.99 704.453C989.969 704.257 989.151 703.276 989.356 702.295C989.56 701.315 990.582 700.53 991.603 700.726C992.625 700.922 993.442 701.903 993.238 702.884ZM1014.08 671.108C1012.03 670.716 1009.99 672.285 1009.58 674.247C1009.17 676.208 1010.81 678.17 1012.85 678.562C1014.89 678.954 1016.94 677.385 1017.35 675.423C1017.55 673.462 1016.12 671.501 1014.08 671.108ZM1014.69 716.81C1010.4 716.222 1006.52 718.968 1005.7 723.087C1005.09 727.206 1007.95 730.933 1012.24 731.717C1016.53 732.306 1020.41 729.56 1021.23 725.441C1021.84 721.125 1018.98 717.399 1014.69 716.81ZM946.45 715.83C944.407 715.437 942.364 717.006 941.956 718.968C941.547 720.929 943.181 722.891 945.225 723.283C947.268 723.675 949.311 722.106 949.719 720.145C950.128 717.987 948.493 716.026 946.45 715.83Z" fill="url(#paint40_radial)"/>
<path opacity="0.5" d="M307.365 75.6104C307.365 75.6104 305.321 78.1602 304.504 78.7487C303.687 79.3371 300.418 79.9256 300.418 79.9256C300.418 79.9256 303.074 81.887 303.687 82.6716C304.3 83.4562 304.913 86.5945 304.913 86.5945C304.913 86.5945 306.956 84.0446 307.773 83.4562C308.59 82.8678 311.859 82.2793 311.859 82.2793C311.859 82.2793 309.203 80.3179 308.59 79.5333C307.977 78.7487 307.365 75.6104 307.365 75.6104Z" fill="url(#paint41_radial)"/>
<path opacity="0.5" d="M542.118 24.4165C542.118 24.4165 540.075 26.9664 539.258 27.5548C538.441 28.1433 535.172 28.7317 535.172 28.7317C535.172 28.7317 537.828 30.6931 538.441 31.4777C539.054 32.2623 539.667 35.4006 539.667 35.4006C539.667 35.4006 541.71 32.8507 542.527 32.2623C543.344 31.6738 546.613 31.0854 546.613 31.0854C546.613 31.0854 543.957 29.124 543.344 28.3394C542.731 27.5548 542.118 24.4165 542.118 24.4165Z" fill="url(#paint42_radial)"/>
<path opacity="0.5" d="M781.979 133.669C781.979 133.669 780.549 135.435 779.936 135.827C779.323 136.219 776.871 136.612 776.871 136.612C776.871 136.612 778.71 137.985 779.119 138.573C779.527 139.161 779.936 141.515 779.936 141.515C779.936 141.515 781.366 139.75 781.979 139.358C782.592 138.965 785.043 138.573 785.043 138.573C785.043 138.573 783.205 137.2 782.796 136.612C782.387 136.023 781.979 133.669 781.979 133.669Z" fill="url(#paint43_radial)"/>
<path opacity="0.5" d="M686.975 31.4775C686.975 31.4775 685.545 33.2428 684.932 33.6351C684.319 34.0274 681.867 34.4197 681.867 34.4197C681.867 34.4197 683.706 35.7927 684.115 36.3812C684.523 36.9696 684.932 39.3234 684.932 39.3234C684.932 39.3234 686.362 37.558 686.975 37.1658C687.588 36.7735 690.04 36.3812 690.04 36.3812C690.04 36.3812 688.201 35.0082 687.792 34.4197C687.384 33.8313 686.975 31.4775 686.975 31.4775Z" fill="url(#paint44_radial)"/>
<path opacity="0.5" d="M952.375 96.5981C952.375 96.5981 950.945 98.3635 950.332 98.7558C949.719 99.148 947.268 99.5403 947.268 99.5403C947.268 99.5403 949.106 100.913 949.515 101.502C949.924 102.09 950.332 104.444 950.332 104.444C950.332 104.444 951.762 102.679 952.375 102.286C952.988 101.894 955.44 101.502 955.44 101.502C955.44 101.502 953.601 100.129 953.193 99.5403C952.784 98.7557 952.375 96.5981 952.375 96.5981Z" fill="url(#paint45_radial)"/>
<path opacity="0.5" d="M709.653 654.829C710.879 656.79 713.535 657.379 715.578 656.202C717.621 655.025 718.234 652.475 717.008 650.514C715.783 648.552 713.127 647.964 711.083 649.14C709.245 650.317 708.427 652.867 709.653 654.829Z" fill="url(#paint46_radial)"/>
<path opacity="0.5" d="M872.285 481.044C872.285 481.044 874.737 480.652 875.35 480.848C876.167 481.044 878.006 482.417 878.006 482.417C878.006 482.417 877.597 480.063 877.802 479.475C878.006 478.69 879.436 476.925 879.436 476.925C879.436 476.925 876.984 477.317 876.371 477.121C875.554 476.925 873.715 475.552 873.715 475.552C873.715 475.552 874.124 477.906 873.92 478.494C873.715 479.082 872.285 481.044 872.285 481.044Z" fill="url(#paint47_radial)"/>
<path opacity="0.5" d="M864.113 617.757C864.113 617.757 866.565 617.364 867.178 617.561C867.995 617.757 869.834 619.13 869.834 619.13C869.834 619.13 869.425 616.776 869.63 616.188C869.834 615.599 871.264 613.638 871.264 613.638C871.264 613.638 868.812 614.03 868.2 613.834C867.382 613.638 865.543 612.265 865.543 612.265C865.543 612.265 865.952 614.618 865.748 615.207C865.543 615.795 864.113 617.757 864.113 617.757Z" fill="url(#paint48_radial)"/>
<path opacity="0.5" d="M784.432 599.123C784.432 599.123 786.883 598.731 787.496 598.927C788.314 599.123 790.152 600.496 790.152 600.496C790.152 600.496 789.744 598.142 789.948 597.554C790.152 596.769 791.583 595.004 791.583 595.004C791.583 595.004 789.131 595.396 788.518 595.2C787.701 595.004 785.862 593.631 785.862 593.631C785.862 593.631 786.27 595.985 786.066 596.573C785.658 597.162 784.432 599.123 784.432 599.123Z" fill="url(#paint49_radial)"/>
<path opacity="0.5" d="M535.375 447.699C535.375 447.699 537.827 447.306 538.44 447.502C539.257 447.699 541.096 449.072 541.096 449.072C541.096 449.072 540.687 446.718 540.891 446.129C541.096 445.345 542.526 443.58 542.526 443.58C542.526 443.58 540.074 443.972 539.461 443.776C538.644 443.58 536.805 442.207 536.805 442.207C536.805 442.207 537.214 444.56 537.01 445.149C536.805 445.933 535.375 447.699 535.375 447.699Z" fill="url(#paint50_radial)"/>
<path opacity="0.5" d="M724.568 391.601C724.568 391.601 727.02 391.209 727.633 391.405C728.246 391.601 730.289 392.974 730.289 392.974C730.289 392.974 729.88 390.62 730.085 390.032C730.289 389.247 731.719 387.482 731.719 387.482C731.719 387.482 729.267 387.874 728.655 387.678C727.837 387.482 725.999 386.109 725.999 386.109C725.999 386.109 726.407 388.463 726.203 389.051C725.998 389.836 724.568 391.601 724.568 391.601Z" fill="url(#paint51_radial)"/>
<path d="M874.124 554.598C874.737 554.206 875.555 554.206 876.167 554.794C876.576 555.383 876.576 556.167 875.963 556.756C875.35 557.148 874.533 557.148 873.92 556.56C873.307 555.971 873.511 555.187 874.124 554.598ZM846.338 560.679C847.36 561.856 848.994 562.052 850.22 561.267C851.446 560.287 851.65 558.717 850.833 557.541C849.811 556.364 848.177 556.168 846.951 556.952C845.725 557.737 845.521 559.502 846.338 560.679ZM870.447 536.945C872.286 539.299 875.759 539.887 878.415 538.122C880.867 536.357 881.48 533.022 879.641 530.472C877.802 528.119 874.329 527.53 871.673 529.295C869.017 531.061 868.608 534.591 870.447 536.945ZM904.975 571.075C905.997 572.251 907.631 572.448 908.857 571.663C910.083 570.682 910.287 569.113 909.47 567.936C908.449 566.759 906.814 566.563 905.588 567.348C904.158 568.329 903.954 569.898 904.975 571.075Z" fill="url(#paint52_radial)"/>
<path opacity="0.5" d="M227.886 543.418C229.521 546.164 233.199 546.948 236.059 545.183C238.919 543.614 239.737 540.083 237.898 537.337C236.263 534.591 232.586 533.807 229.725 535.572C227.069 537.141 226.252 540.672 227.886 543.418Z" fill="url(#paint53_radial)"/>
<path opacity="0.5" d="M452.018 303.728C452.018 303.728 455.287 303.335 456.308 303.532C457.33 303.728 459.986 305.493 459.986 305.493C459.986 305.493 459.577 302.355 459.781 301.374C459.986 300.393 461.825 297.843 461.825 297.843C461.825 297.843 458.556 298.236 457.534 298.04C456.512 297.843 453.856 296.078 453.856 296.078C453.856 296.078 454.265 299.216 454.061 300.197C453.856 301.178 452.018 303.728 452.018 303.728Z" fill="url(#paint54_radial)"/>
<path opacity="0.5" d="M440.779 492.224C440.779 492.224 444.048 491.832 445.07 492.028C446.091 492.224 448.747 493.989 448.747 493.989C448.747 493.989 448.339 490.851 448.543 489.87C448.747 488.889 450.586 486.34 450.586 486.34C450.586 486.34 447.317 486.732 446.296 486.536C445.274 486.34 442.618 484.574 442.618 484.574C442.618 484.574 443.027 487.713 442.822 488.693C442.618 489.478 440.779 492.224 440.779 492.224Z" fill="url(#paint55_radial)"/>
<path opacity="0.5" d="M330.656 466.529C330.656 466.529 333.925 466.136 334.947 466.332C335.968 466.529 338.624 468.294 338.624 468.294C338.624 468.294 338.216 465.156 338.42 464.175C338.624 463.194 340.463 460.644 340.463 460.644C340.463 460.644 337.194 461.037 336.173 460.84C335.151 460.644 332.495 458.879 332.495 458.879C332.495 458.879 332.904 462.017 332.699 462.998C332.495 463.783 330.656 466.529 330.656 466.529Z" fill="url(#paint56_radial)"/>
<path opacity="0.5" d="M947.916 253.65C947.916 253.65 951.185 253.257 952.207 253.454C953.228 253.65 955.884 255.415 955.884 255.415C955.884 255.415 955.476 252.277 955.68 251.296C955.884 250.315 957.723 247.765 957.723 247.765C957.723 247.765 954.454 248.158 953.432 247.961C952.411 247.765 949.755 246 949.755 246C949.755 246 950.163 249.138 949.959 250.119C949.755 251.1 947.916 253.65 947.916 253.65Z" fill="url(#paint57_radial)"/>
<path d="M1232.32 499.417C1232.71 499.136 1233.3 499.23 1233.6 499.605C1233.9 499.98 1233.8 500.543 1233.4 500.824C1233.01 501.106 1232.42 501.012 1232.12 500.637C1231.82 500.262 1231.92 499.699 1232.32 499.417ZM1213.96 503.357C1214.55 504.107 1215.74 504.295 1216.62 503.732C1217.41 503.169 1217.61 502.044 1217.02 501.199C1216.43 500.449 1215.24 500.262 1214.35 500.824C1213.46 501.481 1213.27 502.606 1213.96 503.357ZM1229.95 487.693C1231.23 489.288 1233.5 489.663 1235.18 488.443C1236.86 487.224 1237.25 485.067 1235.97 483.472C1234.69 481.878 1232.42 481.503 1230.74 482.722C1229.06 483.847 1228.67 486.098 1229.95 487.693ZM1252.85 510.298C1253.44 511.048 1254.62 511.236 1255.51 510.673C1256.3 510.11 1256.5 508.984 1255.91 508.14C1255.31 507.39 1254.13 507.202 1253.24 507.765C1252.45 508.328 1252.25 509.453 1252.85 510.298Z" fill="url(#paint58_radial)"/>
<path opacity="0.5" d="M1286.42 306.278C1288.06 309.024 1291.74 309.808 1294.6 308.043C1297.46 306.474 1298.27 302.943 1296.43 300.197C1294.8 297.451 1291.12 296.667 1288.26 298.432C1285.61 300.001 1284.79 303.532 1286.42 306.278Z" fill="url(#paint59_radial)"/>
<path opacity="0.5" d="M1499.32 255.084C1499.32 255.084 1502.59 254.691 1503.61 254.888C1504.63 255.084 1507.28 256.849 1507.28 256.849C1507.28 256.849 1506.88 253.711 1507.08 252.73C1507.28 251.749 1509.12 249.199 1509.12 249.199C1509.12 249.199 1505.85 249.592 1504.83 249.396C1503.81 249.199 1501.16 247.434 1501.16 247.434C1501.16 247.434 1501.56 250.572 1501.36 251.553C1501.16 252.534 1499.32 255.084 1499.32 255.084Z" fill="url(#paint60_radial)"/>
<path opacity="0.5" d="M1389.19 229.389C1389.19 229.389 1392.46 228.997 1393.48 229.193C1394.51 229.389 1397.16 231.154 1397.16 231.154C1397.16 231.154 1396.75 228.016 1396.96 227.035C1397.16 226.054 1399 223.505 1399 223.505C1399 223.505 1395.73 223.897 1394.71 223.701C1393.69 223.505 1391.03 221.739 1391.03 221.739C1391.03 221.739 1391.44 224.878 1391.24 225.858C1391.03 226.839 1389.19 229.389 1389.19 229.389Z" fill="url(#paint61_radial)"/>
<path opacity="0.5" d="M1046.15 20.6897C1046.15 20.6897 1049.42 20.2974 1050.44 20.4936C1051.47 20.6897 1054.12 22.455 1054.12 22.455C1054.12 22.455 1053.71 19.3167 1053.92 18.336C1054.12 17.3553 1055.96 14.8054 1055.96 14.8054C1055.96 14.8054 1052.69 15.1976 1051.67 15.0015C1050.65 14.8053 1047.99 13.04 1047.99 13.04C1047.99 13.04 1048.4 16.1784 1048.2 17.1591C1047.99 18.1398 1046.15 20.6897 1046.15 20.6897Z" fill="url(#paint62_radial)"/>
<path d="M1512.8 168.191C1513.62 167.603 1514.84 167.799 1515.46 168.584C1516.07 169.368 1515.87 170.545 1515.05 171.133C1514.23 171.722 1513.01 171.526 1512.39 170.741C1511.78 169.956 1511.98 168.78 1512.8 168.191ZM1474.8 176.429C1476.03 177.999 1478.48 178.391 1480.32 177.214C1481.95 176.037 1482.36 173.683 1481.13 171.918C1479.91 170.349 1477.46 169.957 1475.62 171.133C1473.78 172.506 1473.37 174.86 1474.8 176.429ZM1507.9 143.869C1510.55 147.204 1515.25 147.988 1518.73 145.438C1522.2 142.888 1523.02 138.377 1520.36 135.043C1517.7 131.708 1513.01 130.924 1509.53 133.473C1506.06 135.827 1505.24 140.535 1507.9 143.869ZM1555.3 190.944C1556.52 192.513 1558.98 192.906 1560.81 191.729C1562.45 190.552 1562.86 188.198 1561.63 186.433C1560.41 184.864 1557.95 184.471 1556.12 185.648C1554.48 186.825 1554.07 189.179 1555.3 190.944Z" fill="url(#paint63_radial)"/>
<path opacity="0.45" d="M130.058 -275.294C130.058 -275.294 338.456 -113.082 698.248 -78.5599C1058.04 -44.0383 1237.83 46.1887 1049.25 124.255C860.675 202.321 239.773 146.615 24.8378 254.888C-190.098 363.16 -269.166 -249.795 130.058 -275.294Z" fill="url(#paint64_radial)"/>
<path opacity="0.45" d="M1515.49 937.475C1515.49 937.475 1307.1 775.262 947.303 740.741C587.511 706.219 407.717 615.992 596.296 537.926C785.08 459.86 1405.78 515.369 1620.71 407.293C1835.65 299.217 1914.72 911.976 1515.49 937.475Z" fill="url(#paint65_radial)"/>
<path d="M-204.807 485.162C-135.341 502.031 -58.1117 494.97 11.9671 479.082C81.8416 463.194 147.221 439.264 216.483 421.807C315.369 396.701 422.837 385.324 527.036 396.308C645.741 408.665 753.822 448.875 865.58 479.082C977.338 509.288 1103.81 529.491 1216.38 501.05C1280.13 484.966 1335.9 453.975 1402.71 445.933C1481.99 436.322 1562.89 460.84 1625.82 495.362C1629.7 496.735 1622.96 493.596 1621.94 496.343C1603.14 550.086 1608.05 607.557 1635.63 659.536C1606.41 646.786 1592.11 621.287 1561.06 610.499C1546.55 605.399 1530 604.223 1513.86 603.046C1465.64 599.711 1416.61 596.181 1368.8 601.869C1294.84 610.695 1229.46 640.51 1156.11 651.69C1070.5 664.635 981.22 650.905 898.678 631.095C816.137 611.284 736.251 585.197 650.644 572.251C522.541 552.832 384.835 564.797 267.765 605.399C210.966 625.014 159.276 651.101 102.273 670.128C45.0655 689.154 -20.5184 701.315 -82.0161 690.331C-129.825 681.896 -170.074 660.713 -208.485 639.529C-222.787 631.683 -237.497 623.053 -244.239 611.284C-251.186 598.927 -248.326 585.197 -245.261 572.251C-239.132 546.556 -233.002 520.861 -226.873 495.166" fill="url(#paint66_radial)"/>
<path opacity="0.45" d="M-27.4656 258.026C55.6891 281.956 140.887 303.924 229.967 313.143C319.046 322.362 413.438 317.654 494.141 289.998C524.584 279.602 552.779 266.068 583.834 256.457C701.517 220.17 839.427 245.473 958.132 280.386C1026.99 300.786 1096.25 324.715 1171.02 327.658C1231.09 330.011 1290.55 318.635 1347.14 304.316C1430.91 283.132 1511.2 255.476 1585.98 221.935C1591.7 254.691 1598.85 287.252 1607.43 319.812C1591.91 307.062 1565.35 302.355 1541.24 304.12C1517.13 305.885 1494.45 313.143 1472.59 320.4C1406.6 342.761 1342.44 367.475 1280.54 394.739C1252.34 407.097 1222.31 420.434 1189 420.042C1163.67 419.846 1140.17 411.608 1117.5 403.566C1052.52 380.421 987.553 357.276 922.582 334.13C884.989 320.792 846.17 307.062 804.081 303.335C764.241 299.805 723.991 305.297 684.764 311.181C537.659 333.738 389.942 364.925 239.569 358.649C123.112 353.745 11.1492 326.481 -98.9746 299.609C-81.8125 286.271 -61.3813 274.894 -39.1114 265.872" fill="url(#paint67_radial)"/>
<path d="M1711.63 109.936C1711.84 110.132 1709.39 111.897 1704.48 115.232C1702.03 116.997 1698.97 118.762 1695.08 121.116C1693.24 122.293 1691.2 123.47 1688.95 124.647C1686.71 125.824 1684.26 127.197 1681.8 128.373C1671.38 133.473 1658.51 139.554 1642.58 145.046C1626.64 150.538 1607.84 155.834 1586.39 159.953C1565.14 163.876 1541.24 166.426 1515.7 166.622C1490.16 167.014 1463.6 164.072 1436.63 160.737C1409.66 157.403 1382.08 153.48 1353.68 153.284C1325.28 152.695 1296.47 154.069 1267.87 157.207C1239.26 160.541 1211.07 165.249 1183.49 170.349C1155.91 175.645 1128.94 181.333 1102.78 186.629C1076.63 191.925 1050.89 197.024 1026.58 201.143C1002.06 205.066 978.564 208.401 956.498 210.362C950.982 210.755 945.67 211.343 940.357 211.735C935.045 211.932 929.938 212.324 924.83 212.52C919.722 212.716 914.819 212.912 910.119 213.305C905.42 213.501 900.721 213.305 896.226 213.501C891.731 213.501 887.441 213.501 883.15 213.501C878.86 213.501 874.978 213.501 871.096 213.305C863.332 212.912 856.181 212.716 849.643 212.52C843.105 212.324 837.385 211.735 832.481 211.343C827.578 210.951 823.287 210.558 819.814 210.362C816.34 210.166 813.684 209.97 812.05 209.774C810.211 209.578 809.394 209.578 809.394 209.578C809.394 209.578 805.716 209.185 798.974 208.401C795.501 208.009 791.415 207.42 786.511 206.832C784.059 206.439 781.403 206.243 778.543 205.851C775.682 205.459 772.822 204.87 769.553 204.478C763.22 203.497 756.273 202.516 748.713 201.34C741.154 199.967 733.186 198.397 724.4 196.828C715.615 195.259 706.625 193.298 697.023 191.14C692.323 190.159 687.216 189.179 682.312 188.002C677.409 186.825 672.301 185.648 666.989 184.275C625.514 174.272 578.113 160.541 528.67 144.261C503.948 136.023 478.614 127.393 453.075 118.37C427.536 109.347 401.793 100.128 375.437 91.498C362.361 87.1828 349.08 83.0638 335.8 79.337C322.52 75.6103 309.035 72.0796 295.551 68.9413C282.066 65.9991 268.377 63.2531 254.893 61.2916C251.42 60.7032 248.151 60.3109 244.677 59.9186C241.204 59.5263 237.935 58.9379 234.462 58.7417C227.719 58.1533 220.977 57.3687 214.235 56.9764C187.266 55.2111 161.114 55.6034 136.392 57.5649C111.671 59.5263 88.5834 63.0569 67.7437 67.176C62.6359 68.3529 57.3238 69.1375 52.4203 70.3143C47.5168 71.4912 42.6134 72.4719 37.9142 73.6488C28.5159 76.0026 19.7305 78.1602 11.5581 80.5139C-4.99117 85.0253 -18.8843 89.5366 -30.3258 93.4595C-41.7672 97.3824 -50.7569 100.521 -56.6819 102.678C-62.8113 104.836 -66.0803 106.013 -66.0803 105.817C-66.2846 105.621 -63.2199 104.248 -57.2949 101.894C-51.5742 99.3439 -42.7888 96.0094 -31.5516 91.6942C-20.3145 87.5751 -6.42135 82.6715 9.92356 77.964C18.096 75.4141 26.8814 73.0604 36.2797 70.5105C40.9789 69.3336 45.8824 68.1567 50.7858 66.9798C55.6893 65.803 61.0014 64.8222 66.1092 63.6454C87.1533 59.134 110.445 55.4073 135.575 53.0535C160.705 50.6998 187.47 49.9152 215.052 51.4843C221.999 51.6805 228.945 52.4651 235.892 53.0535C239.365 53.4458 242.839 53.8381 246.312 54.2304C249.785 54.6227 253.258 55.015 256.732 55.6034C270.625 57.5649 284.518 60.1147 298.411 63.0569C312.304 65.9991 325.993 69.5298 339.478 73.2565C352.962 76.9833 366.447 81.1023 379.727 85.2214C406.288 93.6557 432.439 102.875 457.978 111.505C483.517 120.331 509.056 128.766 533.574 136.808C583.017 152.696 630.009 166.033 671.075 175.645C676.183 176.821 681.291 177.998 686.194 179.175C691.098 180.352 696.001 181.333 700.7 182.314C710.099 184.275 719.088 186.236 727.669 187.609C736.25 189.179 744.219 190.552 751.574 191.925C758.929 193.102 765.876 194.082 772.005 194.867C775.07 195.259 777.93 195.848 780.79 196.24C783.651 196.632 786.102 196.828 788.554 197.221C793.458 197.809 797.544 198.201 800.813 198.594C807.555 199.378 811.028 199.77 811.028 199.77C811.028 199.77 811.846 199.967 813.684 199.967C815.319 200.163 817.975 200.359 821.244 200.555C824.513 200.751 828.803 201.143 833.503 201.536C838.406 201.928 843.923 202.517 850.256 202.713C856.59 202.909 863.536 203.301 871.096 203.693C874.978 203.89 878.86 203.89 882.946 203.89C887.032 203.89 891.323 203.89 895.613 203.89C899.904 203.89 904.603 203.89 909.098 203.89C913.797 203.693 918.496 203.497 923.4 203.301C928.303 203.105 933.411 202.909 938.519 202.713C943.626 202.32 948.939 201.928 954.251 201.34C975.703 199.77 998.79 196.436 1023.1 192.709C1047.42 188.786 1072.75 184.079 1098.9 178.783C1125.26 173.487 1152.23 167.995 1180.22 162.895C1208.21 157.795 1236.81 153.284 1265.83 150.146C1294.84 147.007 1324.46 145.83 1353.68 146.811C1382.9 147.4 1410.89 151.715 1437.65 155.245C1464.42 158.776 1490.36 161.914 1515.09 161.718C1539.81 161.718 1563.3 159.561 1584.35 156.03C1605.39 152.499 1623.98 147.596 1639.92 142.3C1655.86 137.2 1668.93 131.512 1679.35 126.608C1682.01 125.431 1684.46 124.254 1686.71 123.078C1688.95 121.901 1691 120.724 1693.04 119.743C1696.92 117.585 1700.19 115.82 1702.85 114.447C1708.57 111.309 1711.43 109.74 1711.63 109.936Z" fill="url(#paint68_radial)"/>
<path d="M1631.34 636.195C1630.93 636.783 1617.85 633.253 1594.97 627.172C1583.53 624.23 1569.43 620.699 1553.29 617.365C1536.95 614.031 1518.35 610.892 1497.92 609.323C1487.71 608.342 1476.88 608.342 1465.85 608.342C1454.81 608.538 1443.37 609.715 1431.93 611.284C1409.05 614.619 1385.96 621.484 1363.49 630.114C1341.01 638.941 1318.74 649.337 1296.06 660.321C1273.38 671.109 1249.89 682.289 1224.55 691.508C1199.22 700.923 1172.45 708.18 1145.28 713.869C1118.11 719.361 1090.73 722.891 1063.76 724.853C1036.79 726.814 1010.64 726.618 985.919 725.245C961.197 723.676 938.11 720.93 917.27 717.595C896.43 714.261 877.429 710.534 860.88 707.004C844.331 703.473 830.029 700.138 818.383 697.392C795.092 691.704 781.812 688.566 781.812 688.566C781.812 688.566 778.543 687.781 772.413 686.212C766.284 684.643 757.294 682.485 745.648 679.543C739.928 678.17 733.594 676.601 726.647 675.032C719.701 673.463 712.141 671.697 704.173 669.932C688.033 666.598 669.849 662.871 649.622 659.929C629.395 656.79 607.33 654.24 583.63 652.475C560.134 650.71 535.003 649.925 509.056 650.121C457.161 650.318 401.792 655.025 347.65 663.655C293.303 672.09 240.591 684.839 192.578 699.158C144.565 713.476 101.251 729.168 64.8831 743.683C28.5157 758.198 -0.905131 771.339 -21.3363 780.558C-31.5518 785.07 -39.7243 788.796 -45.2407 791.346C-50.7571 793.7 -53.8218 794.877 -54.2304 794.681C-54.4347 794.485 -51.983 792.719 -46.8752 789.973C-41.7674 787.031 -34.2079 782.912 -24.4009 777.812C-4.78705 767.613 23.8165 753.49 59.7753 737.995C95.5298 722.499 138.639 705.631 186.857 690.331C235.074 675.032 288.4 661.302 343.564 651.887C398.728 642.275 455.322 636.783 508.852 635.999C535.616 635.607 561.564 635.999 586.081 637.568C610.599 639.137 633.686 641.491 654.73 644.433C675.774 647.375 694.775 650.906 711.528 654.24C719.905 656.006 727.669 657.575 734.616 659.144C741.767 660.713 748.304 662.086 754.025 663.459C765.875 666.205 774.865 668.363 781.199 669.932C787.328 671.501 790.801 672.286 790.801 672.286C790.801 672.286 803.877 675.62 826.964 681.308C838.406 684.054 852.503 687.585 868.44 691.116C884.58 694.842 902.764 698.569 922.786 702.1C942.809 705.631 964.875 708.377 988.166 710.142C1011.46 711.711 1036.38 712.103 1062.13 710.73C1087.67 709.161 1114.02 706.219 1140.17 701.315C1166.12 696.216 1192.07 689.547 1216.59 680.916C1241.1 672.286 1264.39 661.89 1287.28 651.494C1310.36 641.099 1333.25 630.507 1356.95 621.876C1380.65 613.442 1405.17 606.577 1429.68 603.439C1441.94 601.87 1454 601.085 1465.64 601.085C1477.29 601.085 1488.52 601.673 1499.15 602.85C1520.4 605.008 1539.4 608.735 1555.54 612.658C1571.88 616.58 1585.78 620.503 1597.01 624.034C1619.49 631.095 1631.75 635.803 1631.34 636.195Z" fill="url(#paint69_radial)"/>
<path opacity="0.45" d="M-29.3046 -37.5656C-29.3046 -37.5656 190.126 44.6194 450.418 24.4164C710.711 4.21338 826.147 -62.28 995.93 -57.7686C1165.71 -53.0611 1346.73 66.1954 1491.59 59.9188C1636.45 53.6421 1586.59 -146.23 1586.59 -146.23L1500.58 -42.4693C1500.58 -42.4693 1235.79 -226.846 966.509 -209.782C697.226 -192.717 620.814 -83.4637 419.159 -51.2958C217.503 -19.1279 -36.0469 -101.313 -36.0469 -101.313L-29.3046 -37.5656Z" fill="url(#paint70_radial)"/>
</g>
<path d="M922.804 396.726C924.017 393.261 922.074 389.508 918.464 388.344C914.855 387.18 910.945 389.045 909.733 392.51C908.52 395.975 910.463 399.728 914.073 400.892C917.682 402.056 921.591 400.191 922.804 396.726Z" fill="url(#paint71_linear)"/>
<path style="mix-blend-mode:screen" d="M918.956 393.814C919.836 393.831 920.717 393.963 921.565 393.797C922.074 393.689 922.563 393.507 923.015 393.259C922.741 392.005 922.094 390.855 921.152 389.947C920.211 389.04 919.015 388.414 917.71 388.146C916.405 387.878 915.048 387.979 913.802 388.437C912.556 388.895 911.475 389.691 910.69 390.727C909.906 391.763 909.452 392.996 909.382 394.275C909.313 395.554 909.632 396.825 910.3 397.934C910.969 399.043 911.958 399.941 913.148 400.521C914.338 401.1 915.677 401.336 917.004 401.199C917.115 401.03 917.196 400.844 917.245 400.65C917.477 399.675 916.702 398.779 916.232 397.886C915.666 396.804 915.589 395.35 916.508 394.504C917.142 393.93 918.081 393.8 918.956 393.814Z" fill="url(#paint72_linear)"/>
<path style="mix-blend-mode:screen" d="M920.456 389.799C920.547 389.726 920.635 389.65 920.72 389.568C919.363 388.455 917.61 387.89 915.829 387.992C914.048 388.095 912.377 388.857 911.169 390.118C909.961 391.378 909.309 393.04 909.352 394.753C909.394 396.465 910.126 398.096 911.395 399.3L911.542 399.433C911.798 399.411 912.049 399.35 912.284 399.25C913.458 398.74 913.875 397.379 914.045 396.164C914.216 394.95 914.266 393.628 915.084 392.687C915.965 391.687 917.432 391.439 918.671 390.901C919.317 390.616 919.918 390.245 920.456 389.799V389.799Z" fill="url(#paint73_linear)"/>
<path style="mix-blend-mode:screen" d="M911.396 389.94C910.698 390.608 910.159 391.412 909.813 392.298C909.468 393.183 909.325 394.13 909.394 395.073C909.671 395.227 909.98 395.318 910.299 395.342C910.618 395.366 910.938 395.321 911.237 395.212C912.097 394.848 912.49 393.896 912.705 393.019C912.919 392.143 913.11 391.188 913.788 390.562C914.721 389.717 916.429 389.652 916.928 388.508C916.991 388.365 917.03 388.213 917.043 388.057C916.015 387.943 914.973 388.052 913.995 388.378C913.017 388.704 912.128 389.238 911.396 389.94V389.94Z" fill="url(#paint74_linear)"/>
</g>
</g>
<defs>
<radialGradient id="paint0_radial" cx="0" cy="0" r="1" gradientUnits="userSpaceOnUse" gradientTransform="translate(718.779 337.989) scale(784.375 513)">
<stop offset="0.0592593" stop-color="#071256"/>
<stop offset="0.963" stop-color="#030A2B"/>
</radialGradient>
<radialGradient id="paint1_radial" cx="0" cy="0" r="1" gradientUnits="userSpaceOnUse" gradientTransform="translate(279.914 236.875) scale(458.88 440.537)">
<stop offset="0.0592593" stop-color="#0A1656"/>
<stop offset="0.8889" stop-color="#4478AF"/>
</radialGradient>
<radialGradient id="paint2_radial" cx="0" cy="0" r="1" gradientUnits="userSpaceOnUse" gradientTransform="translate(279.916 236.876) scale(458.879 440.54)">
<stop offset="0.0592593" stop-color="#0A1656"/>
<stop offset="0.8889" stop-color="#4478AF"/>
</radialGradient>
<radialGradient id="paint3_radial" cx="0" cy="0" r="1" gradientUnits="userSpaceOnUse" gradientTransform="translate(279.915 236.875) scale(458.878 440.538)">
<stop offset="0.0592593" stop-color="#0A1656"/>
<stop offset="0.8889" stop-color="#4478AF"/>
</radialGradient>
<radialGradient id="paint4_radial" cx="0" cy="0" r="1" gradientUnits="userSpaceOnUse" gradientTransform="translate(1190.25 745.122) scale(458.885 440.542)">
<stop offset="0.0592593" stop-color="#0A1656"/>
<stop offset="0.8889" stop-color="#4478AF"/>
</radialGradient>
<radialGradient id="paint5_radial" cx="0" cy="0" r="1" gradientUnits="userSpaceOnUse" gradientTransform="translate(1190.26 745.126) scale(458.873 440.543)">
<stop offset="0.0592593" stop-color="#0A1656"/>
<stop offset="0.8889" stop-color="#4478AF"/>
</radialGradient>
<radialGradient id="paint6_radial" cx="0" cy="0" r="1" gradientUnits="userSpaceOnUse" gradientTransform="translate(1190.26 745.122) scale(458.873 440.54)">
<stop offset="0.0592593" stop-color="#0A1656"/>
<stop offset="0.8889" stop-color="#4478AF"/>
</radialGradient>
<radialGradient id="paint7_radial" cx="0" cy="0" r="1" gradientUnits="userSpaceOnUse" gradientTransform="translate(1190.25 745.122) scale(458.889 440.539)">
<stop offset="0.0592593" stop-color="#0A1656"/>
<stop offset="0.8889" stop-color="#4478AF"/>
</radialGradient>
<radialGradient id="paint8_radial" cx="0" cy="0" r="1" gradientUnits="userSpaceOnUse" gradientTransform="translate(1190.26 745.121) scale(458.884 440.535)">
<stop offset="0.0592593" stop-color="#0A1656"/>
<stop offset="0.8889" stop-color="#4478AF"/>
</radialGradient>
<radialGradient id="paint9_radial" cx="0" cy="0" r="1" gradientUnits="userSpaceOnUse" gradientTransform="translate(1190.26 745.125) scale(458.893 440.543)">
<stop offset="0.0592593" stop-color="#0A1656"/>
<stop offset="0.8889" stop-color="#4478AF"/>
</radialGradient>
<radialGradient id="paint10_radial" cx="0" cy="0" r="1" gradientUnits="userSpaceOnUse" gradientTransform="translate(996.702 524.637) scale(36.011 34.5717)">
<stop offset="0.0592593" stop-color="#0A1656"/>
<stop offset="0.8889" stop-color="#4478AF"/>
</radialGradient>
<radialGradient id="paint11_radial" cx="0" cy="0" r="1" gradientUnits="userSpaceOnUse" gradientTransform="translate(1354.72 396.719) rotate(175.226) scale(17.6302 17.304)">
<stop offset="0.0592593" stop-color="#0A1656"/>
<stop offset="0.8889" stop-color="#4478AF"/>
</radialGradient>
<radialGradient id="paint12_radial" cx="0" cy="0" r="1" gradientUnits="userSpaceOnUse" gradientTransform="translate(732.606 684.131) scale(332.959 319.647)">
<stop offset="0.0592593" stop-color="#0A1656"/>
<stop offset="0.8889" stop-color="#4478AF"/>
</radialGradient>
<radialGradient id="paint13_radial" cx="0" cy="0" r="1" gradientUnits="userSpaceOnUse" gradientTransform="translate(732.606 684.137) scale(332.968 319.657)">
<stop offset="0.0592593" stop-color="#0A1656"/>
<stop offset="0.8889" stop-color="#4478AF"/>
</radialGradient>
<radialGradient id="paint14_radial" cx="0" cy="0" r="1" gradientUnits="userSpaceOnUse" gradientTransform="translate(732.607 684.133) scale(332.962 319.653)">
<stop offset="0.0592593" stop-color="#0A1656"/>
<stop offset="0.8889" stop-color="#4478AF"/>
</radialGradient>
<radialGradient id="paint15_radial" cx="0" cy="0" r="1" gradientUnits="userSpaceOnUse" gradientTransform="translate(732.607 684.134) scale(332.959 319.655)">
<stop offset="0.0592593" stop-color="#0A1656"/>
<stop offset="0.8889" stop-color="#4478AF"/>
</radialGradient>
<radialGradient id="paint16_radial" cx="0" cy="0" r="1" gradientUnits="userSpaceOnUse" gradientTransform="translate(732.607 684.132) scale(332.962 319.651)">
<stop offset="0.0592593" stop-color="#0A1656"/>
<stop offset="0.8889" stop-color="#4478AF"/>
</radialGradient>
<radialGradient id="paint17_radial" cx="0" cy="0" r="1" gradientUnits="userSpaceOnUse" gradientTransform="translate(732.609 684.135) scale(332.967 319.656)">
<stop offset="0.0592593" stop-color="#0A1656"/>
<stop offset="0.8889" stop-color="#4478AF"/>
</radialGradient>
<radialGradient id="paint18_radial" cx="0" cy="0" r="1" gradientUnits="userSpaceOnUse" gradientTransform="translate(592.166 524.151) scale(26.1291 25.0848)">
<stop offset="0.0592593" stop-color="#0A1656"/>
<stop offset="0.8889" stop-color="#4478AF"/>
</radialGradient>
<radialGradient id="paint19_radial" cx="0" cy="0" r="1" gradientUnits="userSpaceOnUse" gradientTransform="translate(852.82 431.638) rotate(175.329) scale(26.1221 25.0922)">
<stop offset="0.0592593" stop-color="#0A1656"/>
<stop offset="0.8889" stop-color="#4478AF"/>
</radialGradient>
<radialGradient id="paint20_radial" cx="0" cy="0" r="1" gradientUnits="userSpaceOnUse" gradientTransform="translate(856.772 -99.4084) rotate(-136.168) scale(326.38 326.108)">
<stop offset="0.0592593" stop-color="#0A1656"/>
<stop offset="0.8889" stop-color="#4478AF"/>
</radialGradient>
<radialGradient id="paint21_radial" cx="0" cy="0" r="1" gradientUnits="userSpaceOnUse" gradientTransform="translate(856.764 -99.4078) rotate(-136.168) scale(326.381 326.109)">
<stop offset="0.0592593" stop-color="#0A1656"/>
<stop offset="0.8889" stop-color="#4478AF"/>
</radialGradient>
<radialGradient id="paint22_radial" cx="0" cy="0" r="1" gradientUnits="userSpaceOnUse" gradientTransform="translate(856.765 -99.4036) rotate(-136.168) scale(326.37 326.099)">
<stop offset="0.0592593" stop-color="#0A1656"/>
<stop offset="0.8889" stop-color="#4478AF"/>
</radialGradient>
<radialGradient id="paint23_radial" cx="0" cy="0" r="1" gradientUnits="userSpaceOnUse" gradientTransform="translate(838.238 109.056) rotate(-136.168) scale(25.6123 25.591)">
<stop offset="0.0592593" stop-color="#0A1656"/>
<stop offset="0.8889" stop-color="#4478AF"/>
</radialGradient>
<radialGradient id="paint24_radial" cx="0" cy="0" r="1" gradientUnits="userSpaceOnUse" gradientTransform="translate(1402.59 -86.7362) rotate(-136.168) scale(449.801 449.427)">
<stop offset="0.0592593" stop-color="#0A1656"/>
<stop offset="0.8889" stop-color="#4478AF"/>
</radialGradient>
<radialGradient id="paint25_radial" cx="0" cy="0" r="1" gradientUnits="userSpaceOnUse" gradientTransform="translate(1402.59 -86.7316) rotate(-136.168) scale(449.793 449.42)">
<stop offset="0.0592593" stop-color="#0A1656"/>
<stop offset="0.8889" stop-color="#4478AF"/>
</radialGradient>
<radialGradient id="paint26_radial" cx="0" cy="0" r="1" gradientUnits="userSpaceOnUse" gradientTransform="translate(430.532 380.252) rotate(-136.168) scale(449.803 449.429)">
<stop offset="0.0592593" stop-color="#0A1656"/>
<stop offset="0.8889" stop-color="#4478AF"/>
</radialGradient>
<radialGradient id="paint27_radial" cx="0" cy="0" r="1" gradientUnits="userSpaceOnUse" gradientTransform="translate(430.535 380.252) rotate(-136.168) scale(449.802 449.428)">
<stop offset="0.0592593" stop-color="#0A1656"/>
<stop offset="0.8889" stop-color="#4478AF"/>
</radialGradient>
<radialGradient id="paint28_radial" cx="0" cy="0" r="1" gradientUnits="userSpaceOnUse" gradientTransform="translate(430.538 380.249) rotate(-136.168) scale(449.806 449.432)">
<stop offset="0.0592593" stop-color="#0A1656"/>
<stop offset="0.8889" stop-color="#4478AF"/>
</radialGradient>
<radialGradient id="paint29_radial" cx="0" cy="0" r="1" gradientUnits="userSpaceOnUse" gradientTransform="translate(430.533 380.25) rotate(-136.168) scale(449.804 449.43)">
<stop offset="0.0592593" stop-color="#0A1656"/>
<stop offset="0.8889" stop-color="#4478AF"/>
</radialGradient>
<radialGradient id="paint30_radial" cx="0" cy="0" r="1" gradientUnits="userSpaceOnUse" gradientTransform="translate(430.533 380.249) rotate(-136.168) scale(449.804 449.43)">
<stop offset="0.0592593" stop-color="#0A1656"/>
<stop offset="0.8889" stop-color="#4478AF"/>
</radialGradient>
<radialGradient id="paint31_radial" cx="0" cy="0" r="1" gradientUnits="userSpaceOnUse" gradientTransform="translate(430.53 380.251) rotate(-136.168) scale(449.799 449.425)">
<stop offset="0.0592593" stop-color="#0A1656"/>
<stop offset="0.8889" stop-color="#4478AF"/>
</radialGradient>
<radialGradient id="paint32_radial" cx="0" cy="0" r="1" gradientUnits="userSpaceOnUse" gradientTransform="translate(58.2543 515.648) rotate(-136.168) scale(36.2019 36.1718)">
<stop offset="0.0592593" stop-color="#0A1656"/>
<stop offset="0.8889" stop-color="#4478AF"/>
</radialGradient>
<radialGradient id="paint33_radial" cx="0" cy="0" r="1" gradientUnits="userSpaceOnUse" gradientTransform="translate(1050.29 457.099) scale(5.86981 5.63529)">
<stop offset="0.0592593" stop-color="#E47E99"/>
<stop offset="0.5259" stop-color="#E43D99"/>
<stop offset="0.9926" stop-color="#B30058"/>
</radialGradient>
<radialGradient id="paint34_radial" cx="0" cy="0" r="1" gradientUnits="userSpaceOnUse" gradientTransform="translate(1068.32 778.623) scale(5.68209 5.45505)">
<stop offset="0.0592593" stop-color="#E47E99"/>
<stop offset="0.5259" stop-color="#E43D99"/>
<stop offset="0.9926" stop-color="#B30058"/>
</radialGradient>
<radialGradient id="paint35_radial" cx="0" cy="0" r="1" gradientUnits="userSpaceOnUse" gradientTransform="translate(937.477 637.764) scale(5.68182 5.4548)">
<stop offset="0.0592593" stop-color="#E47E99"/>
<stop offset="0.5259" stop-color="#E43D99"/>
<stop offset="0.9926" stop-color="#B30058"/>
</radialGradient>
<radialGradient id="paint36_radial" cx="0" cy="0" r="1" gradientUnits="userSpaceOnUse" gradientTransform="translate(1034.25 581.212) scale(5.68209 5.45505)">
<stop offset="0.0592593" stop-color="#E47E99"/>
<stop offset="0.5259" stop-color="#E43D99"/>
<stop offset="0.9926" stop-color="#B30058"/>
</radialGradient>
<radialGradient id="paint37_radial" cx="0" cy="0" r="1" gradientUnits="userSpaceOnUse" gradientTransform="translate(1430.39 495.825) scale(5.68188 5.4548)">
<stop offset="0.0592593" stop-color="#E47E99"/>
<stop offset="0.5259" stop-color="#E43D99"/>
<stop offset="0.9926" stop-color="#B30058"/>
</radialGradient>
<radialGradient id="paint38_radial" cx="0" cy="0" r="1" gradientUnits="userSpaceOnUse" gradientTransform="translate(1303.03 727.404) scale(5.68201 5.4548)">
<stop offset="0.0592593" stop-color="#E47E99"/>
<stop offset="0.5259" stop-color="#E43D99"/>
<stop offset="0.9926" stop-color="#B30058"/>
</radialGradient>
<radialGradient id="paint39_radial" cx="0" cy="0" r="1" gradientUnits="userSpaceOnUse" gradientTransform="translate(1371.4 648.522) scale(35.725 34.2971)">
<stop offset="0.0592593" stop-color="#E47E99"/>
<stop offset="0.5259" stop-color="#E43D99"/>
<stop offset="0.9926" stop-color="#B30058"/>
</radialGradient>
<radialGradient id="paint40_radial" cx="0" cy="0" r="1" gradientUnits="userSpaceOnUse" gradientTransform="translate(981.67 701.415) scale(35.8614 34.4281)">
<stop offset="0.0592593" stop-color="#E47E99"/>
<stop offset="0.5259" stop-color="#E43D99"/>
<stop offset="0.9926" stop-color="#B30058"/>
</radialGradient>
<radialGradient id="paint41_radial" cx="0" cy="0" r="1" gradientUnits="userSpaceOnUse" gradientTransform="translate(306.085 81.0363) scale(5.6821 5.45501)">
<stop offset="0.0592593" stop-color="#E47E99"/>
<stop offset="0.5259" stop-color="#E43D99"/>
<stop offset="0.9926" stop-color="#B30058"/>
</radialGradient>
<radialGradient id="paint42_radial" cx="0" cy="0" r="1" gradientUnits="userSpaceOnUse" gradientTransform="translate(540.792 29.8173) scale(5.68188 5.45478)">
<stop offset="0.0592593" stop-color="#E47E99"/>
<stop offset="0.5259" stop-color="#E43D99"/>
<stop offset="0.9926" stop-color="#B30058"/>
</radialGradient>
<radialGradient id="paint43_radial" cx="0" cy="0" r="1" gradientUnits="userSpaceOnUse" gradientTransform="translate(781.011 137.705) scale(4.12275 3.95801)">
<stop offset="0.0592593" stop-color="#E47E99"/>
<stop offset="0.5259" stop-color="#E43D99"/>
<stop offset="0.9926" stop-color="#B30058"/>
</radialGradient>
<radialGradient id="paint44_radial" cx="0" cy="0" r="1" gradientUnits="userSpaceOnUse" gradientTransform="translate(686.073 35.4987) scale(4.12275 3.95802)">
<stop offset="0.0592593" stop-color="#E47E99"/>
<stop offset="0.5259" stop-color="#E43D99"/>
<stop offset="0.9926" stop-color="#B30058"/>
</radialGradient>
<radialGradient id="paint45_radial" cx="0" cy="0" r="1" gradientUnits="userSpaceOnUse" gradientTransform="translate(951.314 100.541) scale(4.12281 3.95802)">
<stop offset="0.0592593" stop-color="#E47E99"/>
<stop offset="0.5259" stop-color="#E43D99"/>
<stop offset="0.9926" stop-color="#B30058"/>
</radialGradient>
<radialGradient id="paint46_radial" cx="0" cy="0" r="1" gradientUnits="userSpaceOnUse" gradientTransform="translate(713.383 652.695) scale(4.2589 4.08866)">
<stop offset="0.0592593" stop-color="#E47E99"/>
<stop offset="0.5259" stop-color="#E43D99"/>
<stop offset="0.9926" stop-color="#B30058"/>
</radialGradient>
<radialGradient id="paint47_radial" cx="0" cy="0" r="1" gradientUnits="userSpaceOnUse" gradientTransform="translate(875.966 478.849) scale(3.61239 3.46806)">
<stop offset="0.0592593" stop-color="#E47E99"/>
<stop offset="0.5259" stop-color="#E43D99"/>
<stop offset="0.9926" stop-color="#B30058"/>
</radialGradient>
<radialGradient id="paint48_radial" cx="0" cy="0" r="1" gradientUnits="userSpaceOnUse" gradientTransform="translate(867.819 615.568) scale(3.61245 3.46806)">
<stop offset="0.0592593" stop-color="#E47E99"/>
<stop offset="0.5259" stop-color="#E43D99"/>
<stop offset="0.9926" stop-color="#B30058"/>
</radialGradient>
<radialGradient id="paint49_radial" cx="0" cy="0" r="1" gradientUnits="userSpaceOnUse" gradientTransform="translate(787.944 596.916) scale(3.61248 3.46812)">
<stop offset="0.0592593" stop-color="#E47E99"/>
<stop offset="0.5259" stop-color="#E43D99"/>
<stop offset="0.9926" stop-color="#B30058"/>
</radialGradient>
<radialGradient id="paint50_radial" cx="0" cy="0" r="1" gradientUnits="userSpaceOnUse" gradientTransform="translate(539.06 445.6) scale(3.61242 3.46806)">
<stop offset="0.0592593" stop-color="#E47E99"/>
<stop offset="0.5259" stop-color="#E43D99"/>
<stop offset="0.9926" stop-color="#B30058"/>
</radialGradient>
<radialGradient id="paint51_radial" cx="0" cy="0" r="1" gradientUnits="userSpaceOnUse" gradientTransform="translate(728.172 389.519) scale(3.61239 3.46806)">
<stop offset="0.0592593" stop-color="#E47E99"/>
<stop offset="0.5259" stop-color="#E43D99"/>
<stop offset="0.9926" stop-color="#B30058"/>
</radialGradient>
<radialGradient id="paint52_radial" cx="0" cy="0" r="1" gradientUnits="userSpaceOnUse" gradientTransform="translate(877.928 550.276) scale(27.8631 26.7496)">
<stop offset="0.0592593" stop-color="#E47E99"/>
<stop offset="0.5259" stop-color="#E43D99"/>
<stop offset="0.9926" stop-color="#B30058"/>
</radialGradient>
<radialGradient id="paint53_radial" cx="0" cy="0" r="1" gradientUnits="userSpaceOnUse" gradientTransform="translate(232.872 540.381) scale(5.86947 5.63487)">
<stop offset="0.0592593" stop-color="#E47E99"/>
<stop offset="0.5259" stop-color="#E43D99"/>
<stop offset="0.9926" stop-color="#B30058"/>
</radialGradient>
<radialGradient id="paint54_radial" cx="0" cy="0" r="1" gradientUnits="userSpaceOnUse" gradientTransform="translate(456.943 300.789) scale(4.97866 4.77967)">
<stop offset="0.0592593" stop-color="#E47E99"/>
<stop offset="0.5259" stop-color="#E43D99"/>
<stop offset="0.9926" stop-color="#B30058"/>
</radialGradient>
<radialGradient id="paint55_radial" cx="0" cy="0" r="1" gradientUnits="userSpaceOnUse" gradientTransform="translate(445.712 489.214) scale(4.97866 4.7797)">
<stop offset="0.0592593" stop-color="#E47E99"/>
<stop offset="0.5259" stop-color="#E43D99"/>
<stop offset="0.9926" stop-color="#B30058"/>
</radialGradient>
<radialGradient id="paint56_radial" cx="0" cy="0" r="1" gradientUnits="userSpaceOnUse" gradientTransform="translate(335.631 463.508) scale(4.97869 4.7797)">
<stop offset="0.0592593" stop-color="#E47E99"/>
<stop offset="0.5259" stop-color="#E43D99"/>
<stop offset="0.9926" stop-color="#B30058"/>
</radialGradient>
<radialGradient id="paint57_radial" cx="0" cy="0" r="1" gradientUnits="userSpaceOnUse" gradientTransform="translate(952.851 250.778) scale(4.97869 4.77967)">
<stop offset="0.0592593" stop-color="#E47E99"/>
<stop offset="0.5259" stop-color="#E43D99"/>
<stop offset="0.9926" stop-color="#B30058"/>
</radialGradient>
<radialGradient id="paint58_radial" cx="0" cy="0" r="1" gradientUnits="userSpaceOnUse" gradientTransform="translate(1234.92 496.499) scale(18.5512 17.6289)">
<stop offset="0.0592593" stop-color="#E47E99"/>
<stop offset="0.5259" stop-color="#E43D99"/>
<stop offset="0.9926" stop-color="#B30058"/>
</radialGradient>
<radialGradient id="paint59_radial" cx="0" cy="0" r="1" gradientUnits="userSpaceOnUse" gradientTransform="translate(1291.41 303.265) scale(5.8694 5.63487)">
<stop offset="0.0592593" stop-color="#E47E99"/>
<stop offset="0.5259" stop-color="#E43D99"/>
<stop offset="0.9926" stop-color="#B30058"/>
</radialGradient>
<radialGradient id="paint60_radial" cx="0" cy="0" r="1" gradientUnits="userSpaceOnUse" gradientTransform="translate(1504.25 252.098) scale(4.9785 4.77969)">
<stop offset="0.0592593" stop-color="#E47E99"/>
<stop offset="0.5259" stop-color="#E43D99"/>
<stop offset="0.9926" stop-color="#B30058"/>
</radialGradient>
<radialGradient id="paint61_radial" cx="0" cy="0" r="1" gradientUnits="userSpaceOnUse" gradientTransform="translate(1394.17 226.393) scale(4.97863 4.77969)">
<stop offset="0.0592593" stop-color="#E47E99"/>
<stop offset="0.5259" stop-color="#E43D99"/>
<stop offset="0.9926" stop-color="#B30058"/>
</radialGradient>
<radialGradient id="paint62_radial" cx="0" cy="0" r="1" gradientUnits="userSpaceOnUse" gradientTransform="translate(1051.17 17.8511) scale(4.97863 4.77968)">
<stop offset="0.0592593" stop-color="#E47E99"/>
<stop offset="0.5259" stop-color="#E43D99"/>
<stop offset="0.9926" stop-color="#B30058"/>
</radialGradient>
<radialGradient id="paint63_radial" cx="0" cy="0" r="1" gradientUnits="userSpaceOnUse" gradientTransform="translate(1518.19 162.113) scale(38.4005 36.8658)">
<stop offset="0.0592593" stop-color="#E47E99"/>
<stop offset="0.5259" stop-color="#E43D99"/>
<stop offset="0.9926" stop-color="#B30058"/>
</radialGradient>
<radialGradient id="paint64_radial" cx="0" cy="0" r="1" gradientUnits="userSpaceOnUse" gradientTransform="translate(486.088 -3.87744) scale(531.777 364.14)">
<stop offset="0.037037" stop-color="#030A2B"/>
<stop offset="0.9407" stop-color="#071256"/>
</radialGradient>
<radialGradient id="paint65_radial" cx="0" cy="0" r="1" gradientUnits="userSpaceOnUse" gradientTransform="translate(1159.49 666.013) rotate(180) scale(531.777 364.14)">
<stop offset="0.037037" stop-color="#030A2B"/>
<stop offset="0.9407" stop-color="#071256"/>
</radialGradient>
<radialGradient id="paint66_radial" cx="0" cy="0" r="1" gradientUnits="userSpaceOnUse" gradientTransform="translate(693.279 543.22) scale(684.13 468.465)">
<stop offset="0.0592593" stop-color="#071256"/>
<stop offset="0.963" stop-color="#030A2B"/>
</radialGradient>
<radialGradient id="paint67_radial" cx="0" cy="0" r="1" gradientUnits="userSpaceOnUse" gradientTransform="translate(754.18 321.06) scale(611.878 418.99)">
<stop offset="0.0592593" stop-color="#071256"/>
<stop offset="0.963" stop-color="#030A2B"/>
</radialGradient>
<radialGradient id="paint68_radial" cx="0" cy="0" r="1" gradientUnits="userSpaceOnUse" gradientTransform="translate(822.739 131.774) scale(634.2 434.275)">
<stop offset="0.0592593" stop-color="#071256"/>
<stop offset="0.963" stop-color="#030A2B"/>
</radialGradient>
<radialGradient id="paint69_radial" cx="0" cy="0" r="1" gradientUnits="userSpaceOnUse" gradientTransform="translate(788.58 698.036) scale(604.319 413.813)">
<stop offset="0.0592593" stop-color="#071256"/>
<stop offset="0.963" stop-color="#030A2B"/>
</radialGradient>
<radialGradient id="paint70_radial" cx="0" cy="0" r="1" gradientUnits="userSpaceOnUse" gradientTransform="translate(779.362 -75.1256) scale(593.362 406.31)">
<stop offset="0.0592593" stop-color="#071256"/>
<stop offset="0.963" stop-color="#030A2B"/>
</radialGradient>
<linearGradient id="paint71_linear" x1="-1401.82" y1="14228.7" x2="-827.574" y2="14389" gradientUnits="userSpaceOnUse">
<stop stop-color="#A3DDFD"/>
<stop offset="0.06" stop-color="#9ACEF3"/>
<stop offset="0.29" stop-color="#7E9FD3"/>
<stop offset="0.5" stop-color="#697ABA"/>
<stop offset="0.69" stop-color="#595FA8"/>
<stop offset="0.87" stop-color="#4F4F9D"/>
<stop offset="1" stop-color="#4C4999"/>
</linearGradient>
<linearGradient id="paint72_linear" x1="3525.82" y1="-2700.9" x2="3336.23" y2="-2898.39" gradientUnits="userSpaceOnUse">
<stop stop-color="#272425"/>
<stop offset="1" stop-color="#272425" stop-opacity="0"/>
</linearGradient>
<linearGradient id="paint73_linear" x1="3039.35" y1="-2410.82" x2="2937.63" y2="-2516.78" gradientUnits="userSpaceOnUse">
<stop stop-color="#272425"/>
<stop offset="1" stop-color="#272425" stop-opacity="0"/>
</linearGradient>
<linearGradient id="paint74_linear" x1="2197.79" y1="-1478.8" x2="2158.58" y2="-1519.64" gradientUnits="userSpaceOnUse">
<stop stop-color="#272425"/>
<stop offset="1" stop-color="#272425" stop-opacity="0"/>
</linearGradient>
<clipPath id="clip0">
<rect width="1655.21" height="1047" fill="white" transform="translate(-131.25 -196)"/>
</clipPath>
</defs>
</svg>
