<svg width="236" height="236" viewBox="0 0 236 236" fill="none" xmlns="http://www.w3.org/2000/svg">
<path d="M176.663 176.681C209.072 144.272 209.072 91.7276 176.663 59.319C144.254 26.9104 91.7097 26.9104 59.3011 59.319C26.8925 91.7276 26.8925 144.272 59.3011 176.681C91.7097 209.09 144.254 209.09 176.663 176.681Z" fill="#FFCE00"/>
<path d="M200.768 124.25L158.772 82.2544L77.2275 176.038L100.298 199.108C106.002 200.348 111.924 201 118 201C161.737 201 197.573 167.171 200.768 124.25Z" fill="#FFA300"/>
<path d="M143.579 104.085C143.579 89.9712 132.148 78.5282 118.039 78.5068V129.663C132.148 129.642 143.579 118.199 143.579 104.085Z" fill="#FF432E"/>
<path d="M118.039 136.401H145.875V146.128H118.039V136.401Z" fill="#BEC3D2"/>
<path d="M118.039 155.098H145.875V164.824H118.039V155.098Z" fill="#BEC3D2"/>
<path d="M136.48 59.9624L158.772 82.2541V176.038H77.2275V59.9624H136.48Z" fill="white"/>
<path d="M158.772 82.2544L136.48 59.9624H118.039V176.038H158.772V82.2544Z" fill="#E9EDF5"/>
<path d="M136.48 82.2541V59.9624L158.772 82.2541H136.48Z" fill="#BEC3D2"/>
<path d="M143.226 108.172C145.486 94.2287 136.015 81.093 122.072 78.8327C108.128 76.5723 94.9927 86.0433 92.7323 99.9867C90.472 113.93 99.943 127.066 113.886 129.326C127.83 131.586 140.965 122.115 143.226 108.172Z" fill="#0D065F"/>
<path d="M103.282 136.401H145.875V146.128H103.282V136.401Z" fill="#DCE1EB"/>
<path d="M103.282 155.098H145.875V164.824H103.282V155.098Z" fill="#DCE1EB"/>
<path d="M88.4492 136.401H97.4275V146.128H88.4492V136.401Z" fill="#0D065F"/>
<path d="M93.8999 144.262C93.9448 144.262 93.99 144.259 94.0353 144.255C94.4006 144.217 94.7324 144.027 94.9486 143.732L101.865 134.307C102.287 133.733 102.158 132.929 101.579 132.512C101 132.094 100.189 132.221 99.7675 132.795L93.6976 141.067L91.3091 138.936C90.7765 138.462 89.9566 138.504 89.4774 139.032C88.9983 139.56 89.0415 140.372 89.5739 140.847L93.0322 143.932C93.2715 144.145 93.581 144.262 93.8999 144.262Z" fill="#B7E546"/>
<path d="M88.4492 155.098H97.4275V164.824H88.4492V155.098Z" fill="#0D065F"/>
<path d="M93.8999 162.742C93.9448 162.742 93.99 162.74 94.0353 162.735C94.4006 162.697 94.7324 162.507 94.9486 162.213L101.865 152.788C102.287 152.213 102.158 151.41 101.579 150.992C101 150.574 100.189 150.701 99.7675 151.276L93.6976 159.547L91.3091 157.417C90.7765 156.942 89.9566 156.985 89.4774 157.512C88.9983 158.04 89.0415 158.853 89.5739 159.328L93.0322 162.412C93.2715 162.626 93.581 162.742 93.8999 162.742Z" fill="#B7E546"/>
<path d="M120.011 94.0967C120.006 94.0815 120 94.0658 119.993 94.0506C119.654 93.2258 118.859 92.6934 117.966 92.6934C117.966 92.6934 117.965 92.6934 117.964 92.6934C117.071 92.6943 116.276 93.2289 115.938 94.0551C115.933 94.0678 115.928 94.0804 115.923 94.0933L107.411 116.442C107.081 117.307 107.516 118.277 108.382 118.607C108.578 118.682 108.78 118.717 108.979 118.717C109.655 118.717 110.292 118.305 110.547 117.636L112.255 113.151H123.616L125.306 117.631C125.634 118.498 126.602 118.936 127.468 118.608C128.335 118.281 128.773 117.313 128.446 116.446L120.011 94.0967ZM113.534 109.795L117.962 98.1686L122.349 109.795H113.534Z" fill="white"/>
<path d="M134.738 94.6705H131.538V91.4708C131.538 90.544 130.787 89.793 129.86 89.793C128.933 89.793 128.182 90.544 128.182 91.4708V94.6705H124.865C123.938 94.6705 123.188 95.4215 123.188 96.3483C123.188 97.2752 123.938 98.0261 124.865 98.0261H128.182V101.343C128.182 102.27 128.933 103.021 129.86 103.021C130.787 103.021 131.538 102.27 131.538 101.343V98.0261H134.738C135.664 98.0261 136.415 97.2752 136.415 96.3483C136.415 95.4215 135.664 94.6705 134.738 94.6705Z" fill="white"/>
</svg>
