<svg width="71" height="54" viewBox="0 0 71 54" fill="none" xmlns="http://www.w3.org/2000/svg">
<path d="M23.8678 30.767C26.9667 32.721 30.0746 34.6168 32.7611 37.922C32.5137 38.5024 32.27 38.4132 32.0454 38.2291C30.2695 36.7718 28.3983 35.7081 26.4885 34.8236C25.3648 34.3034 24.2185 33.9096 23.0836 33.4519C22.8039 33.342 22.5312 33.2148 22.2671 33.0709C21.9501 32.8943 21.7812 32.5257 21.7812 31.9719C21.7812 24.858 21.7816 17.7441 21.7822 10.6301C21.7884 10.5021 21.8024 10.3746 21.8241 10.2484C22.0018 9.87118 22.2233 9.84148 22.4617 9.92324C25.9333 11.1168 29.2778 12.8715 32.3779 15.7043C32.4532 15.7732 32.5352 15.8394 32.5621 16.2691C31.5823 15.675 30.673 15.0833 29.7466 14.5721C28.7907 14.0441 27.8218 13.5726 26.8513 13.1189C25.8923 12.6549 24.8938 12.2796 23.868 11.9976L23.8678 30.767Z" fill="url(#paint0_linear)"/>
<path d="M35.4863 37.9497C38.2216 34.6623 41.3014 32.6842 44.4195 30.7803V11.9908C41.411 12.8846 38.5742 14.4164 35.6807 16.3573C36.3683 14.3021 45.307 9.28186 46.4018 10.1297C46.5402 10.4308 46.5054 10.7825 46.5054 11.1186C46.5085 17.921 46.51 24.7234 46.5097 31.5258C46.5097 32.7019 46.3693 33.0059 45.6226 33.2745C43.3346 34.0968 41.0713 35.0533 38.8768 36.3941C38.0121 36.9159 37.1802 37.4913 36.3859 38.1172C36.1378 38.3149 35.8769 38.5742 35.4863 37.9497Z" fill="url(#paint1_linear)"/>
<path d="M48.1054 34.6186V13.7649C48.7147 13.5314 49.2591 13.5574 49.7981 13.6809C50.1099 13.7527 50.2148 14.1675 50.2182 14.6358C50.2241 15.3753 50.2241 16.1146 50.2244 16.8542C50.2262 22.9688 50.2277 29.0834 50.2287 35.1978C50.2287 36.6467 50.0846 36.8011 49.1709 36.866C46.2494 37.0727 43.3364 37.4275 40.4538 38.2841C39.0472 38.7056 37.6625 39.1989 36.3052 39.7619C36.1241 39.8365 35.9384 40.0206 35.6025 39.615C39.6297 36.8227 43.7803 35.4587 48.1054 34.6186Z" fill="url(#paint2_linear)"/>
<path d="M20.1635 34.6067C24.5031 35.4427 28.6378 36.85 32.5994 39.5427C32.3859 40.0822 32.1635 39.8513 31.9824 39.769C29.8796 38.8082 27.7326 38.1935 25.5717 37.7082C23.8164 37.3141 22.0563 36.9833 20.2776 36.9996C19.7471 37.0042 19.2148 36.9154 18.6856 36.8435C18.2904 36.7901 18.0776 36.4213 18.0649 35.7804C18.0569 35.3825 18.0584 34.9837 18.0584 34.5855C18.0581 28.1547 18.0589 21.7239 18.0606 15.2929C18.0606 14.8711 18.0186 14.4375 18.1683 13.9299C18.7488 13.3417 19.4132 13.6605 20.1633 13.68L20.1635 34.6067Z" fill="url(#paint3_linear)"/>
<path d="M24.9972 44.1141C24.8155 43.6356 24.848 43.246 24.9102 42.7632C25.5139 42.0103 26.2821 42.0551 27.0073 41.9624C27.7485 41.8681 28.4979 41.9303 29.2434 41.9303C33.0781 41.9296 36.9128 41.9291 40.7476 41.9287C41.4128 41.9307 42.0731 42.0454 42.7008 42.2682C42.9432 42.3524 43.1876 42.4474 43.3668 42.8053C43.468 43.2396 43.4426 43.6943 43.2938 44.1144L24.9972 44.1141Z" fill="#0D005F"/>
<path d="M37.6361 19.3658L33.8166 16.3655L33.5679 21.1784L35.1132 20.4899L36.0243 22.2464L37.0125 21.7217L36.1369 20.0336L37.6361 19.3658Z" fill="#082679"/>
<path d="M14.5432 17.5368C15.1413 17.1195 15.7814 17.1282 16.5196 17.1351V37.8965C16.8086 38.5284 17.1056 38.4803 17.3866 38.4812C19.5351 38.4891 21.6835 38.4812 23.832 38.4956C26.0321 38.5106 28.1577 39.3199 30.2885 40.0751C30.3635 40.0913 30.432 40.1299 30.485 40.1859C30.5381 40.242 30.5732 40.3129 30.5859 40.3894C30.4306 40.6929 30.2212 40.5852 30.0402 40.5855C25.2996 40.5933 20.5588 40.5956 15.818 40.5924C15.6579 40.5924 15.498 40.584 15.3388 40.5674C14.6511 40.495 14.4624 40.1863 14.4619 39.0925C14.4588 35.5054 14.5042 31.9167 14.4473 28.332C14.3967 25.1456 14.4674 21.963 14.4486 18.7786C14.4465 18.412 14.4185 18.0378 14.5432 17.5368Z" fill="url(#paint4_linear)"/>
<path d="M51.9856 17.2038C52.6149 17.0435 53.4663 17.2216 53.8716 17.5892C54.0149 17.9147 53.9667 18.2974 53.9676 18.66C53.9818 23.8721 53.9926 29.0846 54.0001 34.2975C54.0013 35.9436 53.9865 37.5898 53.9556 39.2362C53.9356 40.2924 53.7478 40.5737 53.0654 40.5831C51.6796 40.6024 50.2938 40.5888 48.908 40.5888C45.4432 40.5888 41.9783 40.5873 38.5133 40.5844C38.2922 40.5844 38.0551 40.666 37.842 40.4307C37.8853 40.0786 38.0786 40.1084 38.2138 40.0577C40.5509 39.1838 42.8938 38.4056 45.3167 38.4733C47.2348 38.5274 49.1542 38.4828 51.0732 38.4786C51.8013 38.4774 51.8741 38.3668 51.875 37.2164C51.8781 30.9496 51.8805 24.6828 51.8823 18.4162C51.8822 18.0269 51.83 17.6189 51.9856 17.2038Z" fill="url(#paint5_linear)"/>
<defs>
<linearGradient id="paint0_linear" x1="27.2712" y1="9.88596" x2="27.2712" y2="38.3683" gradientUnits="userSpaceOnUse">
<stop stop-color="#FEE140"/>
<stop offset="1" stop-color="#FF7B00"/>
</linearGradient>
<linearGradient id="paint1_linear" x1="40.998" y1="10.0342" x2="40.998" y2="38.3427" gradientUnits="userSpaceOnUse">
<stop stop-color="#FEE140"/>
<stop offset="1" stop-color="#FF7B00"/>
</linearGradient>
<linearGradient id="paint2_linear" x1="42.9156" y1="13.5881" x2="42.9156" y2="39.8688" gradientUnits="userSpaceOnUse">
<stop stop-color="#FEE140"/>
<stop offset="1" stop-color="#FF7B00"/>
</linearGradient>
<linearGradient id="paint3_linear" x1="25.3273" y1="13.5764" x2="25.3273" y2="39.889" gradientUnits="userSpaceOnUse">
<stop stop-color="#FEE140"/>
<stop offset="1" stop-color="#FF7B00"/>
</linearGradient>
<linearGradient id="paint4_linear" x1="22.5073" y1="17.1333" x2="22.5073" y2="40.6039" gradientUnits="userSpaceOnUse">
<stop stop-color="#064586"/>
<stop offset="0.325" stop-color="#0A1472"/>
<stop offset="1" stop-color="#0D005F"/>
</linearGradient>
<linearGradient id="paint5_linear" x1="45.9211" y1="17.1447" x2="45.9211" y2="40.5981" gradientUnits="userSpaceOnUse">
<stop stop-color="#064586"/>
<stop offset="0.325" stop-color="#0A1472"/>
<stop offset="1" stop-color="#0D005F"/>
</linearGradient>
</defs>
</svg>
