<svg width="24" height="24" viewBox="0 0 24 24" fill="none" xmlns="http://www.w3.org/2000/svg">
<g clip-path="url(#clip0)">
<path d="M15.7896 7.5L15.668 7.68315C15.6551 7.7022 15.3812 8.09565 14.9325 8.11185C14.9715 7.91235 15.0031 7.70805 15.0264 7.5H8.9736C8.99685 7.70805 9.0285 7.91235 9.0675 8.112C8.61855 8.0958 8.34465 7.70235 8.33175 7.6833L8.2104 7.5L7.5 8.2818L7.63365 8.42355C7.64175 8.43225 8.4405 9.2958 8.4405 10.8095C8.4405 11.5332 8.67465 11.8031 8.87085 11.9021C8.94283 11.9383 9.02232 11.957 9.1029 11.9568C9.2874 11.9568 9.48555 11.8632 9.6651 11.6849C9.9048 11.4467 10.1016 11.0546 10.2376 10.7261C10.5783 11.1239 10.9698 11.4116 11.3923 11.5547V14.0429C10.3909 14.352 9.6525 15.3 9.6525 15.3V15.6H8.97255V16.5H15.0276V15.6H14.3474V15.3C14.3474 15.3 13.6088 14.3517 12.6074 14.043V11.555C13.0301 11.412 13.4217 11.1242 13.7624 10.7264C13.8984 11.0547 14.0954 11.447 14.3349 11.685C14.5142 11.8632 14.7126 11.9568 14.8968 11.9568C14.978 11.9568 15.0563 11.939 15.1292 11.9021C15.3255 11.8033 15.5592 11.5333 15.5592 10.8095C15.5592 9.2958 16.3578 8.4321 16.366 8.4237L16.5 8.28165L15.7896 7.5ZM9.42945 11.3874C9.28095 11.5347 9.1227 11.5931 9.01635 11.5395C8.87595 11.4686 8.7954 11.2026 8.7954 10.8096C8.7954 9.4899 8.25435 8.61975 8.00235 8.28645L8.1834 8.0871C8.3586 8.2713 8.6955 8.5368 9.1569 8.5095C9.3402 9.23115 9.6246 9.8763 9.9813 10.3922C9.86175 10.7088 9.66555 11.1531 9.42945 11.3874ZM13.5 16.275H10.5V15.825H13.5V16.275ZM13.4991 15.1344H10.4991C10.499 15.1344 11.0022 14.2605 11.9999 14.2605C12.995 14.2605 13.4992 15.1344 13.4991 15.1344ZM11.6923 13.9725V11.6312C11.7936 11.6481 11.896 11.6577 12 11.6577C12.1037 11.6577 12.2063 11.6483 12.3074 11.6312V13.9725C12.2058 13.9552 12.103 13.946 12 13.9449C11.8955 13.9451 11.7933 13.9565 11.6923 13.9725ZM12 11.2583C10.5828 11.2583 10.0469 9.4353 9.825 7.89945H14.175C13.9532 9.43515 13.4172 11.2583 12 11.2583ZM15.2045 10.8093C15.2045 11.2025 15.1239 11.4685 14.9835 11.5392C14.8769 11.5931 14.7186 11.5349 14.5704 11.3874C14.3346 11.153 14.138 10.709 14.0184 10.3923C14.3753 9.87645 14.6597 9.23115 14.843 8.5095C15.3045 8.5365 15.641 8.2713 15.816 8.08695L15.9971 8.28615C15.7457 8.6196 15.2045 9.48975 15.2045 10.8093Z" fill="#0D005F"/>
</g>
<circle cx="12" cy="12" r="11.75" stroke="#0D005F" stroke-width="0.5"/>
<defs>
<clipPath id="clip0">
<rect width="9.6" height="9.6" fill="white" transform="translate(7.19922 7.19922)"/>
</clipPath>
</defs>
</svg>
