<svg width="279" height="47" viewBox="0 0 279 47" fill="none" xmlns="http://www.w3.org/2000/svg">
<path d="M12.7263 28.1533C16.9045 30.7879 21.0948 33.3439 24.7169 37.8002C24.3833 38.5827 24.0547 38.4624 23.752 38.2142C21.3576 36.2495 18.8346 34.8152 16.2598 33.6228C14.7447 32.9214 13.1991 32.3904 11.669 31.7733C11.292 31.6252 10.9243 31.4536 10.5681 31.2596C10.1407 31.0215 9.91309 30.5246 9.91309 29.7778C9.91309 20.1864 9.91351 10.5949 9.91434 1.00328C9.92275 0.830737 9.94164 0.658885 9.97091 0.488691C10.2105 -0.0199175 10.5091 -0.0599701 10.8305 0.0502708C15.5112 1.65951 20.0205 4.0253 24.2003 7.8447C24.3017 7.93764 24.4123 8.02691 24.4486 8.60621C23.1276 7.80515 21.9016 7.0074 20.6526 6.31823C19.3637 5.60631 18.0574 4.97055 16.7489 4.35882C15.4559 3.73326 14.1097 3.22729 12.7266 2.84711L12.7263 28.1533Z" fill="white"/>
<path d="M28.3916 37.8379C32.0795 33.4056 36.2319 30.7385 40.4359 28.1716V2.83831C36.3796 4.04333 32.5549 6.10866 28.6537 8.72546C29.5807 5.95456 41.6325 -0.814134 43.1086 0.328963C43.2952 0.73496 43.2483 1.20911 43.2483 1.66228C43.2525 10.8338 43.2545 20.0052 43.2541 29.1767C43.2541 30.7624 43.0648 31.1723 42.058 31.5345C38.9732 32.6432 35.9217 33.9327 32.9629 35.7406C31.797 36.444 30.6754 37.2199 29.6044 38.0638C29.27 38.3303 28.9181 38.68 28.3916 37.8379Z" fill="white"/>
<path d="M45.4052 33.346V5.22948C46.2266 4.91477 46.9606 4.94974 47.6873 5.11631C48.1077 5.21307 48.2491 5.77229 48.2538 6.40373C48.2617 7.40085 48.2617 8.3976 48.2621 9.39472C48.2646 17.6389 48.2665 25.883 48.2678 34.127C48.2678 36.0804 48.0737 36.2885 46.8417 36.3762C42.9027 36.6547 38.9752 37.1331 35.0886 38.288C33.1921 38.8564 31.3253 39.5214 29.4952 40.2806C29.2511 40.3812 29.0007 40.6294 28.5479 40.0825C33.9776 36.3177 39.5737 34.4787 45.4052 33.346Z" fill="white"/>
<path d="M7.73225 33.3302C13.5832 34.4573 19.1579 36.3548 24.4992 39.9852C24.2113 40.7127 23.9116 40.4014 23.6673 40.2904C20.8322 38.995 17.9374 38.1662 15.0239 37.5119C12.6573 36.9805 10.2842 36.5345 7.8861 36.5564C7.17077 36.5627 6.45318 36.4429 5.73961 36.346C5.20679 36.274 4.91983 35.7768 4.90273 34.9126C4.89192 34.3762 4.89406 33.8386 4.89406 33.3016C4.89364 24.6312 4.8946 15.9606 4.89695 7.28996C4.89695 6.72121 4.84039 6.13669 5.04213 5.45223C5.82483 4.65918 6.72066 5.08909 7.732 5.11528L7.73225 33.3302Z" fill="white"/>
<path d="M14.249 46.1492C14.004 45.5041 14.0478 44.9787 14.1317 44.3278C14.9456 43.3126 15.9813 43.3732 16.9591 43.2482C17.9585 43.121 18.9688 43.2048 19.974 43.2048C25.1442 43.2039 30.3145 43.2032 35.4847 43.2027C36.3817 43.2053 37.2719 43.3601 38.1183 43.6604C38.4451 43.774 38.7745 43.902 39.0162 44.3845C39.1526 44.9702 39.1184 45.5832 38.9177 46.1495L14.249 46.1492Z" fill="white"/>
<path d="M31.2898 12.7816L26.14 8.73633L25.8047 15.2254L27.8882 14.2972L29.1166 16.6654L30.449 15.9579L29.2685 13.6819L31.2898 12.7816Z" fill="white"/>
<path d="M0.154332 10.3155C0.96079 9.75286 1.82381 9.76468 2.81906 9.77397V37.766C3.20871 38.6179 3.60918 38.5531 3.98802 38.5544C6.88478 38.5649 9.78142 38.5544 12.6782 38.5737C15.6446 38.5939 18.5104 39.6851 21.3833 40.7034C21.4844 40.7251 21.5768 40.7772 21.6483 40.8527C21.7198 40.9283 21.7672 41.0239 21.7843 41.127C21.5749 41.5363 21.2925 41.3911 21.0486 41.3915C14.6569 41.402 8.26508 41.4051 1.87308 41.4008C1.6573 41.4007 1.44166 41.3895 1.22701 41.3671C0.299886 41.2694 0.0454815 40.8533 0.0447273 39.3784C0.0405794 34.5421 0.101792 29.7035 0.0251182 24.8704C-0.043134 20.5743 0.0521426 16.2833 0.0267523 11.9898C0.023987 11.4956 -0.0137215 10.9911 0.154332 10.3155Z" fill="white"/>
<path d="M50.6368 9.8668C51.4852 9.65064 52.6331 9.89083 53.1796 10.3865C53.3728 10.8253 53.3078 11.3413 53.3091 11.8302C53.3282 18.8574 53.3427 25.8853 53.3528 32.9138C53.3545 35.1332 53.3345 37.3527 53.2928 39.5725C53.2658 40.9966 53.0127 41.3757 52.0926 41.3885C50.2241 41.4145 48.3557 41.3961 46.4874 41.3961C41.8159 41.3961 37.1442 41.3941 32.4724 41.3902C32.1744 41.3902 31.8546 41.5002 31.5674 41.183C31.6257 40.7083 31.8863 40.7484 32.0687 40.6801C35.2197 39.5018 38.3785 38.4526 41.6452 38.5439C44.2314 38.6168 46.8192 38.5567 49.4066 38.5511C50.3883 38.5494 50.4865 38.4003 50.4876 36.8493C50.4918 28.3998 50.4951 19.9506 50.4975 11.5015C50.4973 10.9766 50.427 10.4265 50.6368 9.8668Z" fill="white"/>
<path d="M92.8352 33.1707L90.9942 27.7684H81.9121L79.9164 33.1707H74.4854L83.5068 9.4541H88.8768L98.3587 33.1707H92.8352ZM86.2995 15.3501L83.415 23.6503H89.3065L86.2995 15.3501Z" fill="white"/>
<path d="M120.483 33.1709H114.837L111.799 21.5762L108.577 33.1709H103.022L97.4688 15.8447H102.532L105.847 27.6702L109.192 15.8447H114.347L117.538 28.1308L120.761 15.8447H125.823L120.483 33.1709Z" fill="white"/>
<path d="M133.433 33.1715C132.021 33.1715 130.702 32.6334 129.474 31.5572C128.247 30.4811 127.377 29.0317 126.866 27.209C126.622 26.3638 126.498 25.4878 126.498 24.6073C126.508 23.6581 126.653 22.7153 126.927 21.8075C127.406 20.1333 128.361 18.6385 129.674 17.5091C130.972 16.4006 132.338 15.8461 133.77 15.8457H141.074V19.6649H134.599C134.187 19.6464 133.776 19.7211 133.397 19.8836C133.017 20.0461 132.678 20.2922 132.404 20.6041C131.863 21.2263 131.573 22.0317 131.591 22.8603H141.073V26.4853H131.622V26.9467C131.605 27.3647 131.688 27.7808 131.865 28.1593C132.041 28.5379 132.305 28.8677 132.635 29.1206C133.309 29.6476 134.291 29.9111 135.58 29.9111H141.073V33.1723L133.433 33.1715Z" fill="white"/>
<path d="M157.889 30.9642C157.454 31.6301 156.871 32.1829 156.186 32.5778C155.529 32.9654 154.783 33.1701 154.023 33.1711H143.221V30.1074H152.641C153.008 30.0261 153.353 29.8664 153.654 29.6388C153.863 29.458 154.03 29.2318 154.142 28.977C154.254 28.7222 154.307 28.4452 154.299 28.1666C154.312 27.8539 154.252 27.5425 154.124 27.2576C153.996 26.9727 153.803 26.7223 153.562 26.5265C153.303 26.3675 153.024 26.2434 152.733 26.1574C152.356 26.0418 151.963 25.9854 151.568 25.9901H147.027C146.065 25.9901 145.175 25.5839 144.357 24.7715C144.045 24.4583 143.777 24.104 143.559 23.7181C143.049 22.8881 142.783 21.9282 142.792 20.9508C142.792 19.4581 143.217 18.2337 144.066 17.2777C144.469 16.8132 144.967 16.4441 145.527 16.1965C146.086 15.9489 146.693 15.829 147.303 15.8452H157.674V19.1055H148.437C148.304 19.1108 148.173 19.1427 148.052 19.1993C147.931 19.2559 147.822 19.3361 147.731 19.4353C147.516 19.6403 147.353 19.8949 147.256 20.1775C147.17 20.4153 147.124 20.6655 147.118 20.9184C147.121 21.2419 147.206 21.5594 147.363 21.8411C147.498 22.1264 147.712 22.3658 147.979 22.5297C148.246 22.6936 148.554 22.775 148.867 22.7639H153.777C154.599 22.7399 155.414 22.933 156.139 23.3241C157.551 24.0927 158.39 25.3443 158.656 27.079C158.697 27.2348 158.718 27.3956 158.718 27.557V28.0348C158.734 29.0727 158.445 30.0922 157.889 30.9642Z" fill="white"/>
<path d="M167.647 33.1709H165.623C164.62 33.1709 163.801 32.9724 163.168 32.5755C162.473 32.1151 161.899 31.4913 161.495 30.7575C161.013 29.9417 160.773 28.9279 160.773 27.7162V15.8447H165.192V27.3072C165.192 28.0094 165.56 28.6022 166.297 29.0855C166.619 29.2875 166.992 29.3906 167.371 29.3822H171.637V15.8447H176.055V33.1709H167.647Z" fill="white"/>
<path d="M197.229 33.1709V22.2679C197.246 21.7771 197.14 21.2899 196.921 20.8515C196.471 20.061 195.887 19.6656 195.172 19.6653H192.134V33.1709H187.715V19.6643H182.683V33.1699H178.264V15.8447H195.694C196.86 15.8447 197.755 15.9655 198.378 16.207C199.065 16.4923 199.679 16.9312 200.174 17.4908C200.63 17.9865 201.003 18.5539 201.279 19.1709C201.513 19.6882 201.638 20.2488 201.648 20.8176V33.1701L197.229 33.1709Z" fill="white"/>
<path d="M213.338 33.1707H212.234C211.813 33.1635 211.396 33.1023 210.99 32.9888C210.484 32.8517 209.987 32.6802 209.503 32.4757C207.702 31.7044 206.239 30.3373 205.114 28.3744C203.989 26.4115 203.427 24.1293 203.427 21.528C203.423 20.6195 203.495 19.7122 203.641 18.8159C203.968 16.5883 204.7 14.7138 205.836 13.1925C206.901 11.7226 208.383 10.6151 210.086 10.017C210.78 9.75195 211.5 9.56324 212.234 9.4541H223.925V13.7359H214.72C213.738 13.7359 212.935 13.901 212.311 14.2312C211.688 14.5614 211.079 15.1431 210.485 15.9764C210.094 16.5279 209.822 17.1567 209.687 17.8219C209.637 18.0659 209.606 18.3137 209.595 18.5627C209.574 18.8806 209.564 19.1386 209.564 19.3366H224.048V23.5528H209.625C209.615 23.9971 209.666 24.4406 209.778 24.8703C209.995 25.6804 210.382 26.4332 210.914 27.0769C211.937 28.2851 213.093 28.8891 214.381 28.889H224.048V33.1707H213.338Z" fill="white"/>
<path d="M232.7 33.1707C231.021 33.1707 229.579 32.5008 228.373 31.1609C227.084 29.7339 226.318 27.8236 226.073 25.43C226.052 25.1446 226.036 24.8972 226.027 24.6878C226.016 24.4794 226.012 24.3089 226.012 24.1773C226.014 23.7584 226.044 23.3402 226.103 22.9255C226.43 20.7517 227.223 19.0279 228.482 17.7541C229.74 16.4803 231.197 15.8435 232.854 15.8438H238.501V9.4541H242.92V33.1707H232.7ZM238.5 19.6652H234.511C233.979 19.6592 233.451 19.7762 232.97 20.0074C232.489 20.2386 232.066 20.5779 231.734 20.9994C230.987 21.8888 230.614 23.0143 230.614 24.3759C230.609 24.6398 230.619 24.9037 230.645 25.1664C230.665 25.3205 230.706 25.54 230.768 25.825L230.952 26.5167C231.279 27.4611 231.729 28.1748 232.302 28.6579C232.859 29.1352 233.567 29.3927 234.297 29.3826H238.501L238.5 19.6652Z" fill="white"/>
<path d="M261.914 33.9582C261.913 34.1831 261.898 34.4078 261.868 34.6306C261.828 34.9014 261.771 35.1694 261.698 35.433C261.561 35.9531 261.36 36.4538 261.1 36.9237C260.8 37.3867 260.445 37.8101 260.042 38.1842C259.141 39.0803 257.771 39.5283 255.93 39.5283H246.571V35.97H254.466C254.935 35.9833 255.406 35.9618 255.872 35.9056C256.15 35.8327 256.404 35.6866 256.607 35.4822L256.853 35.2539C257.078 35.002 257.263 34.7168 257.403 34.4082C257.447 34.3152 257.478 34.2165 257.494 34.1149V33.1711H251.771C250.117 33.1711 248.658 32.5233 247.393 31.2277C246.066 29.8663 245.27 28.0985 245.005 25.9242C244.945 25.499 244.914 25.07 244.913 24.6404C244.924 24.083 244.97 23.5269 245.051 22.9754C245.164 22.2063 245.369 21.4542 245.664 20.7359C245.964 19.9626 246.372 19.2361 246.873 18.5781C248.363 16.756 250.13 15.8449 252.172 15.8447H261.913V33.9588L261.914 33.9582ZM257.494 19.6645H253.644C252.646 19.6645 251.785 20.1148 251.061 21.0152C250.338 21.9156 249.976 23.0683 249.977 24.4733C249.979 24.8814 250.01 25.2888 250.068 25.6925C250.455 28.1517 251.78 29.3814 254.041 29.3816H257.494V19.6645Z" fill="white"/>
<path d="M270.874 33.1715C269.462 33.1715 268.143 32.6334 266.916 31.5572C265.688 30.4811 264.819 29.0317 264.307 27.209C264.063 26.3638 263.939 25.4878 263.938 24.6073C263.949 23.6581 264.094 22.7153 264.368 21.8075C264.847 20.1334 265.802 18.6386 267.114 17.5091C268.413 16.4006 269.779 15.8461 271.211 15.8457H278.514V19.6649H272.04C271.628 19.6465 271.217 19.7212 270.837 19.8837C270.458 20.0462 270.119 20.2923 269.845 20.6041C269.304 21.2265 269.014 22.0317 269.032 22.8603H278.514V26.4853H269.063V26.9467C269.046 27.3648 269.129 27.7809 269.306 28.1594C269.482 28.538 269.747 28.8677 270.076 29.1206C270.75 29.6476 271.732 29.9111 273.022 29.9111H278.515V33.1723L270.874 33.1715Z" fill="white"/>
</svg>
