<svg width="25" height="25" viewBox="0 0 25 25" fill="none" xmlns="http://www.w3.org/2000/svg">
<path d="M12.5231 8.00025C10.3197 8.00025 8.52151 9.79846 8.52151 12.002C8.52151 14.2054 10.3197 16.0037 12.5231 16.0037C14.7266 16.0037 16.5248 14.2054 16.5248 12.002C16.5248 9.79846 14.7266 8.00025 12.5231 8.00025ZM24.525 12.002C24.525 10.3448 24.54 8.70272 24.447 7.04861C24.3539 5.12731 23.9156 3.42216 22.5107 2.01721C21.1028 0.609256 19.4007 0.173962 17.4794 0.0808988C15.8223 -0.0121641 14.1802 0.00284606 12.5261 0.00284606C10.8691 0.00284606 9.22698 -0.0121641 7.57289 0.0808988C5.65163 0.173962 3.94651 0.612258 2.54158 2.01721C1.13366 3.42516 0.698372 5.12731 0.605311 7.04861C0.51225 8.70573 0.52726 10.3478 0.52726 12.002C0.52726 13.6561 0.51225 15.3012 0.605311 16.9553C0.698372 18.8766 1.13666 20.5817 2.54158 21.9867C3.94951 23.3946 5.65163 23.8299 7.57289 23.923C9.22998 24.0161 10.8721 24.0011 12.5261 24.0011C14.1832 24.0011 15.8253 24.0161 17.4794 23.923C19.4007 23.8299 21.1058 23.3916 22.5107 21.9867C23.9186 20.5787 24.3539 18.8766 24.447 16.9553C24.543 15.3012 24.525 13.6591 24.525 12.002ZM12.5231 18.1591C9.1159 18.1591 6.3661 15.4093 6.3661 12.002C6.3661 8.59465 9.1159 5.84479 12.5231 5.84479C15.9304 5.84479 18.6802 8.59465 18.6802 12.002C18.6802 15.4093 15.9304 18.1591 12.5231 18.1591ZM18.9324 7.03059C18.1368 7.03059 17.4944 6.38816 17.4944 5.59262C17.4944 4.79709 18.1368 4.15465 18.9324 4.15465C19.7279 4.15465 20.3703 4.79709 20.3703 5.59262C20.3705 5.78153 20.3335 5.96862 20.2613 6.14319C20.1891 6.31776 20.0832 6.47638 19.9497 6.60995C19.8161 6.74353 19.6575 6.84944 19.4829 6.92162C19.3083 6.9938 19.1213 7.03083 18.9324 7.03059Z" fill="white"/>
</svg>
