<svg width="70" height="70" viewBox="0 0 70 70" fill="none" xmlns="http://www.w3.org/2000/svg">
<circle cx="35" cy="35" r="34" transform="rotate(-180 35 35)" fill="white" stroke="#0D005F" stroke-width="2"/>
<path d="M31.9505 23.3325C32.1995 23.3317 32.4455 23.3867 32.6705 23.4934C32.8955 23.6001 33.0937 23.7558 33.2505 23.9492L41.3005 33.9492C41.5457 34.2474 41.6797 34.6215 41.6797 35.0075C41.6797 35.3936 41.5457 35.7677 41.3005 36.0659L32.9672 46.0659C32.6843 46.4062 32.2778 46.6203 31.8371 46.6609C31.3964 46.7015 30.9576 46.5654 30.6172 46.2825C30.2768 45.9997 30.0628 45.5931 30.0222 45.1524C29.9815 44.7117 30.1176 44.2729 30.4005 43.9325L37.8505 34.9992L30.6505 26.0659C30.4467 25.8212 30.3173 25.5233 30.2775 25.2074C30.2377 24.8915 30.2892 24.5708 30.426 24.2833C30.5627 23.9957 30.779 23.7534 31.0492 23.5849C31.3194 23.4164 31.6322 23.3288 31.9505 23.3325Z" fill="#0D005F"/>
</svg>
