<svg width="44" height="44" viewBox="0 0 44 44" fill="none" xmlns="http://www.w3.org/2000/svg">
<circle cx="22" cy="22" r="21.25" transform="rotate(-180 22 22)" fill="white" stroke="#0D005F" stroke-width="1.5"/>
<path d="M20.4753 16.1682C20.5998 16.1678 20.7228 16.1953 20.8353 16.2486C20.9477 16.302 21.0468 16.3799 21.1253 16.4766L25.1503 21.4766C25.2728 21.6257 25.3398 21.8127 25.3398 22.0057C25.3398 22.1987 25.2728 22.3858 25.1503 22.5349L20.9836 27.5349C20.8422 27.7051 20.6389 27.8121 20.4185 27.8324C20.1982 27.8527 19.9788 27.7847 19.8086 27.6432C19.6384 27.5018 19.5314 27.2985 19.5111 27.0782C19.4908 26.8578 19.5588 26.6384 19.7003 26.4682L23.4253 22.0016L19.8253 17.5349C19.7234 17.4126 19.6586 17.2636 19.6387 17.1057C19.6188 16.9477 19.6446 16.7874 19.713 16.6436C19.7814 16.4998 19.8895 16.3786 20.0246 16.2944C20.1597 16.2101 20.3161 16.1664 20.4753 16.1682Z" fill="#0D005F"/>
</svg>
