<svg width="70" height="70" viewBox="0 0 70 70" fill="none" xmlns="http://www.w3.org/2000/svg">
<circle cx="35" cy="35" r="34" fill="white" stroke="#0D005F" stroke-width="2"/>
<path d="M38.0495 46.6675C37.8005 46.6683 37.5545 46.6133 37.3295 46.5066C37.1045 46.3999 36.9063 46.2442 36.7495 46.0508L28.6995 36.0508C28.4543 35.7526 28.3203 35.3785 28.3203 34.9925C28.3203 34.6064 28.4543 34.2323 28.6995 33.9341L37.0328 23.9341C37.3157 23.5938 37.7222 23.3797 38.1629 23.3391C38.6036 23.2985 39.0424 23.4346 39.3828 23.7175C39.7232 24.0003 39.9372 24.4069 39.9778 24.8476C40.0185 25.2883 39.8824 25.7271 39.5995 26.0675L32.1495 35.0008L39.3495 43.9341C39.5533 44.1788 39.6827 44.4767 39.7225 44.7926C39.7623 45.1085 39.7108 45.4292 39.574 45.7167C39.4373 46.0043 39.221 46.2466 38.9508 46.4151C38.6806 46.5836 38.3678 46.6712 38.0495 46.6675Z" fill="#0D005F"/>
</svg>
