<svg width="29" height="29" viewBox="0 0 29 29" fill="none" xmlns="http://www.w3.org/2000/svg">
<circle cx="14.5" cy="14.5" r="13.5" fill="white" stroke="#0D065F" stroke-width="2"/>
<path d="M12.98 16.52C12.98 15.9067 13.1067 15.3733 13.36 14.92C13.6133 14.4667 14.0733 13.9467 14.74 13.36C15.2067 12.9333 15.54 12.5733 15.74 12.28C15.9533 11.9867 16.06 11.6333 16.06 11.22C16.06 10.7 15.88 10.2733 15.52 9.94C15.1733 9.60667 14.6933 9.44 14.08 9.44C13.4933 9.44 13.02 9.62 12.66 9.98C12.3 10.3267 12.04 10.7467 11.88 11.24L9.88 10.4C10.1467 9.6 10.6333 8.89333 11.34 8.28C12.06 7.66667 12.9667 7.36 14.06 7.36C14.8733 7.36 15.6 7.52667 16.24 7.86C16.88 8.18 17.3733 8.63333 17.72 9.22C18.08 9.79333 18.26 10.44 18.26 11.16C18.26 11.8667 18.0867 12.4733 17.74 12.98C17.4067 13.4733 16.96 13.9867 16.4 14.52C15.96 14.92 15.6467 15.2867 15.46 15.62C15.2867 15.9533 15.2 16.3333 15.2 16.76V17.34H12.98V16.52ZM14.08 22.12C13.6533 22.12 13.2867 21.9733 12.98 21.68C12.6867 21.3733 12.54 21.0067 12.54 20.58C12.54 20.1533 12.6867 19.7933 12.98 19.5C13.2867 19.2067 13.6533 19.06 14.08 19.06C14.5067 19.06 14.8667 19.2067 15.16 19.5C15.4533 19.7933 15.6 20.1533 15.6 20.58C15.6 21.0067 15.4533 21.3733 15.16 21.68C14.8667 21.9733 14.5067 22.12 14.08 22.12Z" fill="#0D065F"/>
</svg>
