<svg width="235" height="236" viewBox="0 0 235 236" fill="none" xmlns="http://www.w3.org/2000/svg">
<path d="M176.043 176.681C208.452 144.272 208.452 91.7276 176.043 59.319C143.634 26.9104 91.0896 26.9104 58.681 59.319C26.2724 91.7276 26.2724 144.272 58.681 176.681C91.0896 209.09 143.634 209.09 176.043 176.681Z" fill="#FFCE00"/>
<path d="M202 118C202 130.723 199.204 142.793 194.191 153.63C194.191 153.63 151.219 179.74 117 179.74C82.7809 179.74 39.8094 153.63 39.8094 153.63C34.7957 142.793 32 130.723 32 118C32 71.0574 70.0574 33 117 33C163.943 33 202 71.0574 202 118Z" fill="#FFCE00"/>
<path d="M162.441 111.937L110.658 60.1045L53.8789 154.533L56.5235 162.53C72.1748 170.095 96.2029 179.739 117 179.739C151.219 179.739 194.19 153.63 194.19 153.63C197.619 146.22 200.003 138.232 201.171 129.854L180.951 107.532L162.441 111.937Z" fill="#FFA300"/>
<path d="M115.211 84.8658C119.029 69.4764 113.318 61.1919 106.652 56.755C98.0348 51.0198 86.6949 51.0198 78.078 56.755C71.4122 61.1923 65.7006 69.4764 69.5189 84.8658L67.457 117.637H92.3647H117.273L115.211 84.8658Z" fill="#776D6B"/>
<path d="M117.272 117.637H92.6191V52.459C97.5232 52.5055 102.417 53.9365 106.651 56.7555C113.318 61.1914 119.029 69.4756 115.211 84.8652L117.272 117.637Z" fill="#57555C"/>
<path d="M103.903 111.972L92.3653 123.115L81.3342 111.972L62.9888 116.175C57.6581 117.397 53.8789 122.14 53.8789 127.609V154.533H131.359V127.609C131.359 122.14 127.58 117.397 122.249 116.175L103.903 111.972Z" fill="#238CF8"/>
<path d="M131.359 127.608V154.532H92.3652V123.115L103.77 112.176L103.903 111.973L122.25 116.174C127.58 117.395 131.359 122.14 131.359 127.608Z" fill="#0768DD"/>
<path d="M92.3652 141.598H132.858V154.532H92.3652V141.598Z" fill="#EAE1DC"/>
<path d="M174.762 154.532H125.33C120.748 154.532 117 150.784 117 146.203V113.089C117 108.508 120.748 104.76 125.33 104.76H174.762C179.344 104.76 183.092 108.508 183.092 113.089V146.203C183.092 150.784 179.344 154.532 174.762 154.532Z" fill="white"/>
<path d="M183.091 113.091V146.202C183.091 150.784 179.342 154.532 174.763 154.532H150.047V104.761H174.763C179.342 104.761 183.091 108.509 183.091 113.091Z" fill="#EAE1DC"/>
<path d="M103.881 99.999V111.972L92.3654 125.772L81.334 111.972V99.999H103.881Z" fill="#FFC473"/>
<path d="M103.882 99.999V111.973L103.77 112.176L92.3652 125.772V99.999H103.882Z" fill="#FFB74F"/>
<path d="M113.906 79.5361C113.017 66.4455 101.853 59.0156 92.6073 59.0156C83.3619 59.0156 72.198 66.4455 71.3085 79.5361C68.9162 79.9844 67.2182 82.22 67.4845 84.6786L67.8966 88.4824C68.1761 91.0629 70.516 92.9456 73.0965 92.666L73.5408 92.6178C78.8234 106.368 87.3483 109.909 92.607 110.713C97.866 109.909 106.391 106.368 111.673 92.6178L112.117 92.666C114.698 92.9456 117.038 91.0626 117.317 88.4824L117.729 84.6786C117.996 82.22 116.298 79.9844 113.906 79.5361Z" fill="#FFD097"/>
<path d="M117.728 84.679L117.317 88.482C117.039 91.0646 114.697 92.9452 112.119 92.667L111.675 92.6172C109.478 98.3258 106.726 102.274 103.882 104.998C99.8758 108.838 95.6822 110.245 92.606 110.715C92.5269 110.702 92.4482 110.69 92.3652 110.673V59.0209C92.4482 59.0166 92.5273 59.0166 92.606 59.0166C101.852 59.0166 113.016 66.4441 113.904 79.5345C116.3 79.983 117.998 82.2209 117.728 84.679Z" fill="#FFC473"/>
<path d="M194.19 153.63C180.716 182.776 151.218 203 116.999 203C82.7801 203 53.2824 182.776 39.8086 153.63H194.19Z" fill="#1C1296"/>
<path d="M157.829 131.538C158.844 127.242 156.185 122.936 151.888 121.92C147.592 120.905 143.286 123.564 142.27 127.861C141.255 132.157 143.914 136.463 148.211 137.478C152.507 138.494 156.813 135.835 157.829 131.538Z" fill="#EAE1DC"/>
<path d="M158.042 129.647C158.042 134.063 154.46 137.642 150.047 137.642V121.651C154.46 121.651 158.042 125.231 158.042 129.647Z" fill="#ADA19C"/>
<path d="M110.404 63.3977C108.86 61.176 106.642 59.5073 104.292 58.2598C97.0635 54.4212 88.1707 54.4212 80.9417 58.2598C78.5926 59.5076 76.3743 61.176 74.8303 63.3977C69.6838 70.8033 71.3075 79.5483 71.3075 79.5483C85.5483 81.5179 92.6176 69.858 92.6176 69.858C92.6176 69.858 99.6868 81.5179 113.927 79.5483C113.927 79.5483 115.551 70.8033 110.404 63.3977Z" fill="#776D6B"/>
<path d="M113.929 79.5494C99.6881 81.5184 92.6191 69.8574 92.6191 69.8574V55.3809C96.65 55.3809 100.678 56.3404 104.293 58.2596C106.644 59.508 108.862 61.1748 110.406 63.3961C115.553 70.8037 113.929 79.5494 113.929 79.5494Z" fill="#57555C"/>
<path d="M194.191 153.63C180.717 182.776 151.219 203 117 203V153.63H194.191Z" fill="#0D065F"/>
</svg>
