<svg width="235" height="236" viewBox="0 0 235 236" fill="none" xmlns="http://www.w3.org/2000/svg">
<path d="M176.043 176.681C208.452 144.272 208.452 91.7276 176.043 59.319C143.634 26.9104 91.0896 26.9104 58.681 59.319C26.2724 91.7276 26.2724 144.272 58.681 176.681C91.0896 209.09 143.634 209.09 176.043 176.681Z" fill="#FFCE00"/>
<path d="M199.5 131L160.5 84.5L90 165.717L117.5 201C123 200.5 131.944 199.776 137.5 198.5C174.5 190 197 155 199.5 131Z" fill="#FFA300"/>
<circle cx="118.279" cy="126.279" r="39.9427" fill="#E9EDF5"/>
<path d="M117.279 126.279C117.279 148.338 117.279 142.5 117.279 166.221C95.2189 166.221 77.3359 148.338 77.3359 126.279C77.3359 104.219 95.2189 86.3359 117.279 86.3359C117.279 110.5 117.279 104.219 117.279 126.279Z" fill="white"/>
<path d="M155.866 95.3488L160.345 90.8399C162.085 89.0878 162.085 86.2468 160.345 84.4956C158.604 82.7435 155.783 82.7435 154.042 84.4956L149.563 89.0044C142.048 82.7013 132.916 78.8935 123.175 78.0021V68.973H127.483C129.945 68.973 131.94 66.9638 131.94 64.486C131.94 62.0083 129.945 60 127.483 60H109.953C107.491 60 105.496 62.0083 105.496 64.486C105.496 66.9638 107.491 68.973 109.953 68.973H114.261V78.0021C89.8768 80.2341 70.4355 100.854 70.4355 126.398C70.4355 153.259 92.0297 175 118.718 175C145.403 175 167 153.263 167 126.398C167 114.923 163.075 104.057 155.866 95.3488ZM118.718 166.027C97.0101 166.027 79.3486 148.25 79.3486 126.398C79.3486 104.546 97.0101 86.7689 118.718 86.7689C140.426 86.7689 158.086 104.546 158.086 126.398C158.086 148.25 140.426 166.027 118.718 166.027ZM139.372 105.607C141.113 107.359 141.113 110.2 139.372 111.951L121.869 129.57C120.129 131.322 117.306 131.322 115.567 129.57C113.826 127.818 113.826 124.977 115.567 123.226L133.069 105.607C134.809 103.855 137.632 103.855 139.372 105.607Z" fill="#0D065F"/>
<circle cx="76.1412" cy="95.5533" r="21.6412" fill="white" stroke="#0D065F" stroke-width="5"/>
<path d="M67.3626 84.5801C66.1504 84.5801 65.168 85.5625 65.168 86.7747V104.332C65.168 105.544 66.1504 106.527 67.3626 106.527C68.5748 106.527 69.5573 105.544 69.5573 104.332V86.7747C69.5573 85.5625 68.5748 84.5801 67.3626 84.5801Z" fill="#0D065F"/>
<path d="M80.5303 106.527C84.1609 106.527 87.1142 103.573 87.1142 99.9427V91.164C87.1142 87.5266 84.1677 84.5801 80.5303 84.5801C76.8996 84.5801 73.9463 87.5334 73.9463 91.164V99.9427C73.9463 103.573 76.8996 106.527 80.5303 106.527ZM78.3356 91.164C78.3356 89.9536 79.3198 88.9694 80.5303 88.9694C81.7416 88.9694 82.7249 89.9518 82.7249 91.164V99.9427C82.7249 101.153 81.7407 102.137 80.5303 102.137C79.3198 102.137 78.3356 101.153 78.3356 99.9427V91.164Z" fill="#0D065F"/>
</svg>
