<svg width="24" height="25" viewBox="0 0 24 25" fill="none" xmlns="http://www.w3.org/2000/svg">
<path d="M24 2.85285C23.1174 3.32149 22.157 3.65877 21.1676 3.79013C22.1948 3.03902 22.9639 1.85238 23.3308 0.452855C22.367 1.15861 21.3111 1.65351 20.2101 1.91558C19.7499 1.30999 19.1933 0.827552 18.575 0.498325C17.9567 0.169098 17.2899 0.000136142 16.6163 0.00196786C13.8906 0.00196786 11.6986 2.72149 11.6986 6.05877C11.6986 6.52741 11.7447 6.99605 11.8197 7.44693C7.73849 7.18421 4.09855 4.78421 1.67864 1.10966C1.23771 2.0367 1.00665 3.09224 1.00949 4.16646C1.00949 6.26824 1.87766 8.12149 3.20154 9.21143C2.42136 9.17361 1.65944 8.90965 0.977767 8.44102V8.51557C0.977767 11.4588 2.66795 13.8978 4.92056 14.4588C4.49761 14.594 4.06251 14.6632 3.62553 14.6647C3.30537 14.6647 3.00252 14.6256 2.69679 14.5724C3.31979 16.9724 5.134 18.7156 7.29432 18.7724C5.60413 20.402 3.48708 21.3605 1.18832 21.3605C0.775868 21.3605 0.395145 21.3428 0 21.286C2.18051 23.0079 4.7677 24.002 7.5539 24.002C16.599 24.002 21.5484 14.7783 21.5484 6.77238C21.5484 6.50966 21.5484 6.24693 21.534 5.98421C22.4915 5.12149 23.3308 4.05285 24 2.85285Z" fill="white"/>
</svg>
