<svg width="21" height="23" viewBox="0 0 21 23" fill="none" xmlns="http://www.w3.org/2000/svg">
<g clip-path="url(#clip0)">
<path d="M5.77366 19.2344L6.10802 19.41C7.50137 20.2879 9.06178 20.6976 10.6223 20.6976C15.5265 20.6976 19.5391 16.4836 19.5391 11.3332C19.5391 8.87506 18.5917 6.4754 16.9198 4.71954C15.2479 2.96368 13.0186 1.96875 10.6223 1.96875C5.71798 1.96875 1.70531 6.18274 1.76107 11.3918C1.76107 13.1475 2.26265 14.8449 3.09858 16.308L3.32148 16.6592L2.42986 20.1124L5.77366 19.2344Z" fill="#00E676"/>
<path d="M17.8673 3.78354C15.9725 1.73511 13.3532 0.623047 10.6781 0.623047C4.99362 0.623047 0.423686 5.48084 0.479372 11.3921C0.479372 13.265 0.980945 15.0795 1.81695 16.7182L0.36792 22.2783L5.77378 20.8151C7.2785 21.6931 8.95036 22.1028 10.6224 22.1028C16.2511 22.1028 20.8211 17.2449 20.8211 11.3337C20.8211 8.4658 19.7622 5.77349 17.8674 3.78354H17.8673ZM10.6781 20.2885C9.17334 20.2885 7.66862 19.8788 6.3868 19.0594L6.05245 18.8838L2.8201 19.7617L3.65603 16.4257L3.43313 16.0745C0.980946 11.919 2.15131 6.41729 6.1639 3.84202C10.1765 1.26684 15.3594 2.49595 17.8116 6.70995C20.2637 10.9239 19.0934 16.367 15.0809 18.9423C13.799 19.8202 12.2386 20.2884 10.6781 20.2884V20.2885ZM15.5823 13.7919L14.9693 13.4993C14.9693 13.4993 14.0777 13.0896 13.5204 12.7969C13.4646 12.7969 13.4089 12.7384 13.3532 12.7384C13.1859 12.7384 13.0745 12.7969 12.963 12.8555C12.963 12.8555 12.9073 12.914 12.1271 13.8504C12.0713 13.9675 11.9599 14.026 11.8484 14.026H11.7927C11.737 14.026 11.6255 13.9675 11.5698 13.909L11.2911 13.7919C10.6781 13.4993 10.1208 13.1481 9.67492 12.6799C9.56346 12.5628 9.39625 12.4458 9.28479 12.3287C8.89467 11.919 8.50455 11.4508 8.22596 10.924L8.17019 10.807C8.11451 10.7484 8.11451 10.6899 8.05874 10.5729C8.05874 10.4558 8.05874 10.3388 8.11451 10.2802C8.11451 10.2802 8.33741 9.98757 8.50455 9.81204C8.61608 9.69491 8.67177 9.51939 8.78322 9.40234C8.89467 9.22673 8.95044 8.99264 8.89467 8.81703C8.83899 8.52437 8.1702 6.94412 8.00306 6.59298C7.89153 6.41737 7.78015 6.35889 7.61294 6.30033H6.99991C6.88838 6.30033 6.77701 6.35889 6.66547 6.35889L6.60971 6.41737C6.49826 6.47594 6.3868 6.59298 6.27535 6.65146C6.1639 6.76859 6.10813 6.88556 5.99668 7.00269C5.60656 7.52944 5.38366 8.17323 5.38366 8.81703C5.38366 9.28521 5.49511 9.75348 5.66233 10.1632L5.71809 10.3388C6.21967 11.4508 6.88838 12.4458 7.78015 13.3237L8.00306 13.5578C8.1702 13.7334 8.33741 13.8504 8.44886 14.026C9.61923 15.0795 10.9567 15.8404 12.4615 16.2501C12.6287 16.3086 12.8516 16.3086 13.0188 16.3671H13.5761C13.8547 16.3671 14.1891 16.2501 14.4121 16.133C14.5792 16.016 14.6907 16.016 14.8021 15.8989L14.9136 15.7818C15.0251 15.6648 15.1365 15.6063 15.248 15.4892C15.3594 15.3722 15.4709 15.2551 15.5267 15.138C15.6381 14.9039 15.6938 14.6113 15.7496 14.3187V13.909C15.7496 13.909 15.6938 13.8504 15.5823 13.7919Z" fill="white"/>
</g>
<defs>
<clipPath id="clip0">
<rect width="20.4528" height="21.7311" fill="white" transform="translate(0.36792 0.623047)"/>
</clipPath>
</defs>
</svg>
