<svg width="221" height="54" viewBox="0 0 221 54" fill="none" xmlns="http://www.w3.org/2000/svg">
<g clip-path="url(#clip0)">
<path d="M23.8678 30.767C26.9667 32.7211 30.0746 34.6168 32.7611 37.922C32.5137 38.5024 32.27 38.4132 32.0454 38.2291C30.2695 36.7719 28.3983 35.7081 26.4885 34.8237C25.3648 34.3035 24.2185 33.9096 23.0836 33.452C22.8039 33.3421 22.5312 33.2148 22.2671 33.071C21.9501 32.8943 21.7812 32.5258 21.7812 31.9719C21.7812 24.858 21.7816 17.7441 21.7822 10.6301C21.7884 10.5021 21.8024 10.3747 21.8241 10.2484C22.0018 9.87121 22.2233 9.84151 22.4617 9.92327C25.9333 11.1168 29.2778 12.8715 32.3779 15.7043C32.4532 15.7733 32.5352 15.8395 32.5621 16.2691C31.5823 15.675 30.673 15.0833 29.7466 14.5722C28.7907 14.0441 27.8218 13.5726 26.8513 13.1189C25.8923 12.6549 24.8938 12.2796 23.868 11.9977L23.8678 30.767Z" fill="url(#paint0_linear)"/>
<path d="M35.4863 37.9497C38.2216 34.6623 41.3014 32.6842 44.4195 30.7803V11.9908C41.411 12.8846 38.5742 14.4164 35.6807 16.3573C36.3683 14.3021 45.307 9.28186 46.4018 10.1297C46.5402 10.4308 46.5054 10.7825 46.5054 11.1186C46.5085 17.921 46.51 24.7234 46.5097 31.5258C46.5097 32.7019 46.3693 33.0059 45.6226 33.2745C43.3346 34.0968 41.0713 35.0533 38.8768 36.3941C38.0121 36.9159 37.1802 37.4913 36.3859 38.1172C36.1378 38.3149 35.8769 38.5742 35.4863 37.9497Z" fill="url(#paint1_linear)"/>
<path d="M48.1054 34.6186V13.7649C48.7147 13.5314 49.2591 13.5574 49.7981 13.6809C50.1099 13.7527 50.2148 14.1675 50.2182 14.6358C50.2241 15.3753 50.2241 16.1146 50.2244 16.8542C50.2262 22.9688 50.2277 29.0834 50.2287 35.1978C50.2287 36.6467 50.0846 36.8011 49.1709 36.866C46.2494 37.0727 43.3364 37.4275 40.4538 38.2841C39.0472 38.7056 37.6625 39.1989 36.3052 39.7619C36.1241 39.8365 35.9384 40.0206 35.6025 39.615C39.6297 36.8227 43.7803 35.4587 48.1054 34.6186Z" fill="url(#paint2_linear)"/>
<path d="M20.163 34.6068C24.5026 35.4427 28.6373 36.8501 32.5989 39.5427C32.3854 40.0823 32.163 39.8514 31.9819 39.7691C29.8791 38.8083 27.7321 38.1936 25.5712 37.7083C23.8159 37.3142 22.0558 36.9833 20.2771 36.9996C19.7466 37.0043 19.2143 36.9154 18.6851 36.8436C18.2899 36.7902 18.0771 36.4213 18.0644 35.7804C18.0564 35.3825 18.058 34.9838 18.058 34.5856C18.0576 28.1548 18.0584 21.7239 18.0601 15.293C18.0601 14.8711 18.0182 14.4376 18.1678 13.9299C18.7483 13.3417 19.4127 13.6606 20.1628 13.68L20.163 34.6068Z" fill="url(#paint3_linear)"/>
<path d="M24.9974 44.114C24.8157 43.6356 24.8483 43.2459 24.9105 42.7632C25.5141 42.0102 26.2823 42.0551 27.0075 41.9624C27.7488 41.8681 28.4981 41.9302 29.2436 41.9302C33.0784 41.9296 36.9131 41.929 40.7478 41.9286C41.4131 41.9306 42.0733 42.0454 42.7011 42.2682C42.9435 42.3524 43.1878 42.4473 43.3671 42.8052C43.4683 43.2396 43.4429 43.6943 43.294 44.1143L24.9974 44.114Z" fill="#0D005F"/>
<path d="M37.6366 19.3658L33.8171 16.3655L33.5684 21.1784L35.1137 20.4899L36.0248 22.2464L37.013 21.7217L36.1374 20.0336L37.6366 19.3658Z" fill="#082679"/>
<path d="M14.5432 17.5368C15.1413 17.1195 15.7814 17.1283 16.5196 17.1351V37.8966C16.8086 38.5284 17.1056 38.4803 17.3866 38.4813C19.5351 38.4891 21.6835 38.4813 23.832 38.4956C26.0321 38.5106 28.1577 39.32 30.2885 40.0752C30.3635 40.0913 30.432 40.1299 30.485 40.186C30.5381 40.242 30.5732 40.3129 30.5859 40.3894C30.4306 40.693 30.2212 40.5853 30.0402 40.5856C25.2996 40.5934 20.5588 40.5957 15.818 40.5924C15.6579 40.5924 15.498 40.5841 15.3388 40.5675C14.6511 40.495 14.4624 40.1864 14.4619 39.0925C14.4588 35.5054 14.5042 31.9167 14.4473 28.332C14.3967 25.1456 14.4674 21.963 14.4486 18.7786C14.4465 18.4121 14.4185 18.0379 14.5432 17.5368Z" fill="url(#paint4_linear)"/>
<path d="M51.9854 17.2039C52.6147 17.0436 53.466 17.2217 53.8714 17.5893C54.0147 17.9148 53.9665 18.2975 53.9674 18.6601C53.9816 23.8721 53.9924 29.0847 53.9998 34.2976C54.0011 35.9437 53.9863 37.5899 53.9554 39.2363C53.9353 40.2925 53.7476 40.5738 53.0651 40.5832C51.6793 40.6025 50.2935 40.5889 48.9078 40.5889C45.443 40.5889 41.9781 40.5874 38.513 40.5845C38.292 40.5845 38.0548 40.6661 37.8418 40.4308C37.8851 40.0787 38.0783 40.1084 38.2136 40.0578C40.5507 39.1839 42.8936 38.4057 45.3164 38.4734C47.2346 38.5275 49.1539 38.4829 51.073 38.4787C51.8011 38.4775 51.8739 38.3669 51.8747 37.2165C51.8778 30.9496 51.8803 24.6829 51.8821 18.4163C51.8819 18.027 51.8298 17.619 51.9854 17.2039Z" fill="url(#paint5_linear)"/>
<path d="M83.2838 34.4881L81.9183 30.4812H75.1822L73.702 34.4881H69.6738L76.365 16.8977H80.3478L87.3804 34.4881H83.2838ZM78.4362 21.2707L76.2969 27.4269H80.6665L78.4362 21.2707Z" fill="#0D065F"/>
<path d="M103.79 34.4883H99.6026L97.3494 25.8887L94.9594 34.4883H90.8397L86.7207 21.6377H90.4763L92.9344 30.4086L95.4155 21.6377H99.2395L101.606 30.7502L103.996 21.6377H107.751L103.79 34.4883Z" fill="#0D065F"/>
<path d="M113.394 34.4883C112.348 34.4883 111.369 34.0892 110.458 33.291C109.548 32.4929 108.903 31.4179 108.524 30.066C108.343 29.4391 108.251 28.7894 108.251 28.1363C108.259 27.4323 108.366 26.7331 108.569 26.0598C108.925 24.818 109.633 23.7093 110.606 22.8716C111.57 22.0495 112.582 21.6382 113.645 21.6379H119.062V24.4706H114.259C113.954 24.4569 113.649 24.5123 113.368 24.6328C113.086 24.7533 112.835 24.9359 112.632 25.1672C112.23 25.6287 112.015 26.226 112.029 26.8406H119.061V29.5292H112.052V29.8714C112.039 30.1815 112.101 30.4901 112.231 30.7708C112.362 31.0516 112.558 31.2962 112.803 31.4838C113.303 31.8747 114.031 32.0701 114.987 32.0701H119.061V34.4889L113.394 34.4883Z" fill="#0D065F"/>
<path d="M131.533 32.8511C131.211 33.345 130.778 33.7551 130.27 34.0479C129.783 34.3354 129.229 34.4873 128.666 34.488H120.654V32.2157H127.641C127.913 32.1554 128.169 32.0369 128.392 31.8681C128.548 31.734 128.671 31.5663 128.754 31.3773C128.837 31.1883 128.877 30.9829 128.87 30.7762C128.88 30.5443 128.836 30.3133 128.741 30.102C128.646 29.8907 128.503 29.705 128.324 29.5598C128.132 29.4418 127.925 29.3498 127.709 29.286C127.429 29.2003 127.138 29.1584 126.845 29.1619H123.477C122.763 29.1619 122.103 28.8606 121.497 28.2581C121.266 28.0258 121.067 27.763 120.905 27.4768C120.526 26.8612 120.329 26.1493 120.336 25.4244C120.336 24.3172 120.651 23.4091 121.281 22.7C121.579 22.3555 121.949 22.0817 122.364 21.8981C122.779 21.7145 123.229 21.6255 123.682 21.6376H131.374V24.0557H124.523C124.424 24.0596 124.327 24.0833 124.237 24.1252C124.147 24.1672 124.067 24.2267 124 24.3003C123.84 24.4523 123.719 24.6412 123.647 24.8508C123.583 25.0272 123.549 25.2127 123.544 25.4003C123.547 25.6403 123.61 25.8757 123.726 26.0847C123.826 26.2963 123.985 26.4738 124.183 26.5954C124.381 26.717 124.61 26.7773 124.841 26.7691H128.484C129.093 26.7513 129.697 26.8945 130.236 27.1846C131.283 27.7546 131.905 28.6829 132.102 29.9695C132.133 30.0851 132.148 30.2043 132.148 30.3241V30.6785C132.16 31.4483 131.946 32.2044 131.533 32.8511Z" fill="#0D065F"/>
<path d="M138.771 34.4883H137.27C136.526 34.4883 135.919 34.3411 135.449 34.0467C134.934 33.7053 134.508 33.2426 134.208 32.6983C133.851 32.0933 133.672 31.3414 133.673 30.4426V21.6377H136.95V30.1393C136.95 30.6601 137.223 31.0998 137.77 31.4582C138.008 31.6081 138.285 31.6846 138.566 31.6783H141.73V21.6377H145.007V34.4883H138.771Z" fill="#0D065F"/>
<path d="M160.712 34.4883V26.4017C160.724 26.0377 160.646 25.6763 160.484 25.3512C160.149 24.7649 159.717 24.4716 159.186 24.4714H156.933V34.4883H153.655V24.4707H149.923V34.4876H146.646V21.6377H159.574C160.438 21.6377 161.102 21.7273 161.564 21.9064C162.074 22.118 162.529 22.4436 162.897 22.8586C163.235 23.2262 163.511 23.6471 163.716 24.1047C163.889 24.4883 163.982 24.9042 163.989 25.326V34.4877L160.712 34.4883Z" fill="#0D065F"/>
<path d="M172.66 34.4881H171.841C171.529 34.4827 171.219 34.4374 170.918 34.3532C170.543 34.2515 170.174 34.1243 169.815 33.9726C168.48 33.4006 167.394 32.3866 166.56 30.9307C165.726 29.4748 165.309 27.7822 165.309 25.8528C165.306 25.1789 165.359 24.5061 165.468 23.8412C165.71 22.1891 166.253 20.7988 167.095 19.6704C167.886 18.5802 168.985 17.7588 170.247 17.3152C170.762 17.1186 171.296 16.9786 171.841 16.8977H180.512V20.0735H173.685C172.956 20.0735 172.361 20.1959 171.898 20.4408C171.436 20.6857 170.984 21.1172 170.544 21.7352C170.254 22.1442 170.052 22.6107 169.952 23.104C169.915 23.285 169.892 23.4688 169.883 23.6535C169.868 23.8892 169.861 24.0806 169.861 24.2275H180.604V27.3546H169.906C169.898 27.6841 169.936 28.0131 170.02 28.3318C170.18 28.9326 170.467 29.491 170.862 29.9684C171.621 30.8645 172.478 31.3124 173.434 31.3123H180.603V34.4881H172.66Z" fill="#FD8323"/>
<path d="M187.02 34.4881C185.775 34.4881 184.705 33.9912 183.811 32.9975C182.855 31.939 182.286 30.5222 182.105 28.7469C182.089 28.5352 182.078 28.3517 182.071 28.1964C182.063 28.0418 182.06 27.9153 182.06 27.8177C182.061 27.5071 182.084 27.1969 182.127 26.8893C182.37 25.277 182.958 23.9985 183.891 23.0537C184.825 22.109 185.906 21.6367 187.134 21.6369H191.323V16.8977H194.6V34.4881H187.02ZM191.322 24.4712H188.364C187.969 24.4667 187.578 24.5535 187.221 24.725C186.864 24.8965 186.55 25.1481 186.304 25.4607C185.75 26.1204 185.473 26.9552 185.473 27.965C185.469 28.1608 185.477 28.3566 185.496 28.5514C185.511 28.6657 185.541 28.8285 185.587 29.0398L185.724 29.5528C185.966 30.2533 186.3 30.7827 186.725 31.1409C187.138 31.495 187.663 31.686 188.205 31.6785H191.323L191.322 24.4712Z" fill="#FD8323"/>
<path d="M208.688 35.0721C208.688 35.2389 208.677 35.4055 208.654 35.5708C208.625 35.7716 208.583 35.9704 208.529 36.1659C208.427 36.5516 208.277 36.923 208.085 37.2715C207.863 37.6149 207.599 37.929 207.3 38.2065C206.632 38.871 205.616 39.2033 204.25 39.2033H197.309V36.5642H203.164C203.513 36.574 203.861 36.5581 204.207 36.5164C204.413 36.4623 204.601 36.354 204.753 36.2024L204.934 36.033C205.101 35.8462 205.239 35.6347 205.343 35.4058C205.375 35.3368 205.398 35.2636 205.41 35.1883V34.4882H201.165C199.939 34.4882 198.857 34.0078 197.918 33.0468C196.934 32.0371 196.344 30.7259 196.147 29.1133C196.103 28.7979 196.08 28.4797 196.079 28.1611C196.087 27.7477 196.121 27.3352 196.181 26.9262C196.265 26.3558 196.418 25.7979 196.636 25.2652C196.859 24.6916 197.161 24.1528 197.533 23.6648C198.638 22.3133 199.948 21.6376 201.463 21.6375H208.688V35.0725L208.688 35.0721ZM205.41 24.4706H202.555C201.814 24.4706 201.176 24.8045 200.639 25.4723C200.102 26.1402 199.834 26.9951 199.835 28.0372C199.837 28.3398 199.859 28.642 199.903 28.9415C200.19 30.7655 201.172 31.6775 202.849 31.6776H205.41V24.4706Z" fill="#FD8323"/>
<path d="M215.333 34.4883C214.286 34.4883 213.308 34.0892 212.398 33.291C211.487 32.4929 210.842 31.4179 210.463 30.066C210.282 29.4391 210.19 28.7894 210.189 28.1363C210.197 27.4323 210.305 26.733 210.508 26.0598C210.863 24.8181 211.572 23.7094 212.545 22.8716C213.508 22.0495 214.521 21.6382 215.584 21.6379H221V24.4706H216.198C215.893 24.4569 215.588 24.5124 215.306 24.6329C215.025 24.7534 214.773 24.9359 214.57 25.1672C214.169 25.6288 213.954 26.226 213.967 26.8406H221V29.5292H213.99V29.8714C213.978 30.1816 214.04 30.4902 214.17 30.7709C214.301 31.0517 214.497 31.2962 214.742 31.4838C215.242 31.8747 215.97 32.0701 216.926 32.0701H221.001V34.4889L215.333 34.4883Z" fill="#FD8323"/>
</g>
<defs>
<linearGradient id="paint0_linear" x1="27.2712" y1="9.88599" x2="27.2712" y2="38.3683" gradientUnits="userSpaceOnUse">
<stop stop-color="#FEE140"/>
<stop offset="1" stop-color="#FF7B00"/>
</linearGradient>
<linearGradient id="paint1_linear" x1="40.998" y1="10.0342" x2="40.998" y2="38.3427" gradientUnits="userSpaceOnUse">
<stop stop-color="#FEE140"/>
<stop offset="1" stop-color="#FF7B00"/>
</linearGradient>
<linearGradient id="paint2_linear" x1="42.9156" y1="13.5881" x2="42.9156" y2="39.8688" gradientUnits="userSpaceOnUse">
<stop stop-color="#FEE140"/>
<stop offset="1" stop-color="#FF7B00"/>
</linearGradient>
<linearGradient id="paint3_linear" x1="25.3268" y1="13.5764" x2="25.3268" y2="39.8891" gradientUnits="userSpaceOnUse">
<stop stop-color="#FEE140"/>
<stop offset="1" stop-color="#FF7B00"/>
</linearGradient>
<linearGradient id="paint4_linear" x1="22.5073" y1="17.1333" x2="22.5073" y2="40.6039" gradientUnits="userSpaceOnUse">
<stop stop-color="#064586"/>
<stop offset="0.325" stop-color="#0A1472"/>
<stop offset="1" stop-color="#0D005F"/>
</linearGradient>
<linearGradient id="paint5_linear" x1="45.9209" y1="17.1448" x2="45.9209" y2="40.5982" gradientUnits="userSpaceOnUse">
<stop stop-color="#064586"/>
<stop offset="0.325" stop-color="#0A1472"/>
<stop offset="1" stop-color="#0D005F"/>
</linearGradient>
<clipPath id="clip0">
<rect width="221" height="54" fill="white"/>
</clipPath>
</defs>
</svg>
