<svg width="207" height="36" viewBox="0 0 207 36" fill="none" xmlns="http://www.w3.org/2000/svg">
<path d="M9.86776 21.7678C12.9667 23.7218 16.0746 25.6176 18.7611 28.9228C18.5137 29.5031 18.27 29.4139 18.0454 29.2298C16.2695 27.7726 14.3983 26.7088 12.4885 25.8244C11.3648 25.3042 10.2185 24.9104 9.08363 24.4527C8.80395 24.3428 8.53124 24.2156 8.26706 24.0717C7.95008 23.8951 7.78125 23.5265 7.78125 22.9726C7.78125 15.8588 7.78156 8.74483 7.78218 1.63084C7.78842 1.50287 7.80243 1.37541 7.82413 1.24918C8.00182 0.871946 8.22333 0.842239 8.46171 0.924004C11.9333 2.11756 15.2778 3.87224 18.3779 6.70505C18.4532 6.77399 18.5352 6.8402 18.5621 7.26986C17.5823 6.67573 16.673 6.08404 15.7466 5.57289C14.7907 5.04486 13.8218 4.57333 12.8513 4.11962C11.8923 3.65564 10.8938 3.28037 9.86803 2.99839L9.86776 21.7678Z" fill="url(#paint0_linear)"/>
<path d="M21.4863 28.9507C24.2216 25.6632 27.3014 23.6852 30.4195 21.7813V2.99182C27.411 3.88557 24.5742 5.41741 21.6807 7.35826C22.3683 5.30311 31.307 0.282838 32.4018 1.13066C32.5402 1.43179 32.5054 1.78346 32.5054 2.11957C32.5085 8.92197 32.51 15.7244 32.5097 22.5268C32.5097 23.7029 32.3693 24.0068 31.6226 24.2755C29.3346 25.0978 27.0713 26.0542 24.8768 27.3951C24.0121 27.9168 23.1802 28.4923 22.3859 29.1182C22.1378 29.3159 21.8769 29.5752 21.4863 28.9507Z" fill="url(#paint1_linear)"/>
<path d="M34.1054 25.6203V4.76656C34.7147 4.53315 35.2591 4.55909 35.7981 4.68263C36.1099 4.7544 36.2148 5.16916 36.2182 5.63749C36.2241 6.37705 36.2241 7.11633 36.2244 7.85589C36.2262 13.9705 36.2277 20.0851 36.2287 26.1995C36.2287 27.6484 36.0846 27.8028 35.1709 27.8678C32.2494 28.0744 29.3364 28.4292 26.4538 29.2858C25.0472 29.7073 23.6625 30.2006 22.3052 30.7637C22.1241 30.8383 21.9384 31.0223 21.6025 30.6167C25.6297 27.8244 29.7803 26.4604 34.1054 25.6203Z" fill="url(#paint2_linear)"/>
<path d="M6.1635 25.6085C10.5031 26.4444 14.6378 27.8518 18.5994 30.5444C18.3859 31.084 18.1635 30.8531 17.9824 30.7708C15.8796 29.81 13.7326 29.1953 11.5717 28.71C9.8164 28.3159 8.05628 27.985 6.27761 28.0013C5.74706 28.006 5.21483 27.9171 4.68558 27.8453C4.29039 27.7919 4.07756 27.423 4.06488 26.7821C4.05686 26.3843 4.05845 25.9855 4.05845 25.5873C4.05814 19.1565 4.05885 12.7256 4.06059 6.29468C4.06059 5.87284 4.01864 5.43931 4.16827 4.93165C4.74879 4.34345 5.41322 4.66231 6.16332 4.68173L6.1635 25.6085Z" fill="url(#paint3_linear)"/>
<path d="M10.997 35.114C10.8153 34.6356 10.8478 34.2459 10.91 33.7632C11.5136 33.0102 12.2818 33.0551 13.007 32.9624C13.7483 32.8681 14.4976 32.9302 15.2431 32.9302C19.0779 32.9296 22.9126 32.929 26.7473 32.9286C27.4126 32.9306 28.0728 33.0454 28.7006 33.2682C28.943 33.3524 29.1873 33.4473 29.3666 33.8052C29.4678 34.2396 29.4424 34.6943 29.2935 35.1143L10.997 35.114Z" fill="#0D005F"/>
<path d="M23.6361 10.3675L19.8166 7.36719L19.5679 12.1801L21.1132 11.4916L22.0243 13.2481L23.0125 12.7234L22.1369 11.0353L23.6361 10.3675Z" fill="#082679"/>
<path d="M0.543178 8.53631C1.14132 8.119 1.78141 8.12777 2.51958 8.13465V28.8961C2.80858 29.5279 3.1056 29.4798 3.38659 29.4808C5.53509 29.4886 7.6835 29.4808 9.832 29.4951C12.0321 29.5101 14.1577 30.3195 16.2885 31.0747C16.3635 31.0908 16.432 31.1294 16.485 31.1855C16.5381 31.2415 16.5732 31.3124 16.5859 31.3889C16.4306 31.6925 16.2212 31.5848 16.0402 31.5851C11.2996 31.5929 6.55884 31.5952 1.81796 31.592C1.65791 31.5919 1.49797 31.5836 1.33877 31.567C0.651134 31.4945 0.462444 31.1859 0.461885 30.092C0.458808 26.5049 0.504209 22.9162 0.447341 19.3315C0.396719 16.1451 0.467385 12.9625 0.448553 9.77815C0.446502 9.41158 0.418534 9.03737 0.543178 8.53631Z" fill="url(#paint4_linear)"/>
<path d="M37.9854 8.20364C38.6147 8.04332 39.466 8.22146 39.8714 8.58907C40.0147 8.91453 39.9665 9.29723 39.9674 9.65984C39.9816 14.8719 39.9924 20.0844 39.9998 25.2973C40.0011 26.9435 39.9863 28.5897 39.9554 30.236C39.9353 31.2923 39.7476 31.5735 39.0651 31.5829C37.6793 31.6023 36.2935 31.5886 34.9078 31.5886C31.443 31.5886 27.9781 31.5872 24.513 31.5843C24.292 31.5843 24.0548 31.6658 23.8418 31.4305C23.8851 31.0785 24.0783 31.1082 24.2136 31.0576C26.5507 30.1836 28.8936 29.4055 31.3164 29.4732C33.2346 29.5272 35.1539 29.4826 37.073 29.4785C37.8011 29.4772 37.8739 29.3666 37.8747 28.2163C37.8778 21.9494 37.8803 15.6827 37.8821 9.41606C37.8819 9.02675 37.8298 8.61878 37.9854 8.20364Z" fill="url(#paint5_linear)"/>
<path d="M69.2838 25.4888L67.9183 21.482H61.1822L59.702 25.4888H55.6738L62.365 7.89844H66.3478L73.3804 25.4888H69.2838ZM64.4362 12.2715L62.2969 18.4276H66.6665L64.4362 12.2715Z" fill="#0D065F"/>
<path d="M89.7903 25.4874H85.6026L83.3494 16.8877L80.9594 25.4874H76.8397L72.7207 12.6367H76.4763L78.9344 21.4076L81.4155 12.6367H85.2395L87.6061 21.7492L89.9961 12.6367H93.7511L89.7903 25.4874Z" fill="#0D065F"/>
<path d="M99.3944 25.4871C98.3476 25.4871 97.369 25.088 96.4585 24.2898C95.548 23.4916 94.9031 22.4166 94.5239 21.0648C94.3431 20.4379 94.2512 19.7882 94.251 19.1351C94.2587 18.4311 94.3658 17.7318 94.5693 17.0585C94.9246 15.8168 95.633 14.7081 96.6064 13.8704C97.5696 13.0482 98.5823 12.637 99.6446 12.6367H105.062V15.4694H100.259C99.9537 15.4557 99.6491 15.5111 99.3675 15.6316C99.086 15.7521 98.8346 15.9347 98.6317 16.166C98.2303 16.6275 98.015 17.2248 98.0287 17.8393H105.061V20.528H98.0516V20.8702C98.039 21.1803 98.1007 21.4889 98.2314 21.7696C98.3622 22.0504 98.5581 22.295 98.8026 22.4825C99.3026 22.8734 100.031 23.0689 100.987 23.0689H105.061V25.4877L99.3944 25.4871Z" fill="#0D065F"/>
<path d="M117.533 23.8514C117.211 24.3453 116.778 24.7553 116.27 25.0482C115.783 25.3357 115.229 25.4875 114.666 25.4883H106.654V23.2159H113.641C113.913 23.1557 114.169 23.0372 114.392 22.8684C114.548 22.7343 114.671 22.5665 114.754 22.3775C114.837 22.1885 114.877 21.9831 114.87 21.7765C114.88 21.5445 114.836 21.3136 114.741 21.1023C114.646 20.891 114.503 20.7052 114.324 20.56C114.132 20.4421 113.925 20.35 113.709 20.2863C113.429 20.2005 113.138 20.1587 112.845 20.1622H109.477C108.763 20.1622 108.103 19.8609 107.497 19.2583C107.266 19.0261 107.067 18.7633 106.905 18.4771C106.526 17.8615 106.329 17.1495 106.336 16.4246C106.336 15.3175 106.651 14.4093 107.281 13.7002C107.579 13.3557 107.949 13.082 108.364 12.8983C108.779 12.7147 109.229 12.6258 109.682 12.6378H117.374V15.056H110.523C110.424 15.0599 110.327 15.0835 110.237 15.1255C110.147 15.1674 110.067 15.2269 110 15.3006C109.84 15.4525 109.719 15.6414 109.647 15.8511C109.583 16.0274 109.549 16.213 109.544 16.4005C109.547 16.6405 109.61 16.8759 109.726 17.0849C109.826 17.2965 109.985 17.474 110.183 17.5956C110.381 17.7172 110.61 17.7776 110.841 17.7693H114.484C115.093 17.7515 115.697 17.8948 116.236 18.1848C117.283 18.7549 117.905 19.6832 118.102 20.9698C118.133 21.0854 118.148 21.2046 118.148 21.3243V21.6787C118.16 22.4485 117.946 23.2047 117.533 23.8514Z" fill="#0D065F"/>
<path d="M124.771 25.4874H123.27C122.526 25.4874 121.919 25.3402 121.449 25.0458C120.934 24.7043 120.508 24.2416 120.208 23.6974C119.851 23.0923 119.672 22.3404 119.673 21.4417V12.6367H122.95V21.1383C122.95 21.6591 123.223 22.0988 123.77 22.4573C124.008 22.6071 124.285 22.6836 124.566 22.6773H127.73V12.6367H131.007V25.4874H124.771Z" fill="#0D065F"/>
<path d="M146.712 25.4874V17.4007C146.724 17.0367 146.646 16.6753 146.484 16.3502C146.149 15.7639 145.717 15.4706 145.186 15.4704H142.933V25.4874H139.655V15.4697H135.923V25.4866H132.646V12.6367H145.574C146.438 12.6367 147.102 12.7263 147.564 12.9054C148.074 13.117 148.529 13.4426 148.897 13.8576C149.235 14.2253 149.511 14.6461 149.716 15.1037C149.889 15.4874 149.982 15.9032 149.989 16.325V25.4868L146.712 25.4874Z" fill="#0D065F"/>
<path d="M158.66 25.4888H157.841C157.529 25.4835 157.219 25.4381 156.918 25.3539C156.543 25.2522 156.174 25.125 155.815 24.9733C154.48 24.4013 153.394 23.3873 152.56 21.9315C151.726 20.4756 151.309 18.7829 151.309 16.8535C151.306 16.1797 151.359 15.5068 151.468 14.842C151.71 13.1898 152.253 11.7995 153.095 10.6711C153.886 9.58094 154.985 8.75955 156.247 8.31592C156.762 8.11935 157.296 7.97938 157.841 7.89844H166.512V11.0742H159.685C158.956 11.0742 158.361 11.1966 157.898 11.4415C157.436 11.6864 156.984 12.1179 156.544 12.736C156.254 13.145 156.052 13.6114 155.952 14.1047C155.915 14.2858 155.892 14.4695 155.883 14.6542C155.868 14.89 155.861 15.0813 155.861 15.2282H166.604V18.3553H155.906C155.898 18.6848 155.936 19.0138 156.02 19.3325C156.18 19.9333 156.467 20.4917 156.862 20.9691C157.621 21.8652 158.478 22.3132 159.434 22.3131H166.603V25.4888H158.66Z" fill="#FD8323"/>
<path d="M173.02 25.4888C171.775 25.4888 170.705 24.992 169.811 23.9982C168.855 22.9397 168.286 21.5229 168.105 19.7476C168.089 19.536 168.078 19.3525 168.071 19.1971C168.063 19.0425 168.06 18.9161 168.06 18.8185C168.061 18.5078 168.084 18.1976 168.127 17.8901C168.37 16.2778 168.958 14.9992 169.891 14.0545C170.825 13.1097 171.906 12.6374 173.134 12.6376H177.323V7.89844H180.6V25.4888H173.02ZM177.322 15.4719H174.364C173.969 15.4674 173.578 15.5542 173.221 15.7257C172.864 15.8972 172.55 16.1488 172.304 16.4615C171.75 17.1212 171.473 17.9559 171.473 18.9658C171.469 19.1615 171.477 19.3573 171.496 19.5521C171.511 19.6664 171.541 19.8292 171.587 20.0406L171.724 20.5536C171.966 21.254 172.3 21.7834 172.725 22.1417C173.138 22.4957 173.663 22.6867 174.205 22.6792H177.323L177.322 15.4719Z" fill="#FD8323"/>
<path d="M194.688 26.0713C194.687 26.2381 194.676 26.4048 194.654 26.57C194.624 26.7709 194.582 26.9696 194.528 27.1652C194.426 27.5509 194.277 27.9223 194.084 28.2708C193.862 28.6142 193.598 28.9283 193.299 29.2057C192.632 29.8703 191.615 30.2026 190.249 30.2026H183.308V27.5635H189.164C189.512 27.5733 189.861 27.5573 190.207 27.5157C190.413 27.4616 190.601 27.3532 190.752 27.2016L190.934 27.0323C191.101 26.8455 191.239 26.634 191.342 26.405C191.375 26.3361 191.398 26.2629 191.41 26.1875V25.4875H187.165C185.938 25.4875 184.856 25.007 183.918 24.0461C182.934 23.0364 182.343 21.7252 182.147 20.1126C182.102 19.7972 182.079 19.479 182.079 19.1604C182.087 18.747 182.121 18.3345 182.181 17.9255C182.264 17.3551 182.417 16.7972 182.635 16.2645C182.858 15.6909 183.16 15.1521 183.532 14.664C184.638 13.3126 185.948 12.6368 187.463 12.6367H194.687V26.0718L194.688 26.0713ZM191.41 15.4698H188.554C187.814 15.4698 187.175 15.8038 186.639 16.4716C186.102 17.1394 185.834 17.9944 185.834 19.0364C185.836 19.3391 185.859 19.6413 185.902 19.9407C186.189 21.7647 187.171 22.6768 188.849 22.6769H191.41V15.4698Z" fill="#FD8323"/>
<path d="M201.333 25.4871C200.286 25.4871 199.308 25.088 198.398 24.2898C197.487 23.4916 196.842 22.4166 196.463 21.0648C196.282 20.4379 196.19 19.7882 196.189 19.1351C196.197 18.4311 196.305 17.7318 196.508 17.0585C196.863 15.8168 197.572 14.7082 198.545 13.8704C199.508 13.0482 200.521 12.637 201.584 12.6367H207V15.4694H202.198C201.893 15.4557 201.588 15.5111 201.306 15.6317C201.025 15.7522 200.773 15.9347 200.57 16.166C200.169 16.6276 199.954 17.2248 199.967 17.8393H207V20.528H199.99V20.8702C199.978 21.1803 200.04 21.4889 200.17 21.7697C200.301 22.0504 200.497 22.295 200.742 22.4825C201.242 22.8734 201.97 23.0689 202.926 23.0689H207.001V25.4877L201.333 25.4871Z" fill="#FD8323"/>
<defs>
<linearGradient id="paint0_linear" x1="13.2712" y1="0.886719" x2="13.2712" y2="29.369" gradientUnits="userSpaceOnUse">
<stop stop-color="#FEE140"/>
<stop offset="1" stop-color="#FF7B00"/>
</linearGradient>
<linearGradient id="paint1_linear" x1="26.998" y1="1.03516" x2="26.998" y2="29.3437" gradientUnits="userSpaceOnUse">
<stop stop-color="#FEE140"/>
<stop offset="1" stop-color="#FF7B00"/>
</linearGradient>
<linearGradient id="paint2_linear" x1="28.9156" y1="4.58984" x2="28.9156" y2="30.8705" gradientUnits="userSpaceOnUse">
<stop stop-color="#FEE140"/>
<stop offset="1" stop-color="#FF7B00"/>
</linearGradient>
<linearGradient id="paint3_linear" x1="11.3273" y1="4.57812" x2="11.3273" y2="30.8908" gradientUnits="userSpaceOnUse">
<stop stop-color="#FEE140"/>
<stop offset="1" stop-color="#FF7B00"/>
</linearGradient>
<linearGradient id="paint4_linear" x1="8.5073" y1="8.13281" x2="8.5073" y2="31.6034" gradientUnits="userSpaceOnUse">
<stop stop-color="#064586"/>
<stop offset="0.325" stop-color="#0A1472"/>
<stop offset="1" stop-color="#0D005F"/>
</linearGradient>
<linearGradient id="paint5_linear" x1="31.9209" y1="8.14453" x2="31.9209" y2="31.5979" gradientUnits="userSpaceOnUse">
<stop stop-color="#064586"/>
<stop offset="0.325" stop-color="#0A1472"/>
<stop offset="1" stop-color="#0D005F"/>
</linearGradient>
</defs>
</svg>
