<svg width="709" height="468" viewBox="0 0 709 468" fill="none" xmlns="http://www.w3.org/2000/svg">
<path style="mix-blend-mode:screen" d="M65.8313 289.325C67.8204 286.075 70.0648 283.012 72.1995 279.851C74.3342 276.69 76.4351 273.529 78.7702 270.507L85.5673 261.3L92.6486 252.33C102.24 240.444 112.373 228.986 123.048 217.955C133.722 206.924 144.957 196.451 156.753 186.534C168.497 176.59 180.698 167.124 193.442 158.32C199.815 153.902 206.324 149.65 212.969 145.564C216.306 143.522 219.673 141.523 223.112 139.576C224.831 138.603 226.558 137.631 228.338 136.683L231.025 135.264L232.428 134.52L233.999 133.753L246.544 162.943L245.542 163.328L244.382 163.798L241.995 164.796C240.396 165.479 238.778 166.2 237.18 166.943C233.957 168.421 230.718 169.963 227.461 171.569C221.019 174.79 214.611 178.198 208.304 181.803C195.655 188.978 183.353 196.89 171.393 205.327C159.434 213.764 147.854 222.777 136.679 232.373C125.503 241.969 114.863 252.133 104.616 262.758L97.023 270.819L89.71 279.133C87.2247 281.861 84.9156 284.754 82.5574 287.609C80.1991 290.464 77.7702 293.266 75.575 296.241L71.2261 302.32L30.9994 356.405L59.7649 298.94L65.8313 289.325Z" fill="url(#paint0_linear)"/>
<path d="M237.113 135.366L243.213 145.98L249.297 156.589C249.297 156.589 250.167 166.397 240.751 170.366C231.335 174.335 201.189 188.27 174.577 185.408C185.498 160.978 212.711 141.967 220.881 135.807C229.051 129.648 237.113 135.366 237.113 135.366Z" fill="url(#paint1_radial)"/>
<path d="M257.845 116.58L249.948 114.4C244.801 113.013 239.315 113.726 234.694 116.383L219.574 125.06L220.154 126.063L243.212 123.029L257.845 116.58Z" fill="url(#paint2_linear)"/>
<path d="M275.714 149.205L273.867 156.106C272.474 161.252 269.097 165.634 264.476 168.291L249.356 176.968L248.744 175.897L263.039 157.526L275.714 149.205Z" fill="url(#paint3_linear)"/>
<path d="M274.796 149.374L273.28 155.041C271.887 160.186 268.509 164.569 263.888 167.226L248.769 175.903L262.449 156.469L274.796 149.374Z" fill="url(#paint4_linear)"/>
<path d="M256.132 116.902L250.465 115.386C245.318 114.001 239.832 114.714 235.211 117.369L220.092 126.046L243.779 123.987L256.132 116.902Z" fill="url(#paint5_linear)"/>
<path d="M258.684 151.459C258.684 151.459 254.288 156.856 251.275 158.068C247.144 155.205 243.703 151.457 241.201 147.097C238.7 142.736 237.202 137.873 236.816 132.861C239.377 130.866 246.255 129.789 246.255 129.789L258.684 151.459Z" fill="url(#paint6_linear)"/>
<path d="M243.36 123.587C251.686 117.091 261.41 112.622 271.762 110.534C282.114 108.446 292.81 108.795 303.004 111.555C300.258 121.751 295.178 131.169 288.164 139.062C281.151 146.955 272.397 153.108 262.595 157.034C257.104 153.236 252.529 148.262 249.203 142.473C245.876 136.684 243.882 130.227 243.364 123.571L243.36 123.587Z" fill="url(#paint7_linear)"/>
<path d="M267.917 154.641C266.173 155.515 264.398 156.318 262.591 157.05C257.1 153.252 252.525 148.277 249.199 142.489C245.872 136.7 243.878 130.243 243.36 123.587C244.902 122.388 246.491 121.258 248.126 120.197C248.755 127.023 250.848 133.634 254.264 139.578C257.679 145.522 262.336 150.66 267.917 154.641Z" fill="url(#paint8_linear)"/>
<path d="M282.468 109.284C289.392 109.008 296.319 109.788 303.009 111.599C301.206 118.291 298.394 124.668 294.667 130.511C291.326 127.96 288.526 124.77 286.431 121.125C284.336 117.48 282.989 113.455 282.468 109.284Z" fill="url(#paint9_linear)"/>
<path d="M262.252 134.985C263.274 136.754 264.798 138.181 266.631 139.084C268.464 139.988 270.524 140.327 272.55 140.06C274.576 139.792 276.477 138.93 278.013 137.582C279.549 136.234 280.65 134.461 281.179 132.487C281.707 130.513 281.638 128.427 280.98 126.492C280.322 124.557 279.105 122.861 277.484 121.618C275.862 120.374 273.908 119.64 271.868 119.508C269.829 119.375 267.797 119.85 266.027 120.873C263.656 122.244 261.926 124.501 261.218 127.147C260.51 129.793 260.882 132.613 262.252 134.985Z" fill="url(#paint10_linear)"/>
<path d="M267.294 123.018C265.946 123.795 264.859 124.956 264.171 126.351C263.483 127.747 263.224 129.315 263.428 130.857C263.631 132.4 264.287 133.848 265.314 135.017C266.34 136.187 267.69 137.025 269.193 137.428C270.696 137.83 272.285 137.777 273.758 137.276C275.231 136.775 276.522 135.849 277.469 134.614C278.415 133.379 278.974 131.891 279.074 130.338C279.175 128.785 278.813 127.238 278.034 125.891C276.99 124.086 275.272 122.77 273.258 122.231C271.244 121.693 269.099 121.975 267.294 123.018Z" fill="url(#paint11_linear)"/>
<path d="M261.369 134.358L262.332 136.035L231.289 153.873L230.325 152.196L261.369 134.358Z" fill="url(#paint12_linear)"/>
<g style="mix-blend-mode:multiply">
<path d="M242.945 139.182C247.566 136.526 252.523 134.892 256.734 134.653L261.361 134.381L249 141.498L239.771 144.295C239.373 143.434 239.016 142.55 238.695 141.658L242.945 139.182Z" fill="#CDCFD0"/>
</g>
<g clip-path="url(#clip0)">
<path d="M98.628 250.538C14.1755 258.551 -31.2787 359.156 24.6601 427.858C34.8142 440.327 47.6015 450.39 62.1036 457.326C76.6056 464.261 92.4625 467.897 108.535 467.971C124.608 468.045 140.498 464.556 155.063 457.755C169.629 450.954 182.508 441.009 192.777 428.634C254.071 354.874 196.33 241.235 98.628 250.538Z" fill="url(#paint13_radial)"/>
<path d="M186.234 366.293C182.668 404.983 150.426 438.075 107.599 438.075C54.1878 438.075 16.4031 386.001 32.3552 335.492C37.9625 317.749 49.6402 302.551 65.3355 292.571C68.65 290.47 72.1122 288.612 75.695 287.012C88.259 281.46 102.053 279.285 115.714 280.7C129.375 282.114 142.431 287.07 153.593 295.079C164.755 303.087 173.636 313.87 179.361 326.363C185.085 338.857 187.454 352.629 186.234 366.319V366.293Z" fill="url(#paint14_radial)"/>
<path d="M144.821 428.76C135.572 433.71 125.429 436.764 114.986 437.741C104.542 438.718 94.0094 437.6 84.0037 434.451C73.9979 431.303 64.7207 426.188 56.7156 419.405C48.7105 412.623 42.1385 404.31 37.3848 394.954C46.0319 399.413 55.3171 402.504 64.91 404.119C82.1133 406.786 102.92 403.292 112.691 408.301C129.044 416.715 131.709 426.306 144.821 428.76Z" fill="url(#paint15_linear)"/>
<path d="M78.4094 392.575C63.233 393.614 42.1262 386.44 32.3547 382.683C29.9737 375.069 28.767 367.135 28.7764 359.157C28.7742 356.229 28.9329 353.303 29.2519 350.392C33.5308 355.4 43.3398 366.043 55.6761 372.554C72.3789 381.469 98.8407 391.185 78.4094 392.575Z" fill="url(#paint16_linear)"/>
<path d="M175.273 399.736C172.31 404.67 168.819 409.267 164.864 413.447C153.69 410.511 143.272 405.217 134.311 397.921C118.046 384.148 115.756 377.963 78.1842 365.892C51.9101 357.466 38.1474 343.618 32.2295 336.018C34.0654 330.016 36.6152 324.257 39.824 318.864C47.3308 326.915 63.7709 342.654 84.6776 350.166C113.454 360.383 118.071 359.457 144.045 383.121C152.79 391.343 163.571 397.079 175.273 399.736Z" fill="url(#paint17_linear)"/>
<path d="M186.484 359.157C186.495 367.756 185.1 376.3 182.355 384.449C174.723 384.286 162.938 381.143 149.613 367.283C126.417 343.143 92.06 338.485 91.6346 330.609C91.2092 322.734 126.879 329.219 148.687 341.289C164.364 349.979 175.974 356.314 186.434 355.976C186.422 357.028 186.484 358.092 186.484 359.157Z" fill="url(#paint18_linear)"/>
<path d="M75.3947 315.296C65.9486 310.889 55.0511 310.188 54.5256 313.856C54.0001 317.525 61.019 329.632 73.543 327.316C86.067 325 82.3511 318.539 75.3947 315.296Z" fill="url(#paint19_linear)"/>
<path d="M181.23 330.772C169.531 323.648 149.538 318.764 118.535 311.577C92.4482 305.53 80.825 294.762 75.6953 286.987C82.4664 283.989 89.6272 281.966 96.9648 280.977C102.595 286.386 114.393 293.823 138.478 299.971C149.722 302.724 160.606 306.783 170.908 312.066C175.182 317.802 178.655 324.096 181.23 330.772Z" fill="url(#paint20_linear)"/>
<path d="M143.582 409.991C139.516 407.75 125.49 399.774 134.311 416.026C137.764 422.412 152.866 415.087 143.582 409.991Z" fill="url(#paint21_linear)"/>
<path d="M124.564 401.627C122.663 401.765 123.639 405.809 125.49 406.272C127.342 406.735 131.058 401.164 124.564 401.627Z" fill="url(#paint22_linear)"/>
<path style="mix-blend-mode:multiply" opacity="0.45" d="M182.342 384.486C180.545 389.811 178.175 394.924 175.273 399.737C167.925 411.983 157.402 422.012 144.82 428.76C135.571 433.71 125.428 436.764 114.985 437.741C104.542 438.718 94.0089 437.6 84.0032 434.451C73.9975 431.303 64.7203 426.188 56.7152 419.405C48.7101 412.623 42.1381 404.31 37.3843 394.954C35.3633 390.995 33.6888 386.869 32.3797 382.621C29.9965 375.027 28.7815 367.116 28.7764 359.157C28.7741 356.229 28.9329 353.303 29.2518 350.392C29.789 345.517 30.786 340.705 32.2296 336.018C32.2296 335.843 32.3422 335.668 32.3922 335.492C43.8527 323.184 65.4851 330.246 76.32 346.41C92.5849 370.651 131.521 442.946 182.342 384.486Z" fill="url(#paint23_linear)"/>
<path style="mix-blend-mode:multiply" opacity="0.55" d="M182.668 383.422C180.829 389.115 178.339 394.577 175.248 399.699C139.728 458.985 51.1344 446.777 31.9668 381.469C41.8394 395.346 56.1703 405.414 72.5665 409.991C135.287 427.62 167.391 403.856 182.668 383.422Z" fill="url(#paint24_linear)"/>
<path style="mix-blend-mode:hard-light" d="M181.229 330.772C185.623 342.065 187.336 354.225 186.233 366.293C183.831 345.872 173.722 312.667 134.774 297.191C106.222 285.847 82.313 287.7 65.335 292.571C68.6495 290.47 72.1117 288.612 75.6945 287.012C85.4626 282.693 96.0048 280.402 106.683 280.278C117.361 280.154 127.954 282.199 137.82 286.29C147.685 290.381 156.619 296.432 164.08 304.078C171.542 311.724 177.376 320.805 181.229 330.772Z" fill="url(#paint25_linear)"/>
</g>
<path style="mix-blend-mode:screen" d="M589.197 168.251C571.507 168.159 554.372 162.065 540.596 150.968C526.819 139.87 517.217 124.426 513.359 107.161C511.171 97.193 510.969 86.8912 512.763 76.8445C514.558 66.7979 518.315 57.2033 523.818 48.6089C529.322 40.0145 536.466 32.5888 544.84 26.756C553.215 20.9232 562.657 16.7976 572.626 14.6149C583.286 12.2828 594.318 12.2217 605.003 14.4357C615.688 16.6496 625.787 21.0889 634.643 27.4645C643.499 33.8402 650.912 42.0093 656.402 51.4402C661.891 60.871 665.333 71.3521 666.503 82.2013C667.673 93.0504 666.546 104.024 663.194 114.409C659.841 124.793 654.34 134.355 647.048 142.473C639.755 150.59 630.835 157.081 620.868 161.523C610.9 165.964 600.109 168.257 589.197 168.251Z" fill="url(#paint26_radial)"/>
<path d="M634.535 135.785C659.532 110.787 659.532 70.2587 634.535 45.2614C609.537 20.2641 569.009 20.2641 544.012 45.2614C519.014 70.2587 519.014 110.787 544.012 135.784C569.009 160.782 609.537 160.782 634.535 135.785Z" fill="url(#paint27_linear)"/>
<path style="mix-blend-mode:screen" d="M652.521 58.1747C649.971 58.1747 647.326 58.1747 644.598 58.3391C647.526 63.3901 649.749 68.818 651.205 74.4717C663.541 74.3895 670.271 75.7327 673.423 76.8704C670.805 79.4335 664.349 84.0663 650.89 89.823C635.278 96.4981 614.718 102.803 593.007 107.642C571.296 112.48 549.982 115.276 533 115.742C518.361 116.14 510.562 114.632 507.122 113.398C509.507 111.054 515.099 106.997 526.311 101.926C525.269 96.18 525.02 90.3184 525.571 84.5049C523.049 85.5466 520.609 86.6157 518.306 87.6848C504.682 93.9761 469.251 107.765 472.17 121.074C475.09 134.383 513.043 132.039 528.038 132.039C546.926 132.039 571.255 129.024 596.571 123.486C621.887 117.949 645.201 110.534 662.362 102.598C675.973 96.3062 711.418 82.5175 708.498 69.2084C705.579 55.8994 667.529 58.2021 652.521 58.1747Z" fill="url(#paint28_radial)"/>
<path style="mix-blend-mode:screen" d="M703.29 63.1636C703.366 63.3651 703.43 63.5711 703.482 63.7804C706.319 76.6919 671.957 90.0558 658.73 96.1689C642.104 103.858 619.447 111.054 594.94 116.427C570.432 121.8 546.857 124.692 528.532 124.692C513.975 124.692 477.159 126.913 474.336 114.001C474.295 113.788 474.268 113.573 474.254 113.357C473.372 114.399 472.727 115.62 472.362 116.936C471.998 118.251 471.923 119.63 472.143 120.978C475.062 134.287 513.016 131.943 528.011 131.943C546.898 131.943 571.227 128.928 596.543 123.39C621.859 117.853 645.174 110.437 662.335 102.501C675.959 96.21 711.404 82.4212 708.485 69.1122C708.098 67.8053 707.433 66.5972 706.537 65.5706C705.64 64.544 704.533 63.7229 703.29 63.1636Z" fill="url(#paint29_radial)"/>
<path style="mix-blend-mode:screen" d="M651.78 76.8154C648.779 63.1305 641.37 50.8083 630.691 41.7394C620.012 32.6704 606.653 27.3556 592.662 26.6102C578.672 25.8649 564.824 29.7302 553.242 37.6132C541.659 45.4962 532.984 56.9614 528.545 70.2499C529.581 73.3205 531.486 76.0247 534.028 78.0353C537.687 80.5715 542.063 81.8685 546.514 81.736C559.385 81.9142 571.282 75.3488 583.796 72.3607C594.35 69.8387 605.726 69.921 615.814 73.8685C625.902 77.8159 634.62 85.8617 638.197 96.1005C641.775 106.339 639.664 118.661 632.002 126.351C627.748 130.369 622.57 133.279 616.925 134.821C596.365 141.099 574.078 135.15 552.847 138.371C551.229 138.632 549.584 138.947 547.981 139.372C558.196 148.018 570.863 153.243 584.203 154.314C597.542 155.386 610.882 152.248 622.345 145.343C633.808 138.438 642.819 128.113 648.109 115.821C653.399 103.528 654.702 89.887 651.835 76.8154H651.78Z" fill="url(#paint30_linear)"/>
<path style="mix-blend-mode:screen" d="M575.56 27.9931C560.12 31.352 546.48 40.3312 537.291 53.1857C539.68 55.4052 542.288 57.3754 545.076 59.0658C553.3 63.9865 563.69 65.9191 572.626 62.5061C577.67 60.5461 581.919 57.0235 586.484 54.104C602.342 43.9338 624.465 41.59 639.569 52.843C640.666 53.6654 641.721 54.5564 642.79 55.4199C635.678 44.5799 625.442 36.1541 613.438 31.2568C601.433 26.3595 588.225 25.2215 575.56 27.9931Z" fill="url(#paint31_linear)"/>
<defs>
<linearGradient id="paint0_linear" x1="-52451.9" y1="41041.9" x2="-87020.7" y2="69774.5" gradientUnits="userSpaceOnUse">
<stop stop-color="#272425"/>
<stop offset="1" stop-color="#272425" stop-opacity="0"/>
</linearGradient>
<radialGradient id="paint1_radial" cx="0" cy="0" r="1" gradientUnits="userSpaceOnUse" gradientTransform="translate(233.255 151.865) rotate(-119.882) scale(23.3665 69.6321)">
<stop stop-color="#F8F05D"/>
<stop offset="0.05" stop-color="#F4DD55"/>
<stop offset="0.2" stop-color="#EAAE42"/>
<stop offset="0.34" stop-color="#E38933"/>
<stop offset="0.47" stop-color="#DD6E29"/>
<stop offset="0.58" stop-color="#DA5E22"/>
<stop offset="0.67" stop-color="#D95820"/>
<stop offset="1" stop-color="#D95820" stop-opacity="0"/>
</radialGradient>
<linearGradient id="paint2_linear" x1="250.301" y1="114.203" x2="217.475" y2="133.066" gradientUnits="userSpaceOnUse">
<stop stop-color="#D79F3E"/>
<stop offset="0.21" stop-color="#CD7631"/>
<stop offset="0.44" stop-color="#C45125"/>
<stop offset="0.66" stop-color="#BD371C"/>
<stop offset="0.85" stop-color="#B92717"/>
<stop offset="1" stop-color="#B82115"/>
</linearGradient>
<linearGradient id="paint3_linear" x1="13791" y1="-56226.3" x2="13389.4" y2="-54725" gradientUnits="userSpaceOnUse">
<stop stop-color="#D79F3E"/>
<stop offset="0.21" stop-color="#CD7631"/>
<stop offset="0.44" stop-color="#C45125"/>
<stop offset="0.66" stop-color="#BD371C"/>
<stop offset="0.85" stop-color="#B92717"/>
<stop offset="1" stop-color="#B82115"/>
</linearGradient>
<linearGradient id="paint4_linear" x1="45993" y1="-27805" x2="45881.5" y2="-27999.1" gradientUnits="userSpaceOnUse">
<stop stop-color="#A3DDFD"/>
<stop offset="0.06" stop-color="#9ACEF3"/>
<stop offset="0.29" stop-color="#7E9FD3"/>
<stop offset="0.5" stop-color="#697ABA"/>
<stop offset="0.69" stop-color="#595FA8"/>
<stop offset="0.87" stop-color="#4F4F9D"/>
<stop offset="1" stop-color="#4C4999"/>
</linearGradient>
<linearGradient id="paint5_linear" x1="23532.2" y1="-18304.9" x2="23334.2" y2="-18649.6" gradientUnits="userSpaceOnUse">
<stop stop-color="#A3DDFD"/>
<stop offset="0.06" stop-color="#9ACEF3"/>
<stop offset="0.29" stop-color="#7E9FD3"/>
<stop offset="0.5" stop-color="#697ABA"/>
<stop offset="0.69" stop-color="#595FA8"/>
<stop offset="0.87" stop-color="#4F4F9D"/>
<stop offset="1" stop-color="#4C4999"/>
</linearGradient>
<linearGradient id="paint6_linear" x1="36024.6" y1="-23262.4" x2="35564.2" y2="-24063.5" gradientUnits="userSpaceOnUse">
<stop stop-color="#A3DDFD"/>
<stop offset="0.06" stop-color="#9ACEF3"/>
<stop offset="0.29" stop-color="#7E9FD3"/>
<stop offset="0.5" stop-color="#697ABA"/>
<stop offset="0.69" stop-color="#595FA8"/>
<stop offset="0.87" stop-color="#4F4F9D"/>
<stop offset="1" stop-color="#4C4999"/>
</linearGradient>
<linearGradient id="paint7_linear" x1="286.077" y1="144.38" x2="266.19" y2="109.77" gradientUnits="userSpaceOnUse">
<stop stop-color="white"/>
<stop offset="1" stop-color="#A08ABE"/>
</linearGradient>
<linearGradient id="paint8_linear" x1="11767" y1="-53232.4" x2="10280.1" y2="-53630.2" gradientUnits="userSpaceOnUse">
<stop stop-color="#D79F3E"/>
<stop offset="0.21" stop-color="#CD7631"/>
<stop offset="0.44" stop-color="#C45125"/>
<stop offset="0.66" stop-color="#BD371C"/>
<stop offset="0.85" stop-color="#B92717"/>
<stop offset="1" stop-color="#B82115"/>
</linearGradient>
<linearGradient id="paint9_linear" x1="7784.78" y1="-35287" x2="7194.74" y2="-35444.9" gradientUnits="userSpaceOnUse">
<stop stop-color="#D79F3E"/>
<stop offset="0.21" stop-color="#CD7631"/>
<stop offset="0.44" stop-color="#C45125"/>
<stop offset="0.66" stop-color="#BD371C"/>
<stop offset="0.85" stop-color="#B92717"/>
<stop offset="1" stop-color="#B82115"/>
</linearGradient>
<linearGradient id="paint10_linear" x1="7630.27" y1="-35039.3" x2="7126.86" y2="-35174" gradientUnits="userSpaceOnUse">
<stop stop-color="#D79F3E"/>
<stop offset="0.21" stop-color="#CD7631"/>
<stop offset="0.44" stop-color="#C45125"/>
<stop offset="0.66" stop-color="#BD371C"/>
<stop offset="0.85" stop-color="#B92717"/>
<stop offset="1" stop-color="#B82115"/>
</linearGradient>
<linearGradient id="paint11_linear" x1="21730.3" y1="-14108.9" x2="21579.8" y2="-14370.8" gradientUnits="userSpaceOnUse">
<stop stop-color="#21095F"/>
<stop offset="0.34" stop-color="#1A054A"/>
<stop offset="0.71" stop-color="#15013A"/>
<stop offset="1" stop-color="#130034"/>
</linearGradient>
<linearGradient id="paint12_linear" x1="52199.1" y1="-30089" x2="50764.5" y2="-29264.7" gradientUnits="userSpaceOnUse">
<stop stop-color="#D79F3E"/>
<stop offset="0.21" stop-color="#CD7631"/>
<stop offset="0.44" stop-color="#C45125"/>
<stop offset="0.66" stop-color="#BD371C"/>
<stop offset="0.85" stop-color="#B92717"/>
<stop offset="1" stop-color="#B82115"/>
</linearGradient>
<radialGradient id="paint13_radial" cx="0" cy="0" r="1" gradientUnits="userSpaceOnUse" gradientTransform="translate(109 358.993) scale(93.3356 93.4053)">
<stop stop-color="#90DDEF"/>
<stop offset="1" stop-color="#A6D6F9" stop-opacity="0"/>
</radialGradient>
<radialGradient id="paint14_radial" cx="0" cy="0" r="1" gradientUnits="userSpaceOnUse" gradientTransform="translate(105.547 328.506) scale(78.8849 78.9438)">
<stop stop-color="#A0E2EA"/>
<stop offset="1" stop-color="#018ED9"/>
</radialGradient>
<linearGradient id="paint15_linear" x1="111.177" y1="462.979" x2="45.6954" y2="296.611" gradientUnits="userSpaceOnUse">
<stop stop-color="#7E31A6"/>
<stop offset="1" stop-color="#7731B1" stop-opacity="0.2"/>
</linearGradient>
<linearGradient id="paint16_linear" x1="4233.2" y1="7794.99" x2="2489.92" y2="1814.64" gradientUnits="userSpaceOnUse">
<stop stop-color="#7E31A6"/>
<stop offset="1" stop-color="#7731B1" stop-opacity="0.2"/>
</linearGradient>
<linearGradient id="paint17_linear" x1="15708.4" y1="15635.5" x2="12172.9" y2="2040.54" gradientUnits="userSpaceOnUse">
<stop stop-color="#7E31A6"/>
<stop offset="1" stop-color="#7731B1" stop-opacity="0.2"/>
</linearGradient>
<linearGradient id="paint18_linear" x1="13432.8" y1="8904.76" x2="11456.1" y2="583.136" gradientUnits="userSpaceOnUse">
<stop stop-color="#7E31A6"/>
<stop offset="1" stop-color="#7731B1" stop-opacity="0.2"/>
</linearGradient>
<linearGradient id="paint19_linear" x1="2740.63" y1="2991.82" x2="2195.81" y2="645.58" gradientUnits="userSpaceOnUse">
<stop stop-color="#7E31A6"/>
<stop offset="1" stop-color="#7731B1" stop-opacity="0.2"/>
</linearGradient>
<linearGradient id="paint20_linear" x1="15140.7" y1="7695.5" x2="13769.9" y2="308.411" gradientUnits="userSpaceOnUse">
<stop stop-color="#7E31A6"/>
<stop offset="1" stop-color="#7731B1" stop-opacity="0.2"/>
</linearGradient>
<linearGradient id="paint21_linear" x1="1976.53" y1="2362.33" x2="1415.23" y2="632.299" gradientUnits="userSpaceOnUse">
<stop stop-color="#7E31A6"/>
<stop offset="1" stop-color="#7731B1" stop-opacity="0.2"/>
</linearGradient>
<linearGradient id="paint22_linear" x1="665.79" y1="1152.28" x2="420.267" y2="527.474" gradientUnits="userSpaceOnUse">
<stop stop-color="#7E31A6"/>
<stop offset="1" stop-color="#7731B1" stop-opacity="0.2"/>
</linearGradient>
<linearGradient id="paint23_linear" x1="90.8208" y1="440.492" x2="114.151" y2="325.633" gradientUnits="userSpaceOnUse">
<stop stop-color="#6D31A3"/>
<stop offset="1" stop-color="#B842B5" stop-opacity="0.3"/>
</linearGradient>
<linearGradient id="paint24_linear" x1="115.594" y1="457.295" x2="106.772" y2="377.451" gradientUnits="userSpaceOnUse">
<stop stop-color="#471AA3"/>
<stop offset="1" stop-color="#4C2EA3" stop-opacity="0.1"/>
</linearGradient>
<linearGradient id="paint25_linear" x1="206.439" y1="230.255" x2="119.156" y2="337.407" gradientUnits="userSpaceOnUse">
<stop stop-color="#A4F6F6"/>
<stop offset="1" stop-color="#B5F4F9" stop-opacity="0"/>
</linearGradient>
<radialGradient id="paint26_radial" cx="0" cy="0" r="1" gradientUnits="userSpaceOnUse" gradientTransform="translate(589.242 90.5332) rotate(-12.37) scale(77.716)">
<stop offset="0.79" stop-color="#59595B"/>
<stop offset="1" stop-color="#272425" stop-opacity="0"/>
</radialGradient>
<linearGradient id="paint27_linear" x1="528.006" y1="104.649" x2="652.914" y2="77.4948" gradientUnits="userSpaceOnUse">
<stop stop-color="#F8F05D"/>
<stop offset="0.08" stop-color="#F4DD55"/>
<stop offset="0.3" stop-color="#EAAE42"/>
<stop offset="0.51" stop-color="#E38933"/>
<stop offset="0.7" stop-color="#DD6E29"/>
<stop offset="0.87" stop-color="#DA5E22"/>
<stop offset="1" stop-color="#D95820"/>
</linearGradient>
<radialGradient id="paint28_radial" cx="0" cy="0" r="1" gradientUnits="userSpaceOnUse" gradientTransform="translate(590.552 94.099) rotate(-12.37) scale(139.108 30.6037)">
<stop offset="0.49" stop-color="#A3A4A7"/>
<stop offset="0.57" stop-color="#A3A4A7" stop-opacity="0.88"/>
<stop offset="0.74" stop-color="#A3A4A7" stop-opacity="0.57"/>
<stop offset="0.97" stop-color="#A3A4A7" stop-opacity="0.07"/>
<stop offset="1" stop-color="#A3A4A7" stop-opacity="0"/>
</radialGradient>
<radialGradient id="paint29_radial" cx="0" cy="0" r="1" gradientUnits="userSpaceOnUse" gradientTransform="translate(-1859.44 -5531.45) rotate(-12.37) scale(23651.7 1515.89)">
<stop offset="0.49" stop-color="#A3A4A7"/>
<stop offset="0.57" stop-color="#A3A4A7" stop-opacity="0.88"/>
<stop offset="0.74" stop-color="#A3A4A7" stop-opacity="0.57"/>
<stop offset="0.97" stop-color="#A3A4A7" stop-opacity="0.07"/>
<stop offset="1" stop-color="#A3A4A7" stop-opacity="0"/>
</radialGradient>
<linearGradient id="paint30_linear" x1="649.984" y1="77.2116" x2="529.542" y2="103.626" gradientUnits="userSpaceOnUse">
<stop stop-color="#59595B"/>
<stop offset="0.27" stop-color="#59595B" stop-opacity="0.78"/>
<stop offset="0.81" stop-color="#59595B" stop-opacity="0.21"/>
<stop offset="1" stop-color="#59595B" stop-opacity="0"/>
</linearGradient>
<linearGradient id="paint31_linear" x1="-3391.5" y1="-16916.8" x2="4503" y2="-16916.8" gradientUnits="userSpaceOnUse">
<stop stop-color="#59595B"/>
<stop offset="0.27" stop-color="#59595B" stop-opacity="0.78"/>
<stop offset="0.81" stop-color="#59595B" stop-opacity="0.21"/>
<stop offset="1" stop-color="#59595B" stop-opacity="0"/>
</linearGradient>
<clipPath id="clip0">
<rect width="218" height="218" fill="white" transform="translate(0 250)"/>
</clipPath>
</defs>
</svg>
