<svg width="25" height="25" viewBox="0 0 25 25" fill="none" xmlns="http://www.w3.org/2000/svg">
<path d="M24.6177 12.2929C24.6325 11.4691 24.5458 10.6465 24.3593 9.83984H12.8608V14.2907H19.6096C19.3719 15.8319 18.4734 17.2287 17.1058 18.1832L17.0826 18.3325L20.7194 21.0932L20.9702 21.118C23.2834 19.0249 24.6164 15.9454 24.6164 12.2929" fill="#4285F4"/>
<path d="M12.8607 24.0246C14.36 24.0565 15.851 23.8157 17.2442 23.3167C18.6373 22.8177 19.9038 22.0708 20.9675 21.1209L17.1031 18.1878C15.8771 19.0027 14.3826 19.4252 12.8581 19.3879C9.62015 19.3879 6.87124 17.2948 5.89182 14.4023L5.74823 14.4142L1.96848 17.2779L1.91895 17.4126C3.93234 21.3322 8.06887 24.0246 12.8581 24.0246" fill="#34A853"/>
<path d="M5.89443 14.3953C5.62615 13.6273 5.48853 12.8272 5.48624 12.0223C5.49131 11.2183 5.62477 10.4191 5.88252 9.64922L5.87562 9.49034L2.05073 6.57812L1.92532 6.63447C1.06463 8.32466 0.619141 10.1616 0.619141 12.0203C0.619141 13.879 1.06463 15.7159 1.92532 17.4061L5.8982 14.3936" fill="#FBBC05"/>
<path d="M12.8606 4.66653C13.7434 4.66003 14.6185 4.81507 15.4325 5.12221C16.2465 5.42936 16.9823 5.88217 17.5953 6.45306L21.0515 3.14704C19.9938 2.15418 18.722 1.36548 17.3137 0.829118C15.9054 0.292757 14.3902 0.0199957 12.8606 0.0274943C8.07131 0.0274943 3.93479 2.72054 1.92139 6.63955L5.88047 9.65261C6.87368 6.75955 9.62196 4.66653 12.8606 4.66653" fill="#EB4335"/>
</svg>
