<svg width="18" height="18" viewBox="0 0 18 18" fill="none" xmlns="http://www.w3.org/2000/svg">
<path d="M9.05852 9.26848C9.88855 9.26848 10.6999 9.02235 11.3901 8.5612C12.0802 8.10006 12.6182 7.44462 12.9358 6.67776C13.2534 5.91091 13.3365 5.06709 13.1746 4.253C13.0127 3.43891 12.613 2.69112 12.0261 2.1042C11.4391 1.51727 10.6913 1.11757 9.87726 0.955641C9.06317 0.793709 8.21935 0.876818 7.45249 1.19446C6.68564 1.5121 6.0302 2.05001 5.56906 2.74016C5.10791 3.43031 4.86178 4.2417 4.86178 5.07174C4.86178 6.18479 5.30393 7.25224 6.09097 8.03928C6.87802 8.82633 7.94547 9.26848 9.05852 9.26848ZM9.05852 11.3669C6.25738 11.3669 0.665039 12.7731 0.665039 15.5636V17.662H17.452V15.5636C17.452 12.7731 11.8596 11.3669 9.05852 11.3669Z" fill="#0D065F"/>
</svg>
