<svg width="112" height="112" viewBox="0 0 112 112" fill="none" xmlns="http://www.w3.org/2000/svg">
<g clip-path="url(#clip0)">
<path d="M48.9956 90.9883H34.9862L20.9766 112.003H27.9814L48.9956 90.9883Z" fill="url(#paint0_linear)"/>
<path d="M63.0039 90.9883H77.0133L91.0229 112.003H84.0181L63.0039 90.9883Z" fill="url(#paint1_linear)"/>
<path d="M90.3887 23.5781L95.3411 28.5305L85.4363 38.4353L80.4839 33.4829L90.3887 23.5781Z" fill="#EAF6FF"/>
<path d="M52.4961 8.26953H59.5009V25.7297H52.4961V8.26953Z" fill="#EAF6FF"/>
<path d="M16.6445 28.5469L21.5969 23.5945L31.5017 33.4993L26.5493 38.4517L16.6445 28.5469Z" fill="#EAF6FF"/>
<path d="M56.0013 104.967C79.2131 104.967 98.03 86.1506 98.03 62.9388C98.03 39.727 79.2131 20.9102 56.0013 20.9102C32.7895 20.9102 13.9727 39.727 13.9727 62.9388C13.9727 86.1506 32.7895 104.967 56.0013 104.967Z" fill="#AEE69C"/>
<path d="M37.7208 92.8238C44.053 99.0861 52.3652 103.353 61.6381 104.595C59.7933 104.843 57.9128 104.972 56.0004 104.972C32.7891 104.972 13.9727 86.1532 13.9727 62.9418C13.9727 39.7305 32.7891 20.9141 56.0004 20.9141C57.9128 20.9141 59.7936 21.0427 61.6381 21.2908C52.3674 22.5311 44.053 26.7976 37.723 33.0599C30.0197 40.6777 25.2479 51.2538 25.2479 62.9418C25.2479 74.6299 30.0197 85.2038 37.7208 92.8238Z" fill="#89DAA4"/>
<path d="M90.983 64.6309C90.7401 69.7803 89.3817 74.6387 87.1483 78.97C86.8901 79.4687 85.7395 79.3222 85.4595 79.8056C85.1751 80.2978 85.7614 81.4222 85.4551 81.8969C82.7448 86.099 79.1617 89.6822 74.9595 92.3925C74.4673 92.7097 73.2445 91.5087 72.7348 91.8019C72.2667 92.0709 72.5117 93.8384 72.0305 94.0856C67.6992 96.3212 62.8408 97.6775 57.6914 97.9203C57.1314 97.9487 56.5867 96.3584 56.0201 96.3584C55.4536 96.3584 54.8695 97.9487 54.3095 97.9203C49.1601 97.6775 44.3017 96.3212 39.9705 94.0856C39.5089 93.8493 39.7167 92.3137 39.2661 92.0556C38.8286 91.8062 37.9448 92.4253 37.363 92.4603C37.2405 92.4669 37.1311 92.4494 37.0436 92.3925C32.8414 89.6844 29.2561 86.099 26.548 81.8969C26.233 81.4134 27.0861 80.1972 26.7973 79.6962C26.5217 79.2215 25.1064 79.4578 24.8526 78.9678C22.6192 74.6365 21.2608 69.7803 21.018 64.6309C20.9895 64.0709 22.5689 63.5284 22.5689 62.9597C22.5689 62.3931 20.9895 61.8069 21.018 61.2468C21.2608 56.0975 22.617 51.239 24.8526 46.9078C25.1108 46.4047 26.5873 46.4615 26.8695 45.9737C27.1517 45.4859 26.2417 44.4534 26.548 43.9809C29.2561 39.7787 32.8414 36.1956 37.0436 33.4853C37.1355 33.4262 37.2492 33.4044 37.3739 33.4065C37.9273 33.4153 38.7367 33.8922 39.1567 33.6494C39.6183 33.3847 39.4958 32.035 39.9705 31.7922C44.3017 29.5565 49.1601 28.2003 54.3095 27.9575C54.8695 27.929 55.4339 29.2744 56.0005 29.2744C56.567 29.2744 57.1314 27.929 57.6914 27.9575C62.8408 28.2003 67.6992 29.5565 72.0305 31.7922C72.503 32.035 72.3848 33.2031 72.8442 33.4678C73.3626 33.7653 74.4586 33.1615 74.9595 33.4853C79.1617 36.1956 82.7448 39.7787 85.4551 43.9787C85.7373 44.4162 84.9783 45.5231 85.2408 45.9737C85.5448 46.4965 86.8705 46.3675 87.1505 46.9078C89.3839 51.239 90.7401 56.0975 90.983 61.2468C91.0114 61.8069 89.6158 62.3734 89.6158 62.94C89.6158 63.5087 91.0114 64.0709 90.983 64.6309Z" fill="#EAF6FF"/>
<path d="M70.0077 5.215C70.0077 6.65438 69.4237 7.95813 68.4808 8.90312C67.5358 9.84594 66.2321 10.43 64.7927 10.43H47.2052C44.3243 10.43 41.9902 8.09594 41.9902 5.215C41.9902 3.77562 42.5743 2.47187 43.5171 1.52688C44.4621 0.584063 45.7659 0 47.2052 0H64.7927C67.6737 0 70.0077 2.33625 70.0077 5.215Z" fill="#AEE69C"/>
<path d="M51.624 10.43H47.2052C44.3243 10.43 41.9902 8.09594 41.9902 5.215C41.9902 3.77562 42.5743 2.47187 43.5171 1.52688C44.4621 0.584063 45.7659 0 47.2052 0H51.7137C50.2765 0 48.9727 0.584062 48.0277 1.52906C47.0849 2.47187 46.5009 3.77562 46.5009 5.215C46.5009 8.06531 48.7868 10.3841 51.624 10.43Z" fill="#89DAA4"/>
<path d="M105.31 27.6438C105.31 30.5006 104.439 33.3597 102.7 35.7878C102.258 36.4047 101.759 36.9953 101.206 37.5487C101.031 37.7216 100.803 37.8069 100.576 37.8069C100.348 37.8069 100.121 37.7216 99.948 37.5487L81.3937 18.9922C81.0459 18.6466 81.0459 18.0822 81.3937 17.7366C84.1302 15 87.7134 13.6328 91.3009 13.6328C92.0534 13.6328 92.8059 13.6941 93.5518 13.8144C96.354 14.2672 99.0468 15.5753 101.206 17.7366C103.94 20.4731 105.31 24.0563 105.31 27.6438Z" fill="#AEE69C"/>
<path d="M102.7 35.7878C102.258 36.4047 101.759 36.9953 101.206 37.5487C101.031 37.7216 100.803 37.8069 100.576 37.8069C100.348 37.8069 100.121 37.7216 99.948 37.5487L81.3937 18.9922C81.0459 18.6466 81.0459 18.0822 81.3937 17.7366C84.1302 15 87.7134 13.6328 91.3009 13.6328C92.0534 13.6328 92.8059 13.6941 93.5518 13.8144C92.3386 14.0112 90.6245 14.8906 89.0705 15.8245C87.0582 17.0337 86.7292 19.8191 88.3893 21.4789L102.7 35.7878Z" fill="#89DAA4"/>
<path d="M30.8657 18.3644C30.8657 18.5919 30.7782 18.8194 30.6054 18.9922L13.8098 35.7878V35.79L12.051 37.5487C11.7032 37.8944 11.141 37.8944 10.7932 37.5487C8.05883 34.8144 6.68945 31.2269 6.68945 27.6438C6.68945 24.0563 8.05883 20.4731 10.7932 17.7366C13.5276 15 17.1151 13.6328 20.6982 13.6328C21.4682 13.6328 22.2404 13.6962 23.0016 13.8231C25.7863 14.2825 28.4573 15.5884 30.6054 17.7366C30.7782 17.9094 30.8657 18.1369 30.8657 18.3644Z" fill="#AEE69C"/>
<path d="M15.3038 17.7366C10.3841 22.6541 9.88758 30.3147 13.8098 35.7878V35.79L12.051 37.5487C11.7032 37.8944 11.141 37.8944 10.7932 37.5487C8.05883 34.8144 6.68945 31.2269 6.68945 27.6438C6.68945 24.0563 8.05883 20.4731 10.7932 17.7366C13.5276 15 17.1151 13.6328 20.6982 13.6328C21.4682 13.6328 22.2404 13.6962 23.0016 13.8231C20.3613 14.4291 17.2201 15.8181 15.3038 17.7366Z" fill="#89DAA4"/>
<path d="M29.0588 80.4464C31.1151 84.933 33.9413 88.993 37.3626 92.4601C37.2401 92.4667 37.1307 92.4492 37.0432 92.3923C32.841 89.6842 29.2557 86.0989 26.5476 81.8967C26.2326 81.4133 27.0857 80.197 26.797 79.6961C26.5213 79.2214 25.106 79.4576 24.8523 78.9677C22.6188 74.6364 21.2604 69.7801 21.0176 64.6308V64.6155C21.0176 64.062 22.5685 63.5239 22.5685 62.9595C22.5685 62.3973 21.0176 61.8176 21.0176 61.262V61.2467C21.2604 56.0973 22.6166 51.2389 24.8523 46.9076C25.1104 46.4045 26.587 46.4614 26.8691 45.9736C27.1513 45.4858 26.2413 44.4533 26.5476 43.9808C29.2557 39.7786 32.841 36.1955 37.0432 33.4851C37.1351 33.4261 37.2488 33.4042 37.3735 33.4064C33.9457 36.878 31.1173 40.9401 29.0566 45.4311C28.5841 46.4614 28.151 47.5136 27.7616 48.5876C26.3179 52.5623 25.456 56.817 25.2832 61.2467C25.2591 61.8089 25.2482 62.3711 25.2482 62.9376C25.2482 63.5042 25.2591 64.0708 25.2832 64.6308C25.4582 69.0605 26.3179 73.313 27.7616 77.2877C28.151 78.3617 28.5841 79.4161 29.0588 80.4464Z" fill="#D8ECFE"/>
<path d="M57.6905 27.9595V34.9223C57.6905 35.8564 56.9336 36.6133 55.9995 36.6133C55.0655 36.6133 54.3086 35.8564 54.3086 34.9223V27.9595C54.8686 27.9311 55.433 27.918 55.9995 27.918C56.5661 27.918 57.1305 27.9311 57.6905 27.9595Z" fill="#365E7D"/>
<path d="M57.6905 90.9605V97.9233C57.1305 97.9517 56.5661 97.9648 55.9995 97.9648C55.433 97.9648 54.8686 97.9517 54.3086 97.9233V90.9605C54.3086 90.0264 55.0655 89.2695 55.9995 89.2695C56.9336 89.2695 57.6905 90.0264 57.6905 90.9605Z" fill="#365E7D"/>
<path d="M42.8355 40.1383C42.5708 40.2936 42.2798 40.3658 41.9911 40.3658C41.407 40.3658 40.8383 40.0617 40.5255 39.5192L37.043 33.4861C37.988 32.8758 38.9658 32.3092 39.9698 31.793L43.4545 37.8283C43.9227 38.6377 43.6448 39.6723 42.8355 40.1383Z" fill="#365E7D"/>
<path d="M74.9576 92.3921C74.0126 93.0024 73.0348 93.5668 72.0285 94.0852L68.5439 88.0499C68.0757 87.2405 68.3535 86.2058 69.1629 85.7377C69.9701 85.2718 71.0048 85.5496 71.4729 86.3568L74.9576 92.3921Z" fill="#365E7D"/>
<path d="M33.201 49.7791C32.8882 50.3216 32.3194 50.6234 31.7354 50.6234C31.4488 50.6234 31.1579 50.5513 30.891 50.3981L24.8535 46.9113C25.372 45.9072 25.9363 44.9294 26.5488 43.9844L32.5819 47.4691C33.3913 47.935 33.6691 48.9697 33.201 49.7791Z" fill="#365E7D"/>
<path d="M87.1482 78.9712C86.6298 79.9774 86.0654 80.953 85.4551 81.898L79.4198 78.4133C78.6104 77.9474 78.3348 76.9127 78.8007 76.1034C79.2688 75.294 80.3035 75.0184 81.1107 75.4843L87.1482 78.9712Z" fill="#365E7D"/>
<path d="M29.6741 62.9409C29.6741 63.875 28.9172 64.6341 27.9809 64.6341H21.0181C20.9897 64.0741 20.9766 63.5097 20.9766 62.9409C20.9766 62.3744 20.9897 61.81 21.0181 61.25H27.9809C28.9172 61.25 29.6741 62.0069 29.6741 62.9409Z" fill="#365E7D"/>
<path d="M91.0254 62.9409C91.0254 63.5097 91.0123 64.0741 90.9838 64.6341H84.021C83.087 64.6341 82.3301 63.875 82.3301 62.9409C82.3301 62.0069 83.087 61.25 84.021 61.25H90.9838C91.0123 61.81 91.0254 62.3744 91.0254 62.9409Z" fill="#365E7D"/>
<path d="M32.5819 78.4133L26.5488 81.898C25.9363 80.953 25.372 79.9752 24.8535 78.969L30.891 75.4843C31.6982 75.0184 32.7329 75.294 33.201 76.1034C33.6691 76.9127 33.3913 77.9474 32.5819 78.4133Z" fill="#365E7D"/>
<path d="M29.0579 45.4347C28.5854 46.465 28.1523 47.5172 27.7629 48.5912L24.8535 46.9112C25.372 45.9072 25.9363 44.9294 26.5488 43.9844L29.0579 45.4347Z" fill="#2B4D66"/>
<path d="M25.2487 62.9409C25.2487 63.5075 25.2597 64.0741 25.2838 64.6341H21.0181V64.6188C20.9897 64.0631 20.9766 63.5053 20.9766 62.9409C20.9766 62.3788 20.9897 61.8209 21.0181 61.2653V61.25H25.2838C25.2597 61.8122 25.2487 62.3744 25.2487 62.9409Z" fill="#2B4D66"/>
<path d="M29.0601 80.4478L26.5488 81.8981C25.9363 80.9531 25.372 79.9753 24.8535 78.9691L27.7629 77.2891C28.1523 78.3631 28.5854 79.4175 29.0601 80.4478Z" fill="#2B4D66"/>
<path d="M87.1504 46.9095L81.1107 50.3964C80.846 50.5495 80.5551 50.6217 80.2663 50.6217C79.6823 50.6217 79.1135 50.3198 78.8007 49.7773C78.3348 48.968 78.6104 47.9333 79.4198 47.4673L85.4551 43.9805C86.0654 44.9277 86.6298 45.9033 87.1504 46.9095Z" fill="#365E7D"/>
<path d="M43.4545 88.0499L39.9698 94.0852C38.9658 93.569 37.988 93.0024 37.043 92.3921L40.5255 86.3568C40.9936 85.5496 42.0261 85.2718 42.8355 85.7377C43.6448 86.2058 43.9227 87.2405 43.4545 88.0499Z" fill="#365E7D"/>
<path d="M74.9576 33.4861L71.4729 39.5192C71.1601 40.0617 70.5914 40.3658 70.0073 40.3658C69.7207 40.3658 69.4298 40.2936 69.1629 40.1383C68.3535 39.6723 68.0757 38.6377 68.5439 37.8283L72.0285 31.793C73.0348 32.3114 74.0126 32.8758 74.9576 33.4861Z" fill="#365E7D"/>
<path d="M59.5024 45.428V62.9389H52.498V45.428C52.498 43.4942 54.0665 41.9258 56.0002 41.9258C56.6127 41.9258 57.1902 42.0833 57.6912 42.3611C57.9799 42.5208 58.2446 42.7198 58.4765 42.9517C59.1108 43.5861 59.5024 44.4611 59.5024 45.428Z" fill="#F25A74"/>
<path d="M57.6912 42.3611V42.3633C56.6106 42.9561 55.8799 44.1067 55.8799 45.428V62.9389H52.498V45.428C52.498 43.4942 54.0665 41.9258 56.0002 41.9258C56.6127 41.9258 57.1902 42.0833 57.6912 42.3611Z" fill="#E83D5A"/>
<path d="M52.499 59.4258V66.4586H42.0055C40.063 66.4586 38.4902 64.8836 38.4902 62.9411C38.4902 61.9698 38.884 61.0927 39.5205 60.4561C40.1549 59.8195 41.0343 59.4258 42.0055 59.4258H52.499Z" fill="#F25A74"/>
<path d="M46.5162 66.4564L46.5118 66.4586H42.0055C40.063 66.4586 38.4902 64.8836 38.4902 62.9411C38.4902 61.9698 38.884 61.0927 39.5205 60.4561C40.1549 59.8195 41.0343 59.4258 42.0055 59.4258H46.5162C45.5449 59.4258 44.6655 59.8195 44.029 60.4561C43.3902 61.0927 42.9987 61.972 42.9987 62.9411C42.9987 64.8836 44.5737 66.4564 46.5162 66.4564Z" fill="#E83D5A"/>
<path d="M56.0009 69.9432C59.8696 69.9432 63.0057 66.8071 63.0057 62.9384C63.0057 59.0698 59.8696 55.9336 56.0009 55.9336C52.1323 55.9336 48.9961 59.0698 48.9961 62.9384C48.9961 66.8071 52.1323 69.9432 56.0009 69.9432Z" fill="#AEE69C"/>
<path d="M58.2556 69.5744C57.5475 69.8135 56.7897 69.9443 56.0005 69.9443C52.1308 69.9443 48.9961 66.8074 48.9961 62.9377C48.9961 59.0702 52.1308 55.9336 56.0005 55.9336C56.7897 55.9336 57.5475 56.0644 58.2556 56.3035C55.4932 57.2439 53.5063 59.8597 53.5063 62.938C53.5063 66.018 55.493 68.634 58.2556 69.5744Z" fill="#89DAA4"/>
</g>
<defs>
<linearGradient id="paint0_linear" x1="34.9861" y1="90.9883" x2="34.9861" y2="112.003" gradientUnits="userSpaceOnUse">
<stop stop-color="#FF0036"/>
<stop offset="1" stop-color="#FF875E"/>
</linearGradient>
<linearGradient id="paint1_linear" x1="77.0134" y1="90.9883" x2="77.0134" y2="112.003" gradientUnits="userSpaceOnUse">
<stop stop-color="#FF0036"/>
<stop offset="1" stop-color="#FF875E"/>
</linearGradient>
<clipPath id="clip0">
<rect width="112" height="112" fill="white"/>
</clipPath>
</defs>
</svg>
