<svg width="732" height="450" viewBox="0 0 732 450" fill="none" xmlns="http://www.w3.org/2000/svg">
<g clip-path="url(#clip0)">
<path opacity="0.1" d="M731.999 289.025C732.011 301.217 730.536 313.365 727.605 325.2C726.619 329.188 725.473 333.093 724.168 336.915C722.571 341.633 720.721 346.261 718.624 350.779C717.568 353.065 716.451 355.305 715.275 357.5C715.294 370.002 712.718 382.373 707.711 393.83C698.659 414.387 682.519 431.008 662.231 440.664C649.546 446.713 635.683 449.894 621.629 449.982H138.957C117.482 450.027 96.3779 444.389 77.7903 433.639L77.5044 433.478C74.8569 431.929 72.2756 430.289 69.7607 428.558C64.1021 424.651 58.7859 420.271 53.8693 415.465C47.2146 408.965 41.3507 401.704 36.3993 393.83C24.7699 375.375 18.6093 354.005 18.6309 332.194C6.85376 311.541 -0.0136719 286.801 -0.0136719 260.216C-0.0136719 226.674 10.8996 196.077 28.8295 172.914C32.5676 168.075 36.6622 163.522 41.0791 159.293C45.4371 155.107 50.1214 151.275 55.0874 147.832C59.0606 145.075 63.213 142.585 67.5171 140.379C69.3132 139.466 71.1155 138.602 72.9489 137.801C74.5586 137.087 76.1869 136.422 77.8338 135.795C79.8101 135.045 81.8113 134.356 83.8374 133.726C85.8634 133.097 87.8625 132.546 89.8347 132.074C92.735 131.366 95.685 130.79 98.6847 130.347C101.171 129.981 103.657 129.726 106.143 129.534C108.119 129.384 110.114 129.304 112.121 129.279H113.209C115.421 129.279 117.621 129.366 119.803 129.515C120.033 129.055 120.281 128.589 120.511 128.136C121.381 126.478 122.283 124.825 123.19 123.21C123.188 123.196 123.188 123.181 123.19 123.167C123.345 122.881 123.501 122.602 123.662 122.328C124.396 121.005 125.16 119.695 125.943 118.396C126.304 117.775 126.658 117.191 127.025 116.608C127.102 116.462 127.187 116.321 127.279 116.185C127.652 115.564 128.031 114.943 128.417 114.322C130.335 111.257 132.33 108.247 134.402 105.29L134.93 104.533C135.253 104.073 135.551 103.626 135.912 103.166C136.769 101.967 137.652 100.762 138.541 99.582C139.162 98.7373 139.784 97.8987 140.455 97.0974C142.071 95.027 143.728 92.9565 145.427 90.886C147.125 88.8155 148.891 86.772 150.722 84.7553C150.97 84.4758 151.219 84.2025 151.48 83.9292L154.134 81.0347C154.264 80.898 154.376 80.7738 154.5 80.6496C154.817 80.3079 155.122 79.9663 155.464 79.6371C156.887 78.1277 158.347 76.6494 159.814 75.1773C167.279 67.7468 175.231 60.8223 183.617 54.4497C183.947 54.1888 184.282 53.9404 184.612 53.6919C186.19 52.5055 187.794 51.3316 189.397 50.1762C198.217 43.8527 207.436 38.1055 216.997 32.9706C217.656 32.5917 218.327 32.2376 219.005 31.8898C227.577 27.3574 236.392 23.3013 245.412 19.7402C250.328 17.796 255.355 15.9699 260.414 14.299C263.783 13.1933 267.164 12.1436 270.588 11.156C275.941 9.61556 281.331 8.23455 286.759 7.01297C302.749 3.42701 319.017 1.21184 335.384 0.391572C340.356 0.138974 345.384 0.00853504 350.468 0.000253118C374.998 -0.0322041 399.432 3.05694 423.182 9.19318C423.427 9.56406 423.763 9.86641 424.158 10.0718C424.553 10.2772 424.993 10.3788 425.438 10.3671H427.526C428.433 10.6156 429.334 10.8641 430.242 11.1249C435.309 12.5826 440.304 14.1748 445.226 15.9015L446.469 16.3488C458.618 20.6663 470.438 25.856 481.838 31.8774C492.114 37.2922 502.008 43.4019 511.452 50.1638C512.906 51.2073 514.339 52.2591 515.752 53.3192C517.468 52.2219 519.212 51.1701 520.985 50.1638C527.833 46.2658 535.107 43.1666 542.663 40.9274C558.46 36.2553 575.174 35.6019 591.288 39.0267C611.952 43.4058 630.659 54.2758 645.767 69.7361C651.919 76.0617 657.395 83.0104 662.106 90.4698C662.448 91.004 662.79 91.5444 663.119 92.091C667.169 98.6931 670.649 105.627 673.523 112.819C673.629 113.086 673.734 113.334 673.828 113.595C676.481 120.329 678.621 127.254 680.229 134.31C680.303 134.67 680.39 135.024 680.465 135.385C681.969 142.214 682.991 149.14 683.523 156.112C683.523 156.361 683.523 156.615 683.572 156.876C683.834 160.483 683.966 164.127 683.97 167.808C683.97 171.101 683.858 174.368 683.653 177.61C683.653 177.964 683.604 178.331 683.572 178.697C683.517 179.635 683.436 180.561 683.355 181.505C688.102 185.331 692.544 189.52 696.642 194.033C698.453 196.008 700.206 198.058 701.9 200.182C707.062 206.648 711.598 213.588 715.449 220.91C725.958 240.737 731.999 264.061 731.999 289.025Z" fill="#6C63FF"/>
<path opacity="0.1" d="M661.772 438.365C661.772 442.608 647.149 446.583 621.63 450H138.959C117.484 450.045 96.3793 444.407 77.7917 433.657L77.5059 433.496C84.8394 430.825 98.0771 428.334 116.094 426.085L116.902 425.986C124.981 424.998 134.011 424.061 143.881 423.172C144.129 423.172 144.384 423.135 144.633 423.104C152.463 422.408 160.793 421.756 169.623 421.147C169.902 421.147 170.176 421.098 170.455 421.085C173.861 420.841 177.337 420.609 180.884 420.39L182.251 420.303C208.074 418.7 237.427 417.42 269.26 416.576H269.297C273.755 416.451 278.261 416.342 282.814 416.247C287.877 416.126 293.002 416.021 298.19 415.93C302.149 415.843 306.157 415.781 310.178 415.719H310.271C328.413 415.445 347.157 415.309 366.323 415.309C413.718 415.309 458.515 416.172 498.209 417.725H498.321C504.424 417.961 510.415 418.222 516.257 418.489L521.229 418.725C527.821 419.04 534.243 419.377 540.495 419.737C614.017 423.918 661.772 430.707 661.772 438.365Z" fill="#6C63FF"/>
<g opacity="0.2">
<path opacity="0.2" d="M422.785 412.46C422.765 413.13 422.688 413.797 422.555 414.454C418.23 413.766 413.879 413.145 409.504 412.59C409.504 412.416 409.504 412.236 409.504 412.056C409.544 410.194 410.081 408.375 411.058 406.789C412.338 404.764 414.283 403.497 416.427 403.565C418.571 403.633 420.43 405.019 421.579 407.112C422.449 408.756 422.865 410.602 422.785 412.46V412.46Z" fill="#3F3D56"/>
<path opacity="0.2" d="M423.142 401.843C423.294 397.039 420.442 393.051 416.771 392.935C413.1 392.819 410.001 396.619 409.849 401.423C409.697 406.227 412.55 410.215 416.221 410.331C419.892 410.447 422.99 406.647 423.142 401.843Z" fill="#3F3D56"/>
<path opacity="0.2" d="M423.482 391.21C423.634 386.407 420.781 382.418 417.111 382.302C413.44 382.186 410.341 385.987 410.189 390.79C410.037 395.594 412.89 399.582 416.561 399.698C420.231 399.814 423.33 396.014 423.482 391.21Z" fill="#3F3D56"/>
<path opacity="0.2" d="M423.814 380.574C423.966 375.77 421.114 371.782 417.443 371.666C413.772 371.55 410.673 375.35 410.521 380.154C410.369 384.957 413.222 388.946 416.893 389.061C420.564 389.177 423.662 385.377 423.814 380.574Z" fill="#3F3D56"/>
<path opacity="0.2" d="M424.148 369.941C424.3 365.137 421.447 361.149 417.777 361.033C414.106 360.917 411.007 364.717 410.855 369.521C410.703 374.325 413.556 378.313 417.227 378.429C420.897 378.545 423.996 374.744 424.148 369.941Z" fill="#3F3D56"/>
<path opacity="0.2" d="M394.881 296.155C394.006 294.971 393.217 293.725 392.519 292.428L410.083 290.111L391.177 289.658C389.49 285.658 388.637 281.357 388.67 277.016C388.703 272.676 389.622 268.388 391.37 264.415L416.304 278.359L393.464 260.445C395.768 256.721 398.816 253.511 402.417 251.017C406.018 248.522 410.095 246.797 414.393 245.948C418.691 245.099 423.118 245.145 427.398 246.083C431.677 247.021 435.717 248.831 439.266 251.399C442.814 253.968 445.794 257.24 448.021 261.012C450.247 264.783 451.671 268.973 452.204 273.319C452.737 277.666 452.368 282.075 451.12 286.272C449.871 290.47 447.77 294.365 444.948 297.714C446.309 299.556 447.466 301.541 448.397 303.634L425.346 314.69L449.79 307.342C451.329 312.418 451.577 317.798 450.511 322.994C449.446 328.191 447.1 333.039 443.687 337.101C447.235 341.913 449.357 347.626 449.81 353.587C450.263 359.548 449.029 365.516 446.247 370.809C443.466 376.101 439.251 380.505 434.084 383.516C428.917 386.527 423.006 388.024 417.028 387.835C411.049 387.647 405.245 385.781 400.277 382.45C395.31 379.12 391.381 374.46 388.939 369.003C386.497 363.545 385.641 357.512 386.469 351.591C387.296 345.671 389.774 340.102 393.62 335.523C389.38 329.772 387.197 322.764 387.423 315.624C387.648 308.484 390.268 301.627 394.863 296.155H394.881Z" fill="#6C63FF"/>
<path opacity="0.1" d="M451.144 317.634C450.927 324.778 448.299 331.638 443.687 337.101C447.235 341.913 449.357 347.626 449.81 353.587C450.263 359.548 449.029 365.516 446.247 370.808C443.466 376.101 439.251 380.505 434.084 383.516C428.917 386.527 423.006 388.024 417.028 387.835C411.049 387.647 405.245 385.781 400.277 382.45C395.31 379.12 391.381 374.46 388.939 369.003C386.497 363.545 385.641 357.512 386.469 351.591C387.296 345.67 389.774 340.102 393.62 335.523C389.536 329.976 451.256 314.062 451.144 317.634Z" fill="black"/>
</g>
<g opacity="0.2">
<path opacity="0.2" d="M328.318 412.46C328.298 413.13 328.221 413.797 328.088 414.454C323.763 413.766 319.412 413.145 315.037 412.59C315.037 412.416 315.037 412.236 315.037 412.056C315.078 410.194 315.614 408.375 316.591 406.789C317.871 404.764 319.816 403.497 321.96 403.565C324.105 403.633 325.963 405.019 327.113 407.112C327.982 408.756 328.398 410.602 328.318 412.46V412.46Z" fill="#3F3D56"/>
<path opacity="0.2" d="M328.67 401.847C328.822 397.043 325.969 393.055 322.298 392.939C318.627 392.823 315.528 396.623 315.377 401.427C315.225 406.231 318.077 410.219 321.748 410.335C325.419 410.451 328.518 406.651 328.67 401.847Z" fill="#3F3D56"/>
<path opacity="0.2" d="M329.008 391.21C329.159 386.407 326.307 382.418 322.636 382.302C318.965 382.186 315.866 385.987 315.714 390.79C315.563 395.594 318.415 399.582 322.086 399.698C325.757 399.814 328.856 396.014 329.008 391.21Z" fill="#3F3D56"/>
<path opacity="0.2" d="M329.342 380.577C329.493 375.774 326.641 371.786 322.97 371.67C319.299 371.554 316.2 375.354 316.048 380.158C315.897 384.961 318.749 388.949 322.42 389.065C326.091 389.181 329.19 385.381 329.342 380.577Z" fill="#3F3D56"/>
<path opacity="0.2" d="M329.674 369.945C329.826 365.141 326.973 361.153 323.302 361.037C319.631 360.921 316.532 364.721 316.38 369.525C316.229 374.328 319.081 378.317 322.752 378.433C326.423 378.549 329.522 374.748 329.674 369.945Z" fill="#3F3D56"/>
<path opacity="0.2" d="M300.414 296.155C299.539 294.971 298.75 293.725 298.053 292.428L315.616 290.111L296.71 289.658C295.023 285.658 294.17 281.357 294.203 277.016C294.236 272.676 295.155 268.388 296.903 264.415L321.837 278.359L298.997 260.445C301.301 256.721 304.349 253.511 307.95 251.017C311.551 248.522 315.628 246.797 319.926 245.948C324.224 245.099 328.651 245.145 332.931 246.083C337.211 247.021 341.251 248.831 344.799 251.399C348.347 253.968 351.328 257.24 353.554 261.012C355.78 264.783 357.204 268.973 357.737 273.319C358.271 277.666 357.902 282.075 356.653 286.272C355.405 290.47 353.304 294.365 350.481 297.714C351.843 299.556 352.999 301.541 353.931 303.634L330.88 314.69L355.323 307.342C356.862 312.418 357.11 317.798 356.044 322.994C354.979 328.191 352.633 333.039 349.22 337.101C352.769 341.913 354.891 347.626 355.344 353.587C355.796 359.548 354.562 365.516 351.781 370.809C349 376.101 344.785 380.505 339.617 383.516C334.45 386.527 328.539 388.024 322.561 387.835C316.582 387.647 310.778 385.781 305.811 382.45C300.843 379.12 296.914 374.46 294.472 369.003C292.03 363.545 291.174 357.512 292.002 351.591C292.83 345.671 295.308 340.102 299.153 335.523C294.913 329.772 292.731 322.764 292.956 315.624C293.181 308.484 295.802 301.627 300.396 296.155H300.414Z" fill="#6C63FF"/>
<path opacity="0.1" d="M356.678 317.634C356.46 324.778 353.832 331.638 349.22 337.101C352.769 341.913 354.891 347.626 355.344 353.587C355.797 359.548 354.562 365.516 351.781 370.808C349 376.101 344.785 380.505 339.617 383.516C334.45 386.527 328.539 388.024 322.561 387.835C316.582 387.647 310.778 385.781 305.811 382.45C300.843 379.12 296.914 374.46 294.472 369.003C292.03 363.545 291.174 357.512 292.002 351.591C292.83 345.67 295.308 340.102 299.153 335.523C295.07 329.976 356.79 314.062 356.678 317.634Z" fill="black"/>
</g>
<g opacity="0.2">
<path opacity="0.2" d="M586.36 419.255C586.313 420.524 586.161 421.787 585.906 423.032C577.578 421.702 569.19 420.514 560.742 419.466C560.742 419.131 560.742 418.789 560.742 418.441C560.821 414.854 561.855 411.353 563.738 408.298C566.224 404.403 569.953 401.962 574.073 402.087C578.194 402.211 581.78 404.888 584.017 408.919C585.704 412.095 586.513 415.663 586.36 419.255V419.255Z" fill="#3F3D56"/>
<path opacity="0.2" d="M587.037 398.805C587.329 389.554 581.835 381.874 574.764 381.65C567.693 381.427 561.724 388.745 561.432 397.996C561.139 407.247 566.634 414.927 573.705 415.15C580.775 415.374 586.744 408.056 587.037 398.805Z" fill="#3F3D56"/>
<path opacity="0.2" d="M587.683 378.332C587.976 369.081 582.481 361.401 575.411 361.178C568.34 360.954 562.371 368.273 562.078 377.523C561.786 386.774 567.281 394.454 574.351 394.678C581.422 394.901 587.391 387.583 587.683 378.332Z" fill="#3F3D56"/>
<path opacity="0.2" d="M588.336 357.859C588.628 348.609 583.133 340.928 576.063 340.705C568.992 340.482 563.023 347.8 562.731 357.051C562.438 366.301 567.933 373.982 575.004 374.205C582.074 374.428 588.043 367.11 588.336 357.859Z" fill="#3F3D56"/>
<path opacity="0.2" d="M588.252 336.451C588.529 327.196 583.02 319.521 575.946 319.309C568.872 319.097 562.912 326.428 562.634 335.683C562.356 344.938 567.866 352.613 574.94 352.825C582.014 353.038 587.974 345.707 588.252 336.451Z" fill="#3F3D56"/>
<path opacity="0.2" d="M532.633 195.357C530.956 193.076 529.438 190.683 528.09 188.195L561.899 183.735L525.511 182.859C522.261 175.16 520.616 166.879 520.678 158.523C520.74 150.167 522.507 141.911 525.872 134.261L573.881 161.1L529.917 126.615C534.363 119.462 540.234 113.3 547.167 108.514C554.099 103.729 561.943 100.421 570.21 98.7983C578.477 97.1752 586.99 97.2714 595.219 99.0807C603.447 100.89 611.215 104.374 618.037 109.315C624.859 114.256 630.59 120.548 634.872 127.8C639.155 135.051 641.897 143.107 642.928 151.464C643.959 159.821 643.257 168.301 640.865 176.375C638.473 184.449 634.443 191.945 629.026 198.394C631.644 201.943 633.872 205.765 635.67 209.792L591.289 231.091L638.342 216.929C641.307 226.69 641.79 237.036 639.747 247.03C637.704 257.024 633.198 266.352 626.639 274.167C633.47 283.432 637.554 294.43 638.425 305.905C639.296 317.38 636.919 328.868 631.565 339.056C626.21 349.245 618.096 357.721 608.149 363.517C598.201 369.313 586.823 372.195 575.314 371.832C563.806 371.469 552.632 367.877 543.069 361.467C533.507 355.056 525.943 346.085 521.242 335.58C516.54 325.075 514.892 313.46 516.484 302.063C518.077 290.665 522.846 279.946 530.247 271.13C522.089 260.059 517.89 246.57 518.323 232.827C518.755 219.085 523.795 205.887 532.633 195.35V195.357Z" fill="#6C63FF"/>
<path opacity="0.1" d="M640.959 236.698C640.551 250.444 635.515 263.649 626.665 274.178C633.495 283.442 637.58 294.441 638.451 305.916C639.321 317.391 636.944 328.879 631.59 339.067C626.236 349.255 618.121 357.732 608.174 363.528C598.227 369.324 586.848 372.206 575.34 371.843C563.831 371.48 552.657 367.888 543.095 361.477C533.533 355.067 525.968 346.096 521.267 335.591C516.566 325.086 514.917 313.471 516.51 302.073C518.102 290.676 522.871 279.957 530.272 271.141C522.355 260.451 641.177 229.822 640.959 236.698Z" fill="black"/>
</g>
<path d="M98.084 420.346L104.603 420.327H113.795L125.417 231.636L240.51 39.6839L235.507 34.3172V20.7266L111.036 227.189L98.084 420.346Z" fill="#F1C0C0"/>
<path opacity="0.1" d="M105.299 420.326H113.795L125.416 231.635L240.51 39.6831L235.507 34.3164L116.79 228.759L105.299 420.326Z" fill="black"/>
<path d="M78.873 421.92L377.094 444.728L377.348 444.747L665.961 427.007L666.178 426.994V414.814L348.163 408.981L82.8443 408.727H80.9053L80.694 410.093L78.873 421.92Z" fill="#F1C0C0"/>
<path opacity="0.1" d="M78.873 421.92L377.094 444.728L377.348 444.747L665.961 427.007L666.178 426.771V415.068H665.924L377.094 424.709L82.8443 408.727H82.8008L82.2788 409.068L80.694 410.093L78.873 421.92Z" fill="black"/>
<path opacity="0.1" d="M78.873 421.918L377.094 444.726V424.707L82.2788 409.066L80.694 410.091L78.873 421.918Z" fill="black"/>
<path d="M235.469 34.0642L366.944 175.101L362.88 423.186L374.048 424.534L374.234 424.559H385.403L386.739 185.754L632.928 267.943L637.08 414.285L646.067 415.291L649.112 415.633L642.064 257.794L384.706 167.492L243.592 20.8711H235.469V34.0642Z" fill="#F1C0C0"/>
<path opacity="0.1" d="M385.727 181.188L386.74 185.753L632.929 267.943L637.081 414.284L646.068 415.29L639.02 264.899L385.727 181.188Z" fill="black"/>
<path opacity="0.1" d="M235.469 34.0642L366.944 175.101L362.88 423.186L374.048 424.534L377.093 166.983L235.469 20.8711V34.0642Z" fill="black"/>
<path d="M386.205 280.749L476.501 298.52L476.532 298.526L634.682 329.664L641.922 326.763L641.897 326.254L641.425 316.161L386.298 264.637L386.205 280.749Z" fill="#F1C0C0"/>
<path opacity="0.1" d="M476.531 298.527L634.681 329.665L641.921 326.765L641.897 326.255L476.531 298.527Z" fill="black"/>
<path d="M482.578 217.75L485.021 352.128L486.282 421.069L497.401 420.696L504.399 420.46L502.223 219.694L497.401 218.092L496.344 217.75H482.578Z" fill="#F1C0C0"/>
<path opacity="0.1" d="M482.678 217.715V217.746L485.021 352.124L486.282 421.065L497.401 420.692V217.715H482.678Z" fill="black"/>
<path d="M308.419 252.066C309.072 252.421 309.695 252.826 310.284 253.278C310.98 253.887 311.605 254.572 312.148 255.321C314.814 258.769 317.276 262.775 317.015 267.123C317.02 267.756 316.901 268.383 316.663 268.969C316.425 269.556 316.073 270.089 315.629 270.539C314.529 271.477 312.95 271.521 311.508 271.521C309.942 271.521 308.295 271.521 306.94 270.713C305.585 269.906 304.454 268.334 302.851 268.371C302.624 268.409 302.394 268.409 302.167 268.371C301.614 268.191 301.502 267.465 301.142 267.005C300.52 266.179 299.209 266.384 298.233 266.744C297.257 267.104 296.176 267.645 295.213 267.229C294.653 266.934 294.196 266.477 293.901 265.918C291.596 262.191 291.105 257.713 290.67 253.383C290.402 250.75 288.364 241.768 293.988 243.811C296.474 244.706 298.799 246.495 301.061 247.805L308.419 252.066Z" fill="url(#paint0_linear)"/>
<path d="M302.863 252.953C303.365 253.315 303.974 253.497 304.592 253.473C305.21 253.448 305.803 253.217 306.275 252.817C307.2 251.981 307.79 250.837 307.934 249.599C308.555 249.407 308.872 250.22 309.27 250.717C309.966 251.562 311.383 251.55 312.017 252.45C312.458 253.071 312.359 253.935 312.67 254.637C313.074 255.544 314.074 256.016 314.758 256.749C315.403 257.549 315.87 258.479 316.125 259.475L317.144 262.531C317.632 263.802 317.946 265.133 318.077 266.488C318.141 267.165 318.07 267.849 317.867 268.498C317.664 269.148 317.334 269.75 316.896 270.271C315.528 271.743 313.285 271.898 311.302 271.855C310.64 271.869 309.979 271.792 309.338 271.625C307.58 271.078 306.455 269.308 305.989 267.525C305.523 265.743 305.572 263.873 305.299 262.047C305.003 260.253 304.481 258.504 303.745 256.842C303.198 255.55 301.694 253.624 301.719 252.252C302.167 252.252 302.49 252.661 302.863 252.953Z" fill="url(#paint1_linear)"/>
<path d="M305.095 246.663C304.804 245.781 304.635 244.864 304.591 243.936C304.591 242.073 305.443 240.321 306.301 238.656L299.197 239.619C298.339 239.737 297.382 239.911 296.897 240.625C296.713 240.979 296.617 241.372 296.617 241.771C296.617 242.17 296.713 242.563 296.897 242.917C297.254 243.626 297.537 244.369 297.743 245.135C297.759 245.805 297.836 246.472 297.973 247.129C298.194 247.611 298.504 248.047 298.886 248.414C300.918 250.663 302.441 253.315 303.958 255.943C303.914 255.868 308.24 252.52 308.066 251.427C307.966 250.806 306.717 250.06 306.319 249.464C305.77 248.599 305.357 247.654 305.095 246.663V246.663Z" fill="#BE6F72"/>
<path d="M366 222.395V228.513L261.173 248.948L255.735 252.24H236.973V248.793L339.966 223.923L366 222.395Z" fill="#F1C0C0"/>
<path opacity="0.1" d="M366 228.512L261.173 248.947L255.735 252.239H236.973L340.73 230.046L366 228.512Z" fill="black"/>
<path d="M281.837 396.078C280.669 394.665 279.057 393.688 277.263 393.306C275.468 392.925 273.598 393.162 271.956 393.979C271.604 394.144 271.294 394.386 271.048 394.687C270.427 395.556 270.825 396.755 270.88 397.83C271.023 400.451 268.935 402.582 267.058 404.414C266.051 405.395 265.026 406.445 264.572 407.781C264.119 409.116 264.454 410.812 265.672 411.507C266.204 411.774 266.782 411.934 267.375 411.979C269.362 412.367 271.399 412.423 273.404 412.147C275.386 411.768 277.331 410.644 278.189 408.818C278.355 408.323 278.628 407.871 278.991 407.495C280.085 406.631 281.763 407.644 283.006 407.029C284.031 406.52 284.075 405.718 284.087 404.662C284.124 401.743 283.689 398.439 281.837 396.078Z" fill="#3F3D56"/>
<path d="M296.753 395.967C297.518 397.98 297.623 400.172 297.723 402.321C297.779 403.564 297.816 404.893 297.145 405.943C296.474 406.992 295.162 407.545 293.907 407.806C291.315 408.34 288.313 407.837 286.642 405.781C285.361 404.21 285.094 402.054 285.33 400.017C285.529 398.346 285.952 396.39 284.752 395.203C284.442 394.886 284.038 394.663 283.752 394.321C283.13 393.563 283.23 392.421 283.565 391.489C284.002 390.598 284.33 389.657 284.541 388.687C284.591 388.228 292.956 389.01 293.727 389.389C294.777 389.905 294.615 390.768 294.932 391.812C295.374 393.265 296.219 394.576 296.753 395.967Z" fill="#3F3D56"/>
<path d="M298.289 306.733C299.93 307.795 300.564 309.882 300.818 311.82C301.521 317.13 300.29 322.497 300.197 327.858C300.11 335.367 302.285 343.014 300.427 350.287C299.314 354.635 300.259 359.604 299.215 363.996C298.904 365.3 298.333 366.53 298.034 367.834C297.413 370.661 298.065 373.617 298.942 376.381C299.221 377.126 299.399 377.906 299.47 378.698C299.428 379.918 299.118 381.114 298.562 382.201L294.834 391.015C294.417 392.003 292.776 392.165 291.726 392.295C289.75 392.531 287.544 392.699 285.971 391.475C284.399 390.251 284.02 388.202 283.777 386.289C283.312 382.616 283.105 378.915 283.156 375.214C283.224 374.248 283.138 373.277 282.901 372.338C282.559 371.276 281.807 370.356 281.602 369.232C281.341 367.778 282.081 366.35 282.354 364.884C282.542 363.545 282.521 362.185 282.292 360.853C282.05 358.865 281.77 356.877 281.453 354.902C281.005 352.138 281.646 349.411 282.074 346.641C282.478 344.038 281.963 341.386 281.453 338.802C281.497 340.899 281.235 342.992 280.676 345.014C280.347 346.001 279.874 346.945 279.588 347.952C278.314 352.467 281.03 357.207 280.645 361.884C280.465 364.07 279.607 366.232 279.85 368.387C280.017 369.965 280.751 371.412 281.254 372.915C281.758 374.419 282.019 376.139 281.254 377.543C279.234 381.357 280.744 386.543 282.553 390.456C282.92 391.15 283.24 391.868 283.51 392.606C284.045 394.37 283.597 396.264 283.74 398.103C283.22 398.188 282.686 398.153 282.181 398.001C281.676 397.85 281.212 397.585 280.825 397.227C280.552 396.941 280.328 396.606 280.061 396.308C279.314 395.596 278.43 395.045 277.463 394.686C276.895 394.369 276.248 394.22 275.599 394.258C274.916 394.449 274.301 394.83 273.827 395.357C273.213 395.897 272.561 396.394 271.876 396.842C271.584 397.066 271.243 397.217 270.881 397.283C270.7 397.311 270.513 397.281 270.349 397.197C270.185 397.114 270.052 396.981 269.968 396.817C269.929 396.713 269.906 396.604 269.9 396.494C269.669 394.618 269.546 392.731 269.533 390.842C269.533 387.593 265.642 385.357 265.151 382.146C264.76 379.555 265.487 376.915 265.245 374.307C265.127 372.965 264.754 371.648 264.778 370.307C264.778 369.437 264.977 368.586 265.046 367.723C265.103 366.764 265.088 365.803 265.002 364.847L264.81 361.847C264.623 358.884 264.418 355.859 263.25 353.151C261.864 349.988 261.044 346.608 260.826 343.163C260.702 340.989 260.782 338.815 260.534 336.634C260.31 334.665 259.813 332.709 259.956 330.733C260.074 329.205 260.577 327.727 260.695 326.199C260.938 323.261 259.819 320.404 258.943 317.59C258.066 314.776 257.42 311.658 258.57 308.944C258.734 308.498 259.008 308.101 259.365 307.788C259.806 307.497 260.308 307.31 260.832 307.242C271.495 305.003 282.425 304.307 293.286 305.173C295.057 305.274 296.775 305.809 298.289 306.733Z" fill="url(#paint2_linear)"/>
<path d="M263.007 240.761C268.506 240.761 272.963 236.306 272.963 230.81C272.963 225.314 268.506 220.859 263.007 220.859C257.508 220.859 253.051 225.314 253.051 230.81C253.051 236.306 257.508 240.761 263.007 240.761Z" fill="#BE6F72"/>
<path d="M261.081 243.24C261.224 243.809 261.224 244.404 261.081 244.973C260.924 245.371 260.704 245.74 260.428 246.066C259.465 247.309 258.398 248.468 257.24 249.532C257.83 250.849 258.892 251.898 260.217 252.47C261.533 253.03 262.913 253.424 264.325 253.644C265.03 253.83 265.764 253.88 266.488 253.793C267.155 253.626 267.787 253.34 268.352 252.949L273.884 249.638C274.718 249.186 275.491 248.629 276.183 247.98C277.198 246.937 277.772 245.545 277.787 244.091C277.812 243.831 277.742 243.57 277.588 243.358C277.376 243.174 277.11 243.063 276.829 243.041C274.884 242.613 273.349 241.035 272.479 239.246C271.693 237.412 271.184 235.472 270.969 233.488L265.071 236.594C264.195 237.06 263.325 237.526 262.417 237.929C261.839 238.19 260.671 238.408 260.261 238.936C259.478 239.911 260.876 242.066 261.081 243.24Z" fill="#BE6F72"/>
<path d="M257.278 247.723C256.438 248.411 255.782 249.296 255.37 250.3C254.984 251.543 255.37 252.853 255.718 254.083C257.349 259.325 258.595 264.679 259.446 270.102C259.969 273.829 260.161 277.612 260.416 281.382C260.938 289.072 261.696 301.333 262.709 308.974C266.438 309.141 270.074 308.054 273.772 307.657C280.683 306.924 287.799 308.601 294.567 307.036C292.926 300.557 291.285 289.494 289.645 283.022C288.919 280.472 288.415 277.864 288.141 275.227C287.998 273.332 288.085 271.432 288.109 269.525C288.165 265.798 287.96 262.071 287.755 258.344C287.519 253.996 287.283 249.648 286.251 245.393C286.179 244.851 285.925 244.35 285.53 243.971C284.909 243.517 284.101 243.679 283.361 243.778C281.097 244.066 278.805 243.523 276.91 242.25C276.09 241.691 274.99 241.008 274.225 241.629C273.899 242.004 273.684 242.462 273.604 242.952C273.266 243.831 272.744 244.627 272.073 245.288C271.402 245.949 270.597 246.459 269.713 246.785C267.942 247.426 266.088 247.806 264.207 247.915C263.632 248.039 263.032 247.971 262.498 247.723C261.615 247.182 261.553 245.238 260.441 245.108C259.465 244.996 257.936 247.095 257.278 247.723Z" fill="url(#paint3_linear)"/>
<path d="M271.982 262.893C269.689 260.7 268.682 257.52 267.01 254.818C265.872 253.001 264.418 251.403 262.716 250.098C261.86 249.533 261.076 248.868 260.379 248.116C259.789 247.389 259.341 246.42 258.446 246.141C258.077 246.06 257.693 246.071 257.328 246.172C256.963 246.272 256.628 246.46 256.352 246.719C255.804 247.24 255.285 247.792 254.798 248.371C252.163 251.098 247.533 251.476 245.445 254.632C244.881 255.301 244.499 256.103 244.332 256.961C243.731 261.554 244.919 266.202 247.651 269.943C248.18 270.81 248.992 271.469 249.951 271.807C249.821 272.965 249.974 274.137 250.398 275.223C251.549 279.154 252.963 283.003 254.63 286.745C254.232 288.209 253.953 289.702 253.798 291.211C253.363 295.006 253.767 298.857 253.356 302.659C253.021 305.764 252.113 308.789 252.082 311.901C252.082 312.398 252.126 312.988 252.555 313.243C252.783 313.36 253.038 313.414 253.294 313.398L260.939 313.628C265.376 313.759 269.857 313.889 274.226 313.069C274.808 312.983 275.372 312.805 275.898 312.541C277.377 311.715 277.868 309.852 278.104 308.193C278.412 306.042 278.535 303.868 278.471 301.696C279.397 304.622 280.497 307.647 283.293 308.914C284.773 309.585 286.463 309.535 288.085 309.491C291.581 309.336 295.065 308.977 298.52 308.417C298.733 308.443 298.949 308.419 299.151 308.347C299.353 308.275 299.535 308.157 299.683 308.002C299.831 307.847 299.941 307.659 300.003 307.454C300.066 307.249 300.079 307.032 300.042 306.82L300.08 303.429C300.154 296.54 298.445 289.956 297.78 283.099C297.569 280.937 297.588 278.751 297.059 276.633C296.842 275.745 296.525 274.875 296.332 273.981C296.166 273.105 296.063 272.219 296.021 271.328L295.537 264.496C295.307 261.334 294.977 258.284 294.735 255.129C294.602 252.056 294.156 249.005 293.405 246.023C292.864 244.159 291.739 242.048 289.794 241.818C288.756 241.7 287.749 242.153 286.761 242.47C284.332 243.234 281.726 243.223 279.303 242.439C278.555 242.143 277.775 241.935 276.979 241.818C276.578 241.763 276.17 241.816 275.797 241.971C275.423 242.126 275.098 242.378 274.854 242.7C274.612 243.185 274.499 243.724 274.524 244.265C274.232 250.47 273.691 256.862 271.982 262.893Z" fill="url(#paint4_linear)"/>
<path d="M261.981 263.08C259.116 260.062 256.177 256.987 252.485 255.068C251.031 254.31 249.378 253.738 247.768 254.024C246.158 254.31 244.661 255.707 244.735 257.341C244.785 258.353 245.4 259.248 245.593 260.242C245.816 261.36 245.493 262.552 245.841 263.633C246.124 264.345 246.547 264.994 247.084 265.54L251.484 270.751C253.349 272.925 255.213 275.131 257.612 276.634C260.011 278.137 263.119 278.839 265.754 277.77C267.629 276.899 269.187 275.469 270.216 273.677C271.31 271.938 272.081 270.037 273.106 268.242C274.702 265.374 276.808 262.821 279.321 260.708C278.028 260.372 276.406 259.9 275.592 258.844C275.36 258.508 275.162 258.151 275.002 257.776L273.995 255.602C273.652 255.584 273.31 255.637 272.989 255.758C272.668 255.879 272.376 256.065 272.13 256.304C271.698 256.802 271.236 257.273 270.744 257.714C269.868 258.372 268.681 258.552 267.885 259.304C267.578 259.626 267.299 259.976 267.053 260.347C266.451 261.138 265.687 261.79 264.813 262.262C263.938 262.733 262.973 263.012 261.981 263.08V263.08Z" fill="url(#paint5_linear)"/>
<path d="M279.55 250.091C281.707 246.16 281.608 241.445 282.223 237.004C282.289 235.828 282.702 234.697 283.41 233.755C284.653 232.351 286.847 232.333 288.724 232.513C289.277 232.575 289.967 232.836 289.935 233.389C289.892 233.587 289.795 233.769 289.656 233.917C287.837 236.263 286.767 239.103 286.586 242.066C287.561 242.743 289.072 241.352 290.01 242.066C290.632 242.588 290.346 243.619 289.973 244.364C289.107 246.091 288.214 247.806 287.294 249.507C286.56 251.008 285.602 252.388 284.454 253.601C283.665 254.359 282.739 254.955 281.937 255.7C280.072 257.446 278.948 259.912 277.021 261.614C276.858 261.79 276.638 261.902 276.399 261.93C276.154 261.913 275.923 261.809 275.747 261.638C274.784 260.856 273.986 259.891 273.398 258.8C272.664 257.446 272.776 257.048 273.932 256.092C276.095 254.383 278.202 252.551 279.55 250.091Z" fill="#BE6F72"/>
<path opacity="0.1" d="M256.42 270.968C256.399 271.109 256.412 271.254 256.457 271.39C256.502 271.526 256.579 271.649 256.681 271.75C256.861 270.868 256.625 269.936 256.812 269.048C257.085 267.713 258.384 266.706 258.496 265.365C256.115 264.899 256.439 269.526 256.42 270.968Z" fill="black"/>
<path opacity="0.2" d="M366.001 222.395V228.513L340.731 230.047L339.967 223.923L366.001 222.395Z" fill="black"/>
<path d="M254.044 232.29C255.623 231.004 254.709 228.308 255.778 226.582C256.4 225.637 257.45 225.141 258.482 224.718C259.727 224.136 261.061 223.766 262.428 223.625C263.113 223.559 263.804 223.648 264.449 223.886C265.095 224.124 265.679 224.504 266.157 224.998C266.561 225.457 266.835 226.016 267.214 226.495C267.683 227.053 268.295 227.473 268.985 227.712C269.674 227.95 270.415 227.997 271.129 227.849C271.956 227.662 272.813 227.035 272.757 226.19C272.664 225.676 272.402 225.209 272.012 224.861L270.234 222.892C268.214 220.656 265.971 218.283 263.006 217.724C260.943 217.333 258.83 217.886 256.841 218.55C256.039 218.817 255.138 219.215 254.915 220.028C254.765 220.588 254.989 221.196 254.859 221.761C254.604 222.886 253.162 223.265 252.491 224.209C251.82 225.153 252.025 226.271 251.832 227.315C251.639 228.358 251.08 229.377 251.012 230.458C250.968 231.11 251.297 232.321 252.031 232.557C252.764 232.793 253.591 231.513 254.044 232.29Z" fill="#3F3D56"/>
<path d="M272.156 225.294C271.632 222.561 270.502 219.98 268.85 217.741C267.38 215.649 265.336 214.026 262.964 213.07C261.779 212.607 260.503 212.418 259.234 212.518C257.965 212.618 256.735 213.004 255.637 213.648C254.006 214.811 252.738 216.411 251.976 218.263C250.367 221.729 249.77 225.965 251.641 229.294C252.387 228.387 253.667 228.797 254.798 228.468C256.215 228.064 257.414 227.12 258.763 226.53C262.834 224.735 267.806 226.188 272.156 225.294Z" fill="url(#paint6_linear)"/>
<path opacity="0.1" d="M252.59 225.103C252.447 223.985 252.354 222.687 253.149 221.892C253.189 221.843 253.239 221.804 253.296 221.778C253.354 221.752 253.416 221.74 253.479 221.742C253.534 221.76 253.585 221.79 253.629 221.828C253.673 221.867 253.709 221.913 253.734 221.966C254.193 222.69 254.584 223.456 254.902 224.252C254.439 224.145 253.954 224.18 253.511 224.352C253.068 224.523 252.686 224.824 252.416 225.215" fill="black"/>
<path opacity="0.1" d="M267.114 221.947L266.891 219.729C266.855 219.547 266.87 219.358 266.934 219.183C267.028 219.037 267.172 218.93 267.34 218.884C267.508 218.838 267.686 218.856 267.841 218.934C268.147 219.104 268.399 219.356 268.569 219.661C269.086 220.455 269.515 221.303 269.849 222.189C268.848 221.996 267.818 222.009 266.822 222.226" fill="black"/>
<path opacity="0.1" d="M272.678 311.945V317.014L268.396 317.3H245.873V311.945H272.678Z" fill="black"/>
<path d="M272.679 311.943V317.298H245.874L174.664 228.145V223.934H189.592L272.679 311.943Z" fill="#F1C0C0"/>
<path opacity="0.1" d="M272.679 311.943V317.298H245.874L174.664 228.145V223.934H189.592L272.679 311.943Z" fill="black"/>
<path opacity="0.1" d="M272.679 311.943V317.298H245.874L174.664 228.145V223.934L246.259 311.943H272.679Z" fill="black"/>
<path d="M183.997 401.301C184.044 401.553 184.038 401.812 183.981 402.061C183.923 402.311 183.814 402.546 183.661 402.752C183.508 402.958 183.315 403.13 183.092 403.257C182.87 403.385 182.624 403.465 182.369 403.494C180.641 404.077 178.808 404.655 177.583 405.978C176.359 407.301 176.117 409.755 177.583 410.829C178.333 411.281 179.194 411.516 180.069 411.506C182.885 411.699 185.818 411.662 188.372 410.469C190.2 409.624 191.921 408.183 193.929 408.314C194.966 408.376 196.073 408.86 196.999 408.388C197.925 407.916 198.186 406.599 198.192 405.5C198.216 403.205 197.869 400.921 197.167 398.736C197.073 398.437 193.121 398.208 192.648 398.114L187.857 397.493C186.949 397.375 184.992 396.692 184.277 397.45C183.562 398.208 183.997 400.4 183.997 401.301Z" fill="#3F3D56"/>
<path d="M212.592 385.798C212.795 386.917 213.124 388.009 213.574 389.053C214.239 390.742 215.09 392.538 216.719 393.357C218.198 394.097 220.012 393.83 221.516 393.128C222.144 392.868 222.694 392.451 223.114 391.916C223.599 391.071 223.816 390.099 223.735 389.127C223.735 386.724 223.592 384.239 222.492 382.102C221.548 380.239 219.901 378.636 219.876 376.574L214.214 377.667C213.911 377.697 213.622 377.811 213.381 377.997C213.202 378.185 213.077 378.419 213.021 378.674C212.416 380.998 212.271 383.418 212.592 385.798V385.798Z" fill="#3F3D56"/>
<path d="M144.981 326.79C144.745 328.79 144.844 330.933 145.888 332.659C146.933 334.386 149.133 335.529 151.034 334.84C151.132 334.815 151.223 334.771 151.303 334.71C151.383 334.649 151.45 334.573 151.5 334.486C151.551 334.276 151.522 334.054 151.42 333.864C150.58 331.625 150.649 329.147 151.612 326.957C151.737 326.672 152.004 326.336 152.296 326.448C152.418 326.51 152.516 326.61 152.576 326.734C152.877 327.254 153.027 327.847 153.011 328.448C152.923 328.992 152.906 329.546 152.961 330.094C153.079 330.628 153.651 331.131 154.148 330.902C154.292 330.813 154.416 330.697 154.513 330.559C154.61 330.421 154.679 330.265 154.714 330.1C156.099 326.094 155.472 321.715 154.838 317.522C154.843 317.426 154.827 317.33 154.791 317.24C154.755 317.151 154.7 317.07 154.629 317.005C154.559 316.939 154.475 316.889 154.383 316.86C154.291 316.83 154.194 316.821 154.098 316.833C151.165 316.541 149.561 315.839 147.883 318.566C146.442 320.864 144.981 324.026 144.981 326.79Z" fill="#FBBEBE"/>
<path d="M179.275 316.596C178.405 320.211 177.529 323.87 177.473 327.584C177.488 329.898 177.662 332.208 177.995 334.498L178.647 339.877C178.871 341.69 179.089 343.498 179.405 345.293C179.608 346.218 179.718 347.16 179.735 348.107C179.674 349.04 179.526 349.965 179.294 350.871C178.903 352.773 178.684 354.706 178.641 356.648C178.573 359.753 178.958 362.859 179.2 365.965C179.684 372.154 179.611 378.373 178.983 384.549C178.732 386.216 179.094 387.918 180.002 389.338C180.371 389.786 180.674 390.284 180.903 390.817C181.369 392.239 180.282 393.661 180.002 395.121C179.823 396.259 180.104 397.422 180.782 398.354C181.46 399.285 182.481 399.91 183.619 400.09C188.591 400.68 193.7 400.413 198.181 402.687C198.653 401.308 197.621 399.742 198.094 398.339C198.392 397.469 199.212 396.904 199.772 396.171C200.523 395.054 200.898 393.727 200.841 392.382C200.863 390.627 200.55 388.884 199.921 387.245C199.393 385.879 198.634 384.531 198.678 383.065C198.678 382.344 198.933 381.586 198.641 380.922C198.44 380.54 198.168 380.2 197.839 379.922C195.981 377.888 194.84 375.303 194.588 372.561C194.346 369.84 194.434 367.1 194.849 364.399C195.154 361.828 195.564 359.113 197.199 357.107C196.441 351.024 196.886 344.851 198.51 338.939C198.672 338.392 198.926 337.759 199.486 337.628C199.708 337.605 199.932 337.636 200.14 337.719C200.348 337.801 200.533 337.932 200.679 338.1C201.655 339.013 202.121 340.336 202.543 341.603C203.01 342.976 203.482 344.442 203.128 345.846C202.978 346.467 202.68 347.014 202.506 347.61C202.128 348.808 202.194 350.102 202.693 351.256C202.936 351.678 203.088 352.145 203.14 352.629C203.082 353.044 202.956 353.447 202.767 353.821C202.537 354.556 202.463 355.332 202.552 356.097C202.641 356.862 202.89 357.6 203.283 358.262C204.075 359.582 205.053 360.78 206.185 361.822C205.644 364.206 205.784 366.694 206.589 369.002C206.647 369.106 206.684 369.22 206.698 369.339C206.712 369.457 206.703 369.577 206.67 369.692C206.558 369.928 206.272 370.015 206.049 370.182C205.427 370.692 205.812 371.654 206.229 372.319C207.37 374.143 208.63 375.89 210.001 377.549C211.244 379.034 211.132 381.897 212.984 382.431C213.763 382.599 214.568 382.599 215.346 382.431C217.173 382.152 219.212 381.624 220.107 380.009C220.473 379.344 220.623 378.537 221.194 378.04C221.766 377.543 222.506 377.456 222.823 376.86C223.14 376.263 222.785 375.481 222.891 374.791C222.997 374.102 223.599 373.549 223.792 372.822C224.252 371.145 222.294 369.766 222.027 368.052C221.642 365.567 224.774 363.704 224.644 361.219C224.37 355.821 224.196 350.399 223.916 345.001C223.565 340.166 223.516 335.314 223.767 330.473C223.985 327.46 224.389 324.305 223.282 321.503C221.691 317.553 217.304 315.335 213.059 314.913C208.814 314.49 204.582 315.497 200.374 316.155C193.391 317.231 186.297 317.379 179.275 316.596V316.596Z" fill="url(#paint7_linear)"/>
<path d="M191.89 257.23C197.389 257.23 201.846 252.774 201.846 247.279C201.846 241.783 197.389 237.328 191.89 237.328C186.391 237.328 181.934 241.783 181.934 247.279C181.934 252.774 186.391 257.23 191.89 257.23Z" fill="#FBBEBE"/>
<path d="M187.839 259.085C187.501 259.872 186.932 260.539 186.208 260.997C185.483 261.455 184.637 261.683 183.781 261.651C183.42 263.141 184.284 264.645 185.272 265.819C187.324 268.205 189.976 270.001 192.954 271.022C195.932 272.043 199.129 272.252 202.214 271.626C203.415 271.411 204.554 270.936 205.551 270.235C206.896 269.113 207.799 267.55 208.1 265.825C208.386 264.112 208.467 262.371 208.342 260.638C208.377 260.296 208.279 259.954 208.068 259.682C207.82 259.489 207.513 259.388 207.198 259.396C205.098 259.21 202.904 259.129 201.058 258.098C199.212 257.067 197.901 254.737 198.79 252.824C198.647 253.122 195.017 253.265 194.539 253.327C193.041 253.539 191.543 253.775 190.052 254.048C189.335 254.087 188.626 254.221 187.945 254.445C187.044 254.911 187.379 254.681 187.59 255.526C187.907 256.818 188.374 257.744 187.839 259.085Z" fill="#FBBEBE"/>
<path d="M195.414 265.133C194.073 265.149 192.735 265.001 191.43 264.692C190.112 264.385 188.951 263.61 188.161 262.512C187.701 261.816 187.403 260.94 186.67 260.549C185.47 259.928 184.103 260.978 183.146 261.94C182.274 262.89 181.264 263.702 180.15 264.35C178.82 265.052 177.266 265.301 176.011 266.127C175.03 266.868 174.189 267.776 173.525 268.81L164.719 280.798C161.182 285.618 158.106 290.793 154.955 295.88C152.227 300.284 150.797 305.352 148.74 310.104C148.577 310.395 148.51 310.729 148.547 311.061C148.622 311.384 149.014 311.644 149.287 311.458C148.361 312.377 149.175 313.943 148.958 315.235C148.71 316.139 148.195 316.946 147.479 317.551C148.846 317.373 150.235 317.438 151.58 317.744C152.971 318.138 154.282 318.768 155.458 319.607C156.21 319.489 156.142 318.154 156.701 317.657C157.037 317.365 157.534 317.402 157.975 317.315C159.635 316.992 160.294 314.999 161.568 313.874C162.63 312.936 164.134 312.632 165.259 311.75C167.086 310.315 167.478 307.762 168.435 305.644C169.249 303.849 170.529 302.284 171.244 300.445C171.71 299.253 171.934 297.961 172.599 296.861C173.662 295.085 175.663 294.141 177.571 293.29C178.777 292.749 180.057 292.19 181.356 292.277C181.287 295.165 180.921 298.01 181.548 300.83C181.766 301.824 182.071 302.793 182.332 303.781C183.519 308.228 183.798 312.862 183.854 317.446C186.71 316.793 189.626 316.443 192.555 316.402C194.861 316.334 197.16 316.632 199.466 316.589C202.2 316.539 204.904 316.011 207.638 315.825C210.373 315.638 213.232 315.825 215.649 317.067C215.453 313.13 215.563 309.185 215.979 305.265L216.638 299.091C216.786 297.297 217.063 295.516 217.464 293.762C217.825 292.345 218.347 290.979 218.744 289.569C220.143 284.6 219.888 279.295 219.621 274.121C219.484 271.463 218.459 268.848 217.253 266.481C216.817 265.602 216.318 264.755 215.761 263.947C214.304 261.94 212.363 260.336 210.117 259.282C207.872 258.229 205.397 257.761 202.921 257.922C202.605 257.931 202.294 257.999 202.002 258.12C201.477 258.456 201.067 258.944 200.827 259.518C199.541 261.828 197.676 263.763 195.414 265.133Z" fill="url(#paint8_linear)"/>
<path d="M183.134 250.575C183.413 249.954 184.165 249.724 184.625 249.227C185.508 248.283 185.11 246.774 185.247 245.5C185.47 243.637 187.018 242.078 188.789 241.413C190.595 240.834 192.517 240.712 194.382 241.059C195.28 241.125 196.147 241.413 196.906 241.898C197.229 242.134 197.527 242.438 197.832 242.656C198.387 242.991 199.051 243.096 199.683 242.949C200.314 242.801 200.863 242.413 201.213 241.867C199.013 239.221 196.576 236.426 193.233 235.612C192.086 235.378 190.917 235.267 189.746 235.283C188.199 235.252 186.601 235.227 185.172 235.817C183.227 236.618 181.859 238.463 181.157 240.451C180.543 242.465 180.215 244.556 180.181 246.662C180.054 248.067 180.054 249.481 180.181 250.886C180.422 252.805 181.135 254.634 182.257 256.209C182.409 256.454 182.624 256.653 182.879 256.787C185.713 258.029 182.904 251.091 183.134 250.575Z" fill="#3F3D56"/>
<path d="M200.89 240.331C200.548 237.405 198.46 234.989 196.241 233.045C194.453 231.359 192.323 230.078 189.995 229.287C187.652 228.598 184.955 228.747 182.948 230.144C181.332 231.268 180.306 233.057 179.517 234.859C178.48 236.984 177.967 239.327 178.019 241.691C178.175 244.039 179.318 246.418 181.357 247.605C182.09 246.524 183.364 245.965 184.588 245.524C189.925 243.5 195.366 241.767 200.89 240.331V240.331Z" fill="url(#paint9_linear)"/>
<path opacity="0.1" d="M182.039 239.114C182.238 239.114 182.369 239.319 182.468 239.486C182.974 240.274 183.409 241.106 183.767 241.971C183.04 242.126 181.791 242.3 181.43 241.66C181.237 241.337 181.467 239.083 182.039 239.114Z" fill="black"/>
<path opacity="0.1" d="M196.203 237.712C196.054 237.855 195.88 237.563 195.88 237.351V234.941C195.875 234.874 195.891 234.808 195.923 234.749C195.949 234.719 195.98 234.695 196.016 234.678C196.051 234.661 196.089 234.651 196.128 234.649C196.632 234.594 197.048 235.022 197.371 235.432C197.862 236.097 198.288 236.806 198.645 237.55L196.016 237.469" fill="black"/>
<path d="M229.011 277.619C229.583 277.076 230.194 276.576 230.839 276.122C232.56 274.973 234.642 274.519 236.575 273.787C238.508 273.054 240.472 271.867 241.224 269.942C241.6 268.738 241.723 267.469 241.584 266.215C241.602 265.69 241.509 265.167 241.311 264.681C241.074 264.251 240.737 263.884 240.329 263.612C237.706 261.674 234.188 261.519 230.932 261.718C223.752 262.163 216.715 263.918 210.168 266.898C209.822 267.012 209.518 267.229 209.298 267.519C209.17 267.788 209.113 268.085 209.13 268.383C209.014 270.214 209.253 272.051 209.832 273.793C210.69 276.004 212.455 277.787 213.195 280.041C213.53 281.054 213.642 282.128 213.934 283.147C214.174 284.199 214.796 285.125 215.68 285.744C218.135 287.209 220.454 285.24 222.156 283.712L229.011 277.619Z" fill="url(#paint10_linear)"/>
<path d="M196.863 286.222L193.712 279.352C193.25 278.4 192.851 277.419 192.518 276.414C192.158 275.215 191.984 273.973 191.648 272.768C190.542 268.756 187.752 265.414 186.391 261.482C186.304 261.127 186.129 260.8 185.881 260.532C185.682 260.391 185.455 260.296 185.216 260.253C184.976 260.21 184.73 260.22 184.495 260.283C182.593 260.612 181.108 262.06 179.368 262.88C178.56 263.252 177.69 263.501 176.882 263.929C176.478 264.12 176.12 264.396 175.833 264.738C175.545 265.08 175.335 265.48 175.216 265.911C175.024 266.861 175.496 267.774 175.894 268.7C177.584 272.513 177.969 276.775 178.044 280.949C178.1 283.756 177.957 286.769 176.298 289.023C173.109 293.371 175.148 299.757 176.341 305.018C176.484 305.639 176.652 306.31 176.751 306.968C176.856 307.792 176.904 308.622 176.894 309.453C176.894 312.242 176.739 315.118 175.57 317.646C176.724 318.259 177.995 318.619 179.299 318.702C182.908 319.161 186.531 319.484 190.169 319.671C191.309 319.778 192.458 319.719 193.581 319.497C194.915 319.137 196.09 318.343 196.922 317.24C197.754 316.138 198.194 314.79 198.174 313.41C198.373 315.13 198.739 317 199.989 318.192C201.238 319.385 203.059 319.565 204.755 319.658C209.544 319.912 214.345 319.777 219.112 319.255C219.416 319.241 219.715 319.171 219.994 319.05C220.914 318.59 220.964 317.323 220.889 316.304C220.753 314.397 220.61 312.49 220.38 310.596C220.185 309.388 220.085 308.167 220.081 306.943C220.176 305.685 220.384 304.438 220.703 303.217C221.536 299.341 222.194 295.384 221.915 291.415C221.804 290.448 221.765 289.474 221.797 288.502C221.958 286.309 223.114 284.222 222.897 282.042C222.275 275.632 221.772 269.054 219.982 262.867C219.659 261.761 219.249 260.575 218.285 259.942C217.042 259.109 215.296 259.544 213.873 259.016C213.205 258.705 212.57 258.329 211.977 257.892C210.689 257.087 209.213 256.633 207.695 256.575C206.552 256.531 205.278 256.786 204.588 257.705C204.268 258.223 204.057 258.8 203.966 259.401C203.065 263.19 202.008 266.936 200.952 270.681L199.939 274.271L197.223 283.911C196.956 284.936 197.136 285.253 196.863 286.222Z" fill="url(#paint11_linear)"/>
<path d="M212.753 248.613L272.869 311.753V317.107H246.065L200.889 258.179" fill="#F1C0C0"/>
<path opacity="0.1" d="M212.753 248.613L272.869 311.753V317.107H246.065L200.889 258.179" fill="black"/>
<path opacity="0.1" d="M201.846 257.348L202.038 257.416L246.45 311.754H272.869V317.108H246.065L200.889 258.18L201.846 257.348Z" fill="black"/>
<path d="M208.764 258.674C206.589 259.624 204.172 260.842 203.519 263.127C203.39 263.529 203.362 263.955 203.438 264.37C203.597 264.857 203.9 265.285 204.307 265.596C204.715 265.908 205.207 266.089 205.719 266.115C206.742 266.14 207.76 265.954 208.708 265.569L221.542 261.332C221.89 261.221 222.288 261.053 222.375 260.711C222.397 260.496 222.354 260.28 222.251 260.09C221.853 259.121 221.461 257.14 220.629 256.463C219.945 255.916 218.59 256.109 217.763 256.121C214.581 256.146 211.592 257.432 208.764 258.674Z" fill="#FBBEBE"/>
<path d="M220.206 261.838C222.368 261.832 224.517 262.165 226.576 262.826C228.644 263.497 230.475 264.747 231.852 266.428C232.253 266.898 232.539 267.456 232.685 268.056C232.809 268.677 234.835 269.05 234.388 269.472C235.749 269.254 235.426 269.894 236.806 269.882C238.185 269.869 239.677 269.515 240.503 268.416C241.078 267.513 241.334 266.444 241.231 265.379C241.249 264.641 241.109 263.908 240.82 263.229C240.199 261.925 238.769 261.223 237.452 260.621L226.352 255.546C225.708 255.204 225.017 254.959 224.301 254.819C223.699 254.762 223.092 254.777 222.493 254.863L217.465 255.44C218.564 256.151 219.46 257.137 220.062 258.299C220.665 259.461 220.954 260.76 220.902 262.068" fill="url(#paint12_linear)"/>
</g>
<defs>
<linearGradient id="paint0_linear" x1="317.034" y1="269.154" x2="291.008" y2="268.762" gradientUnits="userSpaceOnUse">
<stop stop-color="#0354A8"/>
<stop offset="0.583333" stop-color="#0A1472"/>
<stop offset="1" stop-color="#0D005F"/>
</linearGradient>
<linearGradient id="paint1_linear" x1="318.1" y1="269.977" x2="302.275" y2="269.795" gradientUnits="userSpaceOnUse">
<stop stop-color="#0354A8"/>
<stop offset="0.583333" stop-color="#0A1472"/>
<stop offset="1" stop-color="#0D005F"/>
</linearGradient>
<linearGradient id="paint2_linear" x1="301.18" y1="390.261" x2="259.415" y2="389.958" gradientUnits="userSpaceOnUse">
<stop stop-color="#0354A8"/>
<stop offset="0.583333" stop-color="#0A1472"/>
<stop offset="1" stop-color="#0D005F"/>
</linearGradient>
<linearGradient id="paint3_linear" x1="294.567" y1="303.278" x2="256.543" y2="302.931" gradientUnits="userSpaceOnUse">
<stop stop-color="#0354A8"/>
<stop offset="0.583333" stop-color="#0A1472"/>
<stop offset="1" stop-color="#0D005F"/>
</linearGradient>
<linearGradient id="paint4_linear" x1="272.131" y1="241.797" x2="272.131" y2="313.725" gradientUnits="userSpaceOnUse">
<stop stop-color="#FEE140"/>
<stop offset="1" stop-color="#FF7B00"/>
</linearGradient>
<linearGradient id="paint5_linear" x1="279.321" y1="276.228" x2="245.918" y2="275.485" gradientUnits="userSpaceOnUse">
<stop stop-color="#0354A8"/>
<stop offset="0.583333" stop-color="#0A1472"/>
<stop offset="1" stop-color="#0D005F"/>
</linearGradient>
<linearGradient id="paint6_linear" x1="261.318" y1="212.492" x2="261.318" y2="229.294" gradientUnits="userSpaceOnUse">
<stop stop-color="#FEE140"/>
<stop offset="1" stop-color="#FF7B00"/>
</linearGradient>
<linearGradient id="paint7_linear" x1="224.647" y1="395.261" x2="179.071" y2="394.878" gradientUnits="userSpaceOnUse">
<stop stop-color="#0354A8"/>
<stop offset="0.583333" stop-color="#0A1472"/>
<stop offset="1" stop-color="#0D005F"/>
</linearGradient>
<linearGradient id="paint8_linear" x1="219.831" y1="314.392" x2="149.948" y2="313.109" gradientUnits="userSpaceOnUse">
<stop stop-color="#0354A8"/>
<stop offset="0.583333" stop-color="#0A1472"/>
<stop offset="1" stop-color="#0D005F"/>
</linearGradient>
<linearGradient id="paint9_linear" x1="189.453" y1="228.887" x2="189.453" y2="247.605" gradientUnits="userSpaceOnUse">
<stop stop-color="#FEE140"/>
<stop offset="1" stop-color="#FF7B00"/>
</linearGradient>
<linearGradient id="paint10_linear" x1="241.639" y1="284.18" x2="210.215" y2="283.529" gradientUnits="userSpaceOnUse">
<stop stop-color="#0354A8"/>
<stop offset="0.583333" stop-color="#0A1472"/>
<stop offset="1" stop-color="#0D005F"/>
</linearGradient>
<linearGradient id="paint11_linear" x1="198.758" y1="256.57" x2="198.758" y2="319.783" gradientUnits="userSpaceOnUse">
<stop stop-color="#FEE140"/>
<stop offset="1" stop-color="#FF7B00"/>
</linearGradient>
<linearGradient id="paint12_linear" x1="241.253" y1="268.606" x2="218.283" y2="268.04" gradientUnits="userSpaceOnUse">
<stop stop-color="#0354A8"/>
<stop offset="0.583333" stop-color="#0A1472"/>
<stop offset="1" stop-color="#0D005F"/>
</linearGradient>
<clipPath id="clip0">
<rect width="732" height="450" fill="white"/>
</clipPath>
</defs>
</svg>
