<svg width="48" height="48" viewBox="0 0 48 48" fill="none" xmlns="http://www.w3.org/2000/svg">
<circle cx="24" cy="24" r="24" fill="#0038FD" fill-opacity="0.05"/>
<path d="M33.4758 16.9414H31.0989C30.5819 16.9414 30.0903 17.1807 29.7862 17.5909L21.8193 28.2376L18.2108 23.4124C17.9068 23.0071 17.4202 22.7629 16.8982 22.7629H14.5213C14.1919 22.7629 13.9993 23.1243 14.1919 23.3831L20.5067 31.8223C20.6558 32.0229 20.8525 32.1864 21.0803 32.2992C21.3082 32.412 21.5606 32.4708 21.8168 32.4708C22.0729 32.4708 22.3253 32.412 22.5532 32.2992C22.781 32.1864 22.9777 32.0229 23.1268 31.8223L33.8001 17.5616C33.9978 17.3028 33.8052 16.9414 33.4758 16.9414Z" fill="#0D065F"/>
</svg>
