<svg width="21" height="21" viewBox="0 0 21 21" fill="none" xmlns="http://www.w3.org/2000/svg">
<g clip-path="url(#clip0)">
<path d="M19.3948 20.8299C20.0181 20.8299 20.5236 20.3245 20.5236 19.701V1.50577C20.5236 0.882282 20.0181 0.376953 19.3948 0.376953H1.19962C0.57605 0.376953 0.0708008 0.882282 0.0708008 1.50577V19.701C0.0708008 20.3245 0.57605 20.8299 1.19962 20.8299H19.3948Z" fill="#395185"/>
<path d="M14.1828 20.8306V12.9102H16.8414L17.2394 9.82347H14.1828V7.85265C14.1828 6.95896 14.431 6.34993 15.7126 6.34993L17.3471 6.34921V3.58848C17.0643 3.55085 16.0941 3.4668 14.9653 3.4668C12.6086 3.4668 10.9953 4.90529 10.9953 7.54706V9.82347H8.32983V12.9102H10.9953V20.8306H14.1828Z" fill="white"/>
</g>
<defs>
<clipPath id="clip0">
<rect width="20.4528" height="20.4528" fill="white" transform="translate(0.0708008 0.376953)"/>
</clipPath>
</defs>
</svg>
