<svg width="27" height="21" viewBox="0 0 27 21" fill="none" xmlns="http://www.w3.org/2000/svg">
<g clip-path="url(#clip0)">
<path d="M6.62176 20.0135V10.1868L3.55833 7.39874L0.811279 5.85156V18.2793C0.811279 19.2389 1.59274 20.0135 2.55446 20.0135H6.62176Z" fill="#4285F4"/>
<path d="M20.5669 20.0134H24.6342C25.5988 20.0134 26.3774 19.2359 26.3774 18.2792V5.85156L23.2659 7.62367L20.5669 10.1867V20.0134Z" fill="#34A853"/>
<path d="M6.62168 10.1883L6.20483 6.34868L6.62168 2.67383L13.5942 7.87619L20.5668 2.67383L21.0331 6.15028L20.5668 10.1883L13.5942 15.3906L6.62168 10.1883Z" fill="#EA4335"/>
<path d="M20.5669 2.67258V10.187L26.3774 5.85178V3.53961C26.3774 1.39514 23.9166 0.172642 22.1939 1.45873L20.5669 2.67258Z" fill="#FBBC04"/>
<path d="M0.811279 5.85183L3.48363 7.84578L6.62176 10.1871V2.67263L4.99472 1.45877C3.26901 0.172588 0.811279 1.39519 0.811279 3.53956V5.85173V5.85183Z" fill="#C5221F"/>
</g>
<defs>
<clipPath id="clip0">
<rect width="25.566" height="19.1745" fill="white" transform="translate(0.811279 0.933594)"/>
</clipPath>
</defs>
</svg>
