<svg width="1500" height="1194" viewBox="0 0 1500 1194" fill="none" xmlns="http://www.w3.org/2000/svg">
<rect width="1500" height="1194" fill="url(#paint0_linear)"/>
<ellipse cx="540.514" cy="571.567" rx="2.9282" ry="2.91267" transform="rotate(90 540.514 571.567)" fill="#053F7C" fill-opacity="0.5"/>
<ellipse cx="540.515" cy="614.514" rx="2.9282" ry="2.91267" transform="rotate(90 540.515 614.514)" fill="#053F7C" fill-opacity="0.5"/>
<ellipse cx="540.515" cy="657.461" rx="2.9282" ry="2.91267" transform="rotate(90 540.515 657.461)" fill="#053F7C" fill-opacity="0.5"/>
<ellipse cx="540.515" cy="700.408" rx="2.9282" ry="2.91267" transform="rotate(90 540.515 700.408)" fill="#053F7C" fill-opacity="0.5"/>
<ellipse cx="540.515" cy="743.355" rx="2.9282" ry="2.91267" transform="rotate(90 540.515 743.355)" fill="#053F7C" fill-opacity="0.5"/>
<ellipse cx="497.796" cy="571.566" rx="2.9282" ry="2.91267" transform="rotate(90 497.796 571.566)" fill="#053F7C" fill-opacity="0.5"/>
<ellipse cx="497.795" cy="614.513" rx="2.9282" ry="2.91267" transform="rotate(90 497.795 614.513)" fill="#053F7C" fill-opacity="0.5"/>
<ellipse cx="497.796" cy="657.46" rx="2.9282" ry="2.91267" transform="rotate(90 497.796 657.46)" fill="#053F7C" fill-opacity="0.5"/>
<ellipse cx="497.795" cy="700.407" rx="2.9282" ry="2.91267" transform="rotate(90 497.795 700.407)" fill="#053F7C" fill-opacity="0.5"/>
<ellipse cx="497.796" cy="743.354" rx="2.9282" ry="2.91267" transform="rotate(90 497.796 743.354)" fill="#053F7C" fill-opacity="0.5"/>
<ellipse cx="455.077" cy="571.566" rx="2.9282" ry="2.91267" transform="rotate(90 455.077 571.566)" fill="#053F7C" fill-opacity="0.5"/>
<ellipse cx="455.077" cy="614.513" rx="2.9282" ry="2.91267" transform="rotate(90 455.077 614.513)" fill="#053F7C" fill-opacity="0.5"/>
<ellipse cx="455.077" cy="657.46" rx="2.9282" ry="2.91267" transform="rotate(90 455.077 657.46)" fill="#053F7C" fill-opacity="0.5"/>
<ellipse cx="455.077" cy="700.407" rx="2.9282" ry="2.91267" transform="rotate(90 455.077 700.407)" fill="#053F7C" fill-opacity="0.5"/>
<ellipse cx="455.077" cy="743.354" rx="2.9282" ry="2.91267" transform="rotate(90 455.077 743.354)" fill="#053F7C" fill-opacity="0.5"/>
<ellipse cx="412.357" cy="571.566" rx="2.9282" ry="2.91267" transform="rotate(90 412.357 571.566)" fill="#053F7C" fill-opacity="0.5"/>
<ellipse cx="412.357" cy="614.513" rx="2.9282" ry="2.91267" transform="rotate(90 412.357 614.513)" fill="#053F7C" fill-opacity="0.5"/>
<ellipse cx="412.357" cy="657.46" rx="2.9282" ry="2.91267" transform="rotate(90 412.357 657.46)" fill="#053F7C" fill-opacity="0.5"/>
<ellipse cx="412.357" cy="700.407" rx="2.9282" ry="2.91267" transform="rotate(90 412.357 700.407)" fill="#053F7C" fill-opacity="0.5"/>
<ellipse cx="412.357" cy="743.354" rx="2.9282" ry="2.91267" transform="rotate(90 412.357 743.354)" fill="#053F7C" fill-opacity="0.5"/>
<ellipse cx="369.638" cy="571.566" rx="2.9282" ry="2.91267" transform="rotate(90 369.638 571.566)" fill="#053F7C" fill-opacity="0.5"/>
<ellipse cx="369.638" cy="614.513" rx="2.9282" ry="2.91267" transform="rotate(90 369.638 614.513)" fill="#053F7C" fill-opacity="0.5"/>
<ellipse cx="369.638" cy="657.46" rx="2.9282" ry="2.91267" transform="rotate(90 369.638 657.46)" fill="#053F7C" fill-opacity="0.5"/>
<ellipse cx="369.638" cy="700.407" rx="2.9282" ry="2.91267" transform="rotate(90 369.638 700.407)" fill="#053F7C" fill-opacity="0.5"/>
<ellipse cx="369.638" cy="743.354" rx="2.9282" ry="2.91267" transform="rotate(90 369.638 743.354)" fill="#053F7C" fill-opacity="0.5"/>
<ellipse cx="326.919" cy="571.566" rx="2.9282" ry="2.91267" transform="rotate(90 326.919 571.566)" fill="#053F7C" fill-opacity="0.5"/>
<ellipse cx="326.919" cy="614.513" rx="2.9282" ry="2.91267" transform="rotate(90 326.919 614.513)" fill="#053F7C" fill-opacity="0.5"/>
<ellipse cx="326.919" cy="657.46" rx="2.9282" ry="2.91267" transform="rotate(90 326.919 657.46)" fill="#053F7C" fill-opacity="0.5"/>
<ellipse cx="326.919" cy="700.407" rx="2.9282" ry="2.91267" transform="rotate(90 326.919 700.407)" fill="#053F7C" fill-opacity="0.5"/>
<ellipse cx="326.919" cy="743.354" rx="2.9282" ry="2.91267" transform="rotate(90 326.919 743.354)" fill="#053F7C" fill-opacity="0.5"/>
<ellipse cx="284.2" cy="571.566" rx="2.9282" ry="2.91267" transform="rotate(90 284.2 571.566)" fill="#053F7C" fill-opacity="0.5"/>
<ellipse cx="284.2" cy="614.513" rx="2.9282" ry="2.91267" transform="rotate(90 284.2 614.513)" fill="#053F7C" fill-opacity="0.5"/>
<ellipse cx="284.2" cy="657.46" rx="2.9282" ry="2.91267" transform="rotate(90 284.2 657.46)" fill="#053F7C" fill-opacity="0.5"/>
<ellipse cx="284.2" cy="700.407" rx="2.9282" ry="2.91267" transform="rotate(90 284.2 700.407)" fill="#053F7C" fill-opacity="0.5"/>
<ellipse cx="284.2" cy="743.354" rx="2.9282" ry="2.91267" transform="rotate(90 284.2 743.354)" fill="#053F7C" fill-opacity="0.5"/>
<ellipse cx="241.481" cy="571.566" rx="2.9282" ry="2.91267" transform="rotate(90 241.481 571.566)" fill="#053F7C" fill-opacity="0.5"/>
<ellipse cx="241.481" cy="614.513" rx="2.9282" ry="2.91267" transform="rotate(90 241.481 614.513)" fill="#053F7C" fill-opacity="0.5"/>
<ellipse cx="241.481" cy="657.46" rx="2.9282" ry="2.91267" transform="rotate(90 241.481 657.46)" fill="#053F7C" fill-opacity="0.5"/>
<ellipse cx="241.481" cy="700.407" rx="2.9282" ry="2.91267" transform="rotate(90 241.481 700.407)" fill="#053F7C" fill-opacity="0.5"/>
<ellipse cx="241.481" cy="743.354" rx="2.9282" ry="2.91267" transform="rotate(90 241.481 743.354)" fill="#053F7C" fill-opacity="0.5"/>
<ellipse cx="198.761" cy="571.566" rx="2.9282" ry="2.91267" transform="rotate(90 198.761 571.566)" fill="#053F7C" fill-opacity="0.5"/>
<ellipse cx="198.761" cy="614.513" rx="2.9282" ry="2.91267" transform="rotate(90 198.761 614.513)" fill="#053F7C" fill-opacity="0.5"/>
<ellipse cx="198.761" cy="657.46" rx="2.9282" ry="2.91267" transform="rotate(90 198.761 657.46)" fill="#053F7C" fill-opacity="0.5"/>
<ellipse cx="198.761" cy="700.407" rx="2.9282" ry="2.91267" transform="rotate(90 198.761 700.407)" fill="#053F7C" fill-opacity="0.5"/>
<ellipse cx="198.761" cy="743.354" rx="2.9282" ry="2.91267" transform="rotate(90 198.761 743.354)" fill="#053F7C" fill-opacity="0.5"/>
<ellipse cx="156.043" cy="571.566" rx="2.9282" ry="2.91267" transform="rotate(90 156.043 571.566)" fill="#053F7C" fill-opacity="0.5"/>
<ellipse cx="156.043" cy="614.513" rx="2.9282" ry="2.91267" transform="rotate(90 156.043 614.513)" fill="#053F7C" fill-opacity="0.5"/>
<ellipse cx="156.043" cy="657.46" rx="2.9282" ry="2.91267" transform="rotate(90 156.043 657.46)" fill="#053F7C" fill-opacity="0.5"/>
<ellipse cx="156.043" cy="700.407" rx="2.9282" ry="2.91267" transform="rotate(90 156.043 700.407)" fill="#053F7C" fill-opacity="0.5"/>
<ellipse cx="156.043" cy="743.354" rx="2.9282" ry="2.91267" transform="rotate(90 156.043 743.354)" fill="#053F7C" fill-opacity="0.5"/>
<ellipse cx="1346.92" cy="484.144" rx="2.9282" ry="2.91267" transform="rotate(90 1346.92 484.144)" fill="#FD8323"/>
<ellipse cx="1346.92" cy="527.091" rx="2.9282" ry="2.91267" transform="rotate(90 1346.92 527.091)" fill="#FD8323"/>
<ellipse cx="1346.92" cy="570.038" rx="2.9282" ry="2.91267" transform="rotate(90 1346.92 570.038)" fill="#FD8323"/>
<ellipse cx="1346.92" cy="612.984" rx="2.9282" ry="2.91267" transform="rotate(90 1346.92 612.984)" fill="#FD8323"/>
<ellipse cx="1346.92" cy="655.932" rx="2.9282" ry="2.91267" transform="rotate(90 1346.92 655.932)" fill="#FD8323"/>
<ellipse cx="1304.2" cy="484.144" rx="2.9282" ry="2.91267" transform="rotate(90 1304.2 484.144)" fill="#FD8323"/>
<ellipse cx="1304.2" cy="527.091" rx="2.9282" ry="2.91267" transform="rotate(90 1304.2 527.091)" fill="#FD8323"/>
<ellipse cx="1304.2" cy="570.038" rx="2.9282" ry="2.91267" transform="rotate(90 1304.2 570.038)" fill="#FD8323"/>
<ellipse cx="1304.2" cy="612.984" rx="2.9282" ry="2.91267" transform="rotate(90 1304.2 612.984)" fill="#FD8323"/>
<ellipse cx="1304.2" cy="655.932" rx="2.9282" ry="2.91267" transform="rotate(90 1304.2 655.932)" fill="#FD8323"/>
<ellipse cx="1261.48" cy="484.144" rx="2.9282" ry="2.91267" transform="rotate(90 1261.48 484.144)" fill="#FD8323"/>
<ellipse cx="1261.48" cy="527.091" rx="2.9282" ry="2.91267" transform="rotate(90 1261.48 527.091)" fill="#FD8323"/>
<ellipse cx="1261.48" cy="570.038" rx="2.9282" ry="2.91267" transform="rotate(90 1261.48 570.038)" fill="#FD8323"/>
<ellipse cx="1261.48" cy="612.984" rx="2.9282" ry="2.91267" transform="rotate(90 1261.48 612.984)" fill="#FD8323"/>
<ellipse cx="1261.48" cy="655.932" rx="2.9282" ry="2.91267" transform="rotate(90 1261.48 655.932)" fill="#FD8323"/>
<ellipse cx="1218.76" cy="484.144" rx="2.9282" ry="2.91267" transform="rotate(90 1218.76 484.144)" fill="#FD8323"/>
<ellipse cx="1218.76" cy="527.091" rx="2.9282" ry="2.91267" transform="rotate(90 1218.76 527.091)" fill="#FD8323"/>
<ellipse cx="1218.76" cy="570.038" rx="2.9282" ry="2.91267" transform="rotate(90 1218.76 570.038)" fill="#FD8323"/>
<ellipse cx="1218.76" cy="612.984" rx="2.9282" ry="2.91267" transform="rotate(90 1218.76 612.984)" fill="#FD8323"/>
<ellipse cx="1218.76" cy="655.932" rx="2.9282" ry="2.91267" transform="rotate(90 1218.76 655.932)" fill="#FD8323"/>
<ellipse cx="1176.04" cy="484.144" rx="2.9282" ry="2.91267" transform="rotate(90 1176.04 484.144)" fill="#FD8323"/>
<ellipse cx="1176.04" cy="527.091" rx="2.9282" ry="2.91267" transform="rotate(90 1176.04 527.091)" fill="#FD8323"/>
<ellipse cx="1176.04" cy="570.038" rx="2.9282" ry="2.91267" transform="rotate(90 1176.04 570.038)" fill="#FD8323"/>
<ellipse cx="1176.04" cy="612.984" rx="2.9282" ry="2.91267" transform="rotate(90 1176.04 612.984)" fill="#FD8323"/>
<ellipse cx="1176.04" cy="655.932" rx="2.9282" ry="2.91267" transform="rotate(90 1176.04 655.932)" fill="#FD8323"/>
<ellipse cx="1133.32" cy="484.144" rx="2.9282" ry="2.91267" transform="rotate(90 1133.32 484.144)" fill="#FD8323"/>
<ellipse cx="1133.32" cy="527.091" rx="2.9282" ry="2.91267" transform="rotate(90 1133.32 527.091)" fill="#FD8323"/>
<ellipse cx="1133.32" cy="570.038" rx="2.9282" ry="2.91267" transform="rotate(90 1133.32 570.038)" fill="#FD8323"/>
<ellipse cx="1133.32" cy="612.984" rx="2.9282" ry="2.91267" transform="rotate(90 1133.32 612.984)" fill="#FD8323"/>
<ellipse cx="1133.32" cy="655.932" rx="2.9282" ry="2.91267" transform="rotate(90 1133.32 655.932)" fill="#FD8323"/>
<ellipse cx="1090.6" cy="484.144" rx="2.9282" ry="2.91267" transform="rotate(90 1090.6 484.144)" fill="#FD8323"/>
<ellipse cx="1090.6" cy="527.091" rx="2.9282" ry="2.91267" transform="rotate(90 1090.6 527.091)" fill="#FD8323"/>
<ellipse cx="1090.6" cy="570.038" rx="2.9282" ry="2.91267" transform="rotate(90 1090.6 570.038)" fill="#FD8323"/>
<ellipse cx="1090.6" cy="612.984" rx="2.9282" ry="2.91267" transform="rotate(90 1090.6 612.984)" fill="#FD8323"/>
<ellipse cx="1090.6" cy="655.932" rx="2.9282" ry="2.91267" transform="rotate(90 1090.6 655.932)" fill="#FD8323"/>
<ellipse cx="1047.88" cy="484.144" rx="2.9282" ry="2.91267" transform="rotate(90 1047.88 484.144)" fill="#FD8323"/>
<ellipse cx="1047.88" cy="527.091" rx="2.9282" ry="2.91267" transform="rotate(90 1047.88 527.091)" fill="#FD8323"/>
<ellipse cx="1047.88" cy="570.038" rx="2.9282" ry="2.91267" transform="rotate(90 1047.88 570.038)" fill="#FD8323"/>
<ellipse cx="1047.88" cy="612.984" rx="2.9282" ry="2.91267" transform="rotate(90 1047.88 612.984)" fill="#FD8323"/>
<ellipse cx="1047.88" cy="655.932" rx="2.9282" ry="2.91267" transform="rotate(90 1047.88 655.932)" fill="#FD8323"/>
<ellipse cx="1005.16" cy="484.144" rx="2.9282" ry="2.91267" transform="rotate(90 1005.16 484.144)" fill="#FD8323"/>
<ellipse cx="1005.16" cy="527.091" rx="2.9282" ry="2.91267" transform="rotate(90 1005.16 527.091)" fill="#FD8323"/>
<ellipse cx="1005.16" cy="570.038" rx="2.9282" ry="2.91267" transform="rotate(90 1005.16 570.038)" fill="#FD8323"/>
<ellipse cx="1005.16" cy="612.984" rx="2.9282" ry="2.91267" transform="rotate(90 1005.16 612.984)" fill="#FD8323"/>
<ellipse cx="1005.16" cy="655.932" rx="2.9282" ry="2.91267" transform="rotate(90 1005.16 655.932)" fill="#FD8323"/>
<ellipse cx="962.444" cy="484.144" rx="2.9282" ry="2.91267" transform="rotate(90 962.444 484.144)" fill="#FD8323"/>
<ellipse cx="962.444" cy="527.091" rx="2.9282" ry="2.91267" transform="rotate(90 962.444 527.091)" fill="#FD8323"/>
<ellipse cx="962.444" cy="570.038" rx="2.9282" ry="2.91267" transform="rotate(90 962.444 570.038)" fill="#FD8323"/>
<ellipse cx="962.444" cy="612.984" rx="2.9282" ry="2.91267" transform="rotate(90 962.444 612.984)" fill="#FD8323"/>
<ellipse cx="962.444" cy="655.932" rx="2.9282" ry="2.91267" transform="rotate(90 962.444 655.932)" fill="#FD8323"/>
<defs>
<linearGradient id="paint0_linear" x1="750" y1="0" x2="750" y2="1194" gradientUnits="userSpaceOnUse">
<stop stop-color="#ECF0FD" stop-opacity="0"/>
<stop offset="0.14324" stop-color="#ECF0FD" stop-opacity="0.53"/>
<stop offset="0.458333" stop-color="#ECF0FD"/>
<stop offset="0.843325" stop-color="#ECF0FD" stop-opacity="0.43"/>
<stop offset="1" stop-color="#ECF0FD" stop-opacity="0"/>
</linearGradient>
</defs>
</svg>
