<svg width="360" height="340" viewBox="0 0 360 340" fill="none" xmlns="http://www.w3.org/2000/svg">
<mask id="mask0" mask-type="alpha" maskUnits="userSpaceOnUse" x="0" y="0" width="360" height="340">
<rect width="360" height="340" fill="#C4C4C4"/>
</mask>
<g mask="url(#mask0)">
<mask id="mask1" mask-type="alpha" maskUnits="userSpaceOnUse" x="-19" y="-37" width="410" height="398">
<path d="M360.116 -36.7567C360.116 -36.7567 348.237 -36.7567 281.119 -36.7567C207.819 -36.7567 151.302 -36.7567 83.3112 -36.7567C15.3204 -36.7567 0.00567627 -36.7567 0.00567627 -36.7567L-18.2499 360.376C-18.2499 360.376 13.0329 304.514 83.3112 279.671C153.589 254.828 223.394 311.976 292.595 290.424C361.796 268.872 390.75 204.755 390.75 204.755L360.116 -36.7567Z" fill="#C4C4C4"/>
</mask>
<g mask="url(#mask1)">
<g clip-path="url(#clip0)">
<path d="M360.75 -69.9177H-15.7499V340H360.75V-69.9177Z" fill="url(#paint0_radial)"/>
<path d="M3.62506 3.9953C3.62506 3.9953 3.92163 5.2644 4.11035 5.54642C4.29908 5.87544 5.00006 6.39248 5.00006 6.39248C5.00006 6.39248 4.27212 6.90952 4.11035 7.23855C3.92163 7.56757 3.62506 8.78967 3.62506 8.78967C3.62506 8.78967 3.32849 7.52057 3.13977 7.23855C2.95104 6.90952 2.25006 6.39248 2.25006 6.39248C2.25006 6.39248 2.978 5.87544 3.13977 5.54642C3.30153 5.2644 3.62506 3.9953 3.62506 3.9953Z" fill="white"/>
<path d="M356.25 8.78967C356.25 8.78967 356.574 10.0588 356.779 10.3408C356.985 10.6698 357.75 11.1869 357.75 11.1869C357.75 11.1869 356.956 11.7039 356.779 12.0329C356.574 12.3619 356.25 13.584 356.25 13.584C356.25 13.584 355.927 12.3149 355.721 12.0329C355.515 11.7039 354.75 11.1869 354.75 11.1869C354.75 11.1869 355.544 10.6698 355.721 10.3408C355.927 10.0588 356.25 8.78967 356.25 8.78967Z" fill="white"/>
<path d="M292.625 126.251C292.625 126.251 292.877 127.182 293.022 127.415C293.168 127.647 293.75 128.049 293.75 128.049C293.75 128.049 293.168 128.451 293.022 128.684C292.877 128.917 292.625 129.847 292.625 129.847C292.625 129.847 292.374 128.917 292.228 128.684C292.082 128.451 291.5 128.049 291.5 128.049C291.5 128.049 292.082 127.647 292.228 127.415C292.374 127.182 292.625 126.251 292.625 126.251Z" fill="white"/>
<path d="M244.801 245.088C244.801 245.088 245.34 247.204 245.683 247.674C246.026 248.223 247.301 249.085 247.301 249.085C247.301 249.085 245.977 249.947 245.683 250.496C245.34 251.044 244.801 253.082 244.801 253.082C244.801 253.082 244.261 250.966 243.918 250.496C243.575 249.947 242.3 249.085 242.3 249.085C242.3 249.085 243.624 248.223 243.918 247.674C244.261 247.204 244.801 245.088 244.801 245.088Z" fill="white"/>
<path d="M251.875 153.02C251.875 153.02 252.064 153.76 252.184 153.925C252.304 154.117 252.75 154.418 252.75 154.418C252.75 154.418 252.287 154.72 252.184 154.912C252.064 155.104 251.875 155.817 251.875 155.817C251.875 155.817 251.686 155.076 251.566 154.912C251.446 154.72 251 154.418 251 154.418C251 154.418 251.463 154.117 251.566 153.925C251.686 153.76 251.875 153.02 251.875 153.02Z" fill="white"/>
<path d="M328.16 230.591C328.16 230.591 328.699 232.706 329.042 233.177C329.386 233.725 330.66 234.587 330.66 234.587C330.66 234.587 329.337 235.449 329.042 235.998C328.699 236.546 328.16 238.584 328.16 238.584C328.16 238.584 327.62 236.468 327.277 235.998C326.934 235.449 325.659 234.587 325.659 234.587C325.659 234.587 326.983 233.725 327.277 233.177C327.571 232.706 328.16 230.591 328.16 230.591Z" fill="white"/>
<path d="M334.044 185.452C334.044 185.452 334.975 188.9 335.515 189.762C336.054 190.624 338.212 192.113 338.212 192.113C338.212 192.113 336.054 193.602 335.515 194.464C334.975 195.326 334.044 198.774 334.044 198.774C334.044 198.774 333.112 195.326 332.573 194.464C332.033 193.602 329.876 192.113 329.876 192.113C329.876 192.113 332.033 190.624 332.573 189.762C333.112 188.9 334.044 185.452 334.044 185.452Z" fill="white"/>
<path opacity="0.5" d="M337.133 265.307C337.133 265.307 338.065 268.755 338.604 269.617C339.143 270.479 341.301 271.968 341.301 271.968C341.301 271.968 339.143 273.457 338.604 274.319C338.065 275.181 337.133 278.629 337.133 278.629C337.133 278.629 336.201 275.181 335.662 274.319C335.123 273.457 332.965 271.968 332.965 271.968C332.965 271.968 335.123 270.479 335.662 269.617C336.201 268.755 337.133 265.307 337.133 265.307Z" fill="white"/>
<path d="M146.192 235.136C146.192 235.136 146.584 236.625 146.829 237.017C147.074 237.408 148.006 238.035 148.006 238.035C148.006 238.035 147.074 238.662 146.829 239.054C146.584 239.446 146.192 240.935 146.192 240.935C146.192 240.935 145.799 239.446 145.554 239.054C145.309 238.662 144.377 238.035 144.377 238.035C144.377 238.035 145.309 237.408 145.554 237.017C145.799 236.703 146.192 235.136 146.192 235.136Z" fill="white"/>
<path d="M151.291 166.487C151.291 166.487 151.684 167.976 151.929 168.368C152.174 168.76 153.106 169.387 153.106 169.387C153.106 169.387 152.174 170.014 151.929 170.406C151.684 170.797 151.291 172.286 151.291 172.286C151.291 172.286 150.899 170.797 150.654 170.406C150.409 170.014 149.477 169.387 149.477 169.387C149.477 169.387 150.409 168.76 150.654 168.368C150.85 167.976 151.291 166.487 151.291 166.487Z" fill="white"/>
<path d="M206.652 224.635C206.652 224.635 207.044 226.124 207.289 226.516C207.534 226.907 208.466 227.534 208.466 227.534C208.466 227.534 207.534 228.161 207.289 228.553C207.044 228.945 206.652 230.434 206.652 230.434C206.652 230.434 206.259 228.945 206.014 228.553C205.769 228.161 204.837 227.534 204.837 227.534C204.837 227.534 205.769 226.907 206.014 226.516C206.259 226.124 206.652 224.635 206.652 224.635Z" fill="white"/>
<path d="M210.967 191.878C210.967 191.878 211.653 194.385 212.045 195.012C212.438 195.639 214.007 196.736 214.007 196.736C214.007 196.736 212.438 197.834 212.045 198.461C211.653 199.087 210.967 201.595 210.967 201.595C210.967 201.595 210.28 199.087 209.888 198.461C209.496 197.834 207.927 196.736 207.927 196.736C207.927 196.736 209.496 195.639 209.888 195.012C210.28 194.385 210.967 191.878 210.967 191.878Z" fill="white"/>
<path opacity="0.5" d="M213.125 251.304C213.125 251.304 213.605 253.057 213.879 253.495C214.153 253.934 215.25 254.7 215.25 254.7C215.25 254.7 214.153 255.467 213.879 255.905C213.605 256.344 213.125 258.096 213.125 258.096C213.125 258.096 212.645 256.344 212.371 255.905C212.097 255.467 211 254.7 211 254.7C211 254.7 212.097 253.934 212.371 253.495C212.645 253.057 213.125 251.304 213.125 251.304Z" fill="white"/>
<path d="M134.963 186C134.963 186 135.649 188.508 136.042 189.135C136.434 189.762 138.003 190.859 138.003 190.859C138.003 190.859 136.434 191.956 136.042 192.583C135.649 193.21 134.963 195.718 134.963 195.718C134.963 195.718 134.276 193.21 133.884 192.583C133.492 191.956 131.923 190.859 131.923 190.859C131.923 190.859 133.492 189.762 133.884 189.135C134.325 188.508 134.963 186 134.963 186Z" fill="white"/>
<path d="M176.5 62.3266C176.5 62.3266 176.654 61.712 176.654 61.5276C176.654 61.3124 176.5 60.7285 176.5 60.7285C176.5 60.7285 176.885 60.9744 177 60.9744C177.135 60.9744 177.5 60.7285 177.5 60.7285C177.5 60.7285 177.346 61.3432 177.346 61.5276C177.346 61.7427 177.5 62.3266 177.5 62.3266C177.5 62.3266 177.116 62.0808 177 62.0808C176.885 62.0808 176.5 62.3266 176.5 62.3266Z" fill="white"/>
<path opacity="0.5" d="M197.25 63.5253C197.25 63.5253 197.472 64.4242 197.472 64.7239C197.472 65.0235 197.25 65.9225 197.25 65.9225C197.25 65.9225 197.813 65.5684 198 65.5684C198.188 65.5684 198.75 65.9225 198.75 65.9225C198.75 65.9225 198.529 65.0235 198.529 64.7239C198.529 64.4242 198.75 63.5253 198.75 63.5253C198.75 63.5253 198.188 63.8794 198 63.8794C197.813 63.8522 197.25 63.5253 197.25 63.5253Z" fill="white"/>
<path opacity="0.5" d="M268.75 260.543C268.75 260.543 269.29 258.427 269.29 257.721C269.29 257.016 268.75 254.9 268.75 254.9C268.75 254.9 270.074 255.762 270.515 255.762C270.957 255.762 272.281 254.9 272.281 254.9C272.281 254.9 271.741 257.016 271.741 257.721C271.741 258.427 272.281 260.543 272.281 260.543C272.281 260.543 270.957 259.68 270.515 259.68C270.074 259.68 268.75 260.543 268.75 260.543Z" fill="white"/>
<path d="M342.75 126.651C342.75 126.651 342.898 125.914 342.898 125.652C342.898 125.39 342.75 124.653 342.75 124.653C342.75 124.653 343.119 124.948 343.25 124.948C343.381 124.948 343.75 124.653 343.75 124.653C343.75 124.653 343.603 125.39 343.603 125.652C343.603 125.914 343.75 126.651 343.75 126.651C343.75 126.651 343.381 126.356 343.25 126.356C343.111 126.356 342.75 126.651 342.75 126.651Z" fill="white"/>
<path d="M62.0972 294.302C62.0972 294.302 62.6366 292.186 62.6366 291.481C62.6366 290.776 62.0972 288.66 62.0972 288.66C62.0972 288.66 63.4211 289.522 63.8624 289.522C64.3037 289.522 65.6277 288.66 65.6277 288.66C65.6277 288.66 65.0883 290.776 65.0883 291.481C65.0883 292.186 65.6277 294.302 65.6277 294.302C65.6277 294.302 64.3037 293.44 63.8624 293.44C63.4211 293.44 62.0972 294.302 62.0972 294.302Z" fill="white"/>
<path d="M16.5001 218.543C16.5001 218.543 16.7675 217.494 16.7675 217.145C16.7675 216.795 16.5001 215.746 16.5001 215.746C16.5001 215.746 17.1564 216.173 17.3751 216.173C17.5939 216.173 18.2501 215.746 18.2501 215.746C18.2501 215.746 17.9828 216.795 17.9828 217.145C17.9828 217.494 18.2501 218.543 18.2501 218.543C18.2501 218.543 17.5939 218.116 17.3751 218.116C17.1564 218.116 16.5001 218.543 16.5001 218.543Z" fill="white"/>
<path opacity="0.5" d="M21.2501 173.396C21.2501 173.396 21.582 172.217 21.582 171.798C21.582 171.379 21.2501 170.2 21.2501 170.2C21.2501 170.2 22.08 170.671 22.3751 170.671C22.6701 170.671 23.5 170.2 23.5 170.2C23.5 170.2 23.1681 171.379 23.1681 171.798C23.1681 172.217 23.5 173.396 23.5 173.396C23.5 173.396 22.6701 172.924 22.3751 172.924C22.08 172.924 21.2501 173.396 21.2501 173.396Z" fill="white" fill-opacity="0.5"/>
<path d="M181.5 152.62C181.5 152.62 181.648 152.031 181.648 151.821C181.648 151.612 181.5 151.022 181.5 151.022C181.5 151.022 181.869 151.258 182 151.258C182.131 151.258 182.5 151.022 182.5 151.022C182.5 151.022 182.353 151.612 182.353 151.821C182.353 152.031 182.5 152.62 182.5 152.62C182.5 152.62 182.131 152.385 182 152.385C181.869 152.385 181.5 152.62 181.5 152.62Z" fill="white"/>
<path d="M89.8999 300.65C89.8999 300.65 90.7825 297.123 90.7825 295.87C90.7825 294.616 89.8999 291.089 89.8999 291.089C89.8999 291.089 92.1065 292.5 92.891 292.5C93.6756 292.5 95.8822 291.089 95.8822 291.089C95.8822 291.089 94.9995 294.616 94.9995 295.87C94.9995 297.123 95.8822 300.65 95.8822 300.65C95.8822 300.65 93.6756 299.239 92.891 299.239C92.1065 299.239 89.8999 300.65 89.8999 300.65Z" fill="white"/>
<path opacity="0.5" d="M105.836 57.2449C106.621 57.2449 107.258 56.2261 107.258 54.9723C107.258 53.7184 106.621 52.6997 105.836 52.6997C105.052 52.6997 104.414 53.7184 104.414 54.9723C104.414 56.2261 105.052 57.2449 105.836 57.2449Z" fill="url(#paint1_radial)"/>
<path opacity="0.5" d="M102.355 7.56078C102.355 7.56078 102.649 6.38531 102.845 6.15021C103.041 5.83674 103.728 5.36655 103.728 5.36655C103.728 5.36655 102.992 4.89635 102.845 4.58289C102.649 4.26943 102.355 3.1723 102.355 3.1723C102.355 3.1723 102.06 4.34779 101.864 4.58289C101.668 4.89635 100.982 5.36655 100.982 5.36655C100.982 5.36655 101.717 5.83674 101.864 6.15021C102.011 6.46367 102.355 7.56078 102.355 7.56078Z" fill="url(#paint2_radial)"/>
<path opacity="0.5" d="M14.8277 76.1311C14.8277 76.1311 15.1219 74.9556 15.318 74.7205C15.5142 74.4071 16.2006 73.9369 16.2006 73.9369C16.2006 73.9369 15.4651 73.4667 15.318 73.1532C15.1219 72.8398 14.8277 71.7426 14.8277 71.7426C14.8277 71.7426 14.5335 72.9181 14.3373 73.1532C14.1412 73.4667 13.4547 73.9369 13.4547 73.9369C13.4547 73.9369 14.1902 74.4071 14.3373 74.7205C14.5335 74.9556 14.8277 76.1311 14.8277 76.1311Z" fill="url(#paint3_radial)"/>
<path opacity="0.5" d="M324.286 260.291C325.07 260.291 325.708 259.273 325.708 258.019C325.708 256.765 325.07 255.746 324.286 255.746C323.501 255.746 322.864 256.765 322.864 258.019C322.864 259.273 323.501 260.291 324.286 260.291Z" fill="url(#paint4_radial)"/>
<path opacity="0.5" d="M301.387 136.943C301.387 136.943 301.681 135.768 301.877 135.533C302.073 135.219 302.759 134.749 302.759 134.749C302.759 134.749 302.024 134.279 301.877 133.965C301.681 133.652 301.387 132.555 301.387 132.555C301.387 132.555 301.092 133.73 300.896 133.965C300.7 134.279 300.014 134.749 300.014 134.749C300.014 134.749 300.749 135.219 300.896 135.533C301.092 135.846 301.387 136.943 301.387 136.943Z" fill="url(#paint5_radial)"/>
<path opacity="0.5" d="M340.124 180.045C340.124 180.045 340.418 178.869 340.614 178.634C340.811 178.32 341.497 177.85 341.497 177.85C341.497 177.85 340.762 177.38 340.614 177.067C340.418 176.753 340.124 175.656 340.124 175.656C340.124 175.656 339.83 176.832 339.634 177.067C339.438 177.38 338.751 177.85 338.751 177.85C338.751 177.85 339.487 178.32 339.634 178.634C339.83 178.869 340.124 180.045 340.124 180.045Z" fill="url(#paint6_radial)"/>
<path opacity="0.5" d="M320.804 210.607C320.804 210.607 321.099 209.432 321.295 209.197C321.491 208.883 322.177 208.413 322.177 208.413C322.177 208.413 321.442 207.943 321.295 207.629C321.099 207.316 320.804 206.219 320.804 206.219C320.804 206.219 320.51 207.394 320.314 207.629C320.118 207.943 319.431 208.413 319.431 208.413C319.431 208.413 320.167 208.883 320.314 209.197C320.51 209.51 320.804 210.607 320.804 210.607Z" fill="url(#paint7_radial)"/>
<path opacity="0.5" d="M233.326 279.178C233.326 279.178 233.621 278.002 233.817 277.767C234.013 277.454 234.699 276.983 234.699 276.983C234.699 276.983 233.964 276.513 233.817 276.2C233.621 275.886 233.326 274.789 233.326 274.789C233.326 274.789 233.032 275.965 232.836 276.2C232.64 276.513 231.953 276.983 231.953 276.983C231.953 276.983 232.689 277.454 232.836 277.767C232.983 278.002 233.326 279.178 233.326 279.178Z" fill="url(#paint8_radial)"/>
<path opacity="0.5" d="M249.606 177.85C249.606 177.85 249.9 176.675 250.096 176.44C250.292 176.126 250.979 175.656 250.979 175.656C250.979 175.656 250.243 175.186 250.096 174.872C249.9 174.559 249.606 173.462 249.606 173.462C249.606 173.462 249.312 174.637 249.116 174.872C248.919 175.186 248.233 175.656 248.233 175.656C248.233 175.656 248.968 176.126 249.116 176.44C249.263 176.675 249.606 177.85 249.606 177.85Z" fill="url(#paint9_radial)"/>
<path d="M241.221 211.077C241.221 211.469 241.025 211.861 240.731 211.861C240.486 211.861 240.24 211.548 240.24 211.077C240.24 210.607 240.437 210.294 240.731 210.294C241.025 210.372 241.221 210.686 241.221 211.077ZM244.997 197.363C244.457 197.363 244.065 198.069 244.065 198.852C244.065 199.714 244.506 200.341 244.997 200.341C245.536 200.341 245.928 199.636 245.928 198.852C245.928 198.069 245.487 197.363 244.997 197.363ZM246.86 215.388C245.83 215.388 244.997 216.72 244.997 218.366C244.997 220.011 245.83 221.343 246.86 221.343C247.89 221.343 248.723 220.011 248.723 218.366C248.723 216.72 247.89 215.388 246.86 215.388ZM230.63 218.836C230.09 218.836 229.698 219.541 229.698 220.325C229.698 221.187 230.139 221.814 230.63 221.814C231.169 221.814 231.561 221.108 231.561 220.325C231.561 219.541 231.12 218.836 230.63 218.836Z" fill="url(#paint10_radial)"/>
<path d="M323.742 160.152C323.742 160.018 323.812 159.884 323.952 159.884C324.069 159.884 324.185 159.965 324.185 160.125C324.185 160.259 324.115 160.393 323.975 160.393C323.858 160.393 323.765 160.286 323.742 160.152ZM322.317 164.998C322.574 164.971 322.737 164.73 322.714 164.436C322.69 164.141 322.48 163.954 322.223 163.98C321.966 164.007 321.803 164.248 321.826 164.543C321.849 164.81 322.06 165.025 322.317 164.998ZM320.962 158.947C321.452 158.894 321.826 158.412 321.779 157.85C321.733 157.288 321.312 156.859 320.822 156.913C320.331 156.966 319.957 157.448 320.004 158.01C320.051 158.599 320.471 159.001 320.962 158.947ZM328.601 157.02C328.858 156.993 329.021 156.752 328.998 156.458C328.974 156.163 328.764 155.976 328.507 156.003C328.25 156.029 328.087 156.27 328.11 156.565C328.133 156.832 328.344 157.047 328.601 157.02Z" fill="url(#paint11_radial)"/>
<path opacity="0.5" d="M203.857 246.185C204.445 246.185 204.886 245.48 204.886 244.54C204.886 243.599 204.445 242.894 203.857 242.894C203.268 242.894 202.827 243.599 202.827 244.54C202.827 245.48 203.268 246.185 203.857 246.185Z" fill="url(#paint12_radial)"/>
<path opacity="0.5" d="M187.234 156.691C187.234 156.691 187.479 155.829 187.577 155.673C187.724 155.438 188.215 155.124 188.215 155.124C188.215 155.124 187.675 154.732 187.577 154.576C187.43 154.34 187.234 153.557 187.234 153.557C187.234 153.557 186.989 154.419 186.891 154.576C186.744 154.811 186.253 155.124 186.253 155.124C186.253 155.124 186.793 155.516 186.891 155.673C186.989 155.908 187.234 156.691 187.234 156.691Z" fill="url(#paint13_radial)"/>
<path opacity="0.5" d="M215.331 187.959C215.331 187.959 215.576 187.097 215.674 186.941C215.821 186.706 216.311 186.392 216.311 186.392C216.311 186.392 215.772 186 215.674 185.844C215.527 185.608 215.331 184.825 215.331 184.825C215.331 184.825 215.086 185.687 214.988 185.844C214.84 186.079 214.35 186.392 214.35 186.392C214.35 186.392 214.889 186.784 214.988 186.941C215.135 187.097 215.331 187.959 215.331 187.959Z" fill="url(#paint14_radial)"/>
<path opacity="0.5" d="M201.356 210.137C201.356 210.137 201.601 209.275 201.699 209.118C201.846 208.883 202.336 208.57 202.336 208.57C202.336 208.57 201.797 208.178 201.699 208.021C201.552 207.786 201.356 207.002 201.356 207.002C201.356 207.002 201.111 207.864 201.013 208.021C200.865 208.256 200.375 208.57 200.375 208.57C200.375 208.57 200.914 208.962 201.013 209.118C201.111 209.353 201.356 210.137 201.356 210.137Z" fill="url(#paint15_radial)"/>
<path opacity="0.5" d="M137.856 259.9C137.856 259.9 138.101 259.037 138.199 258.881C138.346 258.646 138.837 258.332 138.837 258.332C138.837 258.332 138.297 257.94 138.199 257.784C138.052 257.549 137.856 256.765 137.856 256.765C137.856 256.765 137.611 257.627 137.513 257.784C137.366 258.019 136.875 258.332 136.875 258.332C136.875 258.332 137.415 258.724 137.513 258.881C137.611 259.037 137.856 259.9 137.856 259.9Z" fill="url(#paint16_radial)"/>
<path opacity="0.5" d="M149.624 186.314C149.624 186.314 149.869 185.452 149.968 185.295C150.115 185.06 150.605 184.746 150.605 184.746C150.605 184.746 150.066 184.355 149.968 184.198C149.82 183.963 149.624 183.179 149.624 183.179C149.624 183.179 149.379 184.041 149.281 184.198C149.134 184.433 148.644 184.746 148.644 184.746C148.644 184.746 149.183 185.138 149.281 185.295C149.428 185.53 149.624 186.314 149.624 186.314Z" fill="url(#paint17_radial)"/>
<path d="M143.593 210.529C143.593 210.842 143.446 211.078 143.25 211.078C143.054 211.078 142.906 210.842 142.906 210.529C142.906 210.216 143.054 209.98 143.25 209.98C143.446 209.98 143.593 210.216 143.593 210.529ZM146.29 200.576C145.898 200.576 145.603 201.047 145.603 201.674C145.603 202.301 145.898 202.771 146.29 202.771C146.682 202.771 146.976 202.301 146.976 201.674C146.976 201.047 146.682 200.576 146.29 200.576ZM147.663 213.585C146.927 213.585 146.29 214.526 146.29 215.78C146.29 216.955 146.878 217.974 147.663 217.974C148.398 217.974 149.036 217.033 149.036 215.78C149.036 214.526 148.447 213.585 147.663 213.585ZM135.894 216.093C135.502 216.093 135.208 216.563 135.208 217.19C135.208 217.817 135.502 218.287 135.894 218.287C136.287 218.287 136.581 217.817 136.581 217.19C136.581 216.642 136.238 216.093 135.894 216.093Z" fill="url(#paint18_radial)"/>
<path d="M202.856 169.481C202.856 169.251 203.006 169.079 203.156 169.079C203.306 169.079 203.506 169.251 203.506 169.423C203.506 169.653 203.356 169.825 203.206 169.825C203.006 169.825 202.856 169.71 202.856 169.481ZM200.608 176.994C201.008 176.936 201.258 176.592 201.258 176.133C201.208 175.675 200.908 175.388 200.508 175.388C200.108 175.445 199.859 175.789 199.859 176.248C199.909 176.707 200.208 177.051 200.608 176.994ZM198.51 167.645C199.259 167.588 199.859 166.785 199.759 165.925C199.709 165.065 199.009 164.376 198.26 164.491C197.511 164.548 196.911 165.351 197.011 166.212C197.111 167.072 197.76 167.703 198.51 167.645ZM210.351 164.606C210.75 164.548 211 164.204 211 163.746C210.95 163.287 210.65 163 210.251 163C209.851 163.057 209.601 163.401 209.601 163.86C209.651 164.319 210.001 164.663 210.351 164.606Z" fill="url(#paint19_radial)"/>
<path opacity="0.5" d="M145.947 29.8168C145.947 29.8168 145.407 30.1302 145.211 30.1302C145.015 30.1302 144.476 29.8168 144.476 29.8168C144.476 29.8168 144.672 30.6788 144.672 30.9923C144.672 31.3057 144.476 32.1678 144.476 32.1678C144.476 32.1678 145.015 31.8543 145.211 31.8543C145.407 31.8543 145.947 32.1678 145.947 32.1678C145.947 32.1678 145.75 31.3057 145.75 30.9923C145.75 30.6788 145.947 29.8168 145.947 29.8168Z" fill="url(#paint20_radial)"/>
<path opacity="0.5" d="M226.51 12.733C226.51 12.733 225.971 13.0464 225.775 13.0464C225.579 13.0464 225.04 12.733 225.04 12.733C225.04 12.733 225.236 13.595 225.236 13.9085C225.236 14.2219 225.04 15.084 225.04 15.084C225.04 15.084 225.579 14.7705 225.775 14.7705C225.971 14.7705 226.51 15.084 226.51 15.084C226.51 15.084 226.314 14.2219 226.314 13.9085C226.314 13.595 226.51 12.733 226.51 12.733Z" fill="url(#paint21_radial)"/>
<path opacity="0.5" d="M185.665 51.3675C185.665 51.3675 185.125 51.6809 184.929 51.6809C184.733 51.6809 184.194 51.3675 184.194 51.3675C184.194 51.3675 184.39 52.2295 184.39 52.543C184.39 52.8564 184.194 53.7184 184.194 53.7184C184.194 53.7184 184.733 53.405 184.929 53.405C185.125 53.405 185.665 53.7184 185.665 53.7184C185.665 53.7184 185.468 52.8564 185.468 52.543C185.419 52.2295 185.665 51.3675 185.665 51.3675Z" fill="url(#paint22_radial)"/>
<path d="M200.691 42.4028C200.841 42.2361 201.042 42.2361 201.192 42.4028C201.342 42.5694 201.342 42.7917 201.192 42.9583C201.042 43.125 200.841 43.125 200.691 42.9583C200.54 42.8472 200.54 42.5694 200.691 42.4028ZM194.226 45.2361C194.476 45.5139 194.927 45.5139 195.228 45.2361C195.478 44.9583 195.478 44.4583 195.228 44.125C194.977 43.8472 194.526 43.8472 194.226 44.125C193.925 44.4583 193.925 44.9583 194.226 45.2361ZM199.137 37.625C199.688 38.2361 200.54 38.2361 201.092 37.625C201.643 37.0139 201.643 36.0694 201.092 35.4583C200.54 34.8472 199.688 34.8472 199.137 35.4583C198.586 36.0139 198.586 37.0139 199.137 37.625ZM208.81 45.7917C209.06 46.0694 209.511 46.0694 209.812 45.7917C210.063 45.5139 210.063 45.0139 209.812 44.6806C209.561 44.4028 209.11 44.4028 208.81 44.6806C208.509 45.0139 208.509 45.5139 208.81 45.7917Z" fill="url(#paint23_radial)"/>
<path opacity="0.5" d="M254.411 61.2415C254.411 61.2415 253.676 61.7118 253.431 61.7118C253.185 61.7118 252.45 61.2415 252.45 61.2415C252.45 61.2415 252.744 62.417 252.744 62.8089C252.744 63.2007 252.45 64.3762 252.45 64.3762C252.45 64.3762 253.185 63.906 253.431 63.906C253.676 63.906 254.411 64.3762 254.411 64.3762C254.411 64.3762 254.117 63.2007 254.117 62.8089C254.117 62.417 254.411 61.2415 254.411 61.2415Z" fill="url(#paint24_radial)"/>
<path opacity="0.5" d="M309.085 90.864C309.085 90.864 308.35 91.3341 308.104 91.3341C307.859 91.3341 307.124 90.864 307.124 90.864C307.124 90.864 307.418 92.0394 307.418 92.4313C307.418 92.8231 307.124 93.9986 307.124 93.9986C307.124 93.9986 307.859 93.5284 308.104 93.5284C308.35 93.5284 309.085 93.9986 309.085 93.9986C309.085 93.9986 308.791 92.8231 308.791 92.4313C308.791 92.0394 309.085 90.864 309.085 90.864Z" fill="url(#paint25_radial)"/>
<path opacity="0.5" d="M59.4494 134.671C58.91 133.808 58.0274 133.808 57.439 134.671C56.8996 135.533 56.8996 136.943 57.439 137.884C57.9783 138.746 58.861 138.746 59.4494 137.884C60.0378 137.021 60.0378 135.611 59.4494 134.671Z" fill="url(#paint26_radial)"/>
<path opacity="0.5" d="M21.1042 247.831C21.1042 247.831 20.3686 248.301 20.1235 248.301C19.8783 248.301 19.1428 247.831 19.1428 247.831C19.1428 247.831 19.437 249.007 19.437 249.399C19.437 249.79 19.1428 250.966 19.1428 250.966C19.1428 250.966 19.8783 250.496 20.1235 250.496C20.3686 250.496 21.1042 250.966 21.1042 250.966C21.1042 250.966 20.81 249.79 20.81 249.399C20.81 248.928 21.1042 247.831 21.1042 247.831Z" fill="url(#paint27_radial)"/>
<path opacity="0.5" d="M12.7683 173.54C12.7683 173.54 12.0328 174.01 11.7876 174.01C11.5424 174.01 10.8069 173.54 10.8069 173.54C10.8069 173.54 11.1011 174.716 11.1011 175.107C11.1011 175.499 10.8069 176.675 10.8069 176.675C10.8069 176.675 11.5424 176.205 11.7876 176.205C12.0328 176.205 12.7683 176.675 12.7683 176.675C12.7683 176.675 12.4741 175.499 12.4741 175.107C12.4741 174.716 12.7683 173.54 12.7683 173.54Z" fill="url(#paint28_radial)"/>
<path opacity="0.5" d="M39.9334 173.775C39.9334 173.775 39.1979 174.245 38.9527 174.245C38.7076 174.245 37.972 173.775 37.972 173.775C37.972 173.775 38.2662 174.951 38.2662 175.343C38.2662 175.734 37.972 176.91 37.972 176.91C37.972 176.91 38.7076 176.44 38.9527 176.44C39.1979 176.44 39.9334 176.91 39.9334 176.91C39.9334 176.91 39.6392 175.734 39.6392 175.343C39.6392 174.951 39.9334 173.775 39.9334 173.775Z" fill="url(#paint29_radial)"/>
<path opacity="0.5" d="M132.119 224.165C132.119 224.165 131.383 224.635 131.138 224.635C130.893 224.635 130.157 224.165 130.157 224.165C130.157 224.165 130.452 225.34 130.452 225.732C130.452 226.124 130.157 227.299 130.157 227.299C130.157 227.299 130.893 226.829 131.138 226.829C131.383 226.829 132.119 227.299 132.119 227.299C132.119 227.299 131.825 226.124 131.825 225.732C131.874 225.34 132.119 224.165 132.119 224.165Z" fill="url(#paint30_radial)"/>
<path opacity="0.5" d="M75.7778 277.454C75.7778 277.454 75.0423 277.924 74.7971 277.924C74.5519 277.924 73.8164 277.454 73.8164 277.454C73.8164 277.454 74.1106 278.629 74.1106 279.021C74.1106 279.413 73.8164 280.588 73.8164 280.588C73.8164 280.588 74.5519 280.118 74.7971 280.118C75.0423 280.118 75.7778 280.588 75.7778 280.588C75.7778 280.588 75.4836 279.413 75.4836 279.021C75.5326 278.629 75.7778 277.454 75.7778 277.454Z" fill="url(#paint31_radial)"/>
<path d="M14.6316 208.57C14.4845 208.883 14.1903 208.962 13.9942 208.648C13.798 208.413 13.749 207.943 13.9451 207.629C14.0922 207.316 14.3864 207.238 14.5826 207.551C14.7787 207.708 14.8277 208.178 14.6316 208.57ZM23.0656 201.909C22.6733 201.36 22.0849 201.438 21.7416 202.065C21.3984 202.692 21.4474 203.633 21.8397 204.181C22.232 204.73 22.8204 204.651 23.1637 204.025C23.5069 203.398 23.4579 202.457 23.0656 201.909ZM17.2304 217.582C16.4459 216.485 15.2691 216.641 14.5826 217.974C13.8961 219.228 13.9942 221.108 14.8277 222.205C15.6123 223.303 16.7891 223.146 17.4756 221.814C18.1131 220.56 18.015 218.601 17.2304 217.582ZM3.40266 203.476C3.01038 202.927 2.42196 203.006 2.07872 203.633C1.73548 204.26 1.78451 205.2 2.17679 205.749C2.56907 206.297 3.15748 206.219 3.50072 205.592C3.84397 204.965 3.79493 204.025 3.40266 203.476Z" fill="url(#paint32_radial)"/>
<path opacity="0.5" d="M252.863 182.046C252.085 181.838 251.254 182.358 251.046 183.136C250.838 183.915 251.358 184.746 252.137 184.954C252.915 185.162 253.746 184.642 253.954 183.864C254.162 183.033 253.642 182.254 252.863 182.046Z" fill="url(#paint33_radial)"/>
<path opacity="0.5" d="M256.716 308.878C256.716 308.878 256.226 309.897 256.03 310.132C255.833 310.367 255.049 310.602 255.049 310.602C255.049 310.602 255.686 311.386 255.833 311.7C255.98 312.013 256.128 313.267 256.128 313.267C256.128 313.267 256.618 312.248 256.814 312.013C257.01 311.778 257.795 311.543 257.795 311.543C257.795 311.543 257.157 310.759 257.01 310.446C256.863 310.132 256.716 308.878 256.716 308.878Z" fill="url(#paint34_radial)"/>
<path opacity="0.5" d="M225.334 252.611C225.334 252.611 224.844 253.63 224.647 253.865C224.451 254.1 223.667 254.336 223.667 254.336C223.667 254.336 224.304 255.119 224.451 255.433C224.598 255.746 224.746 257 224.746 257C224.746 257 225.236 255.981 225.432 255.746C225.628 255.511 226.413 255.276 226.413 255.276C226.413 255.276 225.775 254.492 225.628 254.179C225.481 253.865 225.334 252.611 225.334 252.611Z" fill="url(#paint35_radial)"/>
<path opacity="0.5" d="M248.527 230.042C248.527 230.042 248.037 231.061 247.841 231.296C247.645 231.531 246.86 231.766 246.86 231.766C246.86 231.766 247.497 232.55 247.645 232.863C247.792 233.177 247.939 234.431 247.939 234.431C247.939 234.431 248.429 233.412 248.625 233.177C248.821 232.942 249.606 232.706 249.606 232.706C249.606 232.706 248.969 231.923 248.821 231.609C248.674 231.296 248.527 230.042 248.527 230.042Z" fill="url(#paint36_radial)"/>
<path opacity="0.5" d="M343.605 195.953C343.605 195.953 343.115 196.972 342.919 197.207C342.723 197.442 341.938 197.677 341.938 197.677C341.938 197.677 342.576 198.46 342.723 198.774C342.87 199.087 343.017 200.341 343.017 200.341C343.017 200.341 343.507 199.322 343.704 199.087C343.9 198.852 344.684 198.617 344.684 198.617C344.684 198.617 344.047 197.834 343.9 197.52C343.753 197.128 343.605 195.953 343.605 195.953Z" fill="url(#paint37_radial)"/>
<path opacity="0.5" d="M313.057 288.425C313.057 288.425 312.567 289.444 312.37 289.679C312.174 289.914 311.39 290.149 311.39 290.149C311.39 290.149 312.027 290.933 312.174 291.246C312.321 291.559 312.469 292.813 312.469 292.813C312.469 292.813 312.959 291.794 313.155 291.559C313.351 291.324 314.136 291.089 314.136 291.089C314.136 291.089 313.498 290.306 313.351 289.992C313.204 289.679 313.057 288.425 313.057 288.425Z" fill="url(#paint38_radial)"/>
<path d="M326.002 259.194C326.051 258.802 326.296 258.567 326.59 258.646C326.836 258.724 326.983 259.116 326.934 259.586C326.885 259.978 326.639 260.213 326.345 260.135C326.1 259.978 325.953 259.586 326.002 259.194ZM320.363 271.106C320.853 271.263 321.393 270.792 321.491 270.009C321.589 269.225 321.295 268.363 320.804 268.206C320.314 268.05 319.775 268.52 319.676 269.303C319.529 270.165 319.873 270.949 320.363 271.106ZM321.148 252.925C322.177 253.317 323.158 252.298 323.403 250.731C323.648 249.085 323.011 247.518 322.03 247.126C321 246.734 320.02 247.753 319.775 249.32C319.529 250.887 320.167 252.533 321.148 252.925ZM337.476 255.589C337.967 255.746 338.506 255.276 338.604 254.492C338.702 253.709 338.408 252.847 337.918 252.69C337.427 252.533 336.888 253.003 336.79 253.787C336.643 254.571 336.986 255.433 337.476 255.589Z" fill="url(#paint39_radial)"/>
<path d="M238.377 280.823C238.328 281.215 238.083 281.529 237.838 281.45C237.592 281.372 237.396 280.98 237.445 280.588C237.494 280.196 237.74 279.883 237.985 279.961C238.23 280.04 238.426 280.431 238.377 280.823ZM243.379 268.128C242.888 267.971 242.398 268.598 242.3 269.382C242.202 270.165 242.594 270.949 243.084 271.106C243.575 271.263 244.065 270.636 244.163 269.852C244.212 269.068 243.869 268.285 243.379 268.128ZM243.526 286.387C242.496 286.152 241.564 287.249 241.368 288.895C241.221 290.541 241.908 292.03 242.937 292.343C243.967 292.578 244.899 291.481 245.095 289.835C245.242 288.111 244.555 286.622 243.526 286.387ZM227.148 285.995C226.658 285.839 226.167 286.466 226.069 287.249C225.971 288.033 226.364 288.817 226.854 288.973C227.344 289.13 227.835 288.503 227.933 287.72C228.031 286.858 227.638 286.074 227.148 285.995Z" fill="url(#paint40_radial)"/>
<path opacity="0.5" d="M73.7675 30.2086C73.7675 30.2086 73.2772 31.2274 73.081 31.4625C72.8849 31.6976 72.1003 31.9327 72.1003 31.9327C72.1003 31.9327 72.7378 32.7163 72.8849 33.0298C73.032 33.3433 73.1791 34.5971 73.1791 34.5971C73.1791 34.5971 73.6695 33.5784 73.8656 33.3433C74.0618 33.1082 74.8463 32.8731 74.8463 32.8731C74.8463 32.8731 74.2089 32.0894 74.0617 31.7759C73.9146 31.4625 73.7675 30.2086 73.7675 30.2086Z" fill="url(#paint41_radial)"/>
<path opacity="0.5" d="M130.108 9.75507C130.108 9.75507 129.618 10.7738 129.422 11.0089C129.226 11.244 128.441 11.4791 128.441 11.4791C128.441 11.4791 129.079 12.2628 129.226 12.5762C129.373 12.8897 129.52 14.1435 129.52 14.1435C129.52 14.1435 130.01 13.1248 130.207 12.8897C130.403 12.6546 131.187 12.4195 131.187 12.4195C131.187 12.4195 130.55 11.6358 130.403 11.3224C130.256 11.0089 130.108 9.75507 130.108 9.75507Z" fill="url(#paint42_radial)"/>
<path opacity="0.5" d="M187.675 53.405C187.675 53.405 187.332 54.1103 187.185 54.267C187.038 54.4237 186.449 54.5805 186.449 54.5805C186.449 54.5805 186.891 55.129 186.989 55.3641C187.087 55.5992 187.185 56.5396 187.185 56.5396C187.185 56.5396 187.528 55.8343 187.675 55.6776C187.822 55.5208 188.411 55.3641 188.411 55.3641C188.411 55.3641 187.969 54.8156 187.871 54.5805C187.773 54.3454 187.675 53.405 187.675 53.405Z" fill="url(#paint43_radial)"/>
<path opacity="0.5" d="M164.874 12.5763C164.874 12.5763 164.531 13.2815 164.384 13.4383C164.237 13.595 163.648 13.7517 163.648 13.7517C163.648 13.7517 164.089 14.3003 164.188 14.5354C164.286 14.7705 164.384 15.7109 164.384 15.7109C164.384 15.7109 164.727 15.0056 164.874 14.8489C165.021 14.6921 165.609 14.5354 165.609 14.5354C165.609 14.5354 165.168 13.9868 165.07 13.7517C164.972 13.5167 164.874 12.5763 164.874 12.5763Z" fill="url(#paint44_radial)"/>
<path opacity="0.5" d="M228.57 38.5938C228.57 38.5938 228.227 39.2991 228.08 39.4558C227.933 39.6125 227.344 39.7693 227.344 39.7693C227.344 39.7693 227.785 40.3178 227.884 40.5529C227.982 40.788 228.08 41.7284 228.08 41.7284C228.08 41.7284 228.423 41.0231 228.57 40.8664C228.717 40.7097 229.306 40.5529 229.306 40.5529C229.306 40.5529 228.864 40.0044 228.766 39.7693C228.668 39.4558 228.57 38.5938 228.57 38.5938Z" fill="url(#paint45_radial)"/>
<path opacity="0.5" d="M170.317 261.624C170.611 262.407 171.249 262.642 171.739 262.172C172.229 261.702 172.376 260.683 172.082 259.9C171.788 259.116 171.15 258.881 170.66 259.351C170.219 259.821 170.023 260.84 170.317 261.624Z" fill="url(#paint46_radial)"/>
<path opacity="0.5" d="M209.349 192.191C209.349 192.191 209.937 192.035 210.084 192.113C210.28 192.191 210.721 192.74 210.721 192.74C210.721 192.74 210.623 191.799 210.672 191.564C210.721 191.251 211.065 190.546 211.065 190.546C211.065 190.546 210.476 190.702 210.329 190.624C210.133 190.546 209.692 189.997 209.692 189.997C209.692 189.997 209.79 190.937 209.741 191.173C209.692 191.408 209.349 192.191 209.349 192.191Z" fill="url(#paint47_radial)"/>
<path opacity="0.5" d="M207.387 246.812C207.387 246.812 207.976 246.656 208.123 246.734C208.319 246.812 208.76 247.361 208.76 247.361C208.76 247.361 208.662 246.421 208.711 246.185C208.76 245.95 209.103 245.167 209.103 245.167C209.103 245.167 208.515 245.323 208.368 245.245C208.172 245.167 207.73 244.618 207.73 244.618C207.73 244.618 207.828 245.559 207.779 245.794C207.73 246.029 207.387 246.812 207.387 246.812Z" fill="url(#paint48_radial)"/>
<path opacity="0.5" d="M188.264 239.368C188.264 239.368 188.852 239.211 188.999 239.289C189.195 239.368 189.637 239.916 189.637 239.916C189.637 239.916 189.539 238.976 189.588 238.741C189.637 238.427 189.98 237.722 189.98 237.722C189.98 237.722 189.391 237.879 189.244 237.8C189.048 237.722 188.607 237.173 188.607 237.173C188.607 237.173 188.705 238.114 188.656 238.349C188.558 238.584 188.264 239.368 188.264 239.368Z" fill="url(#paint49_radial)"/>
<path opacity="0.5" d="M128.49 178.869C128.49 178.869 129.079 178.712 129.226 178.791C129.422 178.869 129.863 179.418 129.863 179.418C129.863 179.418 129.765 178.477 129.814 178.242C129.863 177.929 130.206 177.223 130.206 177.223C130.206 177.223 129.618 177.38 129.471 177.302C129.275 177.223 128.833 176.675 128.833 176.675C128.833 176.675 128.932 177.615 128.883 177.85C128.833 178.164 128.49 178.869 128.49 178.869Z" fill="url(#paint50_radial)"/>
<path opacity="0.5" d="M173.896 156.456C173.896 156.456 174.485 156.3 174.632 156.378C174.779 156.456 175.269 157.005 175.269 157.005C175.269 157.005 175.171 156.065 175.22 155.829C175.269 155.516 175.613 154.811 175.613 154.811C175.613 154.811 175.024 154.967 174.877 154.889C174.681 154.811 174.24 154.262 174.24 154.262C174.24 154.262 174.338 155.202 174.289 155.438C174.24 155.751 173.896 156.456 173.896 156.456Z" fill="url(#paint51_radial)"/>
<path d="M209.79 221.579C209.937 221.422 210.133 221.422 210.28 221.657C210.378 221.892 210.378 222.205 210.231 222.441C210.084 222.597 209.888 222.597 209.741 222.362C209.594 222.127 209.643 221.814 209.79 221.579ZM203.121 224.008C203.366 224.478 203.759 224.556 204.053 224.243C204.347 223.851 204.396 223.224 204.2 222.754C203.955 222.284 203.562 222.205 203.268 222.519C202.974 222.832 202.925 223.538 203.121 224.008ZM208.907 214.526C209.348 215.466 210.182 215.701 210.82 214.996C211.408 214.29 211.555 212.958 211.114 211.939C210.672 210.999 209.839 210.764 209.201 211.469C208.564 212.175 208.466 213.585 208.907 214.526ZM217.194 228.161C217.439 228.632 217.831 228.71 218.126 228.396C218.42 228.005 218.469 227.378 218.273 226.907C218.028 226.437 217.635 226.359 217.341 226.672C216.998 227.064 216.949 227.691 217.194 228.161Z" fill="url(#paint52_radial)"/>
<path opacity="0.5" d="M54.693 217.112C55.0853 218.209 55.968 218.522 56.6544 217.817C57.3409 217.19 57.5371 215.779 57.0958 214.682C56.7035 213.585 55.8209 213.272 55.1344 213.977C54.4969 214.604 54.3008 216.015 54.693 217.112Z" fill="url(#paint53_radial)"/>
<path opacity="0.5" d="M108.484 121.348C108.484 121.348 109.269 121.192 109.514 121.27C109.759 121.348 110.396 122.054 110.396 122.054C110.396 122.054 110.298 120.8 110.347 120.408C110.396 120.016 110.838 118.997 110.838 118.997C110.838 118.997 110.053 119.154 109.808 119.076C109.563 118.997 108.925 118.292 108.925 118.292C108.925 118.292 109.023 119.546 108.974 119.938C108.925 120.33 108.484 121.348 108.484 121.348Z" fill="url(#paint54_radial)"/>
<path opacity="0.5" d="M105.787 196.658C105.787 196.658 106.572 196.501 106.817 196.58C107.062 196.658 107.7 197.363 107.7 197.363C107.7 197.363 107.601 196.11 107.65 195.718C107.7 195.326 108.141 194.307 108.141 194.307C108.141 194.307 107.356 194.464 107.111 194.386C106.866 194.307 106.228 193.602 106.228 193.602C106.228 193.602 106.327 194.856 106.277 195.248C106.228 195.561 105.787 196.658 105.787 196.658Z" fill="url(#paint55_radial)"/>
<path opacity="0.5" d="M79.3574 186.392C79.3574 186.392 80.142 186.235 80.3871 186.314C80.6323 186.392 81.2698 187.097 81.2698 187.097C81.2698 187.097 81.1717 185.844 81.2208 185.452C81.2698 185.06 81.7111 184.041 81.7111 184.041C81.7111 184.041 80.9265 184.198 80.6814 184.12C80.4362 184.041 79.7987 183.336 79.7987 183.336C79.7987 183.336 79.8968 184.59 79.8478 184.982C79.7987 185.295 79.3574 186.392 79.3574 186.392Z" fill="url(#paint56_radial)"/>
<path opacity="0.5" d="M227.5 101.341C227.5 101.341 228.285 101.184 228.53 101.262C228.775 101.341 229.412 102.046 229.412 102.046C229.412 102.046 229.314 100.792 229.363 100.4C229.412 100.008 229.854 98.9896 229.854 98.9896C229.854 98.9896 229.069 99.1464 228.824 99.068C228.579 98.9897 227.941 98.2844 227.941 98.2844C227.941 98.2844 228.04 99.5382 227.99 99.93C227.941 100.322 227.5 101.341 227.5 101.341Z" fill="url(#paint57_radial)"/>
<path d="M295.756 199.532C295.851 199.42 295.993 199.457 296.064 199.607C296.135 199.757 296.111 199.982 296.016 200.094C295.922 200.207 295.78 200.169 295.708 200.019C295.637 199.869 295.661 199.645 295.756 199.532ZM291.35 201.106C291.492 201.406 291.776 201.481 291.989 201.256C292.179 201.031 292.226 200.581 292.084 200.244C291.942 199.944 291.658 199.869 291.444 200.094C291.231 200.357 291.184 200.806 291.35 201.106ZM295.187 194.848C295.495 195.485 296.04 195.635 296.443 195.148C296.846 194.661 296.94 193.799 296.632 193.162C296.324 192.525 295.78 192.375 295.377 192.862C294.974 193.312 294.879 194.211 295.187 194.848ZM300.683 203.879C300.825 204.179 301.109 204.254 301.323 204.029C301.512 203.804 301.56 203.355 301.417 203.017C301.275 202.718 300.991 202.643 300.778 202.867C300.588 203.092 300.541 203.542 300.683 203.879Z" fill="url(#paint58_radial)"/>
<path opacity="0.5" d="M309.213 121.293C309.628 122.01 310.56 122.215 311.285 121.754C312.01 121.345 312.217 120.423 311.751 119.707C311.337 118.99 310.405 118.785 309.679 119.246C309.006 119.655 308.799 120.577 309.213 121.293Z" fill="url(#paint59_radial)"/>
<path opacity="0.5" d="M359.836 101.914C359.836 101.914 360.621 101.757 360.866 101.835C361.111 101.914 361.748 102.619 361.748 102.619C361.748 102.619 361.65 101.365 361.699 100.973C361.748 100.581 362.19 99.5625 362.19 99.5625C362.19 99.5625 361.405 99.7193 361.16 99.6409C360.915 99.5625 360.277 98.8572 360.277 98.8572C360.277 98.8572 360.376 100.111 360.327 100.503C360.277 100.895 359.836 101.914 359.836 101.914Z" fill="url(#paint60_radial)"/>
<path opacity="0.5" d="M333.406 91.6476C333.406 91.6476 334.191 91.4909 334.436 91.5693C334.681 91.6476 335.319 92.3529 335.319 92.3529C335.319 92.3529 335.221 91.0991 335.27 90.7072C335.319 90.3154 335.76 89.2967 335.76 89.2967C335.76 89.2967 334.975 89.4534 334.73 89.375C334.485 89.2966 333.848 88.5913 333.848 88.5913C333.848 88.5913 333.946 89.8452 333.897 90.237C333.848 90.6289 333.406 91.6476 333.406 91.6476Z" fill="url(#paint61_radial)"/>
<path opacity="0.5" d="M251.077 8.26612C251.077 8.26612 251.862 8.10939 252.107 8.18775C252.352 8.26612 252.989 8.97141 252.989 8.97141C252.989 8.97141 252.891 7.71756 252.94 7.32573C252.989 6.9339 253.431 5.91514 253.431 5.91514C253.431 5.91514 252.646 6.07187 252.401 5.9935C252.156 5.91513 251.518 5.20984 251.518 5.20984C251.518 5.20984 251.616 6.4637 251.567 6.85553C251.518 7.24736 251.077 8.26612 251.077 8.26612Z" fill="url(#paint62_radial)"/>
<path d="M362.231 58.5888C362.425 58.4331 362.717 58.485 362.862 58.6927C363.008 58.9004 362.959 59.2119 362.765 59.3676C362.571 59.5234 362.28 59.4714 362.134 59.2638C361.989 59.0561 362.037 58.7446 362.231 58.5888ZM353.204 60.7694C353.495 61.1847 354.078 61.2885 354.515 60.977C354.903 60.6655 355 60.0425 354.709 59.5753C354.418 59.1599 353.835 59.0561 353.398 59.3676C352.962 59.731 352.865 60.354 353.204 60.7694ZM361.067 52.1512C361.698 53.0337 362.814 53.2414 363.639 52.5665C364.464 51.8916 364.658 50.6975 364.027 49.8149C363.396 48.9323 362.28 48.7246 361.455 49.3996C360.63 50.0226 360.436 51.2686 361.067 52.1512ZM372.326 64.6112C372.617 65.0265 373.2 65.1304 373.637 64.8189C374.025 64.5074 374.122 63.8844 373.831 63.4171C373.539 63.0018 372.957 62.8979 372.52 63.2095C372.132 63.521 372.035 64.144 372.326 64.6112Z" fill="url(#paint63_radial)"/>
<path opacity="0.45" d="M363.719 374.549C363.719 374.549 313.703 309.74 227.353 295.948C141.003 282.155 97.8524 246.107 143.111 214.917C188.419 183.728 337.387 205.905 388.971 162.726C440.556 119.546 459.532 364.361 363.719 374.549Z" fill="url(#paint64_radial)"/>
<path d="M-49.1536 193.837C-32.4818 200.576 -13.9467 197.755 2.87221 191.408C19.6421 185.06 35.3332 175.499 51.956 168.525C75.6888 158.494 101.481 153.949 126.489 158.337C154.978 163.274 180.917 179.339 207.739 191.408C234.561 203.476 264.914 211.548 291.932 200.185C307.231 193.759 320.617 181.377 336.652 178.164C355.677 174.324 375.095 184.12 390.197 197.912C391.129 198.46 389.511 197.207 389.266 198.304C384.755 219.776 385.931 242.737 392.551 263.504C385.539 258.41 382.107 248.223 374.653 243.913C371.172 241.875 367.2 241.405 363.326 240.935C351.754 239.603 339.986 238.192 328.512 240.465C310.761 243.991 295.07 255.903 277.467 260.37C256.921 265.542 235.493 260.056 215.683 252.141C195.873 244.226 176.7 233.804 156.155 228.631C125.41 220.873 92.3606 225.653 64.2637 241.875C50.632 249.712 38.2262 260.135 24.5456 267.736C10.8158 275.338 -4.92431 280.196 -19.6838 275.808C-31.1579 272.438 -40.8177 263.974 -50.0362 255.511C-53.4687 252.376 -56.9992 248.928 -58.6173 244.226C-60.2845 239.289 -59.598 233.804 -58.8625 228.631C-57.3915 218.365 -55.9204 208.1 -54.4494 197.834" fill="url(#paint65_radial)"/>
<path opacity="0.45" d="M-6.59152 103.089C13.3656 112.65 33.8131 121.427 55.1922 125.11C76.5713 128.793 99.2254 126.912 118.594 115.863C125.9 111.709 132.667 106.302 140.12 102.462C168.364 87.9644 201.463 98.0736 229.952 112.023C246.477 120.173 263.099 129.733 281.046 130.909C295.462 131.849 309.731 127.304 323.314 121.583C343.418 113.12 362.689 102.07 380.636 88.6696C382.009 101.757 383.725 114.766 385.784 127.774C382.058 122.681 375.683 120.8 369.897 121.505C364.111 122.21 358.668 125.11 353.421 128.009C337.583 136.943 322.186 146.817 307.329 157.71C300.562 162.647 293.354 167.976 285.361 167.819C279.281 167.741 273.642 164.45 268.199 161.237C252.606 151.989 237.013 142.742 221.42 133.495C212.397 128.166 203.081 122.681 192.98 121.192C183.418 119.781 173.758 121.975 164.343 124.326C129.038 133.338 93.5864 145.799 57.4968 143.291C29.5471 141.332 2.67605 130.439 -23.7537 119.703C-19.6347 114.374 -14.7313 109.828 -9.3865 106.224" fill="url(#paint66_radial)"/>
<path d="M410.792 43.9227C410.841 44.0011 410.253 44.7063 409.076 46.0386C408.487 46.7439 407.752 47.4492 406.82 48.3896C406.379 48.8598 405.889 49.3299 405.349 49.8001C404.81 50.2703 404.221 50.8189 403.633 51.2891C401.132 53.3266 398.043 55.756 394.218 57.9502C390.394 60.1445 385.882 62.2603 380.734 63.906C375.634 65.4733 369.897 66.4921 363.768 66.5705C357.638 66.7272 351.264 65.5517 344.791 64.2195C338.319 62.8873 331.699 61.3199 324.883 61.2416C318.067 61.0065 311.154 61.555 304.289 62.8089C297.424 64.1411 290.657 66.0219 284.037 68.0594C277.418 70.1753 270.945 72.4479 264.669 74.5638C258.392 76.6797 252.214 78.7172 246.379 80.3629C240.495 81.9302 234.856 83.2625 229.56 84.0461C228.236 84.2028 226.961 84.438 225.686 84.5947C224.411 84.673 223.185 84.8298 221.959 84.9081C220.734 84.9865 219.557 85.0649 218.429 85.2216C217.301 85.3 216.173 85.2216 215.095 85.3C214.016 85.3 212.986 85.3 211.956 85.3C210.927 85.3 209.995 85.3 209.063 85.2216C207.2 85.0649 205.484 84.9865 203.915 84.9081C202.346 84.8298 200.973 84.5947 199.796 84.4379C198.619 84.2812 197.589 84.1245 196.756 84.0461C195.922 83.9677 195.285 83.8894 194.892 83.811C194.451 83.7327 194.255 83.7327 194.255 83.7327C194.255 83.7327 193.372 83.5759 191.754 83.2625C190.92 83.1057 189.94 82.8706 188.763 82.6355C188.174 82.4788 187.537 82.4004 186.851 82.2437C186.164 82.087 185.478 81.8519 184.693 81.6951C183.173 81.3033 181.506 80.9115 179.691 80.4413C177.877 79.8927 175.965 79.2658 173.856 78.6389C171.748 78.0119 169.59 77.2283 167.286 76.3662C166.158 75.9744 164.932 75.5826 163.755 75.1124C162.578 74.6422 161.352 74.172 160.078 73.6234C150.124 69.6268 138.747 64.1411 126.881 57.6368C120.948 54.3454 114.868 50.8973 108.738 47.2924C102.609 43.6876 96.4305 40.0044 90.105 36.5563C86.9668 34.8322 83.7795 33.1865 80.5923 31.6976C77.405 30.2086 74.1687 28.798 70.9324 27.5442C67.6961 26.3687 64.4108 25.2716 61.1745 24.4879C60.3409 24.2528 59.5564 24.0961 58.7228 23.9393C57.8892 23.7826 57.1046 23.5475 56.2711 23.4691C54.6529 23.234 53.0348 22.9206 51.4166 22.7639C44.944 22.0586 38.6676 22.2153 32.7344 22.999C26.8012 23.7826 21.2603 25.1932 16.2587 26.8389C15.0328 27.3091 13.7579 27.6226 12.5811 28.0927C11.4043 28.5629 10.2274 28.9548 9.09965 29.425C6.84405 30.3654 4.73556 31.2274 2.77417 32.1678C-1.19764 33.9702 -4.532 35.7726 -7.27795 37.3399C-10.0239 38.9073 -12.1814 40.1611 -13.6034 41.0231C-15.0745 41.8852 -15.859 42.3554 -15.859 42.277C-15.9081 42.1986 -15.1725 41.6501 -13.7505 40.7097C-12.3776 39.6909 -10.2691 38.3587 -7.57216 36.6346C-4.87525 34.989 -1.54089 33.0298 2.38189 31.149C4.34328 30.1303 6.45177 29.1899 8.70737 28.1711C9.83517 27.7009 11.012 27.2307 12.1888 26.7605C13.3657 26.2903 14.6406 25.8985 15.8664 25.4283C20.917 23.6259 26.507 22.1369 32.5383 21.1965C38.5695 20.2561 44.9931 19.9427 51.6128 20.5696C53.2799 20.648 54.9471 20.9614 56.6143 21.1965C57.4479 21.3533 58.2815 21.51 59.1151 21.6667C59.9487 21.8235 60.7822 21.9802 61.6158 22.2153C64.9502 22.999 68.2846 24.0177 71.6189 25.1932C74.9533 26.3687 78.2386 27.7793 81.4749 29.2682C84.7112 30.7572 87.9475 32.4029 91.1347 34.0486C97.5093 37.4183 103.786 41.1015 109.915 44.5496C116.044 48.0761 122.174 51.4458 128.058 54.6588C139.924 61.0065 151.202 66.3354 161.058 70.1753C162.284 70.6455 163.51 71.1157 164.687 71.5859C165.864 72.0561 167.041 72.4479 168.168 72.8398C170.424 73.6234 172.581 74.4071 174.641 74.9556C176.7 75.5826 178.613 76.1311 180.378 76.6797C182.143 77.1499 183.81 77.5417 185.281 77.8552C186.017 78.0119 186.703 78.247 187.39 78.4037C188.076 78.5605 188.665 78.6388 189.253 78.7956C190.43 79.0307 191.411 79.1874 192.195 79.3441C193.813 79.6576 194.647 79.8143 194.647 79.8143C194.647 79.8143 194.843 79.8927 195.285 79.8927C195.677 79.9711 196.314 80.0494 197.099 80.1278C197.883 80.2062 198.913 80.3629 200.041 80.5196C201.218 80.6764 202.542 80.9115 204.062 80.9898C205.582 81.0682 207.249 81.2249 209.063 81.3817C209.995 81.46 210.927 81.46 211.907 81.46C212.888 81.46 213.918 81.46 214.947 81.46C215.977 81.46 217.105 81.46 218.184 81.46C219.312 81.3817 220.439 81.3033 221.616 81.2249C222.793 81.1466 224.019 81.0682 225.245 80.9898C226.471 80.8331 227.745 80.6764 229.02 80.4413C234.169 79.8143 239.71 78.4821 245.545 76.9932C251.38 75.4258 257.461 73.5451 263.737 71.4292C270.062 69.3133 276.535 67.119 283.253 65.0815C289.971 63.044 296.835 61.2416 303.798 59.9877C310.761 58.7339 317.871 58.2637 324.883 58.6555C331.895 58.8906 338.613 60.6147 345.037 62.0252C351.46 63.4358 357.688 64.6897 363.621 64.6113C369.554 64.6113 375.193 63.7493 380.243 62.3387C385.294 60.9281 389.756 58.969 393.581 56.8531C397.406 54.8156 400.544 52.543 403.045 50.5838C403.682 50.1136 404.27 49.6434 404.81 49.1732C405.349 48.703 405.84 48.2328 406.33 47.841C407.262 46.979 408.046 46.2737 408.684 45.7251C410.057 44.4713 410.743 43.8443 410.792 43.9227Z" fill="url(#paint67_radial)"/>
<path d="M391.521 254.179C391.423 254.414 388.285 253.003 382.793 250.574C380.047 249.399 376.664 247.988 372.79 246.656C368.867 245.323 364.405 244.07 359.502 243.443C357.05 243.051 354.451 243.051 351.803 243.051C349.155 243.129 346.409 243.599 343.663 244.226C338.172 245.559 332.631 248.301 327.237 251.75C321.843 255.276 316.498 259.429 311.055 263.818C305.613 268.128 299.974 272.595 293.893 276.278C287.813 280.04 281.389 282.939 274.868 285.212C268.346 287.406 261.776 288.817 255.303 289.6C248.83 290.384 242.554 290.306 236.621 289.757C230.687 289.13 225.147 288.033 220.145 286.701C215.143 285.369 210.583 283.88 206.611 282.469C202.64 281.058 199.207 279.726 196.412 278.629C190.822 276.356 187.635 275.103 187.635 275.103C187.635 275.103 186.85 274.789 185.379 274.162C183.908 273.535 181.751 272.673 178.956 271.498C177.583 270.949 176.063 270.322 174.396 269.695C172.728 269.068 170.914 268.363 169.002 267.658C165.128 266.326 160.764 264.837 155.91 263.661C151.055 262.407 145.759 261.389 140.071 260.683C134.432 259.978 128.401 259.665 122.174 259.743C109.719 259.821 96.4304 261.702 83.4362 265.15C70.393 268.52 57.742 273.614 46.2189 279.334C34.6957 285.055 24.3004 291.324 15.5722 297.124C6.84401 302.923 -0.216991 308.173 -5.12046 311.856C-7.5722 313.659 -9.53359 315.148 -10.8575 316.166C-12.1815 317.107 -12.917 317.577 -13.0151 317.499C-13.0641 317.42 -12.4757 316.715 -11.2498 315.618C-10.0239 314.442 -8.20965 312.797 -5.85598 310.759C-1.14865 306.684 5.71621 301.042 14.3463 294.851C22.9274 288.66 33.2737 281.92 44.8459 275.808C56.4181 269.695 69.2162 264.21 82.4555 260.448C95.6949 256.608 109.278 254.414 122.125 254.1C128.548 253.944 134.776 254.1 140.66 254.727C146.544 255.354 152.085 256.295 157.135 257.47C162.186 258.646 166.746 260.056 170.767 261.389C172.777 262.094 174.641 262.721 176.308 263.348C178.024 263.975 179.593 264.523 180.966 265.072C183.81 266.169 185.968 267.031 187.488 267.658C188.959 268.285 189.793 268.598 189.793 268.598C189.793 268.598 192.931 269.93 198.472 272.203C201.218 273.3 204.601 274.711 208.426 276.121C212.299 277.61 216.664 279.099 221.469 280.51C226.274 281.92 231.57 283.018 237.16 283.723C242.75 284.35 248.732 284.507 254.911 283.958C261.04 283.331 267.365 282.156 273.642 280.196C279.869 278.159 286.097 275.494 291.981 272.046C297.865 268.598 303.455 264.445 308.947 260.291C314.488 256.138 319.98 251.906 325.668 248.458C331.356 245.088 337.24 242.346 343.124 241.092C346.066 240.465 348.959 240.151 351.754 240.151C354.549 240.151 357.246 240.386 359.796 240.857C364.895 241.719 369.456 243.208 373.329 244.775C377.252 246.342 380.587 247.91 383.284 249.32C388.677 252.141 391.619 254.022 391.521 254.179Z" fill="url(#paint68_radial)"/>
<path opacity="0.45" d="M-7.03279 -15.0086C-7.03279 -15.0086 45.6305 17.8268 108.101 9.75511C170.571 1.6834 198.276 -24.8827 239.023 -23.0803C279.771 -21.1995 323.216 26.4471 357.982 23.9394C392.747 21.4317 380.783 -58.4234 380.783 -58.4234L360.139 -16.9677C360.139 -16.9677 296.59 -90.6318 231.962 -83.814C167.335 -76.9961 148.996 -33.3462 100.598 -20.4942C52.2011 -7.64216 -8.65094 -40.4775 -8.65094 -40.4775L-7.03279 -15.0086Z" fill="url(#paint69_radial)"/>
</g>
<path d="M222.405 157.871C222.77 156.696 222.185 155.423 221.098 155.028C220.012 154.633 218.835 155.266 218.47 156.441C218.105 157.617 218.69 158.89 219.777 159.285C220.863 159.68 222.04 159.047 222.405 157.871Z" fill="url(#paint70_linear)"/>
<path style="mix-blend-mode:screen" d="M221.246 156.884C221.511 156.889 221.777 156.934 222.032 156.878C222.185 156.841 222.332 156.78 222.468 156.695C222.386 156.27 222.191 155.88 221.908 155.572C221.624 155.264 221.264 155.052 220.871 154.961C220.479 154.87 220.07 154.904 219.695 155.06C219.32 155.215 218.994 155.485 218.758 155.836C218.522 156.188 218.385 156.606 218.364 157.04C218.344 157.474 218.44 157.905 218.641 158.281C218.842 158.657 219.14 158.962 219.498 159.159C219.856 159.356 220.259 159.436 220.659 159.389C220.692 159.332 220.717 159.269 220.731 159.203C220.801 158.872 220.568 158.568 220.426 158.265C220.256 157.898 220.233 157.405 220.509 157.118C220.7 156.923 220.983 156.879 221.246 156.884Z" fill="url(#paint71_linear)"/>
<path style="mix-blend-mode:screen" d="M221.698 155.522C221.725 155.497 221.752 155.471 221.778 155.443C221.369 155.066 220.841 154.874 220.305 154.909C219.769 154.943 219.266 155.202 218.902 155.63C218.539 156.057 218.343 156.621 218.355 157.202C218.368 157.783 218.589 158.336 218.97 158.745L219.015 158.79C219.092 158.783 219.167 158.762 219.238 158.728C219.592 158.555 219.717 158.093 219.768 157.681C219.82 157.269 219.835 156.821 220.081 156.501C220.346 156.162 220.788 156.078 221.161 155.895C221.355 155.799 221.536 155.673 221.698 155.522V155.522Z" fill="url(#paint72_linear)"/>
<path style="mix-blend-mode:screen" d="M218.97 155.569C218.761 155.796 218.598 156.069 218.494 156.369C218.39 156.67 218.347 156.991 218.368 157.311C218.451 157.363 218.544 157.394 218.64 157.402C218.736 157.41 218.833 157.395 218.923 157.358C219.182 157.235 219.3 156.911 219.365 156.614C219.429 156.317 219.486 155.993 219.691 155.781C219.972 155.494 220.486 155.472 220.636 155.084C220.655 155.035 220.667 154.983 220.67 154.931C220.361 154.892 220.047 154.929 219.753 155.04C219.459 155.15 219.191 155.331 218.97 155.569V155.569Z" fill="url(#paint73_linear)"/>
</g>
</g>
<defs>
<radialGradient id="paint0_radial" cx="0" cy="0" r="1" gradientUnits="userSpaceOnUse" gradientTransform="translate(172.507 135.037) scale(188.25 204.959)">
<stop offset="0.0592593" stop-color="#071256"/>
<stop offset="0.963" stop-color="#030A2B"/>
</radialGradient>
<radialGradient id="paint1_radial" cx="0" cy="0" r="1" gradientUnits="userSpaceOnUse" gradientTransform="translate(67.1802 94.6384) scale(110.129 176.007)">
<stop offset="0.0592593" stop-color="#0A1656"/>
<stop offset="0.8889" stop-color="#4478AF"/>
</radialGradient>
<radialGradient id="paint2_radial" cx="0" cy="0" r="1" gradientUnits="userSpaceOnUse" gradientTransform="translate(67.1802 94.6386) scale(110.129 176.008)">
<stop offset="0.0592593" stop-color="#0A1656"/>
<stop offset="0.8889" stop-color="#4478AF"/>
</radialGradient>
<radialGradient id="paint3_radial" cx="0" cy="0" r="1" gradientUnits="userSpaceOnUse" gradientTransform="translate(67.1794 94.6385) scale(110.131 176.007)">
<stop offset="0.0592593" stop-color="#0A1656"/>
<stop offset="0.8889" stop-color="#4478AF"/>
</radialGradient>
<radialGradient id="paint4_radial" cx="0" cy="0" r="1" gradientUnits="userSpaceOnUse" gradientTransform="translate(285.661 297.699) scale(110.131 176.011)">
<stop offset="0.0592593" stop-color="#0A1656"/>
<stop offset="0.8889" stop-color="#4478AF"/>
</radialGradient>
<radialGradient id="paint5_radial" cx="0" cy="0" r="1" gradientUnits="userSpaceOnUse" gradientTransform="translate(285.661 297.698) scale(110.13 176.008)">
<stop offset="0.0592593" stop-color="#0A1656"/>
<stop offset="0.8889" stop-color="#4478AF"/>
</radialGradient>
<radialGradient id="paint6_radial" cx="0" cy="0" r="1" gradientUnits="userSpaceOnUse" gradientTransform="translate(285.662 297.699) scale(110.13 176.009)">
<stop offset="0.0592593" stop-color="#0A1656"/>
<stop offset="0.8889" stop-color="#4478AF"/>
</radialGradient>
<radialGradient id="paint7_radial" cx="0" cy="0" r="1" gradientUnits="userSpaceOnUse" gradientTransform="translate(285.661 297.697) scale(110.134 176.006)">
<stop offset="0.0592593" stop-color="#0A1656"/>
<stop offset="0.8889" stop-color="#4478AF"/>
</radialGradient>
<radialGradient id="paint8_radial" cx="0" cy="0" r="1" gradientUnits="userSpaceOnUse" gradientTransform="translate(285.662 297.698) scale(110.132 176.008)">
<stop offset="0.0592593" stop-color="#0A1656"/>
<stop offset="0.8889" stop-color="#4478AF"/>
</radialGradient>
<radialGradient id="paint9_radial" cx="0" cy="0" r="1" gradientUnits="userSpaceOnUse" gradientTransform="translate(285.662 297.698) scale(110.134 176.007)">
<stop offset="0.0592593" stop-color="#0A1656"/>
<stop offset="0.8889" stop-color="#4478AF"/>
</radialGradient>
<radialGradient id="paint10_radial" cx="0" cy="0" r="1" gradientUnits="userSpaceOnUse" gradientTransform="translate(239.209 209.608) scale(8.64265 13.8124)">
<stop offset="0.0592593" stop-color="#0A1656"/>
<stop offset="0.8889" stop-color="#4478AF"/>
</radialGradient>
<radialGradient id="paint11_radial" cx="0" cy="0" r="1" gradientUnits="userSpaceOnUse" gradientTransform="translate(324.751 160.56) rotate(174.429) scale(4.12209 4.71333)">
<stop offset="0.0592593" stop-color="#0A1656"/>
<stop offset="0.8889" stop-color="#4478AF"/>
</radialGradient>
<radialGradient id="paint12_radial" cx="0" cy="0" r="1" gradientUnits="userSpaceOnUse" gradientTransform="translate(175.825 273.331) scale(79.9123 127.71)">
<stop offset="0.0592593" stop-color="#0A1656"/>
<stop offset="0.8889" stop-color="#4478AF"/>
</radialGradient>
<radialGradient id="paint13_radial" cx="0" cy="0" r="1" gradientUnits="userSpaceOnUse" gradientTransform="translate(175.826 273.334) scale(79.9105 127.713)">
<stop offset="0.0592593" stop-color="#0A1656"/>
<stop offset="0.8889" stop-color="#4478AF"/>
</radialGradient>
<radialGradient id="paint14_radial" cx="0" cy="0" r="1" gradientUnits="userSpaceOnUse" gradientTransform="translate(175.826 273.331) scale(79.9102 127.71)">
<stop offset="0.0592593" stop-color="#0A1656"/>
<stop offset="0.8889" stop-color="#4478AF"/>
</radialGradient>
<radialGradient id="paint15_radial" cx="0" cy="0" r="1" gradientUnits="userSpaceOnUse" gradientTransform="translate(175.826 273.333) scale(79.9082 127.713)">
<stop offset="0.0592593" stop-color="#0A1656"/>
<stop offset="0.8889" stop-color="#4478AF"/>
</radialGradient>
<radialGradient id="paint16_radial" cx="0" cy="0" r="1" gradientUnits="userSpaceOnUse" gradientTransform="translate(175.825 273.331) scale(79.9084 127.71)">
<stop offset="0.0592593" stop-color="#0A1656"/>
<stop offset="0.8889" stop-color="#4478AF"/>
</radialGradient>
<radialGradient id="paint17_radial" cx="0" cy="0" r="1" gradientUnits="userSpaceOnUse" gradientTransform="translate(175.826 273.333) scale(79.9114 127.712)">
<stop offset="0.0592593" stop-color="#0A1656"/>
<stop offset="0.8889" stop-color="#4478AF"/>
</radialGradient>
<radialGradient id="paint18_radial" cx="0" cy="0" r="1" gradientUnits="userSpaceOnUse" gradientTransform="translate(142.12 209.414) scale(6.271 10.0222)">
<stop offset="0.0592593" stop-color="#0A1656"/>
<stop offset="0.8889" stop-color="#4478AF"/>
</radialGradient>
<radialGradient id="paint19_radial" cx="0" cy="0" r="1" gradientUnits="userSpaceOnUse" gradientTransform="translate(204.391 170.118) rotate(174.42) scale(6.39682 7.32632)">
<stop offset="0.0592593" stop-color="#0A1656"/>
<stop offset="0.8889" stop-color="#4478AF"/>
</radialGradient>
<radialGradient id="paint20_radial" cx="0" cy="0" r="1" gradientUnits="userSpaceOnUse" gradientTransform="translate(205.623 -39.7177) rotate(-122.034) scale(106.528 95.8011)">
<stop offset="0.0592593" stop-color="#0A1656"/>
<stop offset="0.8889" stop-color="#4478AF"/>
</radialGradient>
<radialGradient id="paint21_radial" cx="0" cy="0" r="1" gradientUnits="userSpaceOnUse" gradientTransform="translate(205.624 -39.7165) rotate(-122.033) scale(106.526 95.799)">
<stop offset="0.0592593" stop-color="#0A1656"/>
<stop offset="0.8889" stop-color="#4478AF"/>
</radialGradient>
<radialGradient id="paint22_radial" cx="0" cy="0" r="1" gradientUnits="userSpaceOnUse" gradientTransform="translate(205.623 -39.7157) rotate(-122.034) scale(106.525 95.7987)">
<stop offset="0.0592593" stop-color="#0A1656"/>
<stop offset="0.8889" stop-color="#4478AF"/>
</radialGradient>
<radialGradient id="paint23_radial" cx="0" cy="0" r="1" gradientUnits="userSpaceOnUse" gradientTransform="translate(201.26 44.1536) rotate(-132.054) scale(6.76614 6.7304)">
<stop offset="0.0592593" stop-color="#0A1656"/>
<stop offset="0.8889" stop-color="#4478AF"/>
</radialGradient>
<radialGradient id="paint24_radial" cx="0" cy="0" r="1" gradientUnits="userSpaceOnUse" gradientTransform="translate(336.616 -34.6532) rotate(-122.033) scale(146.809 132.025)">
<stop offset="0.0592593" stop-color="#0A1656"/>
<stop offset="0.8889" stop-color="#4478AF"/>
</radialGradient>
<radialGradient id="paint25_radial" cx="0" cy="0" r="1" gradientUnits="userSpaceOnUse" gradientTransform="translate(336.621 -34.6508) rotate(-122.035) scale(146.809 132.029)">
<stop offset="0.0592593" stop-color="#0A1656"/>
<stop offset="0.8889" stop-color="#4478AF"/>
</radialGradient>
<radialGradient id="paint26_radial" cx="0" cy="0" r="1" gradientUnits="userSpaceOnUse" gradientTransform="translate(103.328 151.922) rotate(-122.035) scale(146.813 132.032)">
<stop offset="0.0592593" stop-color="#0A1656"/>
<stop offset="0.8889" stop-color="#4478AF"/>
</radialGradient>
<radialGradient id="paint27_radial" cx="0" cy="0" r="1" gradientUnits="userSpaceOnUse" gradientTransform="translate(103.329 151.92) rotate(-122.035) scale(146.814 132.033)">
<stop offset="0.0592593" stop-color="#0A1656"/>
<stop offset="0.8889" stop-color="#4478AF"/>
</radialGradient>
<radialGradient id="paint28_radial" cx="0" cy="0" r="1" gradientUnits="userSpaceOnUse" gradientTransform="translate(103.329 151.921) rotate(-122.035) scale(146.814 132.034)">
<stop offset="0.0592593" stop-color="#0A1656"/>
<stop offset="0.8889" stop-color="#4478AF"/>
</radialGradient>
<radialGradient id="paint29_radial" cx="0" cy="0" r="1" gradientUnits="userSpaceOnUse" gradientTransform="translate(103.328 151.921) rotate(-122.035) scale(146.814 132.033)">
<stop offset="0.0592593" stop-color="#0A1656"/>
<stop offset="0.8889" stop-color="#4478AF"/>
</radialGradient>
<radialGradient id="paint30_radial" cx="0" cy="0" r="1" gradientUnits="userSpaceOnUse" gradientTransform="translate(103.328 151.919) rotate(-122.034) scale(146.816 132.033)">
<stop offset="0.0592593" stop-color="#0A1656"/>
<stop offset="0.8889" stop-color="#4478AF"/>
</radialGradient>
<radialGradient id="paint31_radial" cx="0" cy="0" r="1" gradientUnits="userSpaceOnUse" gradientTransform="translate(103.328 151.923) rotate(-122.035) scale(146.811 132.032)">
<stop offset="0.0592593" stop-color="#0A1656"/>
<stop offset="0.8889" stop-color="#4478AF"/>
</radialGradient>
<radialGradient id="paint32_radial" cx="0" cy="0" r="1" gradientUnits="userSpaceOnUse" gradientTransform="translate(13.981 206.017) rotate(-122.035) scale(11.816 10.6265)">
<stop offset="0.0592593" stop-color="#0A1656"/>
<stop offset="0.8889" stop-color="#4478AF"/>
</radialGradient>
<radialGradient id="paint33_radial" cx="0" cy="0" r="1" gradientUnits="userSpaceOnUse" gradientTransform="translate(252.513 183.496) scale(1.49193)">
<stop offset="0.0592593" stop-color="#E47E99"/>
<stop offset="0.5259" stop-color="#E43D99"/>
<stop offset="0.9926" stop-color="#B30058"/>
</radialGradient>
<radialGradient id="paint34_radial" cx="0" cy="0" r="1" gradientUnits="userSpaceOnUse" gradientTransform="translate(256.397 311.083) scale(1.3637 2.17951)">
<stop offset="0.0592593" stop-color="#E47E99"/>
<stop offset="0.5259" stop-color="#E43D99"/>
<stop offset="0.9926" stop-color="#B30058"/>
</radialGradient>
<radialGradient id="paint35_radial" cx="0" cy="0" r="1" gradientUnits="userSpaceOnUse" gradientTransform="translate(224.994 254.806) scale(1.36364 2.17939)">
<stop offset="0.0592593" stop-color="#E47E99"/>
<stop offset="0.5259" stop-color="#E43D99"/>
<stop offset="0.9926" stop-color="#B30058"/>
</radialGradient>
<radialGradient id="paint36_radial" cx="0" cy="0" r="1" gradientUnits="userSpaceOnUse" gradientTransform="translate(248.22 232.212) scale(1.36376 2.17945)">
<stop offset="0.0592593" stop-color="#E47E99"/>
<stop offset="0.5259" stop-color="#E43D99"/>
<stop offset="0.9926" stop-color="#B30058"/>
</radialGradient>
<radialGradient id="paint37_radial" cx="0" cy="0" r="1" gradientUnits="userSpaceOnUse" gradientTransform="translate(343.294 198.097) scale(1.36361 2.17935)">
<stop offset="0.0592593" stop-color="#E47E99"/>
<stop offset="0.5259" stop-color="#E43D99"/>
<stop offset="0.9926" stop-color="#B30058"/>
</radialGradient>
<radialGradient id="paint38_radial" cx="0" cy="0" r="1" gradientUnits="userSpaceOnUse" gradientTransform="translate(312.726 290.62) scale(1.36368 2.17932)">
<stop offset="0.0592593" stop-color="#E47E99"/>
<stop offset="0.5259" stop-color="#E43D99"/>
<stop offset="0.9926" stop-color="#B30058"/>
</radialGradient>
<radialGradient id="paint39_radial" cx="0" cy="0" r="1" gradientUnits="userSpaceOnUse" gradientTransform="translate(329.136 259.104) scale(8.57405 13.7027)">
<stop offset="0.0592593" stop-color="#E47E99"/>
<stop offset="0.5259" stop-color="#E43D99"/>
<stop offset="0.9926" stop-color="#B30058"/>
</radialGradient>
<radialGradient id="paint40_radial" cx="0" cy="0" r="1" gradientUnits="userSpaceOnUse" gradientTransform="translate(235.601 280.236) scale(8.60672 13.755)">
<stop offset="0.0592593" stop-color="#E47E99"/>
<stop offset="0.5259" stop-color="#E43D99"/>
<stop offset="0.9926" stop-color="#B30058"/>
</radialGradient>
<radialGradient id="paint41_radial" cx="0" cy="0" r="1" gradientUnits="userSpaceOnUse" gradientTransform="translate(73.4603 32.3765) scale(1.36372 2.17945)">
<stop offset="0.0592593" stop-color="#E47E99"/>
<stop offset="0.5259" stop-color="#E43D99"/>
<stop offset="0.9926" stop-color="#B30058"/>
</radialGradient>
<radialGradient id="paint42_radial" cx="0" cy="0" r="1" gradientUnits="userSpaceOnUse" gradientTransform="translate(129.79 11.9129) scale(1.36367 2.17935)">
<stop offset="0.0592593" stop-color="#E47E99"/>
<stop offset="0.5259" stop-color="#E43D99"/>
<stop offset="0.9926" stop-color="#B30058"/>
</radialGradient>
<radialGradient id="paint43_radial" cx="0" cy="0" r="1" gradientUnits="userSpaceOnUse" gradientTransform="translate(187.443 55.0174) scale(0.989459 1.58134)">
<stop offset="0.0592593" stop-color="#E47E99"/>
<stop offset="0.5259" stop-color="#E43D99"/>
<stop offset="0.9926" stop-color="#B30058"/>
</radialGradient>
<radialGradient id="paint44_radial" cx="0" cy="0" r="1" gradientUnits="userSpaceOnUse" gradientTransform="translate(164.658 14.1828) scale(0.989429 1.58134)">
<stop offset="0.0592593" stop-color="#E47E99"/>
<stop offset="0.5259" stop-color="#E43D99"/>
<stop offset="0.9926" stop-color="#B30058"/>
</radialGradient>
<radialGradient id="paint45_radial" cx="0" cy="0" r="1" gradientUnits="userSpaceOnUse" gradientTransform="translate(228.315 40.1692) scale(0.989521 1.58135)">
<stop offset="0.0592593" stop-color="#E47E99"/>
<stop offset="0.5259" stop-color="#E43D99"/>
<stop offset="0.9926" stop-color="#B30058"/>
</radialGradient>
<radialGradient id="paint46_radial" cx="0" cy="0" r="1" gradientUnits="userSpaceOnUse" gradientTransform="translate(171.212 260.771) scale(1.02214 1.63356)">
<stop offset="0.0592593" stop-color="#E47E99"/>
<stop offset="0.5259" stop-color="#E43D99"/>
<stop offset="0.9926" stop-color="#B30058"/>
</radialGradient>
<radialGradient id="paint47_radial" cx="0" cy="0" r="1" gradientUnits="userSpaceOnUse" gradientTransform="translate(210.232 191.314) scale(0.866968 1.3856)">
<stop offset="0.0592593" stop-color="#E47E99"/>
<stop offset="0.5259" stop-color="#E43D99"/>
<stop offset="0.9926" stop-color="#B30058"/>
</radialGradient>
<radialGradient id="paint48_radial" cx="0" cy="0" r="1" gradientUnits="userSpaceOnUse" gradientTransform="translate(208.276 245.938) scale(0.866984 1.38554)">
<stop offset="0.0592593" stop-color="#E47E99"/>
<stop offset="0.5259" stop-color="#E43D99"/>
<stop offset="0.9926" stop-color="#B30058"/>
</radialGradient>
<radialGradient id="paint49_radial" cx="0" cy="0" r="1" gradientUnits="userSpaceOnUse" gradientTransform="translate(189.107 238.486) scale(0.867015 1.3856)">
<stop offset="0.0592593" stop-color="#E47E99"/>
<stop offset="0.5259" stop-color="#E43D99"/>
<stop offset="0.9926" stop-color="#B30058"/>
</radialGradient>
<radialGradient id="paint50_radial" cx="0" cy="0" r="1" gradientUnits="userSpaceOnUse" gradientTransform="translate(129.375 178.031) scale(0.866968 1.38561)">
<stop offset="0.0592593" stop-color="#E47E99"/>
<stop offset="0.5259" stop-color="#E43D99"/>
<stop offset="0.9926" stop-color="#B30058"/>
</radialGradient>
<radialGradient id="paint51_radial" cx="0" cy="0" r="1" gradientUnits="userSpaceOnUse" gradientTransform="translate(174.761 155.625) scale(0.866968 1.3856)">
<stop offset="0.0592593" stop-color="#E47E99"/>
<stop offset="0.5259" stop-color="#E43D99"/>
<stop offset="0.9926" stop-color="#B30058"/>
</radialGradient>
<radialGradient id="paint52_radial" cx="0" cy="0" r="1" gradientUnits="userSpaceOnUse" gradientTransform="translate(210.703 219.852) scale(6.68713 10.6873)">
<stop offset="0.0592593" stop-color="#E47E99"/>
<stop offset="0.5259" stop-color="#E43D99"/>
<stop offset="0.9926" stop-color="#B30058"/>
</radialGradient>
<radialGradient id="paint53_radial" cx="0" cy="0" r="1" gradientUnits="userSpaceOnUse" gradientTransform="translate(55.8895 215.898) scale(1.40867 2.25133)">
<stop offset="0.0592593" stop-color="#E47E99"/>
<stop offset="0.5259" stop-color="#E43D99"/>
<stop offset="0.9926" stop-color="#B30058"/>
</radialGradient>
<radialGradient id="paint54_radial" cx="0" cy="0" r="1" gradientUnits="userSpaceOnUse" gradientTransform="translate(109.666 120.174) scale(1.19491 1.90963)">
<stop offset="0.0592593" stop-color="#E47E99"/>
<stop offset="0.5259" stop-color="#E43D99"/>
<stop offset="0.9926" stop-color="#B30058"/>
</radialGradient>
<radialGradient id="paint55_radial" cx="0" cy="0" r="1" gradientUnits="userSpaceOnUse" gradientTransform="translate(106.971 195.456) scale(1.19491 1.90964)">
<stop offset="0.0592593" stop-color="#E47E99"/>
<stop offset="0.5259" stop-color="#E43D99"/>
<stop offset="0.9926" stop-color="#B30058"/>
</radialGradient>
<radialGradient id="paint56_radial" cx="0" cy="0" r="1" gradientUnits="userSpaceOnUse" gradientTransform="translate(80.5514 185.185) scale(1.19489 1.90962)">
<stop offset="0.0592593" stop-color="#E47E99"/>
<stop offset="0.5259" stop-color="#E43D99"/>
<stop offset="0.9926" stop-color="#B30058"/>
</radialGradient>
<radialGradient id="paint57_radial" cx="0" cy="0" r="1" gradientUnits="userSpaceOnUse" gradientTransform="translate(228.685 100.193) scale(1.19488 1.90961)">
<stop offset="0.0592593" stop-color="#E47E99"/>
<stop offset="0.5259" stop-color="#E43D99"/>
<stop offset="0.9926" stop-color="#B30058"/>
</radialGradient>
<radialGradient id="paint58_radial" cx="0" cy="0" r="1" gradientUnits="userSpaceOnUse" gradientTransform="translate(296.38 198.366) scale(4.45233 7.04326)">
<stop offset="0.0592593" stop-color="#E47E99"/>
<stop offset="0.5259" stop-color="#E43D99"/>
<stop offset="0.9926" stop-color="#B30058"/>
</radialGradient>
<radialGradient id="paint59_radial" cx="0" cy="0" r="1" gradientUnits="userSpaceOnUse" gradientTransform="translate(310.478 120.507) scale(1.48787 1.47043)">
<stop offset="0.0592593" stop-color="#E47E99"/>
<stop offset="0.5259" stop-color="#E43D99"/>
<stop offset="0.9926" stop-color="#B30058"/>
</radialGradient>
<radialGradient id="paint60_radial" cx="0" cy="0" r="1" gradientUnits="userSpaceOnUse" gradientTransform="translate(361.021 100.721) scale(1.19483 1.90964)">
<stop offset="0.0592593" stop-color="#E47E99"/>
<stop offset="0.5259" stop-color="#E43D99"/>
<stop offset="0.9926" stop-color="#B30058"/>
</radialGradient>
<radialGradient id="paint61_radial" cx="0" cy="0" r="1" gradientUnits="userSpaceOnUse" gradientTransform="translate(334.601 90.4505) scale(1.19488 1.90963)">
<stop offset="0.0592593" stop-color="#E47E99"/>
<stop offset="0.5259" stop-color="#E43D99"/>
<stop offset="0.9926" stop-color="#B30058"/>
</radialGradient>
<radialGradient id="paint62_radial" cx="0" cy="0" r="1" gradientUnits="userSpaceOnUse" gradientTransform="translate(252.28 7.132) scale(1.19493 1.90963)">
<stop offset="0.0592593" stop-color="#E47E99"/>
<stop offset="0.5259" stop-color="#E43D99"/>
<stop offset="0.9926" stop-color="#B30058"/>
</radialGradient>
<radialGradient id="paint63_radial" cx="0" cy="0" r="1" gradientUnits="userSpaceOnUse" gradientTransform="translate(363.51 56.98) scale(9.12177 9.75783)">
<stop offset="0.0592593" stop-color="#E47E99"/>
<stop offset="0.5259" stop-color="#E43D99"/>
<stop offset="0.9926" stop-color="#B30058"/>
</radialGradient>
<radialGradient id="paint64_radial" cx="0" cy="0" r="1" gradientUnits="userSpaceOnUse" gradientTransform="translate(278.278 266.092) rotate(180) scale(127.626 145.485)">
<stop offset="0.037037" stop-color="#030A2B"/>
<stop offset="0.9407" stop-color="#071256"/>
</radialGradient>
<radialGradient id="paint65_radial" cx="0" cy="0" r="1" gradientUnits="userSpaceOnUse" gradientTransform="translate(166.387 217.033) scale(164.191 187.166)">
<stop offset="0.0592593" stop-color="#071256"/>
<stop offset="0.963" stop-color="#030A2B"/>
</radialGradient>
<radialGradient id="paint66_radial" cx="0" cy="0" r="1" gradientUnits="userSpaceOnUse" gradientTransform="translate(181.003 128.273) scale(146.851 167.399)">
<stop offset="0.0592593" stop-color="#071256"/>
<stop offset="0.963" stop-color="#030A2B"/>
</radialGradient>
<radialGradient id="paint67_radial" cx="0" cy="0" r="1" gradientUnits="userSpaceOnUse" gradientTransform="translate(197.458 52.6477) scale(152.208 173.506)">
<stop offset="0.0592593" stop-color="#071256"/>
<stop offset="0.963" stop-color="#030A2B"/>
</radialGradient>
<radialGradient id="paint68_radial" cx="0" cy="0" r="1" gradientUnits="userSpaceOnUse" gradientTransform="translate(189.259 278.886) scale(145.036 165.331)">
<stop offset="0.0592593" stop-color="#071256"/>
<stop offset="0.963" stop-color="#030A2B"/>
</radialGradient>
<radialGradient id="paint69_radial" cx="0" cy="0" r="1" gradientUnits="userSpaceOnUse" gradientTransform="translate(187.047 -30.0149) scale(142.407 162.333)">
<stop offset="0.0592593" stop-color="#071256"/>
<stop offset="0.963" stop-color="#030A2B"/>
</radialGradient>
<linearGradient id="paint70_linear" x1="-477.394" y1="4850.37" x2="-301.825" y2="4893.85" gradientUnits="userSpaceOnUse">
<stop stop-color="#A3DDFD"/>
<stop offset="0.06" stop-color="#9ACEF3"/>
<stop offset="0.29" stop-color="#7E9FD3"/>
<stop offset="0.5" stop-color="#697ABA"/>
<stop offset="0.69" stop-color="#595FA8"/>
<stop offset="0.87" stop-color="#4F4F9D"/>
<stop offset="1" stop-color="#4C4999"/>
</linearGradient>
<linearGradient id="paint71_linear" x1="1006.01" y1="-893" x2="941.834" y2="-952.318" gradientUnits="userSpaceOnUse">
<stop stop-color="#272425"/>
<stop offset="1" stop-color="#272425" stop-opacity="0"/>
</linearGradient>
<linearGradient id="paint72_linear" x1="859.563" y1="-794.591" x2="825.132" y2="-826.416" gradientUnits="userSpaceOnUse">
<stop stop-color="#272425"/>
<stop offset="1" stop-color="#272425" stop-opacity="0"/>
</linearGradient>
<linearGradient id="paint73_linear" x1="606.221" y1="-478.401" x2="592.952" y2="-490.666" gradientUnits="userSpaceOnUse">
<stop stop-color="#272425"/>
<stop offset="1" stop-color="#272425" stop-opacity="0"/>
</linearGradient>
<clipPath id="clip0">
<rect width="397.25" height="418.308" fill="white" transform="translate(-31.4999 -78.3079)"/>
</clipPath>
</defs>
</svg>
