<svg width="30" height="30" viewBox="0 0 30 30" fill="none" xmlns="http://www.w3.org/2000/svg">
<path fill-rule="evenodd" clip-rule="evenodd" d="M15 28.125C18.481 28.125 21.8194 26.7422 24.2808 24.2808C26.7422 21.8194 28.125 18.481 28.125 15C28.125 11.519 26.7422 8.18064 24.2808 5.71922C21.8194 3.25781 18.481 1.875 15 1.875C11.519 1.875 8.18064 3.25781 5.71922 5.71922C3.25781 8.18064 1.875 11.519 1.875 15C1.875 18.481 3.25781 21.8194 5.71922 24.2808C8.18064 26.7422 11.519 28.125 15 28.125ZM15 30C18.9782 30 22.7936 28.4196 25.6066 25.6066C28.4196 22.7936 30 18.9782 30 15C30 11.0218 28.4196 7.20644 25.6066 4.3934C22.7936 1.58035 18.9782 0 15 0C11.0218 0 7.20644 1.58035 4.3934 4.3934C1.58035 7.20644 0 11.0218 0 15C0 18.9782 1.58035 22.7936 4.3934 25.6066C7.20644 28.4196 11.0218 30 15 30Z" fill="black"/>
<path fill-rule="evenodd" clip-rule="evenodd" d="M15.6635 21.2899C15.7508 21.2028 15.82 21.0994 15.8673 20.9855C15.9146 20.8716 15.9389 20.7495 15.9389 20.6262C15.9389 20.5029 15.9146 20.3808 15.8673 20.2669C15.82 20.153 15.7508 20.0495 15.6635 19.9624L10.7003 15.0012L15.6635 10.0399C15.7506 9.95277 15.8198 9.84929 15.867 9.7354C15.9141 9.62152 15.9384 9.49945 15.9384 9.37618C15.9384 9.25291 15.9141 9.13085 15.867 9.01697C15.8198 8.90308 15.7506 8.7996 15.6635 8.71243C15.5763 8.62527 15.4728 8.55613 15.3589 8.50895C15.2451 8.46178 15.123 8.4375 14.9997 8.4375C14.8765 8.4375 14.7544 8.46178 14.6405 8.50895C14.5266 8.55613 14.4231 8.62527 14.336 8.71243L8.71097 14.3374C8.62367 14.4245 8.5544 14.528 8.50714 14.6419C8.45987 14.7558 8.43555 14.8779 8.43555 15.0012C8.43555 15.1245 8.45987 15.2466 8.50714 15.3605C8.5544 15.4744 8.62367 15.5778 8.71097 15.6649L14.336 21.2899C14.4231 21.3772 14.5265 21.4465 14.6404 21.4938C14.7543 21.541 14.8764 21.5654 14.9997 21.5654C15.123 21.5654 15.2451 21.541 15.359 21.4938C15.4729 21.4465 15.5764 21.3772 15.6635 21.2899Z" fill="black"/>
<path fill-rule="evenodd" clip-rule="evenodd" d="M21.5625 15C21.5625 14.7514 21.4637 14.5129 21.2879 14.3371C21.1121 14.1613 20.8736 14.0625 20.625 14.0625H11.25C11.0014 14.0625 10.7629 14.1613 10.5871 14.3371C10.4113 14.5129 10.3125 14.7514 10.3125 15C10.3125 15.2486 10.4113 15.4871 10.5871 15.6629C10.7629 15.8387 11.0014 15.9375 11.25 15.9375H20.625C20.8736 15.9375 21.1121 15.8387 21.2879 15.6629C21.4637 15.4871 21.5625 15.2486 21.5625 15Z" fill="black"/>
</svg>
