<svg width="21" height="18" viewBox="0 0 21 18" fill="none" xmlns="http://www.w3.org/2000/svg">
<g clip-path="url(#clip0)">
<path d="M20.5236 2.75899C19.771 3.09111 18.9623 3.31557 18.1136 3.41655C18.98 2.89973 19.6453 2.08132 19.9585 1.10619C19.1349 1.59263 18.2337 1.93535 17.294 2.11956C16.5285 1.30799 15.4381 0.800781 14.2311 0.800781C11.9137 0.800781 10.0348 2.67058 10.0348 4.97673C10.0348 5.30408 10.072 5.62276 10.1435 5.92848C6.65613 5.75427 3.56424 4.09177 1.49459 1.56521C1.13347 2.18198 0.926544 2.89941 0.926544 3.66463C0.926544 5.11349 1.6674 6.39164 2.79326 7.14056C2.12691 7.11979 1.47521 6.94067 0.892589 6.61817C0.892349 6.63566 0.892349 6.65315 0.892349 6.67073C0.892349 8.69406 2.33875 10.3819 4.25828 10.7656C3.64037 10.9328 2.99222 10.9573 2.36336 10.8371C2.89729 12.4962 4.44699 13.7035 6.28311 13.7373C4.84702 14.8573 3.03766 15.525 1.07179 15.525C0.733041 15.525 0.399085 15.5052 0.0708008 15.4666C1.92777 16.6515 4.1334 17.3428 6.50306 17.3428C14.2214 17.3428 18.4419 10.9795 18.4419 5.46104C18.4419 5.27991 18.4379 5.09981 18.4298 4.92075C19.2513 4.32973 19.9603 3.59769 20.5236 2.75899Z" fill="#55ACEE"/>
</g>
<defs>
<clipPath id="clip0">
<rect width="20.4528" height="16.6179" fill="white" transform="translate(0.0708008 0.736328)"/>
</clipPath>
</defs>
</svg>
