<svg width="48" height="48" viewBox="0 0 48 48" fill="none" xmlns="http://www.w3.org/2000/svg">
<circle cx="24" cy="24" r="24" fill="#FF4C61" fill-opacity="0.05"/>
<path fill-rule="evenodd" clip-rule="evenodd" d="M24.0008 26.5092L28.6509 31.2702C29.1174 31.7515 29.4209 31.7564 29.8959 31.2702L30.8289 30.3147C31.286 29.8469 31.3169 29.5398 30.8289 29.0401L25.9058 24.0003L30.8293 18.9605C31.2905 18.4868 31.2994 18.1671 30.8293 17.6854L29.8964 16.7304C29.4124 16.2347 29.1134 16.2576 28.6514 16.7304L24.0008 21.4914L19.3507 16.7309C18.8887 16.2581 18.5897 16.2352 18.1057 16.7309L17.1727 17.6858C16.7022 18.1676 16.7107 18.4873 17.1727 18.9609L22.0958 24.0003L17.1727 29.0401C16.6847 29.5398 16.7107 29.8469 17.1727 30.3147L18.1053 31.2702C18.5762 31.7564 18.8798 31.7515 19.3503 31.2702L24.0008 26.5092Z" fill="#FF0000"/>
</svg>
