<svg width="1024" height="1025" viewBox="0 0 1024 1025" fill="none" xmlns="http://www.w3.org/2000/svg">
<path d="M244.254 625.522C324.446 683.981 404.87 740.696 474.389 839.576C467.986 856.939 461.68 854.27 455.869 848.763C409.914 805.167 361.491 773.342 312.073 746.883C282.993 731.32 253.33 719.538 223.963 705.846C216.726 702.559 209.669 698.752 202.832 694.448C194.63 689.164 190.261 678.138 190.261 661.568C190.261 448.744 190.269 235.919 190.285 23.0918C190.447 19.2634 190.809 15.4501 191.371 11.6737C195.969 0.388253 201.701 -0.500473 207.869 1.94565C297.704 37.6529 384.25 90.1473 464.474 174.896C466.421 176.958 468.544 178.939 469.238 191.793C443.886 174.018 420.355 156.317 396.383 141.025C371.645 125.228 346.573 111.121 321.459 97.5478C296.644 83.6672 270.806 72.4403 244.261 64.0045L244.254 625.522Z" fill="url(#paint0_linear)"/>
<path d="M544.916 840.406C615.697 742.056 695.395 682.878 776.081 625.92V63.8013C698.229 90.5394 624.821 136.367 549.946 194.431C567.738 132.948 799.048 -17.2425 827.377 8.12163C830.96 17.1303 830.06 27.6511 830.06 37.7065C830.14 241.212 830.177 444.717 830.171 648.223C830.171 683.408 826.538 692.501 807.214 700.539C748.008 725.139 689.441 753.753 632.652 793.867C610.275 809.476 588.748 826.692 568.194 845.417C561.774 851.33 555.022 859.089 544.916 840.406Z" fill="url(#paint1_linear)"/>
<path d="M871.464 740.75V116.874C887.23 109.891 901.318 110.667 915.265 114.363C923.334 116.51 926.048 128.919 926.138 142.93C926.29 165.055 926.29 187.172 926.297 209.297C926.345 392.227 926.382 575.154 926.408 758.078C926.408 801.423 922.681 806.042 899.036 807.986C823.435 814.167 748.056 824.781 673.461 850.408C637.061 863.019 601.231 877.776 566.107 894.621C561.422 896.853 556.616 902.36 547.924 890.226C652.137 806.688 759.542 765.882 871.464 740.75Z" fill="url(#paint2_linear)"/>
<path d="M148.397 740.393C260.694 765.402 367.688 807.505 470.203 888.061C464.678 904.202 458.924 897.295 454.237 894.832C399.822 866.088 344.263 847.698 288.345 833.18C242.924 821.389 197.377 811.492 151.35 811.98C137.621 812.118 123.848 809.46 110.153 807.311C99.9262 805.714 94.4186 794.679 94.0905 775.505C93.883 763.602 93.924 751.673 93.924 739.758C93.916 547.371 93.9345 354.981 93.9795 162.588C93.9795 149.968 92.8939 136.998 96.7659 121.811C111.788 104.214 128.982 113.753 148.392 114.334L148.397 740.393Z" fill="url(#paint3_linear)"/>
<path d="M273.486 1024.82C268.784 1010.51 269.626 998.851 271.235 984.408C286.856 961.883 306.735 963.226 325.501 960.452C344.682 957.631 364.074 959.49 383.366 959.49C482.598 959.469 581.83 959.453 681.061 959.442C698.277 959.501 715.362 962.934 731.607 969.599C737.879 972.119 744.202 974.96 748.841 985.667C751.459 998.661 750.803 1012.26 746.95 1024.83L273.486 1024.82Z" fill="#0D005F"/>
<path d="M600.543 284.435L501.705 194.676L495.268 338.662L535.257 318.066L558.834 370.614L584.406 354.915L561.748 304.413L600.543 284.435Z" fill="#082679"/>
<path d="M2.96208 229.718C18.4403 217.234 35.0042 217.496 54.1059 217.702V838.816C61.5845 857.719 69.2705 856.28 76.5416 856.308C132.139 856.542 187.734 856.308 243.331 856.737C300.264 857.186 355.268 881.399 410.407 903.992C412.348 904.475 414.12 905.63 415.493 907.307C416.865 908.983 417.774 911.104 418.103 913.393C414.084 922.475 408.665 919.253 403.983 919.261C281.308 919.495 158.631 919.563 35.9498 919.467C31.8083 919.466 27.6696 919.216 23.5499 918.72C5.75568 916.553 0.872921 907.319 0.858446 874.593C0.778835 767.28 1.95368 659.918 0.482091 552.675C-0.827866 457.349 1.00077 362.137 0.513454 266.87C0.46038 255.904 -0.263355 244.708 2.96208 229.718Z" fill="url(#paint4_linear)"/>
<path d="M971.87 219.755C988.154 214.959 1010.18 220.288 1020.67 231.286C1024.38 241.022 1023.13 252.472 1023.16 263.32C1023.53 419.247 1023.81 575.188 1024 731.142C1024.03 780.388 1023.65 829.638 1022.85 878.892C1022.33 910.491 1017.47 918.904 999.811 919.186C963.95 919.765 928.089 919.356 892.23 919.356C802.571 919.356 712.908 919.313 623.243 919.226C617.523 919.226 611.385 921.667 605.873 914.627C606.992 904.095 611.993 904.984 615.494 903.469C675.971 877.323 736.599 854.044 799.296 856.07C848.932 857.686 898.599 856.352 948.259 856.228C967.101 856.191 968.985 852.882 969.006 818.466C969.087 630.983 969.15 443.503 969.197 256.026C969.192 244.38 967.844 232.175 971.87 219.755Z" fill="url(#paint5_linear)"/>
<defs>
<linearGradient id="paint0_linear" x1="332.325" y1="0.8302" x2="332.325" y2="852.927" gradientUnits="userSpaceOnUse">
<stop stop-color="#FEE140"/>
<stop offset="1" stop-color="#FF7B00"/>
</linearGradient>
<linearGradient id="paint1_linear" x1="687.544" y1="5.2644" x2="687.544" y2="852.163" gradientUnits="userSpaceOnUse">
<stop stop-color="#FEE140"/>
<stop offset="1" stop-color="#FF7B00"/>
</linearGradient>
<linearGradient id="paint2_linear" x1="737.166" y1="111.588" x2="737.166" y2="897.819" gradientUnits="userSpaceOnUse">
<stop stop-color="#FEE140"/>
<stop offset="1" stop-color="#FF7B00"/>
</linearGradient>
<linearGradient id="paint3_linear" x1="282.021" y1="111.234" x2="282.021" y2="898.423" gradientUnits="userSpaceOnUse">
<stop stop-color="#FEE140"/>
<stop offset="1" stop-color="#FF7B00"/>
</linearGradient>
<linearGradient id="paint4_linear" x1="209.051" y1="217.647" x2="209.051" y2="919.81" gradientUnits="userSpaceOnUse">
<stop stop-color="#064586"/>
<stop offset="0.325" stop-color="#0A1472"/>
<stop offset="1" stop-color="#0D005F"/>
</linearGradient>
<linearGradient id="paint5_linear" x1="814.936" y1="217.987" x2="814.936" y2="919.635" gradientUnits="userSpaceOnUse">
<stop stop-color="#064586"/>
<stop offset="0.325" stop-color="#0A1472"/>
<stop offset="1" stop-color="#0D005F"/>
</linearGradient>
</defs>
</svg>
